<svg width="112" height="112" viewBox="0 0 112 112" fill="none" xmlns="http://www.w3.org/2000/svg">
<path fill-rule="evenodd" clip-rule="evenodd" d="M34.1105 65.7449L37.3791 65.5317C37.8846 65.4987 38.3922 65.5313 38.8893 65.6286L65.6164 70.86C69.5769 71.6352 73.121 68.2764 72.5593 64.28L71.4842 56.6304L77.4354 54.2035C79.3028 53.4421 80.4143 51.5096 80.1337 49.5126L79.1857 42.7671C78.905 40.7701 77.3038 39.2188 75.2989 39.0016L68.9094 38.3091L67.8343 30.6594C67.2726 26.663 62.94 24.4112 59.3466 26.248L35.0969 38.6438C34.6458 38.8743 34.1668 39.0456 33.6719 39.1532L17.6891 42.6286C14.6857 43.2817 12.6941 46.1402 13.1218 49.1839L14.8603 61.554C15.2881 64.5976 17.9905 66.7964 21.0575 66.5964L21.5068 66.5671C21.3438 74.0018 21.6038 79.3738 22.3856 87.1847C22.51 88.4282 23.6496 89.315 24.8863 89.135L33.631 87.8627C35.4791 87.5939 36.4442 85.4895 35.6718 83.7892C32.6398 77.1154 32.6609 70.1685 34.1105 65.7449ZM18.5858 46.7528L28.1934 44.6637L30.594 61.7448L20.7828 62.3848C19.9202 62.441 19.1601 61.8226 19.0398 60.9666L17.3013 48.5965C17.181 47.7404 17.7411 46.9365 18.5858 46.7528ZM34.8174 61.4693L32.3291 43.7644L34.5687 43.2774C35.4194 43.0924 36.2426 42.7981 37.0179 42.4018L61.2676 30.0061C62.2783 29.4895 63.4968 30.1228 63.6548 31.2468L68.3798 64.8674C68.5378 65.9914 67.541 66.9361 66.4271 66.718L39.7001 61.4866C38.8456 61.3194 37.9732 61.2634 37.1044 61.3201L34.8174 61.4693ZM25.5508 66.3033L29.8371 66.0237C28.6059 71.0653 28.8631 77.71 31.4186 84.1051L26.2165 84.8619C25.5858 78.1082 25.3902 73.1262 25.5508 66.3033ZM71.7506 42.8623L74.8442 43.1976C74.9278 43.2066 74.9945 43.2713 75.0062 43.3545L75.9542 50.1C75.9659 50.1832 75.9196 50.2637 75.8418 50.2954L72.9604 51.4704L71.7506 42.8623Z" fill="#2642CF" style="fill:#2642CF;fill:color(display-p3 0.1490 0.2588 0.8118);fill-opacity:1;"/>
<mask id="mask0_1_14755" style="mask-type:alpha" maskUnits="userSpaceOnUse" x="84" y="41" width="16" height="6">
<path d="M97.5793 43.2709L86.9708 44.7618" stroke="url(#paint0_radial_1_14755)" style="" stroke-width="4.22056" stroke-linecap="round" stroke-linejoin="round"/>
</mask>
<g mask="url(#mask0_1_14755)">
<path d="M97.5793 43.2709L86.9708 44.7618" stroke="#E47789" style="stroke:#E47789;stroke:color(display-p3 0.8945 0.4663 0.5370);stroke-opacity:1;" stroke-width="4.22056" stroke-linecap="round" stroke-linejoin="round"/>
</g>
<mask id="mask1_1_14755" style="mask-type:alpha" maskUnits="userSpaceOnUse" x="78" y="23" width="12" height="14">
<path d="M87.5479 25.5431L81.1007 34.0987" stroke="url(#paint1_radial_1_14755)" style="" stroke-width="4.22056" stroke-linecap="round" stroke-linejoin="round"/>
</mask>
<g mask="url(#mask1_1_14755)">
<path d="M87.5479 25.5431L81.1007 34.0987" stroke="#E47789" style="stroke:#E47789;stroke:color(display-p3 0.8945 0.4663 0.5370);stroke-opacity:1;" stroke-width="4.22056" stroke-linecap="round" stroke-linejoin="round"/>
</g>
<mask id="mask2_1_14755" style="mask-type:alpha" maskUnits="userSpaceOnUse" x="82" y="54" width="13" height="12">
<path d="M92.813 63.0066L84.2573 56.5594" stroke="url(#paint2_radial_1_14755)" style="" stroke-width="4.22056" stroke-linecap="round" stroke-linejoin="round"/>
</mask>
<g mask="url(#mask2_1_14755)">
<path d="M92.813 63.0066L84.2573 56.5594" stroke="#E47789" style="stroke:#E47789;stroke:color(display-p3 0.8945 0.4663 0.5370);stroke-opacity:1;" stroke-width="4.22056" stroke-linecap="round" stroke-linejoin="round"/>
</g>
<defs>
<radialGradient id="paint0_radial_1_14755" cx="0" cy="0" r="1" gradientUnits="userSpaceOnUse" gradientTransform="translate(84.7045 45.16) rotate(-8) scale(6.6004 23.6126)">
<stop stop-opacity="0" style="stop-color:none;stop-opacity:0;"/>
<stop offset="1" style="stop-color:black;stop-opacity:1;"/>
</radialGradient>
<radialGradient id="paint1_radial_1_14755" cx="0" cy="0" r="1" gradientTransform="matrix(5.95357 -5.97966 -23.7971 -18.1068 79.3074 36.6097)" gradientUnits="userSpaceOnUse">
<stop stop-opacity="0" style="stop-color:none;stop-opacity:0;"/>
<stop offset="1" style="stop-color:black;stop-opacity:1;"/>
</radialGradient>
<radialGradient id="paint2_radial_1_14755" cx="0" cy="0" r="1" gradientUnits="userSpaceOnUse" gradientTransform="translate(82.4683 55.1124) rotate(37) scale(6.6004 23.6126)">
<stop stop-opacity="0" style="stop-color:none;stop-opacity:0;"/>
<stop offset="1" style="stop-color:black;stop-opacity:1;"/>
</radialGradient>
</defs>
</svg>
