<svg width="112" height="112" viewBox="0 0 112 112" fill="none" xmlns="http://www.w3.org/2000/svg">
<mask id="mask0_1_1558" style="mask-type:alpha" maskUnits="userSpaceOnUse" x="54" y="18" width="29" height="24">
<path d="M54.9227 26.5254C55.3628 25.2027 55.9922 23.9091 56.8194 22.6827C57.8942 21.0892 59.1992 19.7631 60.6501 18.7177C65.4784 20.709 69.1664 22.5919 72.5391 24.8709C75.9125 27.1504 79.037 29.8709 82.6999 33.5966C82.274 35.3316 81.5336 37.0366 80.4599 38.6284C79.6306 39.8579 78.6642 40.9283 77.5995 41.8334C72.4918 39.9123 68.673 38.0508 65.2303 35.7184C61.7863 33.3853 58.6376 30.5262 54.9227 26.5254Z" fill="url(#paint0_linear_1_1558)" style=""/>
</mask>
<g mask="url(#mask0_1_1558)">
<path d="M54.9227 26.5254C55.3628 25.2027 55.9922 23.9091 56.8194 22.6827C57.8942 21.0892 59.1992 19.7631 60.6501 18.7177C65.4784 20.709 69.1664 22.5919 72.5391 24.8709C75.9125 27.1504 79.037 29.8709 82.6999 33.5966C82.274 35.3316 81.5336 37.0366 80.4599 38.6284C79.6306 39.8579 78.6642 40.9283 77.5995 41.8334C72.4918 39.9123 68.673 38.0508 65.2303 35.7184C61.7863 33.3853 58.6376 30.5262 54.9227 26.5254Z" fill="#2642CF" style="fill:#2642CF;fill:color(display-p3 0.1490 0.2588 0.8118);fill-opacity:1;"/>
</g>
<path d="M77.3843 7.14497C77.847 7.14497 78.2243 6.76764 78.2243 6.30497C78.2243 5.84229 77.847 5.46497 77.3843 5.46497C76.9216 5.46497 76.5443 5.84229 76.5443 6.30497C76.5444 6.76755 76.9217 7.14497 77.3843 7.14497Z" fill="#2642CF" style="fill:#2642CF;fill:color(display-p3 0.1490 0.2588 0.8118);fill-opacity:1;"/>
<path d="M95.5914 8.79521C95.5914 10.4962 94.2124 11.8752 92.5114 11.8752C90.8104 11.8752 89.4314 10.4962 89.4314 8.79521C89.4314 7.09417 90.8104 5.71521 92.5114 5.71521C94.2124 5.71521 95.5914 7.09417 95.5914 8.79521Z" fill="#2642CF" style="fill:#2642CF;fill:color(display-p3 0.1490 0.2588 0.8118);fill-opacity:1;"/>
<path d="M80.8962 88.1599C82.5972 88.1599 83.9762 86.7809 83.9762 85.0799C83.9762 83.3788 82.5972 81.9999 80.8962 81.9999C79.1951 81.9999 77.8162 83.3788 77.8162 85.0799C77.8162 86.7809 79.1951 88.1599 80.8962 88.1599Z" fill="#2642CF" style="fill:#2642CF;fill:color(display-p3 0.1490 0.2588 0.8118);fill-opacity:1;"/>
<path d="M94.0988 80.9402C94.0988 81.6342 93.5328 82.2002 92.8388 82.2002C92.1449 82.2002 91.5789 81.6341 91.5788 80.9402C91.5788 80.2462 92.1448 79.6802 92.8388 79.6802C93.5328 79.6802 94.0988 80.2462 94.0988 80.9402Z" fill="#2642CF" style="fill:#2642CF;fill:color(display-p3 0.1490 0.2588 0.8118);fill-opacity:1;"/>
<path d="M60.3298 96.4193C60.3298 97.1133 59.7638 97.6793 59.0698 97.6793C58.3759 97.6793 57.8099 97.1132 57.8098 96.4193C57.8098 95.7253 58.3758 95.1593 59.0698 95.1593C59.7638 95.1593 60.3298 95.7253 60.3298 96.4193Z" fill="#2642CF" style="fill:#2642CF;fill:color(display-p3 0.1490 0.2588 0.8118);fill-opacity:1;"/>
<path d="M8.8892 64.356C8.8892 64.7416 8.57476 65.056 8.1892 65.056C7.80371 65.056 7.48927 64.7415 7.4892 64.356C7.4892 63.9704 7.80364 63.656 8.1892 63.656C8.57476 63.656 8.8892 63.9704 8.8892 64.356Z" fill="#2642CF" style="fill:#2642CF;fill:color(display-p3 0.1490 0.2588 0.8118);fill-opacity:1;"/>
<path d="M100.071 44.4951C100.071 45.1891 99.5054 45.7551 98.8114 45.7551C98.1175 45.7551 97.5515 45.189 97.5514 44.4951C97.5514 43.8011 98.1174 43.2351 98.8114 43.2351C99.5054 43.2351 100.071 43.8011 100.071 44.4951Z" fill="#2642CF" style="fill:#2642CF;fill:color(display-p3 0.1490 0.2588 0.8118);fill-opacity:1;"/>
<path d="M19.4314 8.65514C19.4314 9.34915 18.8654 9.91514 18.1714 9.91514C17.4775 9.91514 16.9115 9.34902 16.9114 8.65514C16.9114 7.96113 17.4774 7.39514 18.1714 7.39514C18.8654 7.39514 19.4314 7.96113 19.4314 8.65514Z" fill="#2642CF" style="fill:#2642CF;fill:color(display-p3 0.1490 0.2588 0.8118);fill-opacity:1;"/>
<path d="M18.0179 50.7728C18.0179 51.4668 17.4519 52.0328 16.7579 52.0328C16.0639 52.0328 15.4979 51.4668 15.4979 50.7728C15.4979 50.0788 16.0639 49.5128 16.7579 49.5128C17.4519 49.5128 18.0179 50.0788 18.0179 50.7728Z" fill="#2642CF" style="fill:#2642CF;fill:color(display-p3 0.1490 0.2588 0.8118);fill-opacity:1;"/>
<path d="M34.4214 6.76738C34.5935 6.13945 35.2421 5.76999 35.8701 5.94217L38.144 6.56565C39.2948 6.88117 40.3334 7.60012 40.9675 8.68583C41.6093 9.78447 41.7759 11.1534 41.367 12.6447C40.6309 15.3293 37.8085 16.7625 35.5202 16.1351L34.7622 15.9273L34.2426 17.8223C34.0704 18.4502 33.4218 18.8197 32.7939 18.6475C32.1659 18.4754 31.7965 17.8268 31.9686 17.1988L32.6961 14.5458C32.9256 13.7085 33.7905 13.2159 34.6277 13.4455L36.1437 13.8611C37.1812 14.1456 38.7027 13.4448 39.0931 12.0212C39.3568 11.0593 39.2128 10.3565 38.9315 9.87508C38.6428 9.38071 38.1461 9.01113 37.5205 8.83961L35.2466 8.21611C34.6186 8.04393 34.2492 7.39531 34.4214 6.76738Z" fill="#2642CF" style="fill:#2642CF;fill:color(display-p3 0.1490 0.2588 0.8118);fill-opacity:1;"/>
<path d="M31.9692 21.4548C32.4389 21.5836 33.2992 21.1798 33.428 20.7101C33.5568 20.2404 33.153 19.38 32.6833 19.2512C32.2136 19.1224 31.3533 19.5262 31.2245 19.9959C31.0958 20.4655 31.4996 21.326 31.9692 21.4548Z" fill="#2642CF" style="fill:#2642CF;fill:color(display-p3 0.1490 0.2588 0.8118);fill-opacity:1;"/>
<path d="M101.958 19.5711C102.478 19.1788 103.217 19.282 103.61 19.8017L105.03 21.6836C105.749 22.636 106.133 23.8394 105.973 25.0865C105.81 26.3484 105.107 27.5344 103.872 28.4661C101.651 30.1432 98.5402 29.5557 97.1106 27.6619L96.6371 27.0346L95.0688 28.2184C94.5491 28.6107 93.8098 28.5075 93.4175 27.9878C93.0253 27.4681 93.1285 26.7288 93.6482 26.3366L95.8438 24.6791C96.5367 24.1561 97.5224 24.2938 98.0455 24.9867L98.9925 26.2413C99.6407 27.0999 101.274 27.4736 102.452 26.5842C103.248 25.9832 103.563 25.3387 103.634 24.7857C103.707 24.2178 103.539 23.6219 103.148 23.1042L101.728 21.2223C101.335 20.7026 101.439 19.9633 101.958 19.5711Z" fill="#2642CF" style="fill:#2642CF;fill:color(display-p3 0.1490 0.2588 0.8118);fill-opacity:1;"/>
<path d="M91.0508 29.708C91.3442 30.0967 92.2722 30.302 92.6609 30.0086C93.0496 29.7152 93.2549 28.7872 92.9615 28.3985C92.6681 28.0098 91.7401 27.8044 91.3514 28.0979C90.9628 28.3913 90.7574 29.3193 91.0508 29.708Z" fill="#2642CF" style="fill:#2642CF;fill:color(display-p3 0.1490 0.2588 0.8118);fill-opacity:1;"/>
<path d="M7.17035 18.3152C6.51924 18.3152 5.9914 18.843 5.99139 19.4942C5.99139 20.1453 6.51921 20.6731 7.17032 20.6731H9.52823C10.1769 20.6731 10.7536 20.8982 11.1628 21.2986C11.5613 21.6886 11.8861 22.3282 11.8861 23.3256C11.8861 24.8018 10.6041 25.88 9.52821 25.88H7.9563C7.08816 25.88 6.38437 26.5837 6.38437 27.4519V30.2029C6.38437 30.854 6.9122 31.3818 7.56331 31.3818C8.21442 31.3818 8.74225 30.854 8.74225 30.2029V28.2379H9.52821C11.901 28.2379 14.244 26.1093 14.244 23.3256C14.244 21.7793 13.7213 20.5031 12.8119 19.6133C11.9132 18.7339 10.7215 18.3152 9.52819 18.3152H7.17035Z" fill="#2642CF" style="fill:#2642CF;fill:color(display-p3 0.1490 0.2588 0.8118);fill-opacity:1;"/>
<path d="M8.72029 33.2032C8.72029 33.6902 7.99731 34.3072 7.51029 34.3072C7.02336 34.3072 6.40642 33.5841 6.40634 33.0972C6.40634 32.6102 7.12931 31.9932 7.61633 31.9932C8.10335 31.9932 8.72029 32.7162 8.72029 33.2032Z" fill="#2642CF" style="fill:#2642CF;fill:color(display-p3 0.1490 0.2588 0.8118);fill-opacity:1;"/>
<path fill-rule="evenodd" clip-rule="evenodd" d="M50.68 45.8347C49.4621 45.0132 47.8088 45.3345 46.9873 46.5524L41.5072 54.677C40.6857 55.8949 41.0071 57.5482 42.225 58.3697L53.5994 66.0418C54.8173 66.8633 56.4706 66.542 57.2921 65.324L62.7722 57.1995C63.5937 55.9816 63.2723 54.3283 62.0544 53.5068L50.68 45.8347ZM45.8504 55.7489L49.6081 50.1778L58.4291 56.1276L54.6713 61.6987L45.8504 55.7489Z" fill="#2642CF" style="fill:#2642CF;fill:color(display-p3 0.1490 0.2588 0.8118);fill-opacity:1;"/>
<path fill-rule="evenodd" clip-rule="evenodd" d="M53.5035 14.7203C50.584 14.7785 45.9516 15.6382 43.4431 19.3569L38.7424 26.3249C33.443 26.2291 27.6161 26.1745 23.4252 26.1446C19.0066 26.113 15.4031 29.6356 15.3006 34.0399C15.1963 38.5206 18.7514 42.2337 23.2324 42.3241L28.1942 42.4242L26.4439 45.0192C25.0612 47.0691 24.6184 49.6113 25.2266 52.008L26.9377 58.751L11.2853 75.9448C7.59413 79.9995 7.79577 86.2542 11.7404 90.0627C15.7707 93.9539 22.1931 93.8386 26.081 89.8051L34.9103 80.6454L29.725 92.2631C27.4417 97.3788 29.7406 103.377 34.8583 105.656C39.8672 107.887 45.742 105.731 48.1187 100.789L58.1464 79.9409L63.5558 79.2037L62.7421 84.5159C62.0404 89.0969 64.8933 93.4736 69.3678 94.6806C72.1112 95.4206 73.9005 98.0562 73.5759 100.879L73.1758 104.358C73.0699 105.279 73.7312 106.112 74.6529 106.218C75.5747 106.324 76.4079 105.663 76.5139 104.741L76.9139 101.263C77.4285 96.7879 74.5919 92.6096 70.2428 91.4365C67.4203 90.6752 65.6207 87.9144 66.0633 85.0247L67.0605 78.5149C68.7463 77.8889 70.2122 76.7482 71.2353 75.2314L75.457 68.9725C76.7182 70.2262 78.2216 71.2177 79.8807 71.8834L88.7224 75.4312C93.0573 77.1706 97.8929 74.4727 98.6895 69.8702C99.2729 66.4993 97.4506 63.1722 94.2958 61.8489L85.7159 58.2496C85.6895 58.2386 85.6671 58.2197 85.6518 58.1955L84.2993 56.062L88.5395 49.7748C91.0477 46.0559 90.1095 41.4388 89.0698 38.71C88.3157 36.731 87.3236 34.9855 86.534 33.7483C86.181 33.1951 85.863 32.7352 85.6164 32.392C86.4689 26.1452 83.9744 19.7392 78.5031 16.0375L78.4835 16.0242C73.0018 12.338 66.1277 12.425 60.6552 15.5555C60.2445 15.4554 59.699 15.3328 59.0539 15.2127C57.611 14.9441 55.621 14.6781 53.5035 14.7203ZM29.6937 47.2112L32.8591 42.5183L39.8064 42.6585L34.1607 50.8166L30.1004 55.2769L29.0262 51.0438C28.6926 49.7295 28.9355 48.3353 29.6937 47.2112ZM64.6821 75.094L60.1828 75.7072L62.8478 70.1663L68.8665 61.0092L72.8265 65.8623L67.9855 73.0393C67.2272 74.1635 66.0256 74.9109 64.6821 75.094ZM76.1447 19.5128C73.3422 17.6264 69.9849 17.0543 66.7951 17.6807C69.644 19.0049 72.1289 20.378 74.487 21.9705C76.8468 23.5603 79.0508 25.3499 81.3458 27.4953C80.7317 24.3031 78.9436 21.4046 76.1447 19.5128ZM72.1468 25.4581C75.1528 27.4841 77.9387 29.9027 81.1935 33.225C80.8137 34.7746 80.1528 36.2974 79.1939 37.719C78.4559 38.8132 77.5961 39.7661 76.649 40.5723C72.1045 38.8388 68.6904 37.192 65.6128 35.1271C62.5453 33.0471 59.7394 30.4985 56.4298 26.9342C56.8225 25.7541 57.3839 24.6 58.122 23.5058C59.0809 22.0842 60.2452 20.901 61.5397 19.9683C65.8393 21.7416 69.1255 23.4186 72.13 25.4468L72.1468 25.4581ZM63.2642 38.609L63.2703 38.6132C65.8761 40.3618 68.655 41.8095 71.9071 43.1928C68.3247 44.3096 64.3835 43.8742 61.1712 41.712C57.963 39.5435 56.0829 36.0525 55.7765 32.3126C58.2773 34.8096 60.6606 36.8439 63.258 38.6049L63.2642 38.609ZM51.5368 31.4136C51.59 36.7917 54.1141 42.0083 58.8324 45.2006C63.3362 48.2291 68.7798 48.7108 73.6139 47.05L82.1044 60.4441C82.5795 61.1936 83.2729 61.7794 84.0911 62.1227L92.6711 65.7219C94.0209 66.2881 94.8006 67.7116 94.551 69.1539C94.2102 71.1231 92.1412 72.2775 90.2865 71.5332L81.4447 67.9855C80.016 67.4122 78.756 66.4858 77.7828 65.2931L70.5729 56.457C70.4129 56.1483 70.1738 55.8751 69.8625 55.6705C68.8933 55.0334 67.5912 55.3027 66.9542 56.2719L59.2612 67.9765C59.2612 67.9765 49.1603 88.934 44.3337 98.9687C42.9417 101.863 39.5007 103.126 36.5669 101.819C33.5695 100.484 32.223 96.9712 33.5604 93.9749L43.1671 72.4508C43.6165 71.4439 43.209 70.2719 42.2576 69.7526C41.4198 69.065 40.1804 69.1262 39.4151 69.9201L23.0571 86.8903C20.7799 89.2527 17.0183 89.3203 14.6577 87.0412C12.3473 84.8105 12.2292 81.1471 14.3911 78.7722C21.8871 70.5381 37.5347 53.3218 37.5347 53.3218L45.5051 41.8043C46.1651 40.8506 45.927 39.5425 44.9733 38.8825C44.5177 38.5672 43.9812 38.4569 43.4731 38.5316L23.3171 38.125C21.1604 38.0815 19.4492 36.2943 19.4995 34.1377C19.5489 32.0127 21.2829 30.3294 23.3952 30.3445C29.0882 30.3851 37.7193 30.471 43.9565 30.641C46.4825 30.7315 49.0627 30.8609 51.5368 31.4136ZM44.9343 26.4531C45.883 26.4637 46.8304 26.4743 47.779 26.5669C49.1617 26.6308 50.668 26.802 52.0036 27.1848C52.4921 25.0918 53.3661 23.0458 54.64 21.1572C55.148 20.4041 55.703 19.7005 56.2982 19.0484C55.4475 18.9562 54.5247 18.9008 53.5872 18.9195C51.0377 18.9703 48.2443 19.7497 46.9249 21.7057L43.7358 26.4336C44.1356 26.4442 44.5353 26.4487 44.9343 26.4531ZM85.0574 47.4264C86.3767 45.4703 86.053 42.5884 85.145 40.2055C84.8112 39.3293 84.4141 38.4944 84.01 37.7402C83.6283 38.5364 83.1839 39.3145 82.6759 40.0676C81.3967 41.964 79.8194 43.5461 78.053 44.7853C77.8298 44.9376 77.6209 45.0769 77.4184 45.207L81.8446 52.1896L85.0574 47.4264Z" fill="#2642CF" style="fill:#2642CF;fill:color(display-p3 0.1490 0.2588 0.8118);fill-opacity:1;"/>
<path fill-rule="evenodd" clip-rule="evenodd" d="M50.68 45.8347C49.4621 45.0132 47.8088 45.3345 46.9873 46.5525L41.5072 54.677C40.6857 55.8949 41.0071 57.5482 42.225 58.3697L53.5994 66.0418C54.8173 66.8633 56.4706 66.542 57.2921 65.3241L62.7722 57.1995C63.5937 55.9816 63.2723 54.3283 62.0544 53.5068L50.68 45.8347ZM45.8503 55.7489L49.6081 50.1778L58.4291 56.1276L54.6713 61.6987L45.8503 55.7489Z" fill="#E47789" style="fill:#E47789;fill:color(display-p3 0.8945 0.4663 0.5370);fill-opacity:1;"/>
<defs>
<linearGradient id="paint0_linear_1_1558" x1="75.0693" y1="21.1232" x2="61.3833" y2="41.4135" gradientUnits="userSpaceOnUse">
<stop stop-opacity="0" style="stop-color:none;stop-opacity:0;"/>
<stop offset="1" style="stop-color:black;stop-opacity:1;"/>
</linearGradient>
</defs>
</svg>
