<svg width="112" height="112" viewBox="0 0 112 112" fill="none" xmlns="http://www.w3.org/2000/svg">
<path d="M85.6001 75.8887C84.8818 76.9588 83.4095 77.1447 82.3887 76.3579C81.3679 75.5712 81.1863 74.1102 81.894 73.0331C85.2997 67.8497 87.0815 61.7458 86.9784 55.5087C86.8625 48.4915 84.3676 41.7215 79.9022 36.3072C75.4368 30.8929 69.2654 27.155 62.3986 25.7056C55.5317 24.2561 48.3762 25.181 42.1035 28.3287C35.8308 31.4765 30.8127 36.6606 27.8706 43.0324C24.9286 49.4041 24.237 56.5859 25.9091 63.402C27.5811 70.2181 31.5177 76.2646 37.0745 80.5515C42.0134 84.3618 47.9721 86.5814 54.1634 86.9489C55.4499 87.0253 56.5127 88.044 56.5334 89.3327C56.554 90.6213 55.525 91.6906 54.2378 91.627C46.9883 91.2684 39.9998 88.703 34.2236 84.2468C27.8299 79.3141 23.3002 72.3568 21.3763 64.514C19.4524 56.6711 20.2482 48.4075 23.6334 41.0759C27.0186 33.7443 32.7927 27.7793 40.0102 24.1574C47.2278 20.5355 55.4612 19.4713 63.3625 21.139C71.2637 22.8068 78.3647 27.1077 83.5027 33.3377C88.6408 39.5676 91.5115 47.3573 91.6449 55.4316C91.7654 62.726 89.6454 69.8622 85.6001 75.8887Z" fill="#2642CF" style="fill:#2642CF;fill:color(display-p3 0.1490 0.2588 0.8118);fill-opacity:1;"/>
<path d="M59.6601 39.9451C59.7057 39.0903 59.0249 38.3721 58.1689 38.3721H53.9272C53.0724 38.3721 52.3921 39.0883 52.4358 39.9419L53.4808 60.3197C53.5215 61.1137 54.1772 61.7366 54.9722 61.7366H57.0805C57.8743 61.7366 58.5293 61.1156 58.5717 60.3229L59.6601 39.9451Z" fill="#2642CF" style="fill:#2642CF;fill:color(display-p3 0.1490 0.2588 0.8118);fill-opacity:1;"/>
<path d="M52.0059 69.7744C52.0059 70.8725 52.3882 71.7962 53.1543 72.5453C53.9193 73.294 54.8843 73.6688 56.0498 73.6688C57.1808 73.6688 58.1216 73.294 58.8705 72.5453C59.6194 71.7962 59.9937 70.8725 59.9937 69.7744C59.9937 68.6763 59.6194 67.7609 58.8705 67.0285C58.1216 66.297 57.1808 65.9304 56.0498 65.9304C54.8843 65.9304 53.9193 66.297 53.1543 67.0285C52.3882 67.7609 52.0059 68.6763 52.0059 69.7744Z" fill="#2642CF" style="fill:#2642CF;fill:color(display-p3 0.1490 0.2588 0.8118);fill-opacity:1;"/>
<path d="M59.66 39.9451C59.7057 39.0903 59.0249 38.3721 58.1688 38.3721H53.9272C53.0724 38.3721 52.392 39.0883 52.4358 39.9419L53.4808 60.3197C53.5215 61.1137 54.1771 61.7366 54.9722 61.7366H57.0804C57.8742 61.7366 58.5293 61.1156 58.5716 60.3229L59.66 39.9451Z" fill="#E47789" style="fill:#E47789;fill:color(display-p3 0.8945 0.4663 0.5370);fill-opacity:1;"/>
<path d="M52.0059 69.7744C52.0059 70.8725 52.3882 71.7962 53.1542 72.5453C53.9193 73.294 54.8843 73.6688 56.0498 73.6688C57.1808 73.6688 58.1216 73.294 58.8705 72.5453C59.6194 71.7962 59.9937 70.8725 59.9937 69.7744C59.9937 68.6763 59.6194 67.7609 58.8705 67.0285C58.1216 66.297 57.1808 65.9304 56.0498 65.9304C54.8843 65.9304 53.9193 66.297 53.1542 67.0285C52.3882 67.7609 52.0059 68.6763 52.0059 69.7744Z" fill="#E47789" style="fill:#E47789;fill:color(display-p3 0.8945 0.4663 0.5370);fill-opacity:1;"/>
<mask id="mask0_1_1446" style="mask-type:alpha" maskUnits="userSpaceOnUse" x="41" y="65" width="47" height="40">
<path d="M41.8715 82.5893L52.6108 104.112L87.3187 86.6173L76.6496 65.2356L41.8715 82.5893Z" fill="url(#paint0_linear_1_1446)" style=""/>
</mask>
<g mask="url(#mask0_1_1446)">
<path d="M39.1582 81.9967C33.2729 78.1733 28.8601 72.4651 26.6422 65.8066L22.2142 67.2815C24.7663 74.943 29.8438 81.5111 36.6156 85.9105C43.3874 90.3098 51.4522 92.2797 59.4896 91.4977C66.7507 90.7912 73.6008 87.8765 79.1304 83.1746C80.1122 82.3398 80.1301 80.8559 79.2328 79.9307C78.3355 79.0056 76.8634 78.9907 75.8734 79.8159C71.1091 83.7867 65.2462 86.2484 59.0376 86.8525C52.0524 87.5322 45.0434 85.8201 39.1582 81.9967Z" fill="#2642CF" style="fill:#2642CF;fill:color(display-p3 0.1490 0.2588 0.8118);fill-opacity:1;"/>
</g>
<defs>
<linearGradient id="paint0_linear_1_1446" x1="80.2742" y1="78.8693" x2="58.5025" y2="89.733" gradientUnits="userSpaceOnUse">
<stop stop-opacity="0" style="stop-color:none;stop-opacity:0;"/>
<stop offset="1" style="stop-color:black;stop-opacity:1;"/>
</linearGradient>
</defs>
</svg>
