<svg width="112" height="112" viewBox="0 0 112 112" fill="none" xmlns="http://www.w3.org/2000/svg">
<path fill-rule="evenodd" clip-rule="evenodd" d="M67.2187 30.7216C68.8743 30.0209 70.6981 29.6337 72.6029 29.6339C75.4611 29.6332 78.132 30.506 80.3374 31.9971C82.5438 33.488 84.2952 35.5963 85.3465 38.0807C86.0471 39.7363 86.4344 41.5602 86.4341 43.4649C86.4349 46.3232 85.562 48.994 84.0709 51.1994C82.5798 53.4058 80.4715 55.1572 77.9871 56.2085C76.3315 56.9091 74.5076 57.2964 72.6029 57.2962C69.7447 57.2969 67.0738 56.4241 64.8684 54.933C62.662 53.4419 60.9106 51.3338 59.8595 48.8491C59.1587 47.1935 58.7714 45.3697 58.7716 43.4649C58.7709 40.6067 59.6437 37.9358 61.1351 35.7307C62.6259 33.524 64.7343 31.7726 67.2187 30.7216ZM82.8193 43.4649C82.819 44.8806 82.5333 46.2199 82.0171 47.4412C81.7823 47.9966 81.4993 48.5275 81.1734 49.0282L74.4103 42.6824V33.4077C75.1656 33.5424 75.8909 33.7599 76.5789 34.0507C78.41 34.8247 79.9737 36.1227 81.0756 37.7542C82.1774 39.3869 82.8185 41.3429 82.8193 43.4649ZM71.3661 44.783L78.6993 51.6639C78.573 51.758 78.4444 51.8493 78.3136 51.9376C76.6809 53.0394 74.7249 53.6806 72.6029 53.6813C71.1875 53.6811 69.8482 53.3953 68.6269 52.8791C66.7958 52.1051 65.2323 50.8071 64.1302 49.1757C63.0286 47.543 62.3872 45.5872 62.3865 43.4649C62.3867 42.0495 62.6725 40.7102 63.1887 39.4889C63.9627 37.6578 65.2607 36.0943 66.8921 34.9925C68.0494 34.2115 69.3692 33.6619 70.7954 33.4079V43.4649C70.7954 43.9615 71.004 44.4433 71.3661 44.783Z" fill="#2642CF" style="fill:#2642CF;fill:color(display-p3 0.1490 0.2588 0.8118);fill-opacity:1;"/>
<path fill-rule="evenodd" clip-rule="evenodd" d="M26.368 56.6466C25.3698 56.6466 24.5606 55.8374 24.5606 54.8391C24.5606 53.8411 25.3698 53.0317 26.368 53.0317H28.998V39.9566C28.9973 39.2948 29.2024 38.6646 29.5498 38.1519C29.8973 37.6382 30.3861 37.2317 30.9672 36.9856C31.354 36.8216 31.7828 36.731 32.2231 36.7312H35.951C36.6128 36.7305 37.243 36.9356 37.7554 37.2833C38.2694 37.6307 38.6758 38.1195 38.922 38.7007C39.086 39.0875 39.1766 39.5163 39.1763 39.9566V53.0317H41.8008V33.7179C41.8003 33.0942 41.9937 32.4991 42.3215 32.016C42.6493 31.5314 43.11 31.1482 43.6583 30.9159C44.0232 30.7611 44.4279 30.6758 44.8427 30.676H48.9375C49.5612 30.6753 50.156 30.8689 50.6394 31.1967C51.124 31.5242 51.5072 31.9852 51.7395 32.5335C51.894 32.8983 51.9796 33.303 51.9794 33.7179V53.0317H54.6092C55.6075 53.0317 56.4167 53.8411 56.4167 54.8391C56.4167 55.8374 55.6075 56.6466 54.6092 56.6466H26.368ZM32.6129 53.0317H35.5615V40.3461H32.6129V53.0317ZM48.3645 53.0317H45.4157V34.2909H48.3645V53.0317Z" fill="#2642CF" style="fill:#2642CF;fill:color(display-p3 0.1490 0.2588 0.8118);fill-opacity:1;"/>
<path fill-rule="evenodd" clip-rule="evenodd" d="M72.6029 29.6339C70.6981 29.6337 68.8743 30.0209 67.2187 30.7216C64.7343 31.7726 62.6259 33.524 61.1351 35.7307C59.6437 37.9358 58.7709 40.6067 58.7716 43.4649C58.7714 45.3697 59.1587 47.1935 59.8595 48.8491C60.9106 51.3338 62.662 53.4419 64.8684 54.933C67.0738 56.4241 69.7447 57.2969 72.6029 57.2962C74.5076 57.2964 76.3315 56.9091 77.9871 56.2085C80.4715 55.1572 82.5798 53.4058 84.0709 51.1994C85.562 48.994 86.4349 46.3232 86.4341 43.4649C86.4344 41.5602 86.0471 39.7363 85.3465 38.0807C84.2952 35.5963 82.5438 33.488 80.3374 31.9971C78.132 30.506 75.4611 29.6332 72.6029 29.6339ZM24.5606 54.8391C24.5606 55.8374 25.3698 56.6466 26.368 56.6466H54.6092C55.6075 56.6466 56.4167 55.8374 56.4167 54.8391C56.4167 53.8411 55.6075 53.0317 54.6092 53.0317H51.9794V33.7179C51.9796 33.303 51.894 32.8983 51.7395 32.5335C51.5072 31.9852 51.124 31.5242 50.6394 31.1967C50.156 30.8689 49.5612 30.6753 48.9375 30.676H44.8427C44.4279 30.6758 44.0232 30.7611 43.6583 30.9159C43.11 31.1482 42.6493 31.5314 42.3215 32.016C41.9937 32.4991 41.8003 33.0942 41.8008 33.7179V53.0317H39.1763V39.9566C39.1766 39.5163 39.086 39.0875 38.922 38.7007C38.6758 38.1195 38.2694 37.6307 37.7554 37.2833C37.243 36.9356 36.6128 36.7305 35.951 36.7312H32.2231C31.7828 36.731 31.354 36.8216 30.9672 36.9856C30.3861 37.2317 29.8973 37.6382 29.5498 38.1519C29.2024 38.6646 28.9973 39.2948 28.998 39.9566V53.0317H26.368C25.3698 53.0317 24.5606 53.8411 24.5606 54.8391ZM78.6993 51.6639L71.3661 44.783C71.004 44.4433 70.7954 43.9615 70.7954 43.4649V33.4079C69.3692 33.6619 68.0494 34.2115 66.8921 34.9925C65.2607 36.0943 63.9627 37.6578 63.1887 39.4889C62.6725 40.7102 62.3867 42.0495 62.3865 43.4649C62.3872 45.5872 63.0286 47.543 64.1302 49.1757C65.2323 50.8071 66.7958 52.1051 68.6269 52.8791C69.8482 53.3953 71.1875 53.6811 72.6029 53.6813C74.7249 53.6806 76.6809 53.0394 78.3136 51.9376C78.4444 51.8493 78.573 51.758 78.6993 51.6639ZM82.8193 43.4649C82.819 44.8806 82.5333 46.2199 82.0171 47.4412C81.7823 47.9966 81.4993 48.5275 81.1734 49.0282L74.4103 42.6824V33.4077C75.1656 33.5424 75.8909 33.7599 76.5789 34.0507C78.41 34.8247 79.9737 36.1227 81.0756 37.7542C82.1774 39.3869 82.8185 41.3429 82.8193 43.4649ZM45.4157 53.0317H48.3645V34.2909H45.4157V53.0317ZM32.6129 53.0317H35.5615V40.3461H32.6129V53.0317Z" fill="#2642CF" style="fill:#2642CF;fill:color(display-p3 0.1490 0.2588 0.8118);fill-opacity:1;"/>
<path fill-rule="evenodd" clip-rule="evenodd" d="M32.6129 53.0317H35.5615V40.3461H32.6129V53.0317ZM45.4157 53.0317H48.3645V34.2909H45.4157V53.0317ZM72.6029 29.6339C70.6981 29.6337 68.8743 30.0209 67.2187 30.7216C64.7343 31.7726 62.6259 33.524 61.1351 35.7307C59.6437 37.9358 58.7709 40.6067 58.7716 43.4649C58.7714 45.3697 59.1587 47.1935 59.8595 48.8491C60.9106 51.3338 62.662 53.4419 64.8684 54.933C67.0738 56.4241 69.7447 57.2969 72.6029 57.2962C74.5076 57.2964 76.3315 56.9091 77.9871 56.2085C80.4715 55.1572 82.5798 53.4058 84.0709 51.1994C85.562 48.994 86.4349 46.3232 86.4341 43.4649C86.4344 41.5602 86.0471 39.7363 85.3465 38.0807C84.2952 35.5963 82.5438 33.488 80.3374 31.9971C78.132 30.506 75.4611 29.6332 72.6029 29.6339ZM24.5606 54.8391C24.5606 55.8374 25.3698 56.6466 26.368 56.6466H54.6092C55.6075 56.6466 56.4167 55.8374 56.4167 54.8391C56.4167 53.8411 55.6075 53.0317 54.6092 53.0317H51.9794V33.7179C51.9796 33.303 51.894 32.8983 51.7395 32.5335C51.5072 31.9852 51.124 31.5242 50.6394 31.1967C50.156 30.8689 49.5612 30.6753 48.9375 30.676H44.8427C44.4279 30.6758 44.0232 30.7611 43.6583 30.9159C43.11 31.1482 42.6493 31.5314 42.3215 32.016C41.9937 32.4991 41.8003 33.0942 41.8008 33.7179V53.0317H39.1763V39.9566C39.1766 39.5163 39.086 39.0875 38.922 38.7007C38.6758 38.1195 38.2694 37.6307 37.7554 37.2833C37.243 36.9356 36.6128 36.7305 35.951 36.7312H32.2231C31.7828 36.731 31.354 36.8216 30.9672 36.9856C30.3861 37.2317 29.8973 37.6382 29.5498 38.1519C29.2024 38.6646 28.9973 39.2948 28.998 39.9566V53.0317H26.368C25.3698 53.0317 24.5606 53.8411 24.5606 54.8391ZM78.6993 51.6639L71.3661 44.783C71.004 44.4433 70.7954 43.9615 70.7954 43.4649V33.4079C69.3692 33.6619 68.0494 34.2115 66.8921 34.9925C65.2607 36.0943 63.9627 37.6578 63.1887 39.4889C62.6725 40.7102 62.3867 42.0495 62.3865 43.4649C62.3872 45.5872 63.0286 47.543 64.1302 49.1757C65.2323 50.8071 66.7958 52.1051 68.6269 52.8791C69.8482 53.3953 71.1875 53.6811 72.6029 53.6813C74.7249 53.6806 76.6809 53.0394 78.3136 51.9376C78.4444 51.8493 78.573 51.758 78.6993 51.6639ZM82.8193 43.4649C82.819 44.8806 82.5333 46.2199 82.0171 47.4412C81.7823 47.9966 81.4993 48.5275 81.1734 49.0282L74.4103 42.6824V33.4077C75.1656 33.5424 75.8909 33.7599 76.5789 34.0507C78.41 34.8247 79.9737 36.1227 81.0756 37.7542C82.1774 39.3869 82.8185 41.3429 82.8193 43.4649Z" fill="#2642CF" style="fill:#2642CF;fill:color(display-p3 0.1490 0.2588 0.8118);fill-opacity:1;"/>
<path fill-rule="evenodd" clip-rule="evenodd" d="M72.6029 29.6339C70.6981 29.6337 68.8743 30.0209 67.2187 30.7216C64.7343 31.7726 62.6259 33.524 61.1351 35.7307C59.6437 37.9358 58.7709 40.6067 58.7716 43.4649C58.7714 45.3697 59.1587 47.1935 59.8595 48.8491C60.9106 51.3338 62.662 53.4419 64.8684 54.933C67.0738 56.4241 69.7447 57.2969 72.6029 57.2962C74.5076 57.2964 76.3315 56.9091 77.9871 56.2085C80.4715 55.1572 82.5798 53.4058 84.0709 51.1994C85.562 48.994 86.4349 46.3232 86.4341 43.4649C86.4344 41.5602 86.0471 39.7363 85.3465 38.0807C84.2952 35.5963 82.5438 33.488 80.3374 31.9971C78.132 30.506 75.4611 29.6332 72.6029 29.6339ZM24.5606 54.8391C24.5606 55.8374 25.3698 56.6466 26.368 56.6466H54.6092C55.6075 56.6466 56.4167 55.8374 56.4167 54.8391C56.4167 53.8411 55.6075 53.0317 54.6092 53.0317H51.9794V33.7179C51.9796 33.303 51.894 32.8983 51.7395 32.5335C51.5072 31.9852 51.124 31.5242 50.6394 31.1967C50.156 30.8689 49.5612 30.6753 48.9375 30.676H44.8427C44.4279 30.6758 44.0232 30.7611 43.6583 30.9159C43.11 31.1482 42.6493 31.5314 42.3215 32.016C41.9937 32.4991 41.8003 33.0942 41.8008 33.7179V53.0317H39.1763V39.9566C39.1766 39.5163 39.086 39.0875 38.922 38.7007C38.6758 38.1195 38.2694 37.6307 37.7554 37.2833C37.243 36.9356 36.6128 36.7305 35.951 36.7312H32.2231C31.7828 36.731 31.354 36.8216 30.9672 36.9856C30.3861 37.2317 29.8973 37.6382 29.5498 38.1519C29.2024 38.6646 28.9973 39.2948 28.998 39.9566V53.0317H26.368C25.3698 53.0317 24.5606 53.8411 24.5606 54.8391ZM78.6993 51.6639L71.3661 44.783C71.004 44.4433 70.7954 43.9615 70.7954 43.4649V33.4079C69.3692 33.6619 68.0494 34.2115 66.8921 34.9925C65.2607 36.0943 63.9627 37.6578 63.1887 39.4889C62.6725 40.7102 62.3867 42.0495 62.3865 43.4649C62.3872 45.5872 63.0286 47.543 64.1302 49.1757C65.2323 50.8071 66.7958 52.1051 68.6269 52.8791C69.8482 53.3953 71.1875 53.6811 72.6029 53.6813C74.7249 53.6806 76.6809 53.0394 78.3136 51.9376C78.4444 51.8493 78.573 51.758 78.6993 51.6639ZM82.8193 43.4649C82.819 44.8806 82.5333 46.2199 82.0171 47.4412C81.7823 47.9966 81.4993 48.5275 81.1734 49.0282L74.4103 42.6824V33.4077C75.1656 33.5424 75.8909 33.7599 76.5789 34.0507C78.41 34.8247 79.9737 36.1227 81.0756 37.7542C82.1774 39.3869 82.8185 41.3429 82.8193 43.4649ZM45.4157 53.0317H48.3645V34.2909H45.4157V53.0317ZM32.6129 53.0317H35.5615V40.3461H32.6129V53.0317Z" fill="#2642CF" style="fill:#2642CF;fill:color(display-p3 0.1490 0.2588 0.8118);fill-opacity:1;"/>
<path fill-rule="evenodd" clip-rule="evenodd" d="M90.5624 77.3857C89.4818 77.8347 88.3087 78.0657 87.1457 78.0667H64.4012L68.7006 90.2326C68.9348 90.8957 68.8325 91.6334 68.4263 92.2076C68.0201 92.7818 67.3588 93.1243 66.6554 93.1243H45.3446C44.6412 93.1243 43.9802 92.7821 43.574 92.2078C43.1678 91.6337 43.0652 90.8964 43.2994 90.2332L47.5948 78.0667H39.9244C38.7265 78.0667 37.7555 77.0958 37.7555 75.8979C37.7555 74.7 38.7379 73.731 39.9358 73.731L87.1487 73.7288C88.3575 73.7288 89.5358 73.24 90.3902 72.3835C91.2476 71.5284 91.7367 70.3481 91.7352 69.1375L91.7355 66.6342L39.6028 66.633C38.4049 66.633 37.4339 65.6621 37.4339 64.4642C37.4339 63.2663 38.4162 62.2973 39.6142 62.2973L91.7355 62.2966L91.7352 27.8048C91.7367 26.5942 91.2476 25.4142 90.3902 24.5588C89.5375 23.7041 88.5171 23.2138 87.3103 23.2138H24.8504C23.6417 23.2138 22.464 23.7026 21.6098 24.5588C20.7523 25.4142 20.2632 26.5942 20.2646 27.8048L20.2645 62.2966L20.2553 69.1226C20.1692 70.4789 19.7861 71.3013 18.1163 71.3013C16.5714 71.3013 15.9267 70.334 15.9267 69.1361L15.9266 69.1358V27.809L15.9268 27.8031C15.9278 26.6403 16.1585 25.4672 16.6078 24.3866C17.0556 23.3051 17.7178 22.3168 18.5425 21.4915C19.3676 20.6669 20.3561 20.0046 21.4376 19.5569C22.5181 19.1074 23.6911 18.8769 24.8542 18.8759L87.14 18.8757C88.3257 18.9252 89.4587 19.0978 90.5624 19.5569C91.6439 20.0046 92.6322 20.6669 93.4575 21.4915C94.2821 22.3168 94.9444 23.3051 95.3921 24.3866C95.8414 25.4672 96.0721 26.6403 96.0731 27.8031V64.4798V69.1393C96.0721 70.3023 95.8414 71.4754 95.3921 72.556C94.9444 73.6372 94.2821 74.6258 93.4575 75.4509C92.6322 76.2757 91.6439 76.9377 90.5624 77.3857ZM59.8294 78.0667H52.1665L48.4104 88.7863H63.5886L59.8294 78.0667Z" fill="#2642CF" style="fill:#2642CF;fill:color(display-p3 0.1490 0.2588 0.8118);fill-opacity:1;"/>
<path fill-rule="evenodd" clip-rule="evenodd" d="M67.2186 30.7216C68.8742 30.0209 70.6981 29.6337 72.6028 29.6339C75.4611 29.6332 78.1319 30.506 80.3373 31.9971C82.5437 33.488 84.2951 35.5963 85.3465 38.0807C86.0471 39.7363 86.4343 41.5602 86.4341 43.4649C86.4348 46.3232 85.562 48.994 84.0709 51.1994C82.5798 53.4058 80.4715 55.1572 77.9871 56.2085C76.3314 56.9091 74.5076 57.2964 72.6028 57.2962C69.7446 57.2969 67.0738 56.4241 64.8684 54.933C62.662 53.4419 60.9105 51.3338 59.8595 48.8491C59.1586 47.1935 58.7713 45.3697 58.7716 43.4649C58.7708 40.6067 59.6437 37.9359 61.135 35.7307C62.6259 33.524 64.7342 31.7726 67.2186 30.7216ZM82.8192 43.4649C82.819 44.8806 82.5333 46.2199 82.0171 47.4412C81.7823 47.9966 81.4992 48.5275 81.1733 49.0282L74.4102 42.6824V33.4077C75.1656 33.5424 75.8909 33.7599 76.5788 34.0507C78.4099 34.8247 79.9737 36.1227 81.0755 37.7542C82.1773 39.3869 82.8185 41.3429 82.8192 43.4649ZM71.3661 44.783L78.6993 51.6639C78.5729 51.758 78.4443 51.8493 78.3136 51.9376C76.6809 53.0394 74.7249 53.6806 72.6028 53.6813C71.1874 53.6811 69.8481 53.3953 68.6268 52.8791C66.7958 52.1051 65.2323 50.8071 64.1302 49.1757C63.0286 47.543 62.3872 45.5872 62.3865 43.4649C62.3867 42.0495 62.6724 40.7102 63.1886 39.4889C63.9627 37.6578 65.2606 36.0943 66.8921 34.9925C68.0494 34.2115 69.3692 33.6619 70.7954 33.4079V43.4649C70.7954 43.9615 71.0039 44.4433 71.3661 44.783Z" fill="#E47789" style="fill:#E47789;fill:color(display-p3 0.8945 0.4663 0.5370);fill-opacity:1;"/>
<path fill-rule="evenodd" clip-rule="evenodd" d="M26.368 56.6466C25.3697 56.6466 24.5605 55.8374 24.5605 54.8391C24.5605 53.8411 25.3697 53.0317 26.368 53.0317H28.998V39.9566C28.9972 39.2948 29.2023 38.6646 29.5498 38.1519C29.8972 37.6382 30.386 37.2317 30.9672 36.9856C31.354 36.8216 31.7828 36.731 32.2231 36.7312H35.9509C36.6127 36.7305 37.2429 36.9356 37.7554 37.2833C38.2693 37.6307 38.6758 38.1195 38.9219 38.7007C39.0859 39.0875 39.1765 39.5163 39.1763 39.9566V53.0317H41.8008V33.7179C41.8003 33.0942 41.9937 32.4991 42.3215 32.016C42.6493 31.5314 43.1099 31.1482 43.6582 30.9159C44.0231 30.7611 44.4278 30.6758 44.8427 30.676H48.9374C49.5611 30.6753 50.156 30.8689 50.6393 31.1967C51.1239 31.5242 51.5072 31.9852 51.7394 32.5335C51.894 32.8983 51.9796 33.303 51.9793 33.7179V53.0317H54.6092C55.6075 53.0317 56.4166 53.8411 56.4166 54.8391C56.4166 55.8374 55.6075 56.6466 54.6092 56.6466H26.368ZM32.6128 53.0317H35.5614V40.3461H32.6128V53.0317ZM48.3645 53.0317H45.4156V34.2909H48.3645V53.0317Z" fill="#E47789" style="fill:#E47789;fill:color(display-p3 0.8945 0.4663 0.5370);fill-opacity:1;"/>
<path fill-rule="evenodd" clip-rule="evenodd" d="M72.6028 29.6339C70.6981 29.6337 68.8742 30.0209 67.2186 30.7216C64.7342 31.7726 62.6259 33.524 61.135 35.7307C59.6437 37.9359 58.7708 40.6067 58.7716 43.4649C58.7713 45.3697 59.1586 47.1935 59.8595 48.8491C60.9105 51.3338 62.662 53.4419 64.8684 54.933C67.0738 56.4241 69.7446 57.2969 72.6028 57.2962C74.5076 57.2964 76.3314 56.9091 77.9871 56.2085C80.4715 55.1572 82.5798 53.4058 84.0709 51.1994C85.562 48.994 86.4348 46.3232 86.4341 43.4649C86.4343 41.5602 86.0471 39.7363 85.3465 38.0807C84.2951 35.5963 82.5437 33.488 80.3373 31.9971C78.1319 30.506 75.4611 29.6332 72.6028 29.6339ZM24.5605 54.8391C24.5605 55.8374 25.3697 56.6466 26.368 56.6466H54.6092C55.6075 56.6466 56.4166 55.8374 56.4166 54.8391C56.4166 53.8411 55.6075 53.0317 54.6092 53.0317H51.9793V33.7179C51.9796 33.303 51.894 32.8983 51.7394 32.5335C51.5072 31.9852 51.1239 31.5242 50.6393 31.1967C50.156 30.8689 49.5611 30.6753 48.9374 30.676H44.8427C44.4278 30.6758 44.0231 30.7611 43.6582 30.9159C43.1099 31.1482 42.6493 31.5314 42.3215 32.016C41.9937 32.4991 41.8003 33.0942 41.8008 33.7179V53.0317H39.1763V39.9566C39.1765 39.5163 39.0859 39.0875 38.9219 38.7007C38.6758 38.1195 38.2693 37.6307 37.7554 37.2833C37.2429 36.9356 36.6127 36.7305 35.9509 36.7312H32.2231C31.7828 36.731 31.354 36.8216 30.9672 36.9856C30.386 37.2317 29.8972 37.6382 29.5498 38.1519C29.2023 38.6646 28.9972 39.2948 28.998 39.9566V53.0317H26.368C25.3697 53.0317 24.5605 53.8411 24.5605 54.8391ZM78.6993 51.6639L71.3661 44.783C71.0039 44.4433 70.7954 43.9615 70.7954 43.4649V33.4079C69.3692 33.6619 68.0494 34.2115 66.8921 34.9925C65.2606 36.0943 63.9627 37.6578 63.1886 39.4889C62.6724 40.7102 62.3867 42.0495 62.3865 43.4649C62.3872 45.5872 63.0286 47.543 64.1302 49.1757C65.2323 50.8071 66.7958 52.1051 68.6268 52.8791C69.8481 53.3953 71.1874 53.6811 72.6028 53.6813C74.7249 53.6806 76.6809 53.0394 78.3136 51.9376C78.4443 51.8493 78.5729 51.758 78.6993 51.6639ZM82.8192 43.4649C82.819 44.8806 82.5333 46.2199 82.0171 47.4412C81.7823 47.9966 81.4992 48.5275 81.1733 49.0282L74.4102 42.6824V33.4077C75.1656 33.5424 75.8909 33.7599 76.5788 34.0507C78.4099 34.8247 79.9737 36.1227 81.0755 37.7542C82.1773 39.3869 82.8185 41.3429 82.8192 43.4649ZM45.4156 53.0317H48.3645V34.2909H45.4156V53.0317ZM32.6128 53.0317H35.5614V40.3461H32.6128V53.0317Z" fill="#E47789" style="fill:#E47789;fill:color(display-p3 0.8945 0.4663 0.5370);fill-opacity:1;"/>
<path fill-rule="evenodd" clip-rule="evenodd" d="M32.6128 53.0317H35.5614V40.3461H32.6128V53.0317ZM45.4156 53.0317H48.3645V34.2909H45.4156V53.0317ZM72.6028 29.6339C70.6981 29.6337 68.8742 30.0209 67.2186 30.7216C64.7342 31.7726 62.6259 33.524 61.135 35.7307C59.6437 37.9359 58.7708 40.6067 58.7716 43.4649C58.7713 45.3697 59.1586 47.1935 59.8595 48.8491C60.9105 51.3338 62.662 53.4419 64.8684 54.933C67.0738 56.4241 69.7446 57.2969 72.6028 57.2962C74.5076 57.2964 76.3314 56.9091 77.9871 56.2085C80.4715 55.1572 82.5798 53.4058 84.0709 51.1994C85.562 48.994 86.4348 46.3232 86.4341 43.4649C86.4343 41.5602 86.0471 39.7363 85.3465 38.0807C84.2951 35.5963 82.5437 33.488 80.3373 31.9971C78.1319 30.506 75.4611 29.6332 72.6028 29.6339ZM24.5605 54.8391C24.5605 55.8374 25.3697 56.6466 26.368 56.6466H54.6092C55.6075 56.6466 56.4166 55.8374 56.4166 54.8391C56.4166 53.8411 55.6075 53.0317 54.6092 53.0317H51.9793V33.7179C51.9796 33.303 51.894 32.8983 51.7394 32.5335C51.5072 31.9852 51.1239 31.5242 50.6393 31.1967C50.156 30.8689 49.5611 30.6753 48.9374 30.676H44.8427C44.4278 30.6758 44.0231 30.7611 43.6582 30.9159C43.1099 31.1482 42.6493 31.5314 42.3215 32.016C41.9937 32.4991 41.8003 33.0942 41.8008 33.7179V53.0317H39.1763V39.9566C39.1765 39.5163 39.0859 39.0875 38.9219 38.7007C38.6758 38.1195 38.2693 37.6307 37.7554 37.2833C37.2429 36.9356 36.6127 36.7305 35.9509 36.7312H32.2231C31.7828 36.731 31.354 36.8216 30.9672 36.9856C30.386 37.2317 29.8972 37.6382 29.5498 38.1519C29.2023 38.6646 28.9972 39.2948 28.998 39.9566V53.0317H26.368C25.3697 53.0317 24.5605 53.8411 24.5605 54.8391ZM78.6993 51.6639L71.3661 44.783C71.0039 44.4433 70.7954 43.9615 70.7954 43.4649V33.4079C69.3692 33.6619 68.0494 34.2115 66.8921 34.9925C65.2606 36.0943 63.9627 37.6578 63.1886 39.4889C62.6724 40.7102 62.3867 42.0495 62.3865 43.4649C62.3872 45.5872 63.0286 47.543 64.1302 49.1757C65.2323 50.8071 66.7958 52.1051 68.6268 52.8791C69.8481 53.3953 71.1874 53.6811 72.6028 53.6813C74.7249 53.6806 76.6809 53.0394 78.3136 51.9376C78.4443 51.8493 78.5729 51.758 78.6993 51.6639ZM82.8192 43.4649C82.819 44.8806 82.5333 46.2199 82.0171 47.4412C81.7823 47.9966 81.4992 48.5275 81.1733 49.0282L74.4102 42.6824V33.4077C75.1656 33.5424 75.8909 33.7599 76.5788 34.0507C78.4099 34.8247 79.9737 36.1227 81.0755 37.7542C82.1773 39.3869 82.8185 41.3429 82.8192 43.4649Z" fill="#E47789" style="fill:#E47789;fill:color(display-p3 0.8945 0.4663 0.5370);fill-opacity:1;"/>
<path fill-rule="evenodd" clip-rule="evenodd" d="M72.6028 29.6339C70.6981 29.6337 68.8742 30.0209 67.2186 30.7216C64.7342 31.7726 62.6259 33.524 61.135 35.7307C59.6437 37.9359 58.7708 40.6067 58.7716 43.4649C58.7713 45.3697 59.1586 47.1935 59.8595 48.8491C60.9105 51.3338 62.662 53.4419 64.8684 54.933C67.0738 56.4241 69.7446 57.2969 72.6028 57.2962C74.5076 57.2964 76.3314 56.9091 77.9871 56.2085C80.4715 55.1572 82.5798 53.4058 84.0709 51.1994C85.562 48.994 86.4348 46.3232 86.4341 43.4649C86.4343 41.5602 86.0471 39.7363 85.3465 38.0807C84.2951 35.5963 82.5437 33.488 80.3373 31.9971C78.1319 30.506 75.4611 29.6332 72.6028 29.6339ZM24.5605 54.8391C24.5605 55.8374 25.3697 56.6466 26.368 56.6466H54.6092C55.6075 56.6466 56.4166 55.8374 56.4166 54.8391C56.4166 53.8411 55.6075 53.0317 54.6092 53.0317H51.9793V33.7179C51.9796 33.303 51.894 32.8983 51.7394 32.5335C51.5072 31.9852 51.1239 31.5242 50.6393 31.1967C50.156 30.8689 49.5611 30.6753 48.9374 30.676H44.8427C44.4278 30.6758 44.0231 30.7611 43.6582 30.9159C43.1099 31.1482 42.6493 31.5314 42.3215 32.016C41.9937 32.4991 41.8003 33.0942 41.8008 33.7179V53.0317H39.1763V39.9566C39.1765 39.5163 39.0859 39.0875 38.9219 38.7007C38.6758 38.1195 38.2693 37.6307 37.7554 37.2833C37.2429 36.9356 36.6127 36.7305 35.9509 36.7312H32.2231C31.7828 36.731 31.354 36.8216 30.9672 36.9856C30.386 37.2317 29.8972 37.6382 29.5498 38.1519C29.2023 38.6646 28.9972 39.2948 28.998 39.9566V53.0317H26.368C25.3697 53.0317 24.5605 53.8411 24.5605 54.8391ZM78.6993 51.6639L71.3661 44.783C71.0039 44.4433 70.7954 43.9615 70.7954 43.4649V33.4079C69.3692 33.6619 68.0494 34.2115 66.8921 34.9925C65.2606 36.0943 63.9627 37.6578 63.1886 39.4889C62.6724 40.7102 62.3867 42.0495 62.3865 43.4649C62.3872 45.5872 63.0286 47.543 64.1302 49.1757C65.2323 50.8071 66.7958 52.1051 68.6268 52.8791C69.8481 53.3953 71.1874 53.6811 72.6028 53.6813C74.7249 53.6806 76.6809 53.0394 78.3136 51.9376C78.4443 51.8493 78.5729 51.758 78.6993 51.6639ZM82.8192 43.4649C82.819 44.8806 82.5333 46.2199 82.0171 47.4412C81.7823 47.9966 81.4992 48.5275 81.1733 49.0282L74.4102 42.6824V33.4077C75.1656 33.5424 75.8909 33.7599 76.5788 34.0507C78.4099 34.8247 79.9737 36.1227 81.0755 37.7542C82.1773 39.3869 82.8185 41.3429 82.8192 43.4649ZM45.4156 53.0317H48.3645V34.2909H45.4156V53.0317ZM32.6128 53.0317H35.5614V40.3461H32.6128V53.0317Z" fill="#E47789" style="fill:#E47789;fill:color(display-p3 0.8945 0.4663 0.5370);fill-opacity:1;"/>
<mask id="mask0_1_1425" style="mask-type:alpha" maskUnits="userSpaceOnUse" x="19" y="60" width="21" height="21">
<rect width="20.2076" height="19.9196" transform="matrix(-1 0 0 1 39.5818 60.9816)" fill="url(#paint0_linear_1_1425)" style=""/>
</mask>
<g mask="url(#mask0_1_1425)">
<path d="M21.3481 75.898C21.3481 74.7001 22.3305 73.7311 23.5284 73.7311L54.3894 73.7303L54.3894 78.0668H23.5171C22.3191 78.0668 21.3481 77.0959 21.3481 75.898Z" fill="#2642CF" style="fill:#2642CF;fill:color(display-p3 0.1490 0.2588 0.8118);fill-opacity:1;"/>
<path d="M20.2762 64.4643C20.2762 63.2664 21.2586 62.2974 22.4565 62.2974L53.3175 62.2966L53.3175 66.6332H22.4452C21.2472 66.6332 20.2762 65.6622 20.2762 64.4643Z" fill="#2642CF" style="fill:#2642CF;fill:color(display-p3 0.1490 0.2588 0.8118);fill-opacity:1;"/>
</g>
<defs>
<linearGradient id="paint0_linear_1_1425" x1="19.4603" y1="10.4984" x2="4.8329" y2="8.72893" gradientUnits="userSpaceOnUse">
<stop stop-opacity="0" style="stop-color:none;stop-opacity:0;"/>
<stop offset="1" style="stop-color:black;stop-opacity:1;"/>
</linearGradient>
</defs>
</svg>
