<svg width="112" height="112" viewBox="0 0 112 112" fill="none" xmlns="http://www.w3.org/2000/svg">
<path d="M52.3125 18.4189C53.0447 18.4189 53.6418 17.8149 53.6418 17.0742C53.6418 16.3335 53.0447 15.7295 52.3125 15.7295C51.5804 15.7295 50.9833 16.3335 50.9833 17.0742C50.9833 17.8149 51.5804 18.4189 52.3125 18.4189Z" fill="#2642CF" style="fill:#2642CF;fill:color(display-p3 0.1490 0.2588 0.8118);fill-opacity:1;"/>
<path d="M82.5202 23.8672C82.5202 25.6001 81.1316 27.0049 79.4186 27.0049C77.7057 27.0049 76.317 25.6001 76.317 23.8672C76.317 22.1343 77.7057 20.7295 79.4186 20.7295C81.1316 20.7295 82.5202 22.1343 82.5202 23.8672Z" fill="#2642CF" style="fill:#2642CF;fill:color(display-p3 0.1490 0.2588 0.8118);fill-opacity:1;"/>
<path d="M53.2761 29.2458C53.2761 30.9787 51.8875 32.3835 50.1745 32.3835C48.4615 32.3835 47.0729 30.9787 47.0729 29.2458C47.0729 27.5129 48.4615 26.1082 50.1745 26.1082C51.8875 26.1082 53.2761 27.5129 53.2761 29.2458Z" fill="#2642CF" style="fill:#2642CF;fill:color(display-p3 0.1490 0.2588 0.8118);fill-opacity:1;"/>
<path d="M69.9387 45.6221C69.2066 45.6221 68.6094 46.2262 68.6094 46.9669C68.6094 47.7075 69.2066 48.3115 69.9387 48.3115C70.6707 48.3115 71.2679 47.7075 71.2679 46.9669C71.2679 46.2262 70.6707 45.6221 69.9387 45.6221Z" fill="#2642CF" style="fill:#2642CF;fill:color(display-p3 0.1490 0.2588 0.8118);fill-opacity:1;"/>
<path d="M86.5087 61.9675C87.2409 61.9675 87.838 62.5716 87.838 63.3122C87.838 64.0528 87.2409 64.657 86.5087 64.657C85.7766 64.657 85.1794 64.0529 85.1794 63.3122C85.1794 62.5716 85.7766 61.9675 86.5087 61.9675Z" fill="#2642CF" style="fill:#2642CF;fill:color(display-p3 0.1490 0.2588 0.8118);fill-opacity:1;"/>
<path d="M92.2678 49.8652C92.2678 51.5981 90.8792 53.0029 89.1662 53.0029C87.4532 53.0029 86.0646 51.5981 86.0646 49.8652C86.0646 48.1323 87.4532 46.7275 89.1662 46.7275C90.8792 46.7275 92.2678 48.1323 92.2678 49.8652Z" fill="#2642CF" style="fill:#2642CF;fill:color(display-p3 0.1490 0.2588 0.8118);fill-opacity:1;"/>
<path d="M96.5228 35.1129C96.5602 35.1226 96.5972 35.1326 96.6336 35.1427C97.319 35.3335 97.7254 36.0642 97.5416 36.775C97.3876 37.37 96.8686 37.7624 96.3014 37.7624C96.1912 37.7624 96.0792 37.7475 95.9676 37.7165L95.902 37.6989C95.2134 37.5211 94.7942 36.798 94.9656 36.0839C95.1371 35.3699 95.8343 34.9348 96.5228 35.1129Z" fill="#2642CF" style="fill:#2642CF;fill:color(display-p3 0.1490 0.2588 0.8118);fill-opacity:1;"/>
<path d="M71.8859 31.0391C71.8859 31.7797 71.2888 32.3838 70.5567 32.3838C69.8247 32.3838 69.2276 31.7796 69.2274 31.0391C69.2274 30.2984 69.8245 29.6943 70.5567 29.6943C71.2888 29.6943 71.8859 30.2984 71.8859 31.0391Z" fill="#2642CF" style="fill:#2642CF;fill:color(display-p3 0.1490 0.2588 0.8118);fill-opacity:1;"/>
<path fill-rule="evenodd" clip-rule="evenodd" d="M74.2268 72.468C74.8669 72.3233 75.5615 72.0018 76.1926 71.3807L76.2028 71.3707C77.6087 69.9783 77.3892 67.9479 77.0083 66.521C76.5816 64.9222 75.6913 63.0676 74.507 61.1058C72.1216 57.1544 68.2968 52.3669 63.6122 47.6367C58.9276 42.9065 54.1774 39.0355 50.2493 36.6119C48.2991 35.4087 46.4532 34.5005 44.8586 34.0582C44.7696 34.0336 44.6783 34.0095 44.585 33.9864C44.1729 33.8845 43.7206 33.8014 43.2539 33.7682C42.7689 33.7336 42.2682 33.7529 41.7808 33.8608C41.1433 34.0019 40.5286 34.2946 40.0014 34.8168C39.8256 34.9908 39.6753 35.1748 39.5475 35.3664C39.3858 35.6087 39.2602 35.8632 39.1648 36.1248L16.9417 89.8965C15.6215 93.0909 18.8496 96.2738 22.025 94.9087L74.2268 72.468ZM42.9462 37.7903C42.9548 37.9617 42.9905 38.229 43.0963 38.6252C43.3824 39.6968 44.0566 41.1786 45.1533 42.9952C47.3298 46.6007 50.9327 51.1382 55.4604 55.71L55.4674 55.7171C59.9928 60.2856 64.4923 63.9296 68.0746 66.1398C69.8806 67.254 71.3557 67.9426 72.4245 68.239C72.8197 68.3486 73.0867 68.3869 73.258 68.3972C73.2493 68.2258 73.2136 67.9585 73.1079 67.5623C72.8397 66.5576 72.2303 65.1925 71.2516 63.5289C71.1863 63.418 71.1194 63.3058 71.0509 63.1922C68.8744 59.5868 65.2715 55.0493 60.7438 50.4775C56.782 46.4772 52.8397 43.1851 49.5149 40.9432C49.0399 40.6229 48.5776 40.3241 48.1295 40.0477C46.5493 39.0727 45.2224 38.4237 44.1993 38.078C44.0532 38.0287 43.9132 37.9855 43.7796 37.9484C43.3845 37.8388 43.1175 37.8005 42.9462 37.7903ZM57.4104 63.1034C56.3296 62.1633 54.1749 60.1701 52.5873 58.546C52.4157 58.3728 52.2453 58.1995 52.0761 58.0261C53.7668 63.745 54.8429 70.2086 54.6932 76.4709L68.0056 70.7481C67.3399 70.4005 66.6541 70.007 65.9548 69.5755C63.3775 67.9854 60.4462 65.772 57.4118 63.1018L57.4104 63.1034ZM42.6576 46.6003C42.7222 46.6982 42.7875 46.7964 42.8536 46.895L42.8342 46.9079C47.1013 53.3665 51.3785 66.4834 50.5716 78.2427L43.129 81.4422C43.8002 71.8616 41.8369 62.2889 36.2434 53.7631L40.6215 43.1696C40.9436 43.7915 41.3042 44.4307 41.6971 45.0816C41.9952 45.5754 42.3157 46.0822 42.6576 46.6003ZM38.91 83.2559C39.885 74.6216 38.6026 66.0779 34.3297 58.3935L29.8071 69.3365C31.5486 71.7577 32.64 75.2592 33.1597 78.5569C33.5296 80.9035 33.6493 83.399 33.4096 85.6204L38.91 83.2559ZM20.845 91.0217L27.8242 74.1344C28.4085 75.5818 28.8783 77.3225 29.1719 79.1854C29.7064 82.5771 29.5614 85.7634 28.8834 87.5661L20.845 91.0217Z" fill="#2642CF" style="fill:#2642CF;fill:color(display-p3 0.1490 0.2588 0.8118);fill-opacity:1;"/>
<mask id="mask0_1_14781" style="mask-type:alpha" maskUnits="userSpaceOnUse" x="52" y="18" width="13" height="31">
<path d="M53.7258 47.193C57.1329 43.0947 63.6803 31.2243 63.2063 20.0847" stroke="url(#paint0_radial_1_14781)" style="" stroke-width="2.84859" stroke-linecap="round"/>
</mask>
<g mask="url(#mask0_1_14781)">
<path fill-rule="evenodd" clip-rule="evenodd" d="M63.1458 18.6617C63.9317 18.6283 64.5959 19.2383 64.6294 20.0242C64.8783 25.8732 63.287 31.8399 61.2388 36.821C59.1913 41.8002 56.6336 45.9233 54.8211 48.1036C54.3182 48.7085 53.4202 48.7912 52.8153 48.2883C52.2104 47.7855 52.1277 46.8874 52.6306 46.2826C54.2251 44.3645 56.6447 40.5031 58.6042 35.7377C60.563 30.9741 62.0085 25.4358 61.7834 20.1453C61.7499 19.3594 62.3599 18.6952 63.1458 18.6617Z" fill="#E47789" style="fill:#E47789;fill:color(display-p3 0.8945 0.4663 0.5370);fill-opacity:1;"/>
</g>
<mask id="mask1_1_14781" style="mask-type:alpha" maskUnits="userSpaceOnUse" x="66" y="54" width="17" height="10">
<path d="M67.7986 62.1544C71.2056 58.0561 76.3903 56.2291 80.9824 55.9329" stroke="url(#paint1_radial_1_14781)" style="" stroke-width="2.84859" stroke-linecap="round"/>
</mask>
<g mask="url(#mask1_1_14781)">
<path fill-rule="evenodd" clip-rule="evenodd" d="M82.4038 55.8412C82.4544 56.6262 81.8591 57.3036 81.0741 57.3542C76.7451 57.6335 71.9795 59.3533 68.8939 63.065C68.391 63.6699 67.493 63.7526 66.8881 63.2497C66.2832 62.7469 66.2005 61.8489 66.7033 61.244C70.4318 56.7589 76.0354 54.8248 80.8907 54.5116C81.6757 54.4609 82.3531 55.0562 82.4038 55.8412Z" fill="#E47789" style="fill:#E47789;fill:color(display-p3 0.8945 0.4663 0.5370);fill-opacity:1;"/>
</g>
<mask id="mask2_1_14781" style="mask-type:alpha" maskUnits="userSpaceOnUse" x="74" y="33" width="16" height="11">
<path d="M76.3903 41.8603C79.7973 37.762 82.3155 35.935 87.9445 35.1943" stroke="url(#paint2_radial_1_14781)" style="" stroke-width="2.84859" stroke-linecap="round"/>
</mask>
<g mask="url(#mask2_1_14781)">
<path fill-rule="evenodd" clip-rule="evenodd" d="M89.3566 35.0085C89.4592 35.7884 88.9102 36.5039 88.1303 36.6065C85.4429 36.9601 83.6111 37.5576 82.0701 38.4876C80.5141 39.4267 79.1535 40.7645 77.4855 42.7709C76.9827 43.3757 76.0847 43.4585 75.4798 42.9556C74.8749 42.4527 74.7922 41.5547 75.295 40.9498C77.0341 38.8579 78.6361 37.2329 80.5982 36.0488C82.5753 34.8556 84.8171 34.1693 87.7587 33.7822C88.5386 33.6796 89.254 34.2286 89.3566 35.0085Z" fill="#E47789" style="fill:#E47789;fill:color(display-p3 0.8945 0.4663 0.5370);fill-opacity:1;"/>
</g>
<defs>
<radialGradient id="paint0_radial_1_14781" cx="0" cy="0" r="1" gradientTransform="matrix(4.74047 -24.3702 16.5332 78.592 52.5682 57.8249)" gradientUnits="userSpaceOnUse">
<stop offset="0.143728" stop-color="white" stop-opacity="0" style="stop-color:none;stop-opacity:0;"/>
<stop offset="1" style="stop-color:black;stop-opacity:1;"/>
</radialGradient>
<radialGradient id="paint1_radial_1_14781" cx="0" cy="0" r="1" gradientTransform="matrix(6.57527 -5.59317 22.9324 18.0375 66.1929 64.5946)" gradientUnits="userSpaceOnUse">
<stop offset="0.143728" stop-color="white" stop-opacity="0" style="stop-color:none;stop-opacity:0;"/>
<stop offset="1" style="stop-color:black;stop-opacity:1;"/>
</radialGradient>
<radialGradient id="paint2_radial_1_14781" cx="0" cy="0" r="1" gradientUnits="userSpaceOnUse" gradientTransform="translate(74.9831 44.4747) rotate(-46.1217) scale(8.31378 27.8822)">
<stop offset="0.143728" stop-color="white" stop-opacity="0" style="stop-color:none;stop-opacity:0;"/>
<stop offset="1" style="stop-color:black;stop-opacity:1;"/>
</radialGradient>
</defs>
</svg>
