<svg width="112" height="112" viewBox="0 0 112 112" fill="none" xmlns="http://www.w3.org/2000/svg">
<path d="M82.3889 76.3579C83.4097 77.1446 84.882 76.9588 85.6003 75.8887C89.6456 69.8621 91.7657 62.7259 91.6452 55.4315C91.5118 47.3573 88.6411 39.5675 83.503 33.3376C78.3649 27.1077 71.264 22.8068 63.3627 21.139C55.4614 19.4712 47.228 20.5354 40.0105 24.1573C32.7929 27.7792 27.0188 33.7443 23.6336 41.0758C20.2484 48.4074 19.4526 56.6711 21.3766 64.5139C23.3005 72.3567 27.8301 79.314 34.2239 84.2467C40.0001 88.703 46.9885 91.2683 54.2381 91.6269C55.5253 91.6906 56.5542 90.6212 56.5336 89.3326C56.513 88.044 55.4501 87.0252 54.1636 86.9489C47.9723 86.5814 42.0136 84.3618 37.0747 80.5514C31.518 76.2645 27.5813 70.2181 25.9093 63.402C24.2372 56.5859 24.9289 49.4041 27.8709 43.0323C30.8129 36.6606 35.8311 31.4764 42.1037 28.3287C48.3764 25.1809 55.5319 24.2561 62.3988 25.7055C69.2657 27.1549 75.437 30.8928 79.9024 36.3071C84.3678 41.7214 86.8627 48.4914 86.9787 55.5086C87.0817 61.7457 85.2999 67.8496 81.8943 73.0331C81.1866 74.1102 81.3681 75.5712 82.3889 76.3579Z" fill="#2642CF" style="fill:#2642CF;fill:color(display-p3 0.1490 0.2588 0.8118);fill-opacity:1;"/>
<path d="M73.4994 46.4389C74.3532 45.4737 74.263 43.999 73.2977 43.1452C72.3325 42.2914 70.8579 42.3817 70.0041 43.3469L51.4664 64.3025L42.6119 53.9723C41.7733 52.9938 40.3003 52.8805 39.3218 53.7192C38.3434 54.5578 38.2301 56.0308 39.0687 57.0093L48.5509 68.072C50.0624 69.8354 52.7836 69.8567 54.3225 68.1171L73.4994 46.4389Z" fill="#2642CF" style="fill:#2642CF;fill:color(display-p3 0.1490 0.2588 0.8118);fill-opacity:1;"/>
<path d="M73.4994 46.4388C74.3532 45.4736 74.2629 43.999 73.2977 43.1451C72.3325 42.2913 70.8579 42.3816 70.0041 43.3468L51.4664 64.3025L42.6119 53.9722C41.7733 52.9938 40.3003 52.8804 39.3218 53.7191C38.3434 54.5577 38.2301 56.0308 39.0687 57.0092L48.5509 68.0719C50.0624 69.8354 52.7836 69.8566 54.3225 68.117L73.4994 46.4388Z" fill="#E47789" style="fill:#E47789;fill:color(display-p3 0.8945 0.4663 0.5370);fill-opacity:1;"/>
<mask id="mask0_1_1451" style="mask-type:alpha" maskUnits="userSpaceOnUse" x="41" y="65" width="47" height="40">
<path d="M41.8718 82.5894L52.6111 104.112L87.319 86.6174L76.6499 65.2357L41.8718 82.5894Z" fill="url(#paint0_linear_1_1451)" style=""/>
</mask>
<g mask="url(#mask0_1_1451)">
<path d="M39.1586 81.9968C33.2734 78.1734 28.8605 72.4651 26.6426 65.8066L22.2147 67.2816C24.7667 74.9431 29.8442 81.5112 36.616 85.9105C43.3878 90.3099 51.4526 92.2798 59.49 91.4978C66.7511 90.7913 73.6012 87.8766 79.1308 83.1747C80.1127 82.3398 80.1305 80.8559 79.2333 79.9308C78.336 79.0057 76.8638 78.9908 75.8738 79.8159C71.1095 83.7868 65.2466 86.2485 59.0381 86.8526C52.0529 87.5322 45.0439 85.8202 39.1586 81.9968Z" fill="#2642CF" style="fill:#2642CF;fill:color(display-p3 0.1490 0.2588 0.8118);fill-opacity:1;"/>
</g>
<defs>
<linearGradient id="paint0_linear_1_1451" x1="80.2746" y1="78.8694" x2="58.5029" y2="89.7331" gradientUnits="userSpaceOnUse">
<stop stop-opacity="0" style="stop-color:none;stop-opacity:0;"/>
<stop offset="1" style="stop-color:black;stop-opacity:1;"/>
</linearGradient>
</defs>
</svg>
