<svg width="112" height="112" viewBox="0 0 112 112" fill="none" xmlns="http://www.w3.org/2000/svg">
<path fill-rule="evenodd" clip-rule="evenodd" d="M50.605 50.8729C50.0442 51.1105 49.424 51.2417 48.7826 51.2415H40.0675C39.104 51.2422 38.1939 50.9455 37.4492 50.441C36.703 49.9365 36.1119 49.2255 35.7552 48.3832C35.5176 47.8222 35.3864 47.202 35.3866 46.5606V39.5847C35.3859 38.6213 35.6826 37.7111 36.1871 36.9662C36.6916 36.2203 37.4026 35.6292 38.2449 35.2725C38.8059 35.0348 39.4261 34.9036 40.0675 34.9039H48.7826C49.7458 34.9031 50.656 35.1998 51.4009 35.7043C52.1471 36.2086 52.7382 36.9199 53.0948 37.7621C53.3323 38.3231 53.4637 38.9434 53.4634 39.5847V46.5606C53.4642 47.524 53.1673 48.4342 52.6628 49.1792C52.1585 49.9251 51.4474 50.5162 50.605 50.8729ZM40.0675 47.6597H48.7826C49.0163 47.6589 49.2181 47.5917 49.3958 47.473C49.5721 47.3543 49.7139 47.1828 49.7958 46.9879C49.8508 46.8573 49.8812 46.7174 49.8814 46.5606V39.5847C49.8807 39.3508 49.8137 39.1489 49.695 38.9715C49.576 38.795 49.4046 38.6534 49.2097 38.5713C49.0793 38.5163 48.9391 38.4859 48.7826 38.4857H40.0675C39.8335 38.4864 39.6317 38.5536 39.4542 38.6723C39.2778 38.791 39.1361 38.9625 39.054 39.1574C38.9993 39.2878 38.9686 39.4279 38.9684 39.5847V46.5606C38.9691 46.7946 39.0363 46.9964 39.1551 47.1739C39.2738 47.3503 39.4453 47.4919 39.6402 47.5741C39.7708 47.6288 39.9107 47.6594 40.0675 47.6597Z" fill="#2642CF" style="fill:#2642CF;fill:color(display-p3 0.1490 0.2588 0.8118);fill-opacity:1;"/>
<path d="M60.8747 50.3581H74.8229C75.8122 50.3581 76.6139 49.5565 76.6139 48.5674C76.6139 47.5783 75.8122 46.7764 74.8229 46.7764H60.8747C59.8856 46.7764 59.0839 47.5783 59.0839 48.5674C59.0839 49.5565 59.8856 50.3581 60.8747 50.3581Z" fill="#2642CF" style="fill:#2642CF;fill:color(display-p3 0.1490 0.2588 0.8118);fill-opacity:1;"/>
<path d="M74.8229 39.9924H60.8747C59.8856 39.9924 59.0839 39.1908 59.0839 38.2017C59.0839 37.2126 59.8856 36.4107 60.8747 36.4107H74.8229C75.8122 36.4107 76.6139 37.2126 76.6139 38.2017C76.6139 39.1908 75.8122 39.9924 74.8229 39.9924Z" fill="#2642CF" style="fill:#2642CF;fill:color(display-p3 0.1490 0.2588 0.8118);fill-opacity:1;"/>
<path d="M37.1774 61.54H74.8228C75.8122 61.54 76.6138 60.7383 76.6138 59.7492C76.6138 58.7601 75.8122 57.9582 74.8228 57.9582H37.1774C36.1883 57.9582 35.3866 58.7601 35.3866 59.7492C35.3866 60.7383 36.1883 61.54 37.1774 61.54Z" fill="#2642CF" style="fill:#2642CF;fill:color(display-p3 0.1490 0.2588 0.8118);fill-opacity:1;"/>
<path d="M74.8228 72.3286H37.1774C36.1883 72.3286 35.3866 71.5266 35.3866 70.5376C35.3866 69.5485 36.1883 68.7468 37.1774 68.7468H74.8228C75.8122 68.7468 76.6138 69.5485 76.6138 70.5376C76.6138 71.5266 75.8122 72.3286 74.8228 72.3286Z" fill="#2642CF" style="fill:#2642CF;fill:color(display-p3 0.1490 0.2588 0.8118);fill-opacity:1;"/>
<path d="M31.8034 90.3608C33.1521 90.9213 34.6151 91.209 36.0686 91.2106H54.2202V86.9125H36.0576C34.2597 86.9125 32.4978 86.1808 31.2282 84.9062C29.9506 83.6341 29.2187 81.866 29.2219 80.0653C29.222 64.0223 29.2565 47.9794 29.2565 31.9364C29.2533 30.1325 29.9852 28.3666 31.2625 27.0938C32.5321 25.8192 34.2943 25.0877 36.0922 25.0877H75.9431C77.7413 25.0877 79.5029 25.8192 80.7728 27.0938C82.0501 28.3664 82.782 30.1332 82.7788 31.9357L82.7792 80.8128C82.7792 82.0932 84.0889 82.9748 84.9282 82.9748C85.7674 82.9748 87.0772 82.0932 87.0772 80.8128L87.0771 31.9344C87.0756 30.4809 86.7877 29.0177 86.2272 27.6692C85.6684 26.3195 84.8418 25.0852 83.8119 24.0546C82.7813 23.0247 81.5471 22.1981 80.1973 21.6394C78.8486 21.0786 77.3856 20.7909 75.9321 20.7894H36.1032C34.6497 20.7909 33.1867 21.0786 31.838 21.6394C30.4882 22.1981 29.254 23.0247 28.2234 24.0546C27.1934 25.0852 26.3669 26.3195 25.8081 27.6692C25.2476 29.0174 24.9597 30.4817 24.9584 31.9334C24.9578 46.6083 24.9234 65.3899 24.9238 80.0648C24.9253 81.5201 25.213 82.982 25.7735 84.3308C26.3323 85.6805 27.1591 86.9147 28.1888 87.9456C29.2194 88.9753 30.4536 89.8021 31.8034 90.3608Z" fill="#2642CF" style="fill:#2642CF;fill:color(display-p3 0.1490 0.2588 0.8118);fill-opacity:1;"/>
<path fill-rule="evenodd" clip-rule="evenodd" d="M50.6049 50.8729C50.0442 51.1106 49.4239 51.2417 48.7825 51.2415H40.0674C39.104 51.2422 38.1938 50.9456 37.4491 50.4411C36.703 49.9366 36.1119 49.2255 35.7552 48.3833C35.5175 47.8223 35.3863 47.202 35.3866 46.5606V39.5848C35.3859 38.6213 35.6825 37.7112 36.187 36.9662C36.6915 36.2203 37.4026 35.6292 38.2448 35.2725C38.8058 35.0349 39.4261 34.9037 40.0674 34.9039H48.7825C49.7457 34.9032 50.6559 35.1999 51.4009 35.7044C52.147 36.2086 52.7381 36.9199 53.0948 37.7622C53.3322 38.3232 53.4636 38.9434 53.4634 39.5848V46.5606C53.4641 47.5241 53.1672 48.4343 52.6627 49.1792C52.1585 49.9251 51.4474 50.5162 50.6049 50.8729ZM40.0674 47.6597H48.7825C49.3609 47.6579 49.8804 47.2026 49.8814 46.5606V39.5848C49.8795 39.0061 49.4247 38.4867 48.7825 38.4857H40.0674C39.4891 38.4875 38.9694 38.9416 38.9684 39.5848V46.5606C38.9702 47.1393 39.425 47.6587 40.0674 47.6597Z" fill="#E47789" style="fill:#E47789;fill:color(display-p3 0.8945 0.4663 0.5370);fill-opacity:1;"/>
<path d="M60.8746 50.3582H74.8229C75.8122 50.3582 76.6139 49.5565 76.6139 48.5674C76.6139 47.5783 75.8122 46.7764 74.8229 46.7764H60.8746C59.8855 46.7764 59.0839 47.5783 59.0839 48.5674C59.0839 49.5565 59.8855 50.3582 60.8746 50.3582Z" fill="#E47789" style="fill:#E47789;fill:color(display-p3 0.8945 0.4663 0.5370);fill-opacity:1;"/>
<path d="M74.8229 39.9925H60.8746C59.8855 39.9925 59.0839 39.1908 59.0839 38.2017C59.0839 37.2126 59.8855 36.4107 60.8746 36.4107H74.8229C75.8122 36.4107 76.6139 37.2126 76.6139 38.2017C76.6139 39.1908 75.8122 39.9925 74.8229 39.9925Z" fill="#E47789" style="fill:#E47789;fill:color(display-p3 0.8945 0.4663 0.5370);fill-opacity:1;"/>
<path d="M37.1774 61.54H74.8228C75.8121 61.54 76.6138 60.7383 76.6138 59.7493C76.6138 58.7602 75.8121 57.9583 74.8228 57.9583H37.1774C36.1883 57.9583 35.3866 58.7602 35.3866 59.7493C35.3866 60.7383 36.1883 61.54 37.1774 61.54Z" fill="#E47789" style="fill:#E47789;fill:color(display-p3 0.8945 0.4663 0.5370);fill-opacity:1;"/>
<path d="M74.8228 72.3286H37.1774C36.1883 72.3286 35.3866 71.5267 35.3866 70.5376C35.3866 69.5485 36.1883 68.7469 37.1774 68.7469H74.8228C75.8121 68.7469 76.6138 69.5485 76.6138 70.5376C76.6138 71.5267 75.8121 72.3286 74.8228 72.3286Z" fill="#E47789" style="fill:#E47789;fill:color(display-p3 0.8945 0.4663 0.5370);fill-opacity:1;"/>
<mask id="mask0_1_1420" style="mask-type:alpha" maskUnits="userSpaceOnUse" x="45" y="83" width="41" height="12">
<rect x="45.3599" y="83.7441" width="39.9467" height="10.5225" fill="url(#paint0_linear_1_1420)" style=""/>
</mask>
<g mask="url(#mask0_1_1420)">
<path d="M79.6064 86.9125H36.4308L36.4417 91.2106H79.6064C80.8868 91.2106 81.7684 89.9008 81.7684 89.0615C81.7684 88.2223 80.8868 86.9125 79.6064 86.9125Z" fill="#2642CF" style="fill:#2642CF;fill:color(display-p3 0.1490 0.2588 0.8118);fill-opacity:1;"/>
</g>
<defs>
<linearGradient id="paint0_linear_1_1420" x1="82.3836" y1="89.789" x2="57.3763" y2="89.789" gradientUnits="userSpaceOnUse">
<stop stop-opacity="0" style="stop-color:none;stop-opacity:0;"/>
<stop offset="1" style="stop-color:black;stop-opacity:1;"/>
</linearGradient>
</defs>
</svg>
