<svg width="112" height="112" viewBox="0 0 112 112" fill="none" xmlns="http://www.w3.org/2000/svg">
<path fill-rule="evenodd" clip-rule="evenodd" d="M50.9801 19.9874V15.5051C50.9801 13.835 52.334 12.4811 54.0041 12.4811H57.8391C59.5092 12.4811 60.8631 13.835 60.8631 15.5051V19.9874H71.1786C73 19.9874 74.7392 20.7456 75.9789 22.0801L83.0365 29.6773C85.3721 32.1915 85.3721 36.0819 83.0365 38.5961L75.9789 46.1933C74.7392 47.5278 73 48.2859 71.1786 48.2859H60.8631V52.2434H69.9202C73.5388 52.2434 76.4722 55.1769 76.4722 58.7954V73.99C76.4722 77.6085 73.5388 80.542 69.9202 80.542H60.8631V94.5071L67.5021 94.5071C68.6155 94.5071 69.5181 95.4097 69.5181 96.5231C69.5181 97.6365 68.6155 98.5391 67.5021 98.5391L44.3411 98.539C43.2277 98.539 42.3251 97.6364 42.3251 96.523C42.3251 95.4096 43.2277 94.507 44.3411 94.507L50.9801 94.507V80.542H39.2613C37.4399 80.542 35.7007 79.7838 34.461 78.4493L27.4033 70.8521C25.0677 68.3379 25.0677 64.4475 27.4033 61.9333L34.461 54.3361C35.7007 53.0016 37.4399 52.2434 39.2613 52.2434H50.9801V48.2859H40.5196C36.901 48.2859 33.9676 45.3525 33.9676 41.734V26.5394C33.9676 22.9209 36.901 19.9874 40.5196 19.9874H50.9801ZM55.0121 19.9874V16.5131H56.8311V19.9874H55.0121ZM55.0121 48.2859V52.2434H56.8311V48.2859H55.0121ZM55.0121 94.5071V80.542H56.8311V94.5071H55.0121ZM69.9202 56.2754C71.312 56.2754 72.4402 57.4037 72.4402 58.7954V73.99C72.4402 75.3817 71.312 76.5099 69.9202 76.5099H39.2613C38.5607 76.5099 37.8918 76.2183 37.415 75.7051L30.3573 68.1078C29.459 67.1408 29.459 65.6445 30.3573 64.6776L37.415 57.0803C37.8918 56.567 38.5607 56.2754 39.2613 56.2754H69.9202ZM37.9996 26.5394C37.9996 25.1477 39.1279 24.0194 40.5196 24.0194H71.1786C71.8791 24.0194 72.548 24.311 73.0248 24.8243L80.0825 32.4216C80.9808 33.3885 80.9808 34.8848 80.0825 35.8518L73.0248 43.4491C72.548 43.9623 71.8791 44.254 71.1786 44.254H40.5196C39.1279 44.254 37.9996 43.1257 37.9996 41.734V26.5394Z" fill="#2642CF" style="fill:#2642CF;fill:color(display-p3 0.1490 0.2588 0.8118);fill-opacity:1;"/>
<mask id="mask0_1_1588" style="mask-type:alpha" maskUnits="userSpaceOnUse" x="39" y="60" width="30" height="14">
<rect width="29.8349" height="13.1841" transform="matrix(-1 0 0 1 68.9276 60.0817)" fill="url(#paint0_linear_1_1588)" style=""/>
</mask>
<g mask="url(#mask0_1_1588)">
<path d="M41.4791 60.6519L66.5495 60.6519C67.663 60.6519 68.5655 61.5544 68.5656 62.6679C68.5656 63.7813 67.663 64.6839 66.5496 64.6839L41.4791 64.6839C40.3657 64.6839 39.4631 63.7813 39.4631 62.6679C39.4631 61.5545 40.3657 60.6519 41.4791 60.6519Z" fill="#E47789" style="fill:#E47789;fill:color(display-p3 0.8945 0.4663 0.5370);fill-opacity:1;"/>
<path d="M66.5495 68.6049L45.9914 68.6049C44.878 68.6049 43.9754 69.5075 43.9754 70.6209C43.9754 71.7343 44.878 72.6369 45.9914 72.6369L66.5496 72.6369C67.663 72.6369 68.5656 71.7343 68.5656 70.6209C68.5655 69.5075 67.663 68.6049 66.5495 68.6049Z" fill="#E47789" style="fill:#E47789;fill:color(display-p3 0.8945 0.4663 0.5370);fill-opacity:1;"/>
</g>
<mask id="mask1_1_1588" style="mask-type:alpha" maskUnits="userSpaceOnUse" x="41" y="26" width="31" height="16">
<rect x="41.8646" y="26.7686" width="29.8349" height="15.002" fill="url(#paint1_linear_1_1588)" style=""/>
</mask>
<g mask="url(#mask1_1_1588)">
<path d="M69.0695 28.396L43.999 28.396C42.8856 28.396 41.983 29.2986 41.983 30.412C41.983 31.5254 42.8856 32.428 43.999 32.428L69.0695 32.428C70.1829 32.428 71.0855 31.5254 71.0855 30.412C71.0855 29.2986 70.1829 28.396 69.0695 28.396Z" fill="#E47789" style="fill:#E47789;fill:color(display-p3 0.8945 0.4663 0.5370);fill-opacity:1;"/>
<path d="M43.999 36.349L64.5572 36.3491C65.6706 36.3491 66.5732 37.2516 66.5732 38.3651C66.5732 39.4785 65.6706 40.3811 64.5572 40.3811L43.999 40.381C42.8856 40.381 41.983 39.4784 41.983 38.365C41.983 37.2516 42.8856 36.349 43.999 36.349Z" fill="#E47789" style="fill:#E47789;fill:color(display-p3 0.8945 0.4663 0.5370);fill-opacity:1;"/>
</g>
<defs>
<linearGradient id="paint0_linear_1_1588" x1="29.4683" y1="6.64421" x2="9.71087" y2="6.64421" gradientUnits="userSpaceOnUse">
<stop stop-opacity="0" style="stop-color:none;stop-opacity:0;"/>
<stop offset="1" style="stop-color:black;stop-opacity:1;"/>
</linearGradient>
<linearGradient id="paint1_linear_1_1588" x1="71.3329" y1="34.3289" x2="51.5755" y2="34.3289" gradientUnits="userSpaceOnUse">
<stop stop-opacity="0" style="stop-color:none;stop-opacity:0;"/>
<stop offset="1" style="stop-color:black;stop-opacity:1;"/>
</linearGradient>
</defs>
</svg>
