<svg width="112" height="112" viewBox="0 0 112 112" fill="none" xmlns="http://www.w3.org/2000/svg">
<path fill-rule="evenodd" clip-rule="evenodd" d="M42.1561 15.4068C42.0761 14.6875 42.5944 14.0395 43.3138 13.9595L47.5363 13.4898C48.2557 13.4098 48.9037 13.9281 48.9837 14.6475L49.4533 18.87C49.5333 19.5894 49.015 20.2374 48.2957 20.3174L44.0731 20.787C43.3538 20.867 42.7058 20.3487 42.6257 19.6294L42.1561 15.4068ZM44.7493 18.458L44.4851 16.083L46.8601 15.8188L47.1243 18.1939L44.7493 18.458Z" fill="#2642CF" style="fill:#2642CF;fill:color(display-p3 0.1490 0.2588 0.8118);fill-opacity:1;"/>
<path fill-rule="evenodd" clip-rule="evenodd" d="M65.8782 18.3588C64.2 18.3588 62.8395 19.7193 62.8395 21.3975C62.8395 23.0757 64.2 24.4362 65.8782 24.4362C67.5564 24.4362 68.9169 23.0757 68.9169 21.3975C68.9169 19.7193 67.5564 18.3588 65.8782 18.3588ZM64.5195 21.3975C64.5195 22.1479 65.1278 22.7562 65.8782 22.7562C66.6286 22.7562 67.2369 22.1479 67.2369 21.3975C67.2369 20.6471 66.6286 20.0388 65.8782 20.0388C65.1278 20.0388 64.5195 20.6471 64.5195 21.3975Z" fill="#2642CF" style="fill:#2642CF;fill:color(display-p3 0.1490 0.2588 0.8118);fill-opacity:1;"/>
<path fill-rule="evenodd" clip-rule="evenodd" d="M44.123 42.0068C44.123 39.575 46.0944 37.6037 48.5262 37.6037C50.958 37.6037 52.9294 39.575 52.9294 42.0068C52.9294 42.2893 52.9028 42.5656 52.8519 42.8333H80.963C84.116 42.8333 85.5057 46.35 84.049 48.6518L64.855 78.9829V89.95C64.855 90.821 64.3502 91.613 63.5606 91.9807L50.3317 98.1406C49.6379 98.4637 48.8273 98.4102 48.182 97.9989C47.5367 97.5875 47.1461 96.8752 47.1461 96.11V78.9829L27.9522 48.6518C26.4955 46.35 27.8851 42.8333 31.0382 42.8333H44.2004C44.1496 42.5656 44.123 42.2893 44.123 42.0068ZM50.2188 42.8333H46.8336C46.7115 42.5838 46.643 42.3033 46.643 42.0068C46.643 40.9668 47.4861 40.1237 48.5262 40.1237C49.5662 40.1237 50.4094 40.9668 50.4094 42.0068C50.4094 42.3033 50.3408 42.5838 50.2188 42.8333ZM51.2789 77.1358L32.4068 47.3133H79.5943L60.7222 77.1358C60.4954 77.4942 60.375 77.9096 60.375 78.3336V88.5221L51.6261 92.596V78.3336C51.6261 77.9096 51.5057 77.4942 51.2789 77.1358Z" fill="#2642CF" style="fill:#2642CF;fill:color(display-p3 0.1490 0.2588 0.8118);fill-opacity:1;"/>
<path d="M52.6232 25.2906C51.2604 25.2906 50.1557 26.3953 50.1557 27.7581C50.1557 29.1208 51.2604 30.2256 52.6232 30.2256C53.9859 30.2256 55.0906 29.1208 55.0906 27.7581C55.0906 26.3953 53.9859 25.2906 52.6232 25.2906Z" fill="#2642CF" style="fill:#2642CF;fill:color(display-p3 0.1490 0.2588 0.8118);fill-opacity:1;"/>
<path d="M72.5724 31.4706C71.7276 31.3814 70.9704 31.994 70.8813 32.8389L70.3578 37.798C70.2686 38.6428 70.8812 39.4 71.726 39.4892L76.6851 40.0127C77.53 40.1019 78.2871 39.4893 78.3763 38.6444L78.8998 33.6853C78.989 32.8405 78.3764 32.0833 77.5316 31.9941L72.5724 31.4706Z" fill="#2642CF" style="fill:#2642CF;fill:color(display-p3 0.1490 0.2588 0.8118);fill-opacity:1;"/>
<path d="M36.2826 26.9556C37.0924 25.9472 38.6901 26.1936 39.1585 27.399L41.3421 33.0184C41.8105 34.2238 40.7983 35.4843 39.5201 35.2872L33.5618 34.3686C32.2837 34.1715 31.6982 32.6647 32.5079 31.6563L36.2826 26.9556Z" fill="#2642CF" style="fill:#2642CF;fill:color(display-p3 0.1490 0.2588 0.8118);fill-opacity:1;"/>
<path d="M60.6 31.7145C60.8999 31.0233 61.8357 30.9159 62.2844 31.5212L64.3761 34.3432C64.8248 34.9485 64.45 35.8126 63.7014 35.8985L60.2116 36.2991C59.463 36.385 58.9021 35.6283 59.202 34.937L60.6 31.7145Z" fill="#2642CF" style="fill:#2642CF;fill:color(display-p3 0.1490 0.2588 0.8118);fill-opacity:1;"/>
<path fill-rule="evenodd" clip-rule="evenodd" d="M42.1561 15.4068C42.0761 14.6875 42.5944 14.0395 43.3138 13.9595L47.5363 13.4898C48.2557 13.4098 48.9037 13.9281 48.9837 14.6475L49.4533 18.87C49.5333 19.5894 49.015 20.2374 48.2957 20.3174L44.0731 20.787C43.3538 20.867 42.7058 20.3487 42.6258 19.6294L42.1561 15.4068ZM44.7493 18.458L44.4852 16.083L46.8602 15.8188L47.1243 18.1939L44.7493 18.458Z" fill="#E47789" style="fill:#E47789;fill:color(display-p3 0.8945 0.4663 0.5370);fill-opacity:1;"/>
<path fill-rule="evenodd" clip-rule="evenodd" d="M65.8782 18.3588C64.2 18.3588 62.8396 19.7193 62.8396 21.3975C62.8396 23.0757 64.2 24.4362 65.8782 24.4362C67.5565 24.4362 68.9169 23.0757 68.9169 21.3975C68.9169 19.7193 67.5565 18.3588 65.8782 18.3588ZM64.5196 21.3975C64.5196 22.1479 65.1279 22.7562 65.8782 22.7562C66.6286 22.7562 67.2369 22.1479 67.2369 21.3975C67.2369 20.6471 66.6286 20.0388 65.8782 20.0388C65.1279 20.0388 64.5196 20.6471 64.5196 21.3975Z" fill="#E47789" style="fill:#E47789;fill:color(display-p3 0.8945 0.4663 0.5370);fill-opacity:1;"/>
<path d="M52.6232 25.2906C51.2604 25.2906 50.1557 26.3953 50.1557 27.7581C50.1557 29.1208 51.2604 30.2256 52.6232 30.2256C53.9859 30.2256 55.0907 29.1208 55.0907 27.7581C55.0907 26.3953 53.9859 25.2906 52.6232 25.2906Z" fill="#E47789" style="fill:#E47789;fill:color(display-p3 0.8945 0.4663 0.5370);fill-opacity:1;"/>
<path d="M72.5725 31.4706C71.7276 31.3814 70.9705 31.994 70.8813 32.8389L70.3578 37.798C70.2686 38.6428 70.8812 39.4 71.726 39.4892L76.6852 40.0127C77.53 40.1019 78.2872 39.4893 78.3764 38.6444L78.8998 33.6853C78.989 32.8405 78.3764 32.0833 77.5316 31.9941L72.5725 31.4706Z" fill="#E47789" style="fill:#E47789;fill:color(display-p3 0.8945 0.4663 0.5370);fill-opacity:1;"/>
<path d="M36.2827 26.9556C37.0924 25.9472 38.6901 26.1936 39.1585 27.399L41.3421 33.0184C41.8105 34.2238 40.7983 35.4843 39.5202 35.2872L33.5619 34.3686C32.2837 34.1715 31.6982 32.6647 32.5079 31.6563L36.2827 26.9556Z" fill="#E47789" style="fill:#E47789;fill:color(display-p3 0.8945 0.4663 0.5370);fill-opacity:1;"/>
<path d="M60.6 31.7145C60.8999 31.0233 61.8357 30.9159 62.2844 31.5212L64.3762 34.3432C64.8249 34.9485 64.45 35.8126 63.7014 35.8985L60.2116 36.2991C59.463 36.385 58.9021 35.6283 59.202 34.937L60.6 31.7145Z" fill="#E47789" style="fill:#E47789;fill:color(display-p3 0.8945 0.4663 0.5370);fill-opacity:1;"/>
<path d="M48.5262 37.6037C46.0944 37.6037 44.123 39.575 44.123 42.0068C44.123 42.2893 44.1496 42.5656 44.2005 42.8333H46.8336C46.7116 42.5838 46.643 42.3033 46.643 42.0068C46.643 40.9668 47.4862 40.1237 48.5262 40.1237C49.5663 40.1237 50.4094 40.9668 50.4094 42.0068C50.4094 42.3033 50.3409 42.5838 50.2188 42.8333H52.852C52.9028 42.5656 52.9294 42.2893 52.9294 42.0068C52.9294 39.575 50.958 37.6037 48.5262 37.6037Z" fill="#E47789" style="fill:#E47789;fill:color(display-p3 0.8945 0.4663 0.5370);fill-opacity:1;"/>
<mask id="mask0_1_1603" style="mask-type:alpha" maskUnits="userSpaceOnUse" x="34" y="48" width="41" height="12">
<rect x="34.7802" y="48.86" width="39.9467" height="10.64" fill="url(#paint0_linear_1_1603)" style=""/>
</mask>
<g mask="url(#mask0_1_1603)">
<path d="M72.1914 53.9984C72.1914 55.2355 71.1717 56.2383 69.9135 56.2383L34.0344 56.2383L34.0357 51.7583L69.9135 51.7583C71.1717 51.7583 72.1914 52.7612 72.1914 53.9984Z" fill="#2642CF" style="fill:#2642CF;fill:color(display-p3 0.1490 0.2588 0.8118);fill-opacity:1;"/>
</g>
<defs>
<linearGradient id="paint0_linear_1_1603" x1="71.8039" y1="54.9723" x2="46.7966" y2="54.9723" gradientUnits="userSpaceOnUse">
<stop stop-opacity="0" style="stop-color:none;stop-opacity:0;"/>
<stop offset="1" style="stop-color:black;stop-opacity:1;"/>
</linearGradient>
</defs>
</svg>
