<svg width="112" height="112" viewBox="0 0 112 112" fill="none" xmlns="http://www.w3.org/2000/svg">
<path d="M46.8382 16.9906L45.6975 14.6792L44.5566 16.9906L42.0057 17.3615L43.8515 19.1607L43.4159 21.7011L45.6975 20.5017L47.9791 21.7011L47.5433 19.1607L49.389 17.3615L46.8382 16.9906Z" fill="#2642CF" style="fill:#2642CF;fill:color(display-p3 0.1490 0.2588 0.8118);fill-opacity:1;"/>
<path d="M57.6444 16.9906L56.5038 14.6792L55.3628 16.9906L52.812 17.3615L54.6578 19.1607L54.2222 21.7011L56.5038 20.5017L58.7853 21.7011L58.3495 19.1607L60.1953 17.3615L57.6444 16.9906Z" fill="#2642CF" style="fill:#2642CF;fill:color(display-p3 0.1490 0.2588 0.8118);fill-opacity:1;"/>
<path d="M67.3548 14.6792L68.4954 16.9906L71.0463 17.3615L69.2005 19.1607L69.6363 21.7011L67.3548 20.5017L65.0732 21.7011L65.5088 19.1607L63.663 17.3615L66.2138 16.9906L67.3548 14.6792Z" fill="#2642CF" style="fill:#2642CF;fill:color(display-p3 0.1490 0.2588 0.8118);fill-opacity:1;"/>
<path fill-rule="evenodd" clip-rule="evenodd" d="M77.4029 26.798C78.3586 26.798 79.1591 25.9976 79.1591 25.0419V11.3383C79.1591 10.3826 78.3586 9.58215 77.4029 9.58215H34.0482C33.0927 9.58215 32.2921 10.3828 32.2921 11.3383V25.0419C32.2921 25.9974 33.0927 26.798 34.0482 26.798H40.6249V30.6724L33.5329 30.6725C31.5864 30.6735 29.6826 31.4627 28.3062 32.839C26.928 34.2172 26.1407 36.1174 26.1392 38.0664V95.0236C26.1407 96.9727 26.928 98.8728 28.3062 100.251C29.683 101.627 31.5862 102.416 33.5329 102.418L50.0587 102.418L50.0675 97.8365L33.5358 97.8365C32.7936 97.8336 32.0699 97.5364 31.5437 97.0118C31.0187 96.4852 30.7242 95.7639 30.7212 95.0214L30.7183 38.0727C30.7186 37.3275 31.0166 36.6062 31.5437 36.0783C32.0714 35.5512 32.7907 35.2537 33.5358 35.2535H78.4641C79.2093 35.2537 79.9254 35.5512 80.4533 36.0783C80.9805 36.6062 81.2785 37.3235 81.2787 38.0687V94.0993C81.2787 95.3644 82.3041 96.3889 83.5692 96.3889C84.8308 96.3889 85.8551 95.3595 85.8608 94.0993V38.0664C85.8593 36.1211 85.069 34.2148 83.6937 32.839C82.2326 31.3778 80.4303 30.8685 78.419 30.6722L70.8262 30.6722V26.798H77.4029ZM67.4461 30.6723L44.005 30.6724V26.798H67.4461V30.6723ZM75.647 13.0945V23.2857H35.8044V13.0945H75.647Z" fill="#2642CF" style="fill:#2642CF;fill:color(display-p3 0.1490 0.2588 0.8118);fill-opacity:1;"/>
<path d="M46.1353 50.6239H39.9932V44.4819H46.1353V50.6239Z" fill="#2642CF" style="fill:#2642CF;fill:color(display-p3 0.1490 0.2588 0.8118);fill-opacity:1;"/>
<path d="M52.6547 50.6239H58.7967V44.4819H52.6547V50.6239Z" fill="#2642CF" style="fill:#2642CF;fill:color(display-p3 0.1490 0.2588 0.8118);fill-opacity:1;"/>
<path d="M65.3159 50.6239H71.458V44.4819H65.3159V50.6239Z" fill="#2642CF" style="fill:#2642CF;fill:color(display-p3 0.1490 0.2588 0.8118);fill-opacity:1;"/>
<path d="M39.9932 63.2855H46.1353V57.1434H39.9932V63.2855Z" fill="#2642CF" style="fill:#2642CF;fill:color(display-p3 0.1490 0.2588 0.8118);fill-opacity:1;"/>
<path d="M52.6547 63.2855H58.7967V57.1434H52.6547V63.2855Z" fill="#2642CF" style="fill:#2642CF;fill:color(display-p3 0.1490 0.2588 0.8118);fill-opacity:1;"/>
<path d="M65.3159 63.2855H71.458V57.1434H65.3159V63.2855Z" fill="#2642CF" style="fill:#2642CF;fill:color(display-p3 0.1490 0.2588 0.8118);fill-opacity:1;"/>
<path d="M39.9932 75.9469H46.1353V69.8048H39.9932V75.9469Z" fill="#2642CF" style="fill:#2642CF;fill:color(display-p3 0.1490 0.2588 0.8118);fill-opacity:1;"/>
<path d="M52.6547 75.9469H58.7967V69.8048H52.6547V75.9469Z" fill="#2642CF" style="fill:#2642CF;fill:color(display-p3 0.1490 0.2588 0.8118);fill-opacity:1;"/>
<path d="M65.3159 75.9469H71.458V69.8048H65.3159V75.9469Z" fill="#2642CF" style="fill:#2642CF;fill:color(display-p3 0.1490 0.2588 0.8118);fill-opacity:1;"/>
<path d="M39.9932 88.6081H46.1353V82.4661H39.9932V88.6081Z" fill="#2642CF" style="fill:#2642CF;fill:color(display-p3 0.1490 0.2588 0.8118);fill-opacity:1;"/>
<path d="M52.6547 88.6081H58.7967V82.4661H52.6547V88.6081Z" fill="#2642CF" style="fill:#2642CF;fill:color(display-p3 0.1490 0.2588 0.8118);fill-opacity:1;"/>
<path d="M65.3159 88.6081H71.458V82.4661H65.3159V88.6081Z" fill="#2642CF" style="fill:#2642CF;fill:color(display-p3 0.1490 0.2588 0.8118);fill-opacity:1;"/>
<path d="M46.1354 50.6239H39.9933V44.4818H46.1354V50.6239Z" fill="#E47789" style="fill:#E47789;fill:color(display-p3 0.8945 0.4663 0.5370);fill-opacity:1;"/>
<path d="M52.6547 50.6239H58.7968V44.4818H52.6547V50.6239Z" fill="#E47789" style="fill:#E47789;fill:color(display-p3 0.8945 0.4663 0.5370);fill-opacity:1;"/>
<path d="M65.316 50.6239H71.458V44.4818H65.316V50.6239Z" fill="#E47789" style="fill:#E47789;fill:color(display-p3 0.8945 0.4663 0.5370);fill-opacity:1;"/>
<path d="M39.9933 63.2854H46.1354V57.1433H39.9933V63.2854Z" fill="#E47789" style="fill:#E47789;fill:color(display-p3 0.8945 0.4663 0.5370);fill-opacity:1;"/>
<path d="M52.6547 63.2854H58.7968V57.1433H52.6547V63.2854Z" fill="#E47789" style="fill:#E47789;fill:color(display-p3 0.8945 0.4663 0.5370);fill-opacity:1;"/>
<path d="M65.316 63.2854H71.458V57.1433H65.316V63.2854Z" fill="#E47789" style="fill:#E47789;fill:color(display-p3 0.8945 0.4663 0.5370);fill-opacity:1;"/>
<path d="M39.9933 75.9468H46.1354V69.8048H39.9933V75.9468Z" fill="#E47789" style="fill:#E47789;fill:color(display-p3 0.8945 0.4663 0.5370);fill-opacity:1;"/>
<path d="M52.6547 75.9468H58.7968V69.8048H52.6547V75.9468Z" fill="#E47789" style="fill:#E47789;fill:color(display-p3 0.8945 0.4663 0.5370);fill-opacity:1;"/>
<path d="M65.316 75.9468H71.458V69.8048H65.316V75.9468Z" fill="#E47789" style="fill:#E47789;fill:color(display-p3 0.8945 0.4663 0.5370);fill-opacity:1;"/>
<path d="M39.9933 88.6081H46.1354V82.466H39.9933V88.6081Z" fill="#E47789" style="fill:#E47789;fill:color(display-p3 0.8945 0.4663 0.5370);fill-opacity:1;"/>
<path d="M52.6547 88.6081H58.7968V82.466H52.6547V88.6081Z" fill="#E47789" style="fill:#E47789;fill:color(display-p3 0.8945 0.4663 0.5370);fill-opacity:1;"/>
<path d="M65.316 88.6081H71.458V82.466H65.316V88.6081Z" fill="#E47789" style="fill:#E47789;fill:color(display-p3 0.8945 0.4663 0.5370);fill-opacity:1;"/>
<mask id="mask0_1_1472" style="mask-type:alpha" maskUnits="userSpaceOnUse" x="39" y="94" width="41" height="12">
<rect x="39.9467" y="94.64" width="39.9467" height="11.2" fill="url(#paint0_linear_1_1472)" style=""/>
</mask>
<g mask="url(#mask0_1_1472)">
<path d="M30.9343 96.0976C30.7942 95.7589 30.7229 95.3959 30.7214 95.0214L26.1393 95.0236C26.14 95.9856 26.3299 96.9582 26.7022 97.8535C27.0735 98.7496 27.6234 99.568 28.3064 100.251C28.9893 100.934 29.8076 101.482 30.7039 101.853C31.5991 102.226 32.5711 102.417 33.533 102.418L73.9522 102.418C75.2173 102.418 76.2418 101.392 76.2418 100.127C76.2418 98.8657 75.2211 97.8422 73.9609 97.8365L33.5359 97.8365C33.1614 97.8351 32.7987 97.7624 32.4597 97.6223C32.1215 97.4822 31.8062 97.2733 31.5439 97.0118C31.282 96.7492 31.0744 96.436 30.9343 96.0976Z" fill="#2642CF" style="fill:#2642CF;fill:color(display-p3 0.1490 0.2588 0.8118);fill-opacity:1;"/>
</g>
<defs>
<linearGradient id="paint0_linear_1_1472" x1="76.9704" y1="101.074" x2="51.9631" y2="101.074" gradientUnits="userSpaceOnUse">
<stop stop-opacity="0" style="stop-color:none;stop-opacity:0;"/>
<stop offset="1" style="stop-color:black;stop-opacity:1;"/>
</linearGradient>
</defs>
</svg>
