<svg width="112" height="112" viewBox="0 0 112 112" fill="none" xmlns="http://www.w3.org/2000/svg">
<path fill-rule="evenodd" clip-rule="evenodd" d="M54.9043 21.4197L51.455 28.4088L43.7419 29.5295C43.0811 29.6256 42.5279 30.092 42.3215 30.7272C42.1152 31.3623 42.2887 32.0647 42.7668 32.5309L48.3479 37.9711L47.0305 45.653C46.9175 46.3111 47.1903 46.9814 47.7304 47.3741C48.2707 47.7666 48.9925 47.8186 49.5836 47.508L56.4823 43.8812L63.381 47.508C63.9721 47.8186 64.6936 47.7666 65.234 47.3741C65.7743 46.9814 66.0469 46.3111 65.9341 45.653L64.6165 37.9711L70.1976 32.5309C70.6759 32.0647 70.8494 31.3623 70.6428 30.7272C70.4365 30.092 69.8835 29.6256 69.2224 29.5295L61.5096 28.4088L58.0603 21.4197C57.7646 20.8209 57.1501 20.4386 56.4823 20.4386C55.8145 20.4386 55.2 20.8209 54.9043 21.4197ZM54.2015 30.7959L56.4823 26.1745L58.7631 30.7959C59.0182 31.3128 59.5175 31.6754 60.088 31.7583L65.1882 32.4995L61.4977 36.0967C61.0848 36.4992 60.8941 37.086 60.9917 37.6542L61.8628 42.7338L57.3012 40.3355C56.7907 40.0672 56.1737 40.0672 55.6635 40.3355L51.1018 42.7338L51.9729 37.6542C52.0705 37.086 51.8798 36.4992 51.4669 36.0967L47.7764 32.4995L52.8767 31.7583C53.4471 31.6754 53.9464 31.3128 54.2015 30.7959Z" fill="#2642CF" style="fill:#2642CF;fill:color(display-p3 0.1490 0.2588 0.8118);fill-opacity:1;"/>
<path d="M54.8555 63.5371V49.4535C54.8555 48.4816 55.6432 47.6938 56.6151 47.6938C57.5868 47.6938 58.3748 48.4816 58.3748 49.4535V63.5371C58.3748 64.509 57.5868 65.2968 56.6151 65.2968C55.6432 65.2968 54.8555 64.509 54.8555 63.5371Z" fill="#2642CF" style="fill:#2642CF;fill:color(display-p3 0.1490 0.2588 0.8118);fill-opacity:1;"/>
<path fill-rule="evenodd" clip-rule="evenodd" d="M80.167 69.6038C78.8267 69.6038 77.7403 70.6903 77.7403 72.0305V87.1505C77.7403 88.4907 78.8267 89.5772 80.167 89.5772H95.287C96.6272 89.5772 97.7136 88.4907 97.7136 87.1505V72.0305C97.7136 70.6903 96.6272 69.6038 95.287 69.6038H80.167ZM81.287 73.1505V86.0305H94.167V73.1505H81.287Z" fill="#2642CF" style="fill:#2642CF;fill:color(display-p3 0.1490 0.2588 0.8118);fill-opacity:1;"/>
<path fill-rule="evenodd" clip-rule="evenodd" d="M44.7037 79.7826C44.7037 73.2774 49.9771 68.004 56.4823 68.004C62.9875 68.004 68.2609 73.2774 68.2609 79.7826C68.2609 86.2878 62.9875 91.5612 56.4823 91.5612C49.9771 91.5612 44.7037 86.2878 44.7037 79.7826ZM56.4823 88.0146C51.9359 88.0146 48.2503 84.329 48.2503 79.7826C48.2503 75.2362 51.9359 71.5506 56.4823 71.5506C61.0287 71.5506 64.7143 75.2362 64.7143 79.7826C64.7143 84.329 61.0287 88.0146 56.4823 88.0146Z" fill="#2642CF" style="fill:#2642CF;fill:color(display-p3 0.1490 0.2588 0.8118);fill-opacity:1;"/>
<path fill-rule="evenodd" clip-rule="evenodd" d="M14.5221 87.2911L24.1196 70.6678C24.434 70.1232 25.0149 69.788 25.6436 69.788C26.2723 69.788 26.8529 70.1232 27.1673 70.6678L36.7649 87.2911C37.0793 87.8356 37.0793 88.5064 36.7649 89.0507C36.4506 89.5951 35.8697 89.9306 35.241 89.9306H16.046C15.4173 89.9306 14.8364 89.5951 14.5221 89.0507C14.2078 88.5064 14.2078 87.8356 14.5221 87.2911ZM25.6435 75.0668L19.0937 86.4113H32.1934L25.6435 75.0668Z" fill="#2642CF" style="fill:#2642CF;fill:color(display-p3 0.1490 0.2588 0.8118);fill-opacity:1;"/>
<mask id="mask0_1_1536" style="mask-type:alpha" maskUnits="userSpaceOnUse" x="21" y="51" width="33" height="17">
<rect x="21.6776" y="51.0627" width="32.2446" height="16.4426" fill="url(#paint0_linear_1_1536)" style=""/>
</mask>
<g mask="url(#mask0_1_1536)">
<path d="M22.7914 63.6717C22.7914 64.838 23.7367 65.7833 24.903 65.7833C26.0691 65.7833 27.0143 64.7567 27.0143 63.5904V57.2096H38.456H49.8977C51.0639 57.2096 52.0092 56.2641 52.0092 55.098C52.0092 53.9317 51.0639 52.9865 49.8977 52.9865H24.903C23.7367 52.9865 22.7913 53.9317 22.7913 55.098L22.7914 63.6717Z" fill="#E47789" style="fill:#E47789;fill:color(display-p3 0.8945 0.4663 0.5370);fill-opacity:1;"/>
</g>
<mask id="mask1_1_1536" style="mask-type:alpha" maskUnits="userSpaceOnUse" x="58" y="51" width="33" height="17">
<rect width="32.2446" height="16.4426" transform="matrix(-1 0 0 1 90.3223 51.0627)" fill="url(#paint1_linear_1_1536)" style=""/>
</mask>
<g mask="url(#mask1_1_1536)">
<path d="M89.2086 63.6717C89.2086 64.838 88.2633 65.7833 87.0971 65.7833C85.931 65.7833 84.9857 64.7567 84.9857 63.5904V57.2096H73.5441H62.1024C60.9361 57.2096 59.9908 56.2641 59.9908 55.098C59.9908 53.9317 60.9361 52.9865 62.1024 52.9865H87.097C88.2633 52.9865 89.2087 53.9317 89.2087 55.098L89.2086 63.6717Z" fill="#E47789" style="fill:#E47789;fill:color(display-p3 0.8945 0.4663 0.5370);fill-opacity:1;"/>
</g>
<defs>
<linearGradient id="paint0_linear_1_1536" x1="51.5629" y1="60.5085" x2="31.3772" y2="60.5085" gradientUnits="userSpaceOnUse">
<stop stop-opacity="0" style="stop-color:none;stop-opacity:0;"/>
<stop offset="1" style="stop-color:black;stop-opacity:1;"/>
</linearGradient>
<linearGradient id="paint1_linear_1_1536" x1="29.8853" y1="9.44576" x2="9.69959" y2="9.44576" gradientUnits="userSpaceOnUse">
<stop stop-opacity="0" style="stop-color:none;stop-opacity:0;"/>
<stop offset="1" style="stop-color:black;stop-opacity:1;"/>
</linearGradient>
</defs>
</svg>
