<svg width="112" height="112" viewBox="0 0 112 112" fill="none" xmlns="http://www.w3.org/2000/svg">
<path fill-rule="evenodd" clip-rule="evenodd" d="M56.4745 12.5848C43.8235 12.5848 33.5677 22.8406 33.5677 35.4916V43.9069H29.4237C23.3252 43.9069 18.3813 48.8507 18.3813 54.9492V88.1696C18.3813 94.2672 23.322 99.2119 29.4214 99.2119H61.5964V94.2119H29.4214C26.0852 94.2119 23.3813 91.5076 23.3813 88.1696V54.9492C23.3813 51.6121 26.0866 48.9069 29.4237 48.9069H83.5254C86.8625 48.9069 89.5678 51.6121 89.5678 54.9492V64.7645H94.5678V54.9492C94.5678 48.8507 89.6239 43.9069 83.5254 43.9069H79.3813V35.4916C79.3813 22.8406 69.1256 12.5848 56.4745 12.5848ZM74.3813 43.9069V35.4916C74.3813 25.602 66.3642 17.5848 56.4745 17.5848C46.5849 17.5848 38.5677 25.602 38.5677 35.4916V43.9069H74.3813Z" fill="#2642CF" style="fill:#2642CF;fill:color(display-p3 0.1490 0.2588 0.8118);fill-opacity:1;"/>
<path d="M54.1017 77.2543V70.612C51.8722 69.6823 50.3051 67.4818 50.3051 64.9153C50.3051 61.508 53.0672 58.7458 56.4745 58.7458C59.8819 58.7458 62.644 61.508 62.644 64.9153C62.644 67.4818 61.077 69.6822 58.8474 70.612V77.2543C58.8474 78.5648 57.7851 79.6271 56.4746 79.6271C55.1641 79.6271 54.1017 78.5648 54.1017 77.2543Z" fill="#2642CF" style="fill:#2642CF;fill:color(display-p3 0.1490 0.2588 0.8118);fill-opacity:1;"/>
<path d="M62.644 64.9153C62.644 67.4818 61.077 69.6822 58.8474 70.612V77.2543C58.8474 78.5648 57.7851 79.6271 56.4746 79.6271C55.1641 79.6271 54.1017 78.5648 54.1017 77.2543V70.612C51.8722 69.6823 50.3051 67.4818 50.3051 64.9153C50.3051 61.508 53.0672 58.7458 56.4745 58.7458C59.8819 58.7458 62.644 61.508 62.644 64.9153Z" fill="#E47789" style="fill:#E47789;fill:color(display-p3 0.8945 0.4663 0.5370);fill-opacity:1;"/>
<mask id="mask0_1_14928" style="mask-type:alpha" maskUnits="userSpaceOnUse" x="29" y="49" width="66" height="51">
<rect x="29.899" y="49.7646" width="65" height="50" fill="url(#paint0_linear_1_14928)" style=""/>
</mask>
<g mask="url(#mask0_1_14928)">
<path d="M89.5678 54.9509V90.3015C89.5678 91.6822 90.6871 92.8015 92.0678 92.8015C93.4485 92.8015 94.5678 91.6822 94.5678 90.3015V54.9509H89.5678Z" fill="#2642CF" style="fill:#2642CF;fill:color(display-p3 0.1490 0.2588 0.8118);fill-opacity:1;"/>
<path d="M88.0964 96.7136C88.0964 98.0943 86.9772 99.2136 85.5964 99.2136H41.5089V94.2136H85.5964C86.9772 94.2136 88.0964 95.3329 88.0964 96.7136Z" fill="#2642CF" style="fill:#2642CF;fill:color(display-p3 0.1490 0.2588 0.8118);fill-opacity:1;"/>
</g>
<defs>
<linearGradient id="paint0_linear_1_14928" x1="70.0465" y1="78.3628" x2="87.9525" y2="97.1736" gradientUnits="userSpaceOnUse">
<stop offset="0.403031" style="stop-color:black;stop-opacity:1;"/>
<stop offset="1" stop-opacity="0" style="stop-color:none;stop-opacity:0;"/>
</linearGradient>
</defs>
</svg>
