<svg width="112" height="112" viewBox="0 0 112 112" fill="none" xmlns="http://www.w3.org/2000/svg">
<path d="M35.1901 76.2682C35.2697 76.319 35.3456 76.3736 35.4176 76.4317C36.4489 76.7815 37.1208 77.8237 36.9668 78.9426L35.7257 87.7742L44.8024 81.4485C45.8527 80.7164 47.2977 80.9745 48.0297 82.0249C48.7617 83.0752 48.5037 84.5201 47.4533 85.2522L36.7477 92.7132C34.0536 94.5908 30.4143 92.3623 30.862 89.1091L32.1569 79.8598C26.0587 75.9887 21.3776 70.6947 18.7027 64.5948C15.665 57.6671 15.3828 50.0826 17.8997 43.0053C20.4165 35.928 25.5932 29.749 32.6354 25.4164C39.6776 21.0839 48.196 18.8373 56.8836 19.0213C65.5711 19.2054 73.9476 21.81 80.7276 26.4354C87.5076 31.0607 92.3165 37.4514 94.4162 44.6265C96.5159 51.8016 95.7905 59.3647 92.3513 66.1552C89.1857 72.4054 83.8819 77.6831 77.1535 81.3131C76.1482 81.8555 74.9078 81.5079 74.2773 80.5554C73.5106 79.3973 73.948 77.8335 75.1533 77.1436C80.6296 74.0089 84.9514 69.5924 87.5786 64.4051C90.5676 58.5036 91.1981 51.9307 89.3732 45.6949C87.5484 39.4591 83.3691 33.9051 77.4767 29.8853C71.5843 25.8654 64.3044 23.6018 56.7542 23.4419C49.204 23.2819 41.8007 25.2344 35.6805 28.9997C29.5603 32.7651 25.0612 38.1352 22.8739 44.286C20.6866 50.4367 20.9317 57.0283 23.5718 63.049C25.8856 68.3256 29.9267 72.9082 35.1901 76.2682Z" fill="#2642CF" style="fill:#2642CF;fill:color(display-p3 0.1490 0.2588 0.8118);fill-opacity:1;"/>
<path d="M45.7035 52.8714C45.7035 55.2127 43.7574 57.1106 41.3569 57.1106C38.9564 57.1106 37.0103 55.2127 37.0103 52.8714C37.0103 50.5302 38.9564 48.6322 41.3569 48.6322C43.7574 48.6322 45.7035 50.5302 45.7035 52.8714Z" fill="#2642CF" style="fill:#2642CF;fill:color(display-p3 0.1490 0.2588 0.8118);fill-opacity:1;"/>
<path d="M60.192 52.8714C60.192 55.2127 58.246 57.1106 55.8454 57.1106C53.4449 57.1106 51.4989 55.2127 51.4989 52.8714C51.4989 50.5302 53.4449 48.6322 55.8454 48.6322C58.246 48.6322 60.192 50.5302 60.192 52.8714Z" fill="#2642CF" style="fill:#2642CF;fill:color(display-p3 0.1490 0.2588 0.8118);fill-opacity:1;"/>
<path d="M74.6805 52.8714C74.6805 55.2127 72.7345 57.1106 70.334 57.1106C67.9334 57.1106 65.9874 55.2127 65.9874 52.8714C65.9874 50.5302 67.9334 48.6322 70.334 48.6322C72.7345 48.6322 74.6805 50.5302 74.6805 52.8714Z" fill="#2642CF" style="fill:#2642CF;fill:color(display-p3 0.1490 0.2588 0.8118);fill-opacity:1;"/>
<path d="M45.7035 52.8714C45.7035 55.2126 43.7575 57.1106 41.3569 57.1106C38.9564 57.1106 37.0104 55.2126 37.0104 52.8714C37.0104 50.5301 38.9564 48.6322 41.3569 48.6322C43.7575 48.6322 45.7035 50.5301 45.7035 52.8714Z" fill="#E47789" style="fill:#E47789;fill:color(display-p3 0.8945 0.4663 0.5370);fill-opacity:1;"/>
<path d="M60.192 52.8714C60.192 55.2127 58.246 57.1106 55.8455 57.1106C53.4449 57.1106 51.4989 55.2127 51.4989 52.8714C51.4989 50.5302 53.4449 48.6322 55.8455 48.6322C58.246 48.6322 60.192 50.5302 60.192 52.8714Z" fill="#E47789" style="fill:#E47789;fill:color(display-p3 0.8945 0.4663 0.5370);fill-opacity:1;"/>
<path d="M74.6806 52.8714C74.6806 55.2127 72.7346 57.1106 70.334 57.1106C67.9335 57.1106 65.9875 55.2127 65.9875 52.8714C65.9875 50.5302 67.9335 48.6322 70.334 48.6322C72.7346 48.6322 74.6806 50.5302 74.6806 52.8714Z" fill="#E47789" style="fill:#E47789;fill:color(display-p3 0.8945 0.4663 0.5370);fill-opacity:1;"/>
<mask id="mask0_1_1436" style="mask-type:alpha" maskUnits="userSpaceOnUse" x="49" y="70" width="36" height="23">
<path d="M84.9452 85.3798L81.4028 70.1059L49.4911 77.6121L53.0103 92.7862L84.9452 85.3798Z" fill="url(#paint0_linear_1_1436)" style=""/>
</mask>
<g mask="url(#mask0_1_1436)">
<path d="M52.1426 84.064C51.9903 85.3067 52.8978 86.4336 54.1487 86.4829C60.045 86.7149 65.9382 85.8255 71.3954 83.8692C76.6043 82.002 81.2733 79.2139 85.0993 75.7011C86.1976 74.6927 85.9949 72.9475 84.7581 72.1148C83.7676 71.448 82.4458 71.6085 81.5764 72.4269C78.1985 75.6064 74.0366 78.1241 69.3776 79.7942C64.6816 81.4776 59.614 82.2521 54.5402 82.0714C53.3469 82.0289 52.2879 82.8789 52.1426 84.064Z" fill="#2642CF" style="fill:#2642CF;fill:color(display-p3 0.1490 0.2588 0.8118);fill-opacity:1;"/>
</g>
<defs>
<linearGradient id="paint0_linear_1_1436" x1="53.312" y1="83.4699" x2="73.3038" y2="78.8333" gradientUnits="userSpaceOnUse">
<stop stop-opacity="0" style="stop-color:none;stop-opacity:0;"/>
<stop offset="1" style="stop-color:black;stop-opacity:1;"/>
</linearGradient>
</defs>
</svg>
