<svg width="112" height="112" viewBox="0 0 112 112" fill="none" xmlns="http://www.w3.org/2000/svg">
<path d="M89.4616 14.7799C89.7618 13.6596 90.9133 12.9948 92.0335 13.295C93.1538 13.5952 93.8186 14.7467 93.5185 15.8669L91.5532 23.2014C91.253 24.3217 90.1015 24.9865 88.9812 24.6864C87.861 24.3862 87.1961 23.2347 87.4963 22.1144L89.4616 14.7799Z" fill="#2642CF" style="fill:#2642CF;fill:color(display-p3 0.1490 0.2588 0.8118);fill-opacity:1;"/>
<path d="M102.585 22.3868C103.59 21.8069 104.874 22.1511 105.454 23.1555C106.034 24.1599 105.69 25.4443 104.685 26.0242L98.1095 29.8208C97.1051 30.4007 95.8207 30.0565 95.2408 29.0521C94.6609 28.0477 95.0051 26.7634 96.0095 26.1835L102.585 22.3868Z" fill="#2642CF" style="fill:#2642CF;fill:color(display-p3 0.1490 0.2588 0.8118);fill-opacity:1;"/>
<path d="M107.688 40.0878C107.388 41.208 106.237 41.8729 105.116 41.5727L97.782 39.6074C96.6617 39.3072 95.9969 38.1557 96.2971 37.0355C96.5973 35.9152 97.7488 35.2504 98.869 35.5505L106.204 37.5158C107.324 37.816 107.989 38.9675 107.688 40.0878Z" fill="#2642CF" style="fill:#2642CF;fill:color(display-p3 0.1490 0.2588 0.8118);fill-opacity:1;"/>
<path fill-rule="evenodd" clip-rule="evenodd" d="M31.322 29.1721C25.4168 29.1721 20.6296 33.9593 20.6296 39.8645V71.1866C20.6296 77.0895 25.4074 81.8789 31.3149 81.8789H56.1444C57.3318 81.8789 58.2944 80.9163 58.2944 79.7289C58.2944 78.5415 57.3318 77.5789 56.1444 77.5789H31.3149C29.9721 77.5789 28.7264 77.1646 27.6985 76.4566L46.5843 60.5182L49.316 63.0937C53.0694 66.6326 58.9306 66.6326 62.684 63.0937L65.8971 60.0642L80.0216 72.784C80.9039 73.5786 82.2634 73.5074 83.058 72.6251C83.8526 71.7427 83.7815 70.3833 82.8991 69.5887L69.0362 57.1044L87.0703 40.1009V51.683C87.0703 52.8704 88.0329 53.833 89.2203 53.833C90.4077 53.833 91.3703 52.8704 91.3703 51.683V39.8645C91.3703 33.9593 86.5832 29.1721 80.6779 29.1721H31.322ZM43.4353 57.5491L25.1775 72.9575C25.0161 72.3953 24.9296 71.8011 24.9296 71.1866V40.1009L43.4353 57.5491ZM85.5017 35.6699C84.3298 34.3233 82.6033 33.4721 80.6779 33.4721H31.322C29.3967 33.4721 27.6702 34.3233 26.4982 35.6699L52.2659 59.9651C54.3627 61.9422 57.6372 61.9422 59.7341 59.9651L85.5017 35.6699Z" fill="#2642CF" style="fill:#2642CF;fill:color(display-p3 0.1490 0.2588 0.8118);fill-opacity:1;"/>
<path d="M89.4615 14.7799C89.7617 13.6596 90.9132 12.9948 92.0335 13.295C93.1538 13.5952 93.8186 14.7467 93.5184 15.8669L91.5532 23.2014C91.253 24.3217 90.1015 24.9865 88.9812 24.6864C87.8609 24.3862 87.1961 23.2347 87.4963 22.1144L89.4615 14.7799Z" fill="#E47789" style="fill:#E47789;fill:color(display-p3 0.8945 0.4663 0.5370);fill-opacity:1;"/>
<path d="M102.585 22.3868C103.59 21.8069 104.874 22.1511 105.454 23.1555C106.034 24.1599 105.69 25.4443 104.685 26.0242L98.1095 29.8208C97.105 30.4007 95.8207 30.0565 95.2408 29.0521C94.6609 28.0477 95.005 26.7634 96.0094 26.1835L102.585 22.3868Z" fill="#E47789" style="fill:#E47789;fill:color(display-p3 0.8945 0.4663 0.5370);fill-opacity:1;"/>
<path d="M107.688 40.0878C107.388 41.208 106.237 41.8729 105.116 41.5727L97.782 39.6074C96.6617 39.3072 95.9969 38.1557 96.297 37.0355C96.5972 35.9152 97.7487 35.2504 98.869 35.5505L106.203 37.5158C107.324 37.816 107.989 38.9675 107.688 40.0878Z" fill="#E47789" style="fill:#E47789;fill:color(display-p3 0.8945 0.4663 0.5370);fill-opacity:1;"/>
<mask id="mask0_1_14740" style="mask-type:alpha" maskUnits="userSpaceOnUse" x="27" y="32" width="66" height="51">
<rect x="27.4109" y="32.7646" width="65" height="50" fill="url(#paint0_linear_1_14740)" style=""/>
</mask>
<g mask="url(#mask0_1_14740)">
<path d="M85.3436 79.7309C85.3436 80.9183 84.381 81.8809 83.1936 81.8809H31.3281V77.5809H83.1936C84.381 77.5809 85.3436 78.5435 85.3436 79.7309Z" fill="#2642CF" style="fill:#2642CF;fill:color(display-p3 0.1490 0.2588 0.8118);fill-opacity:1;"/>
<path d="M87.0835 73.5607V40.1028L91.3835 39.8665V73.5607C91.3835 74.7481 90.4209 75.7107 89.2335 75.7107C88.0461 75.7107 87.0835 74.7481 87.0835 73.5607Z" fill="#2642CF" style="fill:#2642CF;fill:color(display-p3 0.1490 0.2588 0.8118);fill-opacity:1;"/>
</g>
<defs>
<linearGradient id="paint0_linear_1_14740" x1="67.5583" y1="61.3628" x2="85.4644" y2="80.1736" gradientUnits="userSpaceOnUse">
<stop offset="0.403031" style="stop-color:black;stop-opacity:1;"/>
<stop offset="1" stop-opacity="0" style="stop-color:none;stop-opacity:0;"/>
</linearGradient>
</defs>
</svg>
