<svg width="112" height="112" viewBox="0 0 112 112" fill="none" xmlns="http://www.w3.org/2000/svg">
<path d="M56.5393 21.1852C55.3526 21.2043 54.3749 20.2578 54.3558 19.0711C54.3366 17.8844 55.2831 16.9068 56.4698 16.8876C56.5765 16.8852 58.8126 16.8555 62.1368 17.4695C65.1108 18.0203 68.9608 19.0868 72.9192 21.1862C75.5566 22.5857 78.2411 24.4474 80.7186 26.9168C84.0228 30.2069 86.9463 34.5824 88.8961 40.2839C90.0118 43.5416 90.813 47.2299 91.2075 51.3973C91.3193 52.5788 90.4521 53.6273 89.2704 53.7393C88.0889 53.8511 87.0404 52.984 86.9284 51.8022C86.3101 45.2853 84.6448 40.2269 82.4307 36.2589C80.2136 32.2921 77.4417 29.3995 74.5203 27.2498C72.5727 25.8185 70.5577 24.7216 68.6064 23.8824C66.0055 22.7631 63.5179 22.1038 61.482 21.7198C59.8606 21.4135 58.1931 21.1852 56.5393 21.1852Z" fill="#2642CF" style="fill:#2642CF;fill:color(display-p3 0.1490 0.2588 0.8118);fill-opacity:1;"/>
<path d="M54.8968 32.9753C53.7109 32.9295 52.7865 31.9309 52.8321 30.745C52.8778 29.559 53.8769 28.6344 55.0631 28.6802C59.5807 28.8739 64.2441 30.6847 67.9369 33.212C70.029 34.6441 72.1018 36.5394 73.8761 39.02C76.2455 42.3258 78.0632 46.6639 78.7633 52.2089C78.9126 53.3864 78.0793 54.4621 76.9019 54.6114C75.7244 54.7608 74.6487 53.9272 74.4993 52.75C73.9933 48.7715 72.8761 45.6554 71.444 43.1728C70.0101 40.6913 68.2545 38.8334 66.4102 37.4132C65.1812 36.4674 63.9121 35.7195 62.6813 35.1292C61.0409 34.3419 59.4687 33.8364 58.1697 33.5164C56.2953 33.0539 54.9917 32.9793 54.8968 32.9753Z" fill="#2642CF" style="fill:#2642CF;fill:color(display-p3 0.1490 0.2588 0.8118);fill-opacity:1;"/>
<path d="M37.4468 71.8831C43.2578 77.6934 49.7951 81.3742 55.6343 83.7078C56.5044 84.0554 57.3591 84.3733 58.1942 84.664L60.864 81.0261C59.6954 80.6496 58.4783 80.2159 57.2295 79.7166C51.8057 77.549 45.7938 74.1522 40.486 68.8436C36.9751 65.3328 34.3068 61.9768 32.2639 58.8343C29.2001 54.1191 27.538 49.8863 26.5703 46.2833C26.087 44.4814 25.7786 42.8365 25.5616 41.3621C25.3443 39.8864 25.2194 38.5844 25.1006 37.4465C24.9835 36.3346 25.4114 35.2098 26.2231 34.442L29.9781 30.8926C30.6508 30.2577 31.5478 29.8985 32.4732 29.8985C33.5954 29.898 34.668 30.4244 35.3546 31.3117L40.7814 38.3326C41.2941 38.9971 41.5397 39.7714 41.541 40.5549C41.541 41.5596 41.1177 42.533 40.3832 43.2183C38.7529 44.7377 37.8507 46.8461 37.851 49.0214C37.851 49.7364 37.9485 50.4587 38.1489 51.1665C38.5498 52.5827 39.1352 54.2816 39.9894 56.0898C41.2702 58.7997 43.1593 61.765 45.9538 64.3363C47.3498 65.6205 48.9721 66.803 50.842 67.7931C52.7116 68.7834 54.8282 69.5801 57.2016 70.103C57.774 70.2292 58.3529 70.2912 58.9276 70.2909C61.0108 70.2909 63.0472 69.4776 64.5605 67.9648C65.6333 66.892 66.6335 65.747 68.2863 65.747C69.1313 65.747 69.9587 66.0463 70.6087 66.586L72.3679 68.0466L75.5011 64.7328C74.0746 63.5349 72.5684 62.4821 70.9392 61.9046C69.1021 61.2531 67.0936 61.3019 65.2949 62.0325C63.761 62.6552 62.6652 63.7814 61.521 64.9256C60.6428 65.8048 59.3595 66.1776 58.1269 65.9055C55.4554 65.3156 53.2502 64.3407 51.394 63.1369C50.0025 62.2336 48.8075 61.199 47.7759 60.0915C46.2286 58.4311 45.0498 56.6035 44.161 54.8389C43.2723 53.075 42.6749 51.3761 42.2847 49.9963C41.9199 48.7041 42.3305 47.2787 43.3143 46.362C44.1451 45.5882 44.7798 44.6658 45.2024 43.6742C45.6255 42.6822 45.8391 41.6204 45.8393 40.5549C45.8405 38.8577 45.2917 37.1384 44.1822 35.7041L38.7554 28.6829C37.9747 27.6717 36.9881 26.8944 35.9076 26.3782C34.8265 25.861 33.652 25.6004 32.4732 25.6002C31.5016 25.6002 30.5252 25.7779 29.5973 26.1388C28.6695 26.4994 27.7906 27.0452 27.0255 27.769L23.2706 31.3182C21.6827 32.8182 20.7825 34.8997 20.7828 37.0727C20.7828 39.2415 21.1894 41.4872 21.574 43.6109L21.5826 43.6586C22.2117 47.1395 23.3839 51.4259 25.8032 56.2207C28.2212 61.0173 31.8826 66.3199 37.4468 71.8831Z" fill="#2642CF" style="fill:#2642CF;fill:color(display-p3 0.1490 0.2588 0.8118);fill-opacity:1;"/>
<path d="M56.5393 21.1852C55.3526 21.2043 54.3749 20.2578 54.3558 19.0711C54.3366 17.8844 55.2831 16.9068 56.4698 16.8876C56.5765 16.8852 58.8126 16.8555 62.1368 17.4695C65.1108 18.0203 68.9608 19.0868 72.9192 21.1862C75.5566 22.5857 78.2412 24.4474 80.7186 26.9168C84.0228 30.2069 86.9463 34.5824 88.8961 40.2839C90.0119 43.5416 90.813 47.2299 91.2075 51.3973C91.3193 52.5788 90.4521 53.6273 89.2704 53.7393C88.0889 53.8511 87.0404 52.984 86.9284 51.8022C86.3101 45.2853 84.6448 40.2269 82.4307 36.2589C80.2136 32.2921 77.4417 29.3995 74.5203 27.2498C72.5727 25.8185 70.5577 24.7216 68.6064 23.8824C66.0055 22.7631 63.5179 22.1038 61.482 21.7198C59.8606 21.4135 58.1931 21.1852 56.5393 21.1852Z" fill="#E47789" style="fill:#E47789;fill:color(display-p3 0.8945 0.4663 0.5370);fill-opacity:1;"/>
<path d="M54.8968 32.9753C53.7109 32.9295 52.7865 31.9309 52.8321 30.745C52.8779 29.559 53.8769 28.6344 55.0631 28.6802C59.5807 28.8739 64.2441 30.6846 67.9369 33.212C70.029 34.6441 72.1018 36.5394 73.8761 39.02C76.2455 42.3258 78.0632 46.6639 78.7633 52.2089C78.9126 53.3864 78.0794 54.4621 76.9019 54.6114C75.7244 54.7608 74.6487 53.9272 74.4993 52.75C73.9933 48.7715 72.8761 45.6554 71.444 43.1728C70.0101 40.6913 68.2545 38.8334 66.4102 37.4132C65.1812 36.4674 63.9121 35.7195 62.6813 35.1292C61.0409 34.3419 59.4687 33.8364 58.1697 33.5164C56.2953 33.0539 54.9917 32.9793 54.8968 32.9753Z" fill="#E47789" style="fill:#E47789;fill:color(display-p3 0.8945 0.4663 0.5370);fill-opacity:1;"/>
<mask id="mask0_1_1526" style="mask-type:alpha" maskUnits="userSpaceOnUse" x="50" y="60" width="42" height="36">
<path d="M50.5264 83.9702L72.9594 60.8619L91.1787 72.005L68.7456 95.1133L50.5264 83.9702Z" fill="url(#paint0_linear_1_1526)" style=""/>
</mask>
<g mask="url(#mask0_1_1526)">
<path d="M55.6378 83.7017C61.4797 86.0358 66.6329 87.0301 69.7517 87.4555C72.1754 87.7858 74.69 86.9323 76.421 85.2005L80.8559 80.7658C82.3358 79.2869 83.1803 77.2484 83.1803 75.1564C83.1803 72.8116 82.1193 70.5465 80.3141 69.0492C77.4767 66.6931 74.5034 63.1607 70.9427 61.8986C69.1056 61.247 67.097 61.2958 65.2984 62.0265C63.7644 62.6492 62.6687 63.7754 61.5245 64.9196C60.6462 65.7988 59.363 66.1716 58.1304 65.8995C55.4588 65.3096 53.2536 64.3347 51.3974 63.1308C50.0059 62.2276 48.811 61.193 47.7793 60.0854L45.9572 64.3302C47.3532 65.6145 48.9755 66.797 50.8454 67.787C52.715 68.7774 54.8316 69.5741 57.205 70.097C57.7774 70.2232 58.3564 70.2851 58.931 70.2849C61.0142 70.2849 63.0507 69.4715 64.5639 67.9588C65.6367 66.886 66.6369 65.7409 68.2898 65.7409C69.1347 65.7409 69.9621 66.0403 70.6121 66.5799L77.5683 72.3559C78.3967 73.0451 78.8825 74.0783 78.882 75.1564C78.8825 76.1172 78.4953 77.0469 77.8167 77.7264L73.3818 82.1614C72.5877 82.9546 71.4437 83.3493 70.3316 83.1965C67.4766 82.8085 62.6537 81.8779 57.2329 79.7106C51.8091 77.543 45.7972 74.1462 40.4894 68.8376L37.4502 71.877C43.2613 77.6874 49.7986 81.3682 55.6378 83.7017Z" fill="#2642CF" style="fill:#2642CF;fill:color(display-p3 0.1490 0.2588 0.8118);fill-opacity:1;"/>
</g>
<defs>
<linearGradient id="paint0_linear_1_1526" x1="78.8336" y1="83.0161" x2="69.0992" y2="75.7992" gradientUnits="userSpaceOnUse">
<stop stop-opacity="0" style="stop-color:none;stop-opacity:0;"/>
<stop offset="1" style="stop-color:black;stop-opacity:1;"/>
</linearGradient>
</defs>
</svg>
