<svg width="112" height="112" viewBox="0 0 112 112" fill="none" xmlns="http://www.w3.org/2000/svg">
<path fill-rule="evenodd" clip-rule="evenodd" d="M69.914 69.2758C70.2505 68.9391 70.4434 68.4737 70.4434 67.9978V54.8328H72.1934C72.9463 54.8328 73.617 54.3696 73.8836 53.6653C74.1501 52.9609 73.9545 52.1697 73.39 51.6709L57.384 37.5263C56.4499 36.7049 55.9243 36.7562 54.9902 37.5263L38.9841 51.6709C38.4196 52.1697 38.2238 52.9609 38.4906 53.6653C38.7571 54.3696 39.4279 54.8328 40.1808 54.8328H41.9307V67.9978C41.9307 68.4737 42.1236 68.9391 42.4601 69.2758C42.7966 69.6123 43.2623 69.8052 43.7381 69.8052H51.8825C52.3584 69.8052 52.8241 69.6123 53.1606 69.2758C53.4971 68.9391 53.69 68.4737 53.69 67.9978V60.4836H58.6842V67.9978C58.6842 68.4737 58.8771 68.9391 59.2136 69.2758C59.5501 69.6123 60.0157 69.8052 60.4916 69.8052H68.636C69.1119 69.8052 69.5773 69.6123 69.914 69.2758ZM61.7697 57.3981C62.1062 57.7346 62.299 58.2 62.299 58.6761V66.1903H66.8286V53.0254C66.8286 52.5495 67.0215 52.0838 67.358 51.7473C67.4635 51.6418 67.5817 51.5504 67.7089 51.4746L56.1871 41.2927L44.6652 51.4746C44.7925 51.5504 44.9107 51.6418 45.0162 51.7473C45.3527 52.0838 45.5456 52.5495 45.5456 53.0254V66.1903H50.0751V58.6761C50.0751 58.2 50.268 57.7346 50.6045 57.3981C50.941 57.0613 51.4064 56.8687 51.8825 56.8687H60.4916C60.9675 56.8687 61.4332 57.0613 61.7697 57.3981Z" fill="#2642CF" style="fill:#2642CF;fill:color(display-p3 0.1490 0.2588 0.8118);fill-opacity:1;"/>
<path d="M47.3814 22.6475C47.6101 21.8541 48.2637 21.2801 49.0201 21.1243C53.5714 20.1659 58.4271 20.1656 62.98 21.1243C63.7364 21.2801 64.39 21.8541 64.6187 22.6475C65.1888 24.6239 65.7587 26.6003 66.3287 28.5768L66.6546 29.7072C68.8284 30.5909 70.8518 31.6728 72.7119 33.1065L73.9423 32.7632C75.9134 32.2133 77.8844 31.6634 79.8555 31.1136C80.6508 30.8916 81.4825 31.1465 82.0122 31.7084C85.2272 35.0883 87.7878 39.2378 89.3672 43.6287C89.6318 44.3542 89.4865 45.2118 88.9314 45.8231C87.5646 47.3287 86.1977 48.8341 84.8308 50.3395L83.946 51.3139C84.5108 54.2264 84.5108 57.7737 83.946 60.6862L84.8308 61.6606C86.1977 63.166 87.5646 64.6714 88.9314 66.1769C89.4865 66.7882 89.6318 67.6458 89.3672 68.3714C87.789 72.759 85.2258 76.9132 82.0122 80.2917C81.4825 80.8536 80.6508 81.1084 79.8555 80.8865C77.9114 80.3442 75.9674 79.8019 74.0234 79.2595L72.7119 78.8936C70.8518 80.3273 68.8284 81.4092 66.6546 82.2929L66.3287 83.4233C65.7587 85.3997 65.1888 87.3762 64.6187 89.3525C64.39 90.146 63.7364 90.7199 62.98 90.8757C58.4273 91.8345 53.5712 91.8341 49.0201 90.8757C48.2637 90.7199 47.6101 90.146 47.3814 89.3525C46.8113 87.3762 46.2414 85.3997 45.6714 83.4233L45.3454 82.2929C44.3567 81.8909 43.3991 81.448 42.4738 80.9496L44.4304 77.0302C45.5078 77.6139 46.6362 78.1071 47.8147 78.5172C48.4937 78.7591 48.9989 79.3233 49.1888 79.9654C49.521 81.1172 49.8533 82.2694 50.1856 83.4219C50.5167 84.5703 50.8479 85.7189 51.1792 86.8674C54.3701 87.3595 57.63 87.3595 60.8209 86.8674L61.8377 83.3415C62.1622 82.2161 62.4867 81.0908 62.8113 79.9654C63.0012 79.3233 63.5064 78.7591 64.1854 78.5172C66.629 77.6669 68.8572 76.4593 70.8617 74.828C71.4241 74.3772 72.1696 74.2435 72.8158 74.4191C73.9993 74.7492 75.1828 75.0795 76.3664 75.4097C77.4892 75.723 78.612 76.0362 79.7347 76.3494C81.8384 73.8813 83.5598 71.0913 84.8222 68.1041C84.0079 67.2071 83.1935 66.3103 82.3791 65.4134C81.5839 64.5376 80.7886 63.6618 79.9935 62.786C79.5467 62.2872 79.3318 61.5609 79.4825 60.856C80.1352 57.9094 80.1374 54.1008 79.4825 51.144C79.3318 50.4392 79.5467 49.7129 79.9935 49.2141C80.7877 48.3393 81.582 47.4645 82.3763 46.5898C83.1918 45.6917 84.0072 44.7937 84.8222 43.896C83.5598 40.9087 81.8384 38.1188 79.7347 35.6506C78.5998 35.9672 77.4648 36.2839 76.3299 36.6006L76.2817 36.614C75.1261 36.9364 73.9707 37.2588 72.8158 37.581C72.1696 37.7565 71.4241 37.6228 70.8617 37.172C68.8572 35.5408 66.629 34.3332 64.1854 33.4829C63.5064 33.241 63.0012 32.6768 62.8113 32.0346C62.4797 30.885 62.148 29.7346 61.8162 28.5843C61.4844 27.4335 61.1526 26.2828 60.8209 25.1327C57.63 24.6406 54.3701 24.6406 51.1792 25.1327C50.8475 26.2828 50.5157 27.4335 50.1838 28.5843C49.8521 29.7346 49.5204 30.885 49.1888 32.0346C48.9989 32.6768 48.4937 33.241 47.8147 33.4829C45.3711 34.3332 43.1429 35.5408 41.1384 37.172C40.576 37.6228 39.8305 37.7565 39.1843 37.581C38.0389 37.2614 36.8927 36.9417 35.7466 36.6219L35.6817 36.6038C34.5427 36.286 33.4037 35.9682 32.2654 35.6506C30.1617 38.1188 28.4403 40.9087 27.1779 43.896C27.9865 44.7866 28.7952 45.6773 29.6039 46.5679C30.4048 47.45 31.2058 48.332 32.0066 49.2141C32.4534 49.7129 32.6683 50.4392 32.5176 51.144C32.163 52.7451 32.1745 54.3865 32.1859 56.0195C32.1879 56.3061 32.19 56.5925 32.19 56.8783C32.1813 58.0759 31.0731 58.999 29.8752 58.9901C28.6776 58.9814 27.7464 58.0138 27.7551 56.8159C27.7559 56.5692 27.7555 56.3221 27.7551 56.0747C27.7527 54.4824 27.7503 52.8803 28.0541 51.3139L27.6273 50.844C26.1078 49.1704 24.5882 47.4968 23.0687 45.8231C22.5136 45.2118 22.3683 44.3542 22.6329 43.6287C24.2123 39.2378 26.7729 35.0883 29.9878 31.7084C30.5176 31.1465 31.3492 30.8916 32.1446 31.1136C34.1259 31.6662 36.1072 32.219 38.0885 32.7718L39.2882 33.1065C41.1482 31.6728 43.1717 30.5909 45.3454 29.7072L45.6714 28.5768C46.2414 26.6003 46.8113 24.6239 47.3814 22.6475Z" fill="#2642CF" style="fill:#2642CF;fill:color(display-p3 0.1490 0.2588 0.8118);fill-opacity:1;"/>
<path fill-rule="evenodd" clip-rule="evenodd" d="M69.914 69.2758C70.2505 68.9391 70.4434 68.4736 70.4434 67.9978V54.8328H72.1934C72.9462 54.8328 73.617 54.3696 73.8836 53.6653C74.1501 52.9609 73.9545 52.1697 73.39 51.6709L57.384 37.5263C56.4499 36.7049 55.9243 36.7562 54.9902 37.5263L38.9841 51.6709C38.4196 52.1697 38.2237 52.9609 38.4906 53.6653C38.7571 54.3696 39.4279 54.8328 40.1808 54.8328H41.9307V67.9978C41.9307 68.4736 42.1236 68.9391 42.4601 69.2758C42.7966 69.6123 43.2623 69.8052 43.7381 69.8052H51.8825C52.3584 69.8052 52.8241 69.6123 53.1606 69.2758C53.4971 68.9391 53.69 68.4736 53.69 67.9978V60.4836H58.6842V67.9978C58.6842 68.4736 58.8771 68.9391 59.2136 69.2758C59.5501 69.6123 60.0157 69.8052 60.4916 69.8052H68.636C69.1119 69.8052 69.5773 69.6123 69.914 69.2758ZM61.7696 57.3981C62.1061 57.7346 62.299 58.2 62.299 58.6761V66.1904H66.8286V53.0254C66.8286 52.5495 67.0214 52.0838 67.3579 51.7473C67.4635 51.6418 67.5817 51.5504 67.7089 51.4746L56.1871 41.2927L44.6652 51.4746C44.7924 51.5504 44.9107 51.6418 45.0162 51.7473C45.3527 52.0838 45.5456 52.5495 45.5456 53.0254V66.1904H50.0751V58.6761C50.0751 58.2 50.268 57.7346 50.6045 57.3981C50.941 57.0613 51.4064 56.8687 51.8825 56.8687H60.4916C60.9675 56.8687 61.4331 57.0613 61.7696 57.3981Z" fill="#E47789" style="fill:#E47789;fill:color(display-p3 0.8945 0.4663 0.5370);fill-opacity:1;"/>
<mask id="mask0_1_1467" style="mask-type:alpha" maskUnits="userSpaceOnUse" x="12" y="49" width="48" height="48">
<rect x="12.989" y="70.4408" width="28.929" height="36.6993" transform="rotate(-45.5402 12.989 70.4408)" fill="url(#paint0_linear_1_1467)" style=""/>
</mask>
<g mask="url(#mask0_1_1467)">
<path d="M47.8193 78.516C48.4983 78.7579 49.0035 79.3221 49.1934 79.9642C49.8566 82.2638 50.5202 84.5654 51.1838 86.8662L49.0247 90.8745C48.2683 90.7187 47.6147 90.1448 47.386 89.3514C46.8159 87.375 46.2459 85.3986 45.676 83.4221L45.35 82.2917C43.1763 81.408 41.1528 80.3261 39.2928 78.8924L38.0299 79.2447C36.0697 79.7916 34.1095 80.3385 32.1492 80.8853C31.3538 81.1073 30.5222 80.8525 29.9924 80.2906C26.7514 76.883 24.2294 72.7961 22.6375 68.3702C22.3729 67.6447 22.5181 66.7871 23.0733 66.1758C24.6151 64.4914 26.1151 62.7664 27.6721 61.0976C28.4895 60.2218 29.8618 60.1745 30.7377 60.9918C31.6135 61.8089 31.6608 63.1813 30.8435 64.0572L27.1825 68.1029C28.4445 71.0895 30.1667 73.8807 32.2699 76.3482C34.5752 75.7052 36.8823 75.0613 39.1889 74.4179C39.8351 74.2423 40.5806 74.3761 41.143 74.8269C43.1475 76.4581 45.3757 77.6657 47.8193 78.516Z" fill="#2642CF" style="fill:#2642CF;fill:color(display-p3 0.1490 0.2588 0.8118);fill-opacity:1;"/>
</g>
<defs>
<linearGradient id="paint0_linear_1_1467" x1="38.3575" y1="54.721" x2="26.6497" y2="95.3404" gradientUnits="userSpaceOnUse">
<stop stop-opacity="0" style="stop-color:none;stop-opacity:0;"/>
<stop offset="1" style="stop-color:black;stop-opacity:1;"/>
</linearGradient>
</defs>
</svg>
