<svg width="112" height="112" viewBox="0 0 112 112" fill="none" xmlns="http://www.w3.org/2000/svg">
<path d="M52.9872 37.8418H37.5815C36.7828 37.8418 36.1354 37.1945 36.1354 36.3958C36.1354 35.5973 36.7828 34.95 37.5815 34.95H52.9872C53.7859 34.95 54.4332 35.5973 54.4332 36.3958C54.4332 37.1945 53.7859 37.8418 52.9872 37.8418Z" fill="#2642CF" style="fill:#2642CF;fill:color(display-p3 0.1490 0.2588 0.8118);fill-opacity:1;"/>
<path d="M46.7236 44.4371H37.5815C36.7828 44.4371 36.1354 43.7895 36.1354 42.9911C36.1354 42.1924 36.7828 41.545 37.5815 41.545H46.7236C47.5221 41.545 48.1694 42.1924 48.1694 42.9911C48.1694 43.7895 47.5221 44.4371 46.7236 44.4371Z" fill="#2642CF" style="fill:#2642CF;fill:color(display-p3 0.1490 0.2588 0.8118);fill-opacity:1;"/>
<path d="M42.1525 58.6773H39.0205C38.065 58.6773 37.2905 57.9027 37.2905 56.9472C37.2905 55.9917 38.065 55.2172 39.0205 55.2172H42.1525C43.108 55.2172 43.8826 55.9917 43.8826 56.9472C43.8826 57.9027 43.108 58.6773 42.1525 58.6773Z" fill="#2642CF" style="fill:#2642CF;fill:color(display-p3 0.1490 0.2588 0.8118);fill-opacity:1;"/>
<path d="M39.0205 64.6986H42.1525C43.108 64.6986 43.8826 63.9238 43.8826 62.9683C43.8826 62.0129 43.108 61.2383 42.1525 61.2383H39.0205C38.065 61.2383 37.2905 62.0129 37.2905 62.9683C37.2905 63.9238 38.065 64.6986 39.0205 64.6986Z" fill="#2642CF" style="fill:#2642CF;fill:color(display-p3 0.1490 0.2588 0.8118);fill-opacity:1;"/>
<path d="M49.2783 58.6773H52.41C53.3655 58.6773 54.1401 57.9027 54.1401 56.9473C54.1401 55.9918 53.3655 55.2172 52.41 55.2172H49.2783C48.3228 55.2172 47.5482 55.9918 47.5482 56.9473C47.5482 57.9027 48.3228 58.6773 49.2783 58.6773Z" fill="#2642CF" style="fill:#2642CF;fill:color(display-p3 0.1490 0.2588 0.8118);fill-opacity:1;"/>
<path d="M49.2783 64.6987H52.41C53.3655 64.6987 54.1401 63.9239 54.1401 62.9684C54.1401 62.0129 53.3655 61.2383 52.41 61.2383H49.2783C48.3228 61.2383 47.5482 62.0129 47.5482 62.9684C47.5482 63.9239 48.3228 64.6987 49.2783 64.6987Z" fill="#2642CF" style="fill:#2642CF;fill:color(display-p3 0.1490 0.2588 0.8118);fill-opacity:1;"/>
<path d="M59.536 64.6987H62.6677C63.6232 64.6987 64.3978 63.9239 64.3978 62.9684C64.3978 62.0129 63.6232 61.2383 62.6677 61.2383H59.536C58.5805 61.2383 57.8057 62.0129 57.8057 62.9684C57.8057 63.9239 58.5805 64.6987 59.536 64.6987Z" fill="#2642CF" style="fill:#2642CF;fill:color(display-p3 0.1490 0.2588 0.8118);fill-opacity:1;"/>
<path d="M69.7935 58.6773H72.9255C73.8807 58.6773 74.6553 57.9027 74.6553 56.9473C74.6553 55.9918 73.8807 55.2172 72.9255 55.2172H69.7935C68.838 55.2172 68.0634 55.9918 68.0634 56.9473C68.0634 57.9027 68.838 58.6773 69.7935 58.6773Z" fill="#2642CF" style="fill:#2642CF;fill:color(display-p3 0.1490 0.2588 0.8118);fill-opacity:1;"/>
<path d="M69.7935 64.6987H72.9255C73.8807 64.6987 74.6553 63.9239 74.6553 62.9684C74.6553 62.0129 73.8807 61.2383 72.9255 61.2383H69.7935C68.838 61.2383 68.0634 62.0129 68.0634 62.9684C68.0634 63.9239 68.838 64.6987 69.7935 64.6987Z" fill="#2642CF" style="fill:#2642CF;fill:color(display-p3 0.1490 0.2588 0.8118);fill-opacity:1;"/>
<path d="M62.6677 58.6773H59.536C58.5805 58.6773 57.8057 57.9028 57.8057 56.9473C57.8057 55.9918 58.5805 55.2173 59.536 55.2173H62.6677C63.6232 55.2173 64.3978 55.9918 64.3978 56.9473C64.3978 57.9028 63.6232 58.6773 62.6677 58.6773Z" fill="#2642CF" style="fill:#2642CF;fill:color(display-p3 0.1490 0.2588 0.8118);fill-opacity:1;"/>
<path fill-rule="evenodd" clip-rule="evenodd" d="M77.7385 27.3725H75.8895V21.6984C75.8895 21.3176 75.7352 20.945 75.4659 20.6757C75.1966 20.4066 74.8242 20.2523 74.4434 20.2523H60.106C59.7252 20.2523 59.3528 20.4066 59.0835 20.6757C58.8142 20.945 58.6599 21.3176 58.6599 21.6984V27.3725H34.6464C33.8029 27.372 32.99 27.5443 32.2538 27.8561C31.1487 28.324 30.2142 29.1008 29.5519 30.0804C28.8893 31.0591 28.5006 32.2512 28.5013 33.5176V48.5506C28.4255 48.6587 28.361 48.776 28.3097 48.9012L19.3777 70.7029C19.2758 70.9515 19.2285 71.4738 19.2285 71.4738L19.2492 85.6026C19.2493 86.6006 20.0521 87.41 21.0502 87.41C22.0485 87.41 22.8576 86.6006 22.8576 85.6026L22.8576 73.3543H89.1443V85.6041C89.1443 86.2726 88.8762 86.9185 88.4031 87.3919C87.9299 87.8647 87.2841 88.1328 86.6158 88.1328L63.9286 88.1331V91.7477L86.6429 91.7477C88.2393 91.7477 89.8367 91.0821 90.9592 89.9479C92.0993 88.8195 92.7661 87.2109 92.7589 85.6061L92.7591 85.6001C92.7589 85.6061 92.7715 71.4704 92.7715 71.4704C92.7715 71.4704 92.7284 70.9683 92.6345 70.7285L84.0911 48.9269C84.037 48.7888 83.967 48.66 83.8836 48.5424V33.5176C83.8838 32.6741 83.7116 31.8612 83.4 31.125C82.9321 30.02 82.1553 29.0854 81.1754 28.4231C80.197 27.7605 79.0048 27.3718 77.7385 27.3725ZM72.9974 23.1442L72.9976 38.295H61.5518V23.1442H72.9974ZM75.8895 39.1685V30.9871H77.7385C78.0927 30.9876 78.4209 31.0581 78.7226 31.1853C79.1746 31.3762 79.5646 31.6995 79.8376 32.1042C80.1107 32.5101 80.268 32.9875 80.2687 33.5176V47.7789H32.1162V33.5176C32.1164 33.1632 32.1869 32.8351 32.3143 32.5332C32.5049 32.0815 32.8282 31.6915 33.2329 31.4185C33.6391 31.1452 34.1162 30.9879 34.6464 30.9871H58.6599V39.1685H57.1305C56.5657 39.1685 56.108 39.6263 56.108 40.191C56.108 40.7557 56.5657 41.2137 57.1305 41.2137H77.437C78.0018 41.2137 78.4597 40.7557 78.4597 40.191C78.4597 39.6263 78.0018 39.1685 77.437 39.1685H75.8895ZM81.1752 51.3938L88.3023 69.5807H23.7439L31.1948 51.3938H81.1752Z" fill="#2642CF" style="fill:#2642CF;fill:color(display-p3 0.1490 0.2588 0.8118);fill-opacity:1;"/>
<path d="M37.9178 82.6602H74.4671C75.4226 82.6602 76.1971 81.8857 76.1971 80.9302C76.1971 79.9747 75.4226 79.2002 74.4671 79.2002H37.9178C36.9623 79.2002 36.1877 79.9747 36.1877 80.9302C36.1877 81.8857 36.9623 82.6602 37.9178 82.6602Z" fill="#2642CF" style="fill:#2642CF;fill:color(display-p3 0.1490 0.2588 0.8118);fill-opacity:1;"/>
<path d="M42.1526 58.6782H39.0206C38.0651 58.6782 37.2905 57.9037 37.2905 56.9482C37.2905 55.9927 38.0651 55.2181 39.0206 55.2181H42.1526C43.1081 55.2181 43.8826 55.9927 43.8826 56.9482C43.8826 57.9037 43.1081 58.6782 42.1526 58.6782Z" fill="#E47789" style="fill:#E47789;fill:color(display-p3 0.8945 0.4663 0.5370);fill-opacity:1;"/>
<path d="M39.0206 64.6996H42.1526C43.1081 64.6996 43.8826 63.9248 43.8826 62.9693C43.8826 62.0138 43.1081 61.2393 42.1526 61.2393H39.0206C38.0651 61.2393 37.2905 62.0138 37.2905 62.9693C37.2905 63.9248 38.0651 64.6996 39.0206 64.6996Z" fill="#E47789" style="fill:#E47789;fill:color(display-p3 0.8945 0.4663 0.5370);fill-opacity:1;"/>
<path d="M49.2783 58.6782H52.4101C53.3655 58.6782 54.1401 57.9037 54.1401 56.9482C54.1401 55.9927 53.3655 55.2182 52.4101 55.2182H49.2783C48.3228 55.2182 47.5483 55.9927 47.5483 56.9482C47.5483 57.9037 48.3228 58.6782 49.2783 58.6782Z" fill="#E47789" style="fill:#E47789;fill:color(display-p3 0.8945 0.4663 0.5370);fill-opacity:1;"/>
<path d="M49.2783 64.6996H52.4101C53.3655 64.6996 54.1401 63.9248 54.1401 62.9693C54.1401 62.0138 53.3655 61.2393 52.4101 61.2393H49.2783C48.3228 61.2393 47.5483 62.0138 47.5483 62.9693C47.5483 63.9248 48.3228 64.6996 49.2783 64.6996Z" fill="#E47789" style="fill:#E47789;fill:color(display-p3 0.8945 0.4663 0.5370);fill-opacity:1;"/>
<path d="M59.536 64.6996H62.6678C63.6233 64.6996 64.3978 63.9248 64.3978 62.9693C64.3978 62.0138 63.6233 61.2393 62.6678 61.2393H59.536C58.5805 61.2393 57.8057 62.0138 57.8057 62.9693C57.8057 63.9248 58.5805 64.6996 59.536 64.6996Z" fill="#E47789" style="fill:#E47789;fill:color(display-p3 0.8945 0.4663 0.5370);fill-opacity:1;"/>
<path d="M69.7935 58.6782H72.9255C73.8807 58.6782 74.6553 57.9037 74.6553 56.9482C74.6553 55.9927 73.8807 55.2182 72.9255 55.2182H69.7935C68.838 55.2182 68.0635 55.9927 68.0635 56.9482C68.0635 57.9037 68.838 58.6782 69.7935 58.6782Z" fill="#E47789" style="fill:#E47789;fill:color(display-p3 0.8945 0.4663 0.5370);fill-opacity:1;"/>
<path d="M69.7935 64.6996H72.9255C73.8807 64.6996 74.6553 63.9248 74.6553 62.9693C74.6553 62.0138 73.8807 61.2393 72.9255 61.2393H69.7935C68.838 61.2393 68.0635 62.0138 68.0635 62.9693C68.0635 63.9248 68.838 64.6996 69.7935 64.6996Z" fill="#E47789" style="fill:#E47789;fill:color(display-p3 0.8945 0.4663 0.5370);fill-opacity:1;"/>
<path d="M62.6678 58.6782H59.536C58.5805 58.6782 57.8057 57.9037 57.8057 56.9482C57.8057 55.9927 58.5805 55.2182 59.536 55.2182H62.6678C63.6233 55.2182 64.3978 55.9927 64.3978 56.9482C64.3978 57.9037 63.6233 58.6782 62.6678 58.6782Z" fill="#E47789" style="fill:#E47789;fill:color(display-p3 0.8945 0.4663 0.5370);fill-opacity:1;"/>
<mask id="mask0_1_1492" style="mask-type:alpha" maskUnits="userSpaceOnUse" x="25" y="83" width="44" height="13">
<path d="M68.2366 83.8872H25.3723V95.0872L68.2366 95.0872V83.8872Z" fill="url(#paint0_linear_1_1492)" style=""/>
</mask>
<g mask="url(#mask0_1_1492)">
<path d="M89.1451 85.5648V73.315C89.239 73.5547 92.7893 71.4323 92.7893 71.4323C92.7893 71.4323 92.7766 85.568 92.7769 85.5621L92.7766 85.568C92.7839 87.1729 92.1171 88.7814 90.9769 89.9098C89.8544 91.0441 88.403 91.7372 86.8067 91.7372L27.948 91.7372C26.9497 91.7372 26.1406 90.928 26.1406 89.9297C26.1406 88.9316 26.9497 88.1225 27.948 88.1225L86.36 88.1423C87.0283 88.1423 87.8423 87.9634 88.3155 87.4905C88.7886 87.0171 89.1451 86.2333 89.1451 85.5648Z" fill="#2642CF" style="fill:#2642CF;fill:color(display-p3 0.1490 0.2588 0.8118);fill-opacity:1;"/>
</g>
<defs>
<linearGradient id="paint0_linear_1_1492" x1="21.8179" y1="90.15" x2="63.3817" y2="90.4579" gradientUnits="userSpaceOnUse">
<stop stop-opacity="0" style="stop-color:none;stop-opacity:0;"/>
<stop offset="1" style="stop-color:black;stop-opacity:1;"/>
</linearGradient>
</defs>
</svg>
