<svg width="112" height="112" viewBox="0 0 112 112" fill="none" xmlns="http://www.w3.org/2000/svg">
<path d="M59.541 41.1467L27.0894 40.9762C26.0911 40.971 25.2862 40.1576 25.2914 39.1593C25.2966 38.1612 26.1102 37.3563 27.1083 37.3616L59.5599 37.5321C60.5582 37.5373 61.3631 38.3506 61.3579 39.3489C61.3527 40.347 60.5391 41.1521 59.541 41.1467Z" fill="#2642CF" style="fill:#2642CF;fill:color(display-p3 0.1490 0.2588 0.8118);fill-opacity:1;"/>
<path d="M29.6572 33.4189H61.9406C62.9386 33.4189 63.7477 32.6095 63.7477 31.6115C63.7477 30.6132 62.9386 29.804 61.9406 29.804H29.6572C28.6589 29.804 27.8497 30.6132 27.8497 31.6115C27.8497 32.6095 28.6589 33.4189 29.6572 33.4189Z" fill="#2642CF" style="fill:#2642CF;fill:color(display-p3 0.1490 0.2588 0.8118);fill-opacity:1;"/>
<path fill-rule="evenodd" clip-rule="evenodd" d="M53.1087 58.1428C52.9405 57.7452 52.7514 57.3589 52.5428 56.9851L58.4743 51.0536C59.1799 50.3478 59.1799 49.2037 58.4743 48.4978C57.7684 47.792 56.624 47.792 55.9182 48.4978L50.3014 54.1145C49.8383 53.6793 49.3402 53.2808 48.8116 52.9236C46.9201 51.6445 44.6273 50.8954 42.176 50.8961C40.5428 50.8959 38.9773 51.2281 37.5566 51.8292C35.4249 52.7314 33.6167 54.2335 32.3377 56.1263C31.0584 58.0181 30.3095 60.3106 30.3102 62.7619C30.31 64.3954 30.6422 65.9606 31.2433 67.3813C32.1455 69.513 33.6476 71.3212 35.5404 72.6002C37.4319 73.8795 39.7247 74.6287 42.176 74.6279C43.8095 74.6282 45.3747 74.2959 46.7954 73.6946C48.9271 72.7926 50.7353 71.2906 52.0143 69.3975C53.2936 67.506 54.0428 65.2132 54.042 62.7619C54.0423 61.1287 53.71 59.5632 53.1087 58.1428ZM49.7796 65.9731C50.1962 64.987 50.4269 63.9063 50.4272 62.7619C50.4267 61.6724 50.2177 60.6383 49.8372 59.6908L43.7742 65.7538C43.4374 66.0905 42.972 66.2832 42.4961 66.2832C42.02 66.2832 41.5546 66.0905 41.2181 65.7538L37.364 61.8997C36.6582 61.1939 36.6582 60.0495 37.364 59.3436C38.0699 58.6378 39.2143 58.6378 39.9201 59.3436L42.4961 61.9196L47.7435 56.6723C47.0543 56.0418 46.258 55.5267 45.3872 55.1586C44.4011 54.7417 43.3204 54.5112 42.176 54.511C40.4609 54.5117 38.8832 55.0292 37.5641 55.919C36.2462 56.809 35.1977 58.0726 34.5727 59.5507C34.1558 60.5371 33.9253 61.6178 33.9251 62.7619C33.9256 64.477 34.4433 66.055 35.3331 67.3741C36.2231 68.6919 37.4864 69.7405 38.9648 70.3655C39.9512 70.7821 41.0319 71.0128 42.176 71.0131C43.8911 71.0123 45.4691 70.4949 46.7882 69.6049C48.1058 68.7151 49.1546 67.4515 49.7796 65.9731Z" fill="#2642CF" style="fill:#2642CF;fill:color(display-p3 0.1490 0.2588 0.8118);fill-opacity:1;"/>
<path fill-rule="evenodd" clip-rule="evenodd" d="M20.3378 37.8991L20.3376 52.9211H15.9999V37.9036L16 37.8981C16.0004 35.62 16.4501 33.3318 17.3277 31.2214C18.2022 29.1096 19.4973 27.1772 21.1107 25.5639C22.7242 23.9504 24.6563 22.6552 26.7683 21.7808C28.8784 20.9033 31.1667 20.4535 33.4448 20.453L33.4502 20.4528H80.9017V20.4567C82.4647 20.4562 83.9794 20.7641 85.3829 21.3251C86.7874 21.8861 88.0816 22.697 89.236 23.6982C91.5449 25.704 93.3048 28.461 94.3546 31.6425C95.0537 33.7648 95.435 36.0802 95.4353 38.5004V42.4523C95.4353 43.0235 95.2038 43.5822 94.8001 43.9859C94.3962 44.3899 93.8374 44.6213 93.2665 44.6213H70.7057V89.3784C70.7057 90.174 70.2736 90.9016 69.575 91.2827C68.8763 91.6634 68.0309 91.6326 67.3621 91.2015L62.3159 87.95L57.4556 91.1841C56.7144 91.6774 55.7452 91.6672 55.0145 91.1582L50.2958 87.8718L45.3658 91.1796C44.699 91.6265 43.8381 91.6689 43.131 91.2891L37.1042 88.0518L32.2025 91.2028C31.4987 91.6552 30.6057 91.6642 29.8931 91.2256L24.7541 88.0635L19.2577 91.2543C18.2217 91.8556 16.8944 91.5032 16.293 90.4673C15.6917 89.4314 16.0439 88.1041 17.0799 87.5025L23.6976 83.6609C24.3859 83.2614 25.2456 83.2724 25.9233 83.6895L31.0044 86.8163L35.8328 83.7124C36.4964 83.2858 37.3371 83.2527 38.032 83.6261L44.0335 86.8497L49.1106 83.4436C49.8555 82.9439 50.8222 82.9523 51.5584 83.465L56.2818 86.7546L61.0953 83.5519C61.8144 83.0733 62.7454 83.0666 63.4717 83.5345L66.3678 85.4006L66.3669 37.0548C66.5075 34.8664 67.0086 32.7666 67.7255 30.856C68.5961 28.5379 69.8541 26.4719 71.4321 24.7906H33.446C31.7242 24.7921 30.0136 25.1296 28.4304 25.7874C26.8467 26.443 25.393 27.4164 24.178 28.6313C22.9634 29.8461 21.9899 31.3001 21.3344 32.8835C20.6766 34.4667 20.3392 36.1773 20.3378 37.8991ZM70.7057 40.2835H91.0974V38.5004C91.0976 36.2915 90.7044 34.2126 90.0165 32.3802C89.3293 30.5474 88.3467 28.9645 87.1893 27.7395C86.4178 26.9219 85.5703 26.2628 84.6796 25.7792C83.4894 25.1348 82.2307 24.7961 80.9017 24.7946C79.9039 24.7951 78.9486 24.987 78.029 25.3536C77.1106 25.7205 76.2285 26.265 75.4094 26.9754C73.7715 28.3928 72.3956 30.4837 71.5686 33C71.0161 34.6762 70.7057 36.5369 70.7057 38.5004V40.2835Z" fill="#2642CF" style="fill:#2642CF;fill:color(display-p3 0.1490 0.2588 0.8118);fill-opacity:1;"/>
<path fill-rule="evenodd" clip-rule="evenodd" d="M53.1087 58.1427C52.9404 57.7451 52.7514 57.3588 52.5428 56.9851L58.4742 51.0536C59.1798 50.3478 59.1798 49.2036 58.4742 48.4978C57.7684 47.7919 56.624 47.7919 55.9181 48.4978L50.3013 54.1145C49.8383 53.6792 49.3401 53.2808 48.8116 52.9235C46.92 51.6445 44.6273 50.8953 42.176 50.8961C40.5428 50.8958 38.9772 51.2281 37.5566 51.8292C35.4248 52.7314 33.6167 54.2334 32.3376 56.1262C31.0583 58.018 30.3094 60.3106 30.3102 62.7619C30.3099 64.3953 30.6422 65.9606 31.2433 67.3812C32.1455 69.513 33.6475 71.3211 35.5403 72.6002C37.4319 73.8795 39.7247 74.6286 42.176 74.6279C43.8094 74.6281 45.3747 74.2959 46.7953 73.6946C48.9271 72.7926 50.7352 71.2905 52.0143 69.3975C53.2936 67.5059 54.0427 65.2132 54.042 62.7619C54.0422 61.1286 53.71 59.5631 53.1087 58.1427ZM49.7795 65.973C50.1962 64.9869 50.4269 63.9063 50.4271 62.7619C50.4266 61.6723 50.2177 60.6383 49.8371 59.6907L43.7741 65.7537C43.4374 66.0905 42.9719 66.2831 42.4961 66.2831C42.0199 66.2831 41.5545 66.0905 41.218 65.7537L37.364 61.8997C36.6581 61.1938 36.6581 60.0494 37.364 59.3436C38.0698 58.6378 39.2142 58.6378 39.9201 59.3436L42.4961 61.9196L47.7435 56.6723C47.0542 56.0418 46.2579 55.5267 45.3871 55.1586C44.401 54.7417 43.3204 54.5112 42.176 54.5109C40.4609 54.5117 38.8832 55.0291 37.564 55.9189C36.2462 56.8089 35.1976 58.0725 34.5727 59.5507C34.1558 60.537 33.9253 61.6177 33.925 62.7619C33.9255 64.477 34.4432 66.0549 35.333 67.374C36.223 68.6919 37.4864 69.7405 38.9648 70.3654C39.9511 70.7821 41.0318 71.0128 42.176 71.013C43.8911 71.0123 45.469 70.4948 46.7881 69.6048C48.1057 68.715 49.1546 67.4514 49.7795 65.973Z" fill="#E47789" style="fill:#E47789;fill:color(display-p3 0.8945 0.4663 0.5370);fill-opacity:1;"/>
<mask id="mask0_1_1502" style="mask-type:alpha" maskUnits="userSpaceOnUse" x="11" y="40" width="14" height="44">
<path d="M24.9419 40.8546H11.7067V83.2073L24.9419 83.2073V40.8546Z" fill="url(#paint0_linear_1_1502)" style=""/>
</mask>
<g mask="url(#mask0_1_1502)">
<path d="M21.3504 33.0407C20.6926 34.6239 20.3552 36.3345 20.3538 38.0564L20.3536 78.465L20.3536 78.5461C20.3536 79.744 19.3826 80.7152 18.1848 80.7152C16.9869 80.7152 16.0159 79.744 16.0159 78.5461V78.465V38.0608L16.016 38.0554C16.0164 35.7773 16.4661 33.489 17.3437 31.3787L21.3504 33.0407Z" fill="#2642CF" style="fill:#2642CF;fill:color(display-p3 0.1490 0.2588 0.8118);fill-opacity:1;"/>
</g>
<defs>
<linearGradient id="paint0_linear_1_1502" x1="18.0864" y1="81.0591" x2="15.4716" y2="52.0403" gradientUnits="userSpaceOnUse">
<stop stop-opacity="0" style="stop-color:none;stop-opacity:0;"/>
<stop offset="1" style="stop-color:black;stop-opacity:1;"/>
</linearGradient>
</defs>
</svg>
