<svg width="112" height="112" viewBox="0 0 112 112" fill="none" xmlns="http://www.w3.org/2000/svg">
<path d="M33.3548 16.8C34.5919 16.8 35.5948 17.8029 35.5948 19.04V19.46C35.5948 20.6972 34.5919 21.7 33.3548 21.7H30.2748C26.2155 21.7 21.6998 26.2158 21.6998 30.275V33.355C21.6998 34.5922 20.6969 35.595 19.4598 35.595H19.0398C17.8027 35.595 16.7998 34.5922 16.7998 33.355V30.275C16.7998 22.833 22.8328 16.8 30.2748 16.8H33.3548Z" fill="#2642CF" style="fill:#2642CF;fill:color(display-p3 0.1490 0.2588 0.8118);fill-opacity:1;"/>
<path d="M78.6448 16.8C77.4077 16.8 76.4048 17.8029 76.4048 19.04V19.46C76.4048 20.6972 77.4077 21.7 78.6448 21.7H81.7248C85.7841 21.7 90.2998 26.2158 90.2998 30.275V33.355C90.2998 34.5922 91.3027 35.595 92.5398 35.595H92.9598C94.1969 35.595 95.1998 34.5922 95.1998 33.355V30.275C95.1998 22.833 89.1668 16.8 81.7248 16.8H78.6448Z" fill="#2642CF" style="fill:#2642CF;fill:color(display-p3 0.1490 0.2588 0.8118);fill-opacity:1;"/>
<path d="M95.1998 81.7251V78.6451C95.1998 77.4079 94.1969 76.405 92.9598 76.405H92.5398C91.3027 76.405 90.2998 77.4079 90.2998 78.6451V81.7251C90.2998 85.7843 85.7841 90.3 81.7248 90.3H78.6448C77.4077 90.3 76.4048 91.3029 76.4048 92.54V92.9601C76.4048 94.1972 77.4077 95.2001 78.6448 95.2001H81.7248C89.1668 95.2001 95.1998 89.1671 95.1998 81.7251Z" fill="#2642CF" style="fill:#2642CF;fill:color(display-p3 0.1490 0.2588 0.8118);fill-opacity:1;"/>
<path d="M16.7998 78.6451V81.7251C16.7998 89.1671 22.8328 95.2001 30.2748 95.2001H33.3548C34.5919 95.2001 35.5948 94.1972 35.5948 92.9601V92.54C35.5948 91.3029 34.5919 90.3 33.3548 90.3H30.2748C26.2155 90.3 21.6998 85.7843 21.6998 81.7251L21.6998 78.6451C21.6998 77.4079 20.6969 76.405 19.4598 76.405H19.0398C17.8027 76.405 16.7998 77.4079 16.7998 78.6451Z" fill="#2642CF" style="fill:#2642CF;fill:color(display-p3 0.1490 0.2588 0.8118);fill-opacity:1;"/>
<path d="M44.6598 40.32C44.6598 39.7015 44.1584 39.2 43.5398 39.2H41.2998C40.6812 39.2 40.1798 39.7015 40.1798 40.32V42.56C40.1798 43.1786 40.6812 43.68 41.2998 43.68H43.5398C44.1584 43.68 44.6598 43.1786 44.6598 42.56V40.32Z" fill="#2642CF" style="fill:#2642CF;fill:color(display-p3 0.1490 0.2588 0.8118);fill-opacity:1;"/>
<path fill-rule="evenodd" clip-rule="evenodd" d="M33.7398 29.12C31.7295 29.12 30.0998 30.7497 30.0998 32.76V50.1201C30.0998 52.1304 31.7295 53.76 33.7398 53.76H51.0998C53.1101 53.76 54.7398 52.1304 54.7398 50.1201V32.76C54.7398 30.7497 53.1101 29.12 51.0998 29.12H33.7398ZM50.2598 49.2801H34.5798V33.6H50.2598V49.2801Z" fill="#2642CF" style="fill:#2642CF;fill:color(display-p3 0.1490 0.2588 0.8118);fill-opacity:1;"/>
<path d="M65.9398 32.48C65.9398 31.8615 65.4384 31.36 64.8198 31.36H62.5798C61.9612 31.36 61.4598 31.8615 61.4598 32.48V34.72C61.4598 35.3386 61.9612 35.84 62.5798 35.84H64.8198C65.4384 35.84 65.9398 35.3386 65.9398 34.72V32.48Z" fill="#2642CF" style="fill:#2642CF;fill:color(display-p3 0.1490 0.2588 0.8118);fill-opacity:1;"/>
<path d="M70.4198 36.96C70.4198 36.3415 69.9184 35.84 69.2998 35.84H67.0598C66.4412 35.84 65.9398 36.3415 65.9398 36.96V39.2C65.9398 39.8186 66.4412 40.32 67.0598 40.32H69.2998C69.9184 40.32 70.4198 39.8186 70.4198 39.2V36.96Z" fill="#2642CF" style="fill:#2642CF;fill:color(display-p3 0.1490 0.2588 0.8118);fill-opacity:1;"/>
<path d="M71.5398 47.04C72.1584 47.04 72.6598 47.5415 72.6598 48.16V50.4C72.6598 51.0186 72.1584 51.5201 71.5398 51.5201H62.5798C61.9612 51.5201 61.4598 51.0186 61.4598 50.4V48.16C61.4598 47.5415 61.9612 47.04 62.5798 47.04H71.5398Z" fill="#2642CF" style="fill:#2642CF;fill:color(display-p3 0.1490 0.2588 0.8118);fill-opacity:1;"/>
<path d="M41.5798 66.08C41.5798 65.4615 42.0812 64.96 42.6998 64.96H44.9398C45.5584 64.96 46.0598 65.4615 46.0598 66.08V68.32C46.0598 68.9386 45.5584 69.44 44.9398 69.44H42.6998C42.0812 69.44 41.5798 68.9386 41.5798 68.32V66.08Z" fill="#2642CF" style="fill:#2642CF;fill:color(display-p3 0.1490 0.2588 0.8118);fill-opacity:1;"/>
<path d="M46.0598 61.6C46.0598 60.9815 46.5612 60.48 47.1798 60.48H49.4198C50.0384 60.48 50.5398 60.9815 50.5398 61.6V63.84C50.5398 64.4586 50.0384 64.96 49.4198 64.96H47.1798C46.5612 64.96 46.0598 64.4586 46.0598 63.84V61.6Z" fill="#2642CF" style="fill:#2642CF;fill:color(display-p3 0.1490 0.2588 0.8118);fill-opacity:1;"/>
<path d="M39.3398 77.28C39.3398 76.6615 39.8412 76.16 40.4598 76.16H49.4198C50.0384 76.16 50.5398 76.6615 50.5398 77.28V79.5201C50.5398 80.1386 50.0384 80.64 49.4198 80.64H40.4598C39.8412 80.64 39.3398 80.1386 39.3398 79.5201V77.28Z" fill="#2642CF" style="fill:#2642CF;fill:color(display-p3 0.1490 0.2588 0.8118);fill-opacity:1;"/>
<path d="M68.4598 68.32C67.8412 68.32 67.3398 68.8215 67.3398 69.44V71.68C67.3398 72.2986 67.8412 72.8 68.4598 72.8H70.6998C71.3184 72.8 71.8198 72.2986 71.8198 71.68V69.44C71.8198 68.8215 71.3184 68.32 70.6998 68.32H68.4598Z" fill="#2642CF" style="fill:#2642CF;fill:color(display-p3 0.1490 0.2588 0.8118);fill-opacity:1;"/>
<path fill-rule="evenodd" clip-rule="evenodd" d="M78.2598 58.24C80.2701 58.24 81.8998 59.8697 81.8998 61.8801V79.24C81.8998 81.2504 80.2701 82.8801 78.2598 82.8801H60.8998C58.8895 82.8801 57.2598 81.2504 57.2598 79.24V61.8801C57.2598 59.8697 58.8895 58.24 60.8998 58.24H78.2598ZM77.4198 62.7201H61.7398V78.4H77.4198V62.7201Z" fill="#2642CF" style="fill:#2642CF;fill:color(display-p3 0.1490 0.2588 0.8118);fill-opacity:1;"/>
<path fill-rule="evenodd" clip-rule="evenodd" d="M33.7399 29.12C31.7295 29.12 30.0999 30.7497 30.0999 32.76V50.12C30.0999 52.1303 31.7295 53.76 33.7399 53.76H51.0999C53.1102 53.76 54.7399 52.1303 54.7399 50.12V32.76C54.7399 30.7497 53.1102 29.12 51.0999 29.12H33.7399ZM50.2599 49.28H34.5799V33.6H50.2599V49.28Z" fill="#E47789" style="fill:#E47789;fill:color(display-p3 0.8945 0.4663 0.5370);fill-opacity:1;"/>
<path d="M68.4599 68.32C67.8413 68.32 67.3399 68.8214 67.3399 69.44V71.68C67.3399 72.2986 67.8413 72.8 68.4599 72.8H70.6999C71.3184 72.8 71.8199 72.2986 71.8199 71.68V69.44C71.8199 68.8214 71.3184 68.32 70.6999 68.32H68.4599Z" fill="#E47789" style="fill:#E47789;fill:color(display-p3 0.8945 0.4663 0.5370);fill-opacity:1;"/>
<mask id="mask0_1_1595" style="mask-type:alpha" maskUnits="userSpaceOnUse" x="30" y="60" width="12" height="21">
<rect width="11.2" height="20.44" transform="matrix(-1 0 0 1 41.7198 60.48)" fill="url(#paint0_linear_1_1595)" style=""/>
</mask>
<g mask="url(#mask0_1_1595)">
<path d="M41.7198 61.04C41.7198 60.7307 41.4691 60.48 41.1598 60.48H34.1598C32.1495 60.48 30.5198 62.1097 30.5198 64.12V80.08C30.5198 80.3893 30.7706 80.64 31.0798 80.64H34.4398C34.7491 80.64 34.9998 80.3893 34.9998 80.08V65.52C34.9998 65.2107 35.2506 64.96 35.5598 64.96H41.1598C41.4691 64.96 41.7198 64.7093 41.7198 64.4V61.04Z" fill="#2642CF" style="fill:#2642CF;fill:color(display-p3 0.1490 0.2588 0.8118);fill-opacity:1;"/>
</g>
<mask id="mask1_1_1595" style="mask-type:alpha" maskUnits="userSpaceOnUse" x="70" y="31" width="12" height="21">
<rect x="70.5598" y="31.36" width="11.2" height="20.44" fill="url(#paint1_linear_1_1595)" style=""/>
</mask>
<g mask="url(#mask1_1_1595)">
<path d="M70.5598 31.92C70.5598 31.6107 70.8105 31.36 71.1198 31.36H78.1198C80.1301 31.36 81.7598 32.9897 81.7598 35V50.96C81.7598 51.2693 81.5091 51.52 81.1998 51.52H77.8398C77.5305 51.52 77.2798 51.2693 77.2798 50.96V36.4C77.2798 36.0907 77.0291 35.84 76.7198 35.84H71.1198C70.8105 35.84 70.5598 35.5893 70.5598 35.28V31.92Z" fill="#2642CF" style="fill:#2642CF;fill:color(display-p3 0.1490 0.2588 0.8118);fill-opacity:1;"/>
</g>
<defs>
<linearGradient id="paint0_linear_1_1595" x1="7.06091" y1="19.8679" x2="7.06091" y2="6.67491" gradientUnits="userSpaceOnUse">
<stop stop-opacity="0" style="stop-color:none;stop-opacity:0;"/>
<stop offset="1" style="stop-color:black;stop-opacity:1;"/>
</linearGradient>
<linearGradient id="paint1_linear_1_1595" x1="77.6207" y1="51.2279" x2="77.6207" y2="38.0349" gradientUnits="userSpaceOnUse">
<stop stop-opacity="0" style="stop-color:none;stop-opacity:0;"/>
<stop offset="1" style="stop-color:black;stop-opacity:1;"/>
</linearGradient>
</defs>
</svg>
