<svg width="112" height="112" viewBox="0 0 112 112" fill="none" xmlns="http://www.w3.org/2000/svg">
<path d="M61.3119 24.478C61.6399 23.2991 60.9768 22.0645 59.7896 21.768C57.3848 21.1674 54.9097 20.8174 52.403 20.7328C44.5613 20.4681 36.8537 22.815 30.4901 27.4049C24.1265 31.9948 19.4672 38.5679 17.2437 46.0924C15.0201 53.6169 15.3582 61.6668 18.2048 68.9784C21.0514 76.29 26.2454 82.4493 32.9714 86.4895C39.6974 90.5297 47.5747 92.222 55.3666 91.3008C62.4024 90.4689 69.0089 87.5487 74.3465 82.9425C75.2991 82.1205 75.3077 80.6719 74.4261 79.7741C73.5446 78.8764 72.1072 78.8705 71.1469 79.6835C66.5356 83.5871 60.8647 86.0626 54.8316 86.7759C48.0421 87.5786 41.1783 86.104 35.3176 82.5836C29.4569 79.0632 24.9311 73.6963 22.4507 67.3253C19.9703 60.9544 19.6758 53.9401 21.6133 47.3836C23.5508 40.8272 27.6106 35.0997 33.1555 31.1003C38.7004 27.1009 45.4164 25.056 52.2493 25.2866C54.3344 25.357 56.3944 25.638 58.3999 26.1187C59.6554 26.4195 60.9659 25.7219 61.3119 24.478Z" fill="#2642CF" style="fill:#2642CF;fill:color(display-p3 0.1490 0.2588 0.8118);fill-opacity:1;"/>
<path fill-rule="evenodd" clip-rule="evenodd" d="M52.1201 36.7795C53.0479 36.7795 53.8001 37.5316 53.8001 38.4595V43.2287H57.6616C58.5894 43.2287 59.3416 43.9809 59.3416 44.9087C59.3416 45.8365 58.5894 46.5887 57.6616 46.5887H53.8001V54.5148H55.4975C57.4397 54.5148 59.3024 55.2863 60.6757 56.6596C62.049 58.033 62.8206 59.8956 62.8206 61.8378C62.8206 63.78 62.049 65.6426 60.6757 67.016C59.3023 68.3893 57.4397 69.1608 55.4975 69.1608H53.8001V73.93C53.8001 74.8578 53.0479 75.61 52.1201 75.61C51.1923 75.61 50.4401 74.8578 50.4401 73.93V69.1608L43.8403 69.1608C42.9125 69.1608 42.1603 68.4087 42.1603 67.4808C42.1603 66.553 42.9125 65.8008 43.8403 65.8008L50.4401 65.8008V57.8748H48.7427C46.8005 57.8748 44.9379 57.1032 43.5645 55.7299C42.1912 54.3566 41.4197 52.4939 41.4197 50.5517C41.4197 48.6095 42.1912 46.7469 43.5645 45.3736C44.9379 44.0002 46.8005 43.2287 48.7427 43.2287H50.4401V38.4595C50.4401 37.5316 51.1923 36.7795 52.1201 36.7795ZM55.4975 57.8748H53.8001V65.8008H55.4975C56.5486 65.8008 57.5566 65.3833 58.2998 64.6401C59.043 63.8969 59.4606 62.8889 59.4606 61.8378C59.4606 60.7867 59.043 59.7787 58.2998 59.0355C57.5566 58.2923 56.5485 57.8748 55.4975 57.8748ZM50.4401 46.5887H48.7427C47.6916 46.5887 46.6836 47.0062 45.9404 47.7494C45.1972 48.4927 44.7797 49.5007 44.7797 50.5517C44.7797 51.6028 45.1972 52.6108 45.9404 53.354C46.6836 54.0972 47.6916 54.5148 48.7427 54.5148H50.4401V46.5887Z" fill="#2642CF" style="fill:#2642CF;fill:color(display-p3 0.1490 0.2588 0.8118);fill-opacity:1;"/>
<path fill-rule="evenodd" clip-rule="evenodd" d="M77.2198 45.9477C77.5673 45.8004 77.9528 45.719 78.3478 45.7195H87.7735C88.3668 45.7187 88.9335 45.9029 89.3932 46.2148C89.8544 46.5266 90.219 46.9652 90.44 47.4868C90.5874 47.8343 90.6685 48.2196 90.6683 48.6143V56.8583H93.2283C93.6348 56.8578 94.0357 56.9439 94.3919 57.1007C94.7491 57.257 95.0617 57.481 95.3168 57.7478C95.8255 58.2814 96.1227 58.9878 96.1249 59.7553C96.1264 60.2526 95.9903 60.7733 95.7192 61.2285L85.5541 78.3904C85.2848 78.8476 84.8933 79.2169 84.4563 79.4546C84.0182 79.6941 83.5391 79.8098 83.0632 79.81C82.5841 79.8098 82.102 79.6926 81.6622 79.4501C81.2232 79.2095 80.8307 78.8356 80.5626 78.3737L70.3686 60.8982C70.1038 60.447 69.9712 59.9328 69.9727 59.4412C69.9732 58.8658 70.1434 58.3232 70.4403 57.8643C70.7375 57.4056 71.1698 57.0218 71.7059 56.7868C72.0621 56.63 72.4628 56.5439 72.8692 56.5447L75.4529 56.5447V48.6389C75.4471 48.0573 75.6217 47.4764 75.948 46.9948C76.2596 46.5338 76.6979 46.1692 77.2198 45.9477ZM87.0537 57.5783C87.0532 57.973 87.1346 58.3583 87.2819 58.7058C87.5029 59.2274 87.8675 59.666 88.3287 59.9778C88.7884 60.2897 89.3551 60.4739 89.9485 60.4731H91.9652L83.068 75.4945L74.1214 60.1595H76.2437C76.6384 60.1598 77.0242 60.0784 77.3714 59.931C77.8936 59.7098 78.3318 59.3449 78.6435 58.884C78.9551 58.4243 79.1392 57.8578 79.1385 57.2647L79.0735 49.3343H87.0537V57.5783Z" fill="#2642CF" style="fill:#2642CF;fill:color(display-p3 0.1490 0.2588 0.8118);fill-opacity:1;"/>
<path fill-rule="evenodd" clip-rule="evenodd" d="M52.1201 36.7794C53.048 36.7794 53.8001 37.5316 53.8001 38.4594V43.2286H57.6616C58.5894 43.2286 59.3416 43.9808 59.3416 44.9086C59.3416 45.8365 58.5894 46.5886 57.6616 46.5886H53.8001V54.5147H55.4975C57.4397 54.5147 59.3024 55.2862 60.6757 56.6596C62.049 58.0329 62.8206 59.8956 62.8206 61.8377C62.8206 63.7799 62.049 65.6426 60.6757 67.0159C59.3024 68.3893 57.4397 69.1608 55.4975 69.1608H53.8001V73.9299C53.8001 74.8578 53.048 75.6099 52.1201 75.6099C51.1923 75.6099 50.4401 74.8578 50.4401 73.9299V69.1608L43.8404 69.1608C42.9125 69.1608 42.1604 68.4086 42.1604 67.4808C42.1604 66.5529 42.9125 65.8008 43.8404 65.8008L50.4401 65.8008V57.8747H48.7427C46.8005 57.8747 44.9379 57.1032 43.5645 55.7299C42.1912 54.3565 41.4197 52.4939 41.4197 50.5517C41.4197 48.6095 42.1912 46.7469 43.5645 45.3735C44.9379 44.0002 46.8005 43.2286 48.7427 43.2286H50.4401V38.4594C50.4401 37.5316 51.1923 36.7794 52.1201 36.7794ZM55.4975 57.8747H53.8001V65.8008H55.4975C56.5486 65.8008 57.5566 65.3833 58.2998 64.64C59.043 63.8968 59.4606 62.8888 59.4606 61.8377C59.4606 60.7867 59.043 59.7787 58.2998 59.0355C57.5566 58.2923 56.5485 57.8747 55.4975 57.8747ZM50.4401 46.5886H48.7427C47.6916 46.5886 46.6836 47.0062 45.9404 47.7494C45.1972 48.4926 44.7797 49.5006 44.7797 50.5517C44.7797 51.6027 45.1972 52.6108 45.9404 53.354C46.6836 54.0972 47.6916 54.5147 48.7427 54.5147H50.4401V46.5886Z" fill="#E47789" style="fill:#E47789;fill:color(display-p3 0.8945 0.4663 0.5370);fill-opacity:1;"/>
<mask id="mask0_1_1520" style="mask-type:alpha" maskUnits="userSpaceOnUse" x="49" y="20" width="38" height="36">
<path d="M71.7463 55.5102L49.2608 21.5146C49.2608 21.5146 53.4357 20.872 57.2568 20.9167C61.0779 20.9613 65.8787 23.2234 70.8729 25.8885C79.8152 30.6603 86.0624 46.0438 86.0624 46.0438L71.7463 55.5102Z" fill="url(#paint0_linear_1_1520)" style=""/>
</mask>
<g mask="url(#mask0_1_1520)">
<path d="M83.549 48.9022C84.7769 48.6278 85.5571 47.4072 85.2044 46.1994C83.2278 39.4319 79.2697 33.3897 73.8161 28.8672C67.7765 23.8587 60.2447 20.9975 52.403 20.7328C44.5613 20.4681 36.8537 22.815 30.4901 27.4049C24.1265 31.9948 19.4672 38.5679 17.2437 46.0924C15.0201 53.6169 15.3582 61.6668 18.2048 68.9784C21.0514 76.29 26.2454 82.4493 32.9714 86.4895C39.6974 90.5297 47.5747 92.222 55.3666 91.3008C62.4024 90.4689 69.0089 87.5487 74.3465 82.9426C75.2991 82.1205 75.3077 80.6719 74.4261 79.7741C73.5446 78.8764 72.1072 78.8705 71.1469 79.6835C66.5356 83.5871 60.8647 86.0626 54.8316 86.7759C48.0421 87.5786 41.1783 86.104 35.3176 82.5836C29.4569 79.0632 24.9311 73.6963 22.4507 67.3253C19.9703 60.9544 19.6758 53.9401 21.6133 47.3836C23.5508 40.8272 27.6106 35.0997 33.1555 31.1003C38.7004 27.1009 45.4164 25.056 52.2493 25.2866C59.0822 25.5172 65.645 28.0103 70.9076 32.3745C75.584 36.2525 78.9984 41.4128 80.7472 47.1959C81.1114 48.4003 82.3211 49.1766 83.549 48.9022Z" fill="#2642CF" style="fill:#2642CF;fill:color(display-p3 0.1490 0.2588 0.8118);fill-opacity:1;"/>
</g>
<defs>
<linearGradient id="paint0_linear_1_1520" x1="83.3617" y1="44.6727" x2="63.2526" y2="22.6929" gradientUnits="userSpaceOnUse">
<stop stop-opacity="0" style="stop-color:none;stop-opacity:0;"/>
<stop offset="1" style="stop-color:black;stop-opacity:1;"/>
</linearGradient>
</defs>
</svg>
