<svg width="112" height="112" viewBox="0 0 112 112" fill="none" xmlns="http://www.w3.org/2000/svg">
<path fill-rule="evenodd" clip-rule="evenodd" d="M54.5188 37.4513C54.5196 35.965 53.912 34.6055 52.9374 33.6331C51.965 32.6585 50.6055 32.051 49.1192 32.0517C47.6331 32.051 46.2734 32.6585 45.3012 33.6331C44.3263 34.6055 43.7188 35.965 43.7195 37.4513C43.7188 38.9255 44.3166 40.2752 45.2778 41.2458L39.9212 50.3598C38.2096 50.0631 36.4075 50.6294 35.1777 51.862C34.203 52.8344 33.5955 54.1939 33.5962 55.6802C33.5955 57.1666 34.203 58.526 35.1777 59.4984C36.1501 60.4731 37.5095 61.0806 38.9959 61.0799C40.482 61.0806 41.8417 60.4731 42.8138 59.4984C43.7887 58.526 44.3963 57.1666 44.3955 55.6802C44.3962 54.3979 43.9441 53.21 43.1939 52.2837C45.0415 49.14 48.7443 42.8382 48.7443 42.8382C49.1155 42.8638 49.4896 42.8514 49.8582 42.8007C49.8582 42.8007 54.3504 49.2511 56.515 52.3455C55.7945 53.2626 55.3622 54.4262 55.3628 55.6803C55.362 57.1666 55.9696 58.5261 56.9442 59.4985C57.9166 60.4731 59.2761 61.0807 60.7624 61.0799C62.2488 61.0807 63.6082 60.4731 64.5806 59.4985C65.5553 58.5261 66.1628 57.1666 66.1621 55.6803C66.1627 54.3792 65.6973 53.1754 64.9276 52.2433L71.643 42.8049C73.479 43.2914 75.5001 42.7515 76.8454 41.4028C77.82 40.4306 78.4276 39.0709 78.4268 37.5848C78.4276 36.0985 77.82 34.739 76.8454 33.7666C75.873 32.792 74.5136 32.1844 73.0272 32.1852C71.5411 32.1844 70.1814 32.792 69.2092 33.7666C68.2343 34.739 67.6268 36.0985 67.6275 37.5848C67.627 38.6988 67.9682 39.7418 68.5498 40.6037L61.6171 50.348C61.0054 50.2504 60.3766 50.2585 59.7677 50.3723L53.2017 40.9858C54.0206 40.041 54.5195 38.7981 54.5188 37.4513ZM51.4819 37.4513C51.4809 38.1084 51.2198 38.6896 50.7897 39.1219C50.3574 39.5517 49.7765 39.8131 49.1192 39.8138C48.4621 39.8131 47.881 39.5517 47.4486 39.1219C47.0188 38.6896 46.7575 38.1084 46.7567 37.4513C46.7575 36.794 47.0188 36.2131 47.4486 35.7808C47.881 35.3507 48.4621 35.0896 49.1192 35.0889C49.7765 35.0896 50.3574 35.3507 50.7897 35.7808C51.2198 36.2131 51.4809 36.794 51.4819 37.4513ZM40.6664 57.3508C41.0963 56.9184 41.3576 56.3373 41.3583 55.6802C41.3576 55.0229 41.0963 54.442 40.6664 54.0097C40.2341 53.5798 39.653 53.3185 38.9959 53.3178C38.3386 53.3185 37.7577 53.5798 37.3253 54.0097C36.8955 54.442 36.6342 55.0229 36.6334 55.6802C36.6342 56.3373 36.8955 56.9184 37.3253 57.3508C37.7577 57.7806 38.3386 58.0419 38.9959 58.0427C39.653 58.0419 40.2341 57.7806 40.6664 57.3508ZM63.1249 55.6803C63.1241 56.3373 62.8628 56.9185 62.433 57.3508C62.0006 57.7806 61.4197 58.042 60.7624 58.0427C60.1051 58.042 59.5242 57.7806 59.0919 57.3508C58.662 56.9185 58.4007 56.3373 58.4 55.6803C58.4007 55.0229 58.662 54.442 59.0919 54.0097C59.5242 53.5799 60.1051 53.3186 60.7624 53.3178C61.4197 53.3186 62.0006 53.5799 62.433 54.0097C62.8628 54.442 63.1241 55.0229 63.1249 55.6803ZM75.3899 37.5848C75.3891 38.2419 75.1278 38.823 74.6977 39.2554C74.2654 39.6852 73.6845 39.9465 73.0272 39.9473C72.3701 39.9465 71.789 39.6852 71.3567 39.2554C70.9268 38.823 70.6655 38.2419 70.6647 37.5848C70.6655 36.9275 70.9268 36.3466 71.3567 35.9143C71.789 35.4842 72.3701 35.2231 73.0272 35.2224C73.6845 35.2231 74.2654 35.4842 74.6977 35.9143C75.1278 36.3466 75.3891 36.9275 75.3899 37.5848Z" fill="#2642CF" style="fill:#2642CF;fill:color(display-p3 0.1490 0.2588 0.8118);fill-opacity:1;"/>
<path d="M76.0624 69.521H35.9606C34.9123 69.521 34.0624 68.6713 34.0624 67.623C34.0624 66.5747 34.9123 65.7247 35.9606 65.7247H76.0624C77.1107 65.7247 77.9606 66.5747 77.9606 67.623C77.9606 68.6713 77.1107 69.521 76.0624 69.521Z" fill="#2642CF" style="fill:#2642CF;fill:color(display-p3 0.1490 0.2588 0.8118);fill-opacity:1;"/>
<path d="M35.9606 79.1592H76.0624C77.1107 79.1592 77.9606 78.3093 77.9606 77.261C77.9606 76.2126 77.1107 75.3627 76.0624 75.3627H35.9606C34.9123 75.3627 34.0624 76.2126 34.0624 77.261C34.0624 78.3093 34.9123 79.1592 35.9606 79.1592Z" fill="#2642CF" style="fill:#2642CF;fill:color(display-p3 0.1490 0.2588 0.8118);fill-opacity:1;"/>
<path d="M32.8745 86.9557C33.6483 87.2765 34.4818 87.442 35.3273 87.4442L54.5295 87.4442L54.6749 92L35.326 91.9999C33.8962 91.9984 32.4561 91.7152 31.129 91.1637C29.8007 90.6136 28.5864 89.8002 27.5722 88.787C26.5589 87.773 25.7456 86.5585 25.1958 85.2304C24.6439 83.9031 24.3607 82.4575 24.3593 81.0277L24.3594 31.2559C24.3608 29.826 24.6439 28.3859 25.1958 27.0588C25.7456 25.7305 26.5589 24.516 27.5722 23.502C28.5864 22.4888 29.8007 21.6754 31.129 21.1253C32.4561 20.5738 33.8962 20.2906 35.326 20.2891H76.6737C78.1033 20.2906 79.5434 20.5738 80.8705 21.1253C82.1988 21.6754 83.4134 22.4888 84.4273 23.502C85.4406 24.516 86.2539 25.7305 86.804 27.0588C87.3555 28.3859 87.6388 29.826 87.6402 31.2559L87.6402 80.9435C87.6402 82.2016 86.6202 83.2213 85.3623 83.2213C84.1042 83.2213 83.0845 82.2016 83.0845 80.9435L83.0846 31.2569C83.0873 29.5686 82.4024 27.9158 81.206 26.7233C80.016 25.5292 78.3674 24.845 76.6827 24.845H35.3273C33.6426 24.845 31.9835 25.5292 30.7935 26.7233C29.5971 27.9158 28.9122 29.5686 28.9152 31.2569L28.9149 81.0277C28.9172 81.8731 29.0827 82.7109 29.4037 83.4847C29.7236 84.2582 30.1992 84.9701 30.7935 85.5657C31.3891 86.1602 32.1012 86.6356 32.8745 86.9557Z" fill="#2642CF" style="fill:#2642CF;fill:color(display-p3 0.1490 0.2588 0.8118);fill-opacity:1;"/>
<path fill-rule="evenodd" clip-rule="evenodd" d="M54.5187 37.4514C54.5195 35.965 53.9119 34.6056 52.9373 33.6332C51.9649 32.6586 50.6054 32.051 49.1191 32.0518C47.633 32.051 46.2733 32.6586 45.3011 33.6332C44.3262 34.6056 43.7187 35.965 43.7194 37.4514C43.7187 38.9256 44.3165 40.2753 45.2776 41.2458L39.921 50.3598C38.2095 50.0632 36.4074 50.6294 35.1776 51.8621C34.2029 52.8345 33.5954 54.1939 33.5961 55.6803C33.5954 57.1667 34.2029 58.5261 35.1776 59.4985C36.15 60.4731 37.5094 61.0807 38.9958 61.0799C40.4819 61.0807 41.8416 60.4731 42.8137 59.4985C43.7886 58.5261 44.3962 57.1667 44.3954 55.6803C44.3961 54.3979 43.944 53.2101 43.1938 52.2837C45.0414 49.1401 48.7442 42.8383 48.7442 42.8383C49.1154 42.8638 49.4894 42.8515 49.8581 42.8008C49.8581 42.8008 54.3503 49.2512 56.5149 52.3455C55.7944 53.2626 55.362 54.4263 55.3627 55.6803C55.3619 57.1667 55.9695 58.5261 56.9441 59.4985C57.9165 60.4732 59.2759 61.0807 60.7623 61.08C62.2487 61.0807 63.6081 60.4732 64.5805 59.4985C65.5552 58.5261 66.1627 57.1667 66.162 55.6803C66.1626 54.3793 65.6972 53.1755 64.9275 52.2434L71.6429 42.805C73.4789 43.2915 75.5 42.7516 76.8453 41.4028C77.8199 40.4307 78.4275 39.071 78.4267 37.5849C78.4275 36.0985 77.8199 34.7391 76.8453 33.7667C75.8729 32.792 74.5134 32.1845 73.0271 32.1852C71.541 32.1845 70.1813 32.792 69.2091 33.7667C68.2342 34.7391 67.6267 36.0985 67.6274 37.5849C67.6269 38.6989 67.9681 39.7418 68.5497 40.6037L61.617 50.3481C61.0053 50.2505 60.3765 50.2586 59.7676 50.3723L53.2016 40.9858C54.0205 40.041 54.5194 38.7981 54.5187 37.4514ZM51.4818 37.4514C51.4808 38.1085 51.2197 38.6896 50.7896 39.1219C50.3573 39.5518 49.7764 39.8131 49.1191 39.8139C48.462 39.8131 47.8808 39.5518 47.4485 39.1219C47.0187 38.6896 46.7574 38.1085 46.7566 37.4514C46.7574 36.7941 47.0187 36.2132 47.4485 35.7809C47.8808 35.3508 48.462 35.0897 49.1191 35.089C49.7764 35.0897 50.3573 35.3508 50.7896 35.7809C51.2197 36.2132 51.4808 36.7941 51.4818 37.4514ZM40.6663 57.3508C41.0961 56.9185 41.3575 56.3374 41.3582 55.6803C41.3575 55.023 41.0961 54.4421 40.6663 54.0097C40.234 53.5799 39.6528 53.3186 38.9958 53.3178C38.3385 53.3186 37.7576 53.5799 37.3252 54.0097C36.8954 54.4421 36.6341 55.023 36.6333 55.6803C36.6341 56.3374 36.8954 56.9185 37.3252 57.3508C37.7576 57.7807 38.3385 58.042 38.9958 58.0427C39.6528 58.042 40.234 57.7807 40.6663 57.3508ZM63.1248 55.6803C63.124 56.3374 62.8627 56.9185 62.4329 57.3509C62.0005 57.7807 61.4196 58.042 60.7623 58.0428C60.105 58.042 59.5241 57.7807 59.0918 57.3509C58.6619 56.9185 58.4006 56.3374 58.3999 55.6803C58.4006 55.023 58.6619 54.4421 59.0918 54.0098C59.5241 53.5799 60.105 53.3186 60.7623 53.3179C61.4196 53.3186 62.0005 53.5799 62.4329 54.0098C62.8627 54.4421 63.124 55.023 63.1248 55.6803ZM75.3898 37.5849C75.389 38.2419 75.1277 38.8231 74.6976 39.2554C74.2653 39.6852 73.6844 39.9466 73.0271 39.9473C72.37 39.9466 71.7889 39.6852 71.3565 39.2554C70.9267 38.8231 70.6654 38.2419 70.6646 37.5849C70.6654 36.9276 70.9267 36.3467 71.3565 35.9143C71.7889 35.4843 72.37 35.2232 73.0271 35.2224C73.6844 35.2232 74.2653 35.4843 74.6976 35.9143C75.1277 36.3467 75.389 36.9276 75.3898 37.5849Z" fill="#E47789" style="fill:#E47789;fill:color(display-p3 0.8945 0.4663 0.5370);fill-opacity:1;"/>
<mask id="mask0_1_1457" style="mask-type:alpha" maskUnits="userSpaceOnUse" x="45" y="84" width="41" height="12">
<rect x="45.3597" y="84.1445" width="39.9467" height="11.2" fill="url(#paint0_linear_1_1457)" style=""/>
</mask>
<g mask="url(#mask0_1_1457)">
<path d="M81.794 89.7222C81.794 90.9802 80.7743 92 79.5161 92L35.3259 92L35.3272 87.4442L79.5161 87.4442C80.7743 87.4442 81.794 88.464 81.794 89.7222Z" fill="#2642CF" style="fill:#2642CF;fill:color(display-p3 0.1490 0.2588 0.8118);fill-opacity:1;"/>
</g>
<defs>
<linearGradient id="paint0_linear_1_1457" x1="82.3834" y1="90.5786" x2="57.3762" y2="90.5786" gradientUnits="userSpaceOnUse">
<stop stop-opacity="0" style="stop-color:none;stop-opacity:0;"/>
<stop offset="1" style="stop-color:black;stop-opacity:1;"/>
</linearGradient>
</defs>
</svg>
