<svg width="112" height="112" viewBox="0 0 112 112" fill="none" xmlns="http://www.w3.org/2000/svg">
<path fill-rule="evenodd" clip-rule="evenodd" d="M86.6313 27.4367C83.2122 24.0177 77.6689 24.0177 74.2498 27.4367C70.8308 30.8558 70.8308 36.3991 74.2498 39.8182C77.6689 43.2372 83.2122 43.2372 86.6313 39.8182C90.0503 36.3991 90.0503 30.8558 86.6313 27.4367ZM76.9345 30.1213C78.8708 28.185 82.0103 28.185 83.9467 30.1213C85.883 32.0577 85.883 35.1972 83.9467 37.1335C82.0103 39.0699 78.8708 39.0699 76.9345 37.1335C74.9981 35.1972 74.9981 32.0577 76.9345 30.1213Z" fill="#2642CF" style="fill:#2642CF;fill:color(display-p3 0.1490 0.2588 0.8118);fill-opacity:1;"/>
<path fill-rule="evenodd" clip-rule="evenodd" d="M98.2633 12.8114C99.8446 12.9385 101.13 14.2234 101.257 15.8047C101.573 19.7458 102.081 32.2915 93.833 44.4207C90.6267 49.1359 87.1761 52.9659 83.7469 56.0664L68.8146 81.0938C67.9293 82.5776 65.7427 82.4594 65.0226 80.8888L58.945 67.6339C58.8378 67.5496 58.7358 67.4591 58.6397 67.363L46.6005 55.3238C46.5325 55.2558 46.4675 55.1846 46.4058 55.1103L33.1755 49.044C31.5695 48.3077 31.5229 46.1196 32.9731 45.2544L58.0009 30.3218C61.1016 26.8923 64.9318 23.4415 69.6473 20.235C81.7765 11.9872 94.3222 12.4948 98.2633 12.8114ZM83.9521 17.8518C80.1256 18.8594 75.9241 20.558 71.7822 23.3745C62.738 29.5245 57.1873 36.598 53.8658 42.449C58.3357 49.568 64.4999 55.7323 71.6189 60.2023C77.4706 56.8804 84.5438 51.3295 90.6935 42.2858C93.51 38.1439 95.2085 33.9424 96.2162 30.116C93.7172 29.0586 91.1676 27.156 89.0399 25.0282C86.912 22.9004 85.0094 20.3508 83.9521 17.8518ZM87.7557 17.0389C88.6049 18.7441 90.0058 20.625 91.7245 22.3436C93.4431 24.0622 95.3239 25.4631 97.0291 26.3123C97.7411 22.0123 97.6398 18.4972 97.506 16.562C95.5708 16.4282 92.0557 16.3269 87.7557 17.0389ZM49.5574 52.9115C49.8896 51.4747 50.5938 49.1674 51.8777 46.342C56.1028 52.5337 61.5343 57.9652 67.7259 62.1903C64.9021 63.4735 62.5951 64.1778 61.1565 64.5106L49.5574 52.9115ZM63.2408 67.8936C66.1187 67.0864 70.6018 65.3911 75.6629 62.2058L67.1641 76.4502L63.2408 67.8936ZM51.8618 38.4057C48.6775 43.4653 46.9821 47.9478 46.1744 50.8275L37.6178 46.9042L51.8618 38.4057Z" fill="#2642CF" style="fill:#2642CF;fill:color(display-p3 0.1490 0.2588 0.8118);fill-opacity:1;"/>
<path fill-rule="evenodd" clip-rule="evenodd" d="M44.808 55.5252L39.6015 68.2616C39.2902 69.023 39.495 69.7234 39.5979 70.0169C39.7263 70.3832 39.9171 70.7187 40.0951 70.9918C40.4583 71.5487 40.9524 72.1227 41.4489 72.6192C41.9454 73.1157 42.5194 73.6098 43.0764 73.973C43.3494 74.151 43.685 74.3418 44.0512 74.4702C44.3447 74.5731 45.0451 74.7779 45.8065 74.4666L58.5429 69.2601L44.808 55.5252ZM43.3755 69.0631L46.1615 62.2479L51.8203 67.9067L45.0051 70.6927C44.754 70.5108 44.4457 70.2468 44.1335 69.9346C43.8213 69.6225 43.5573 69.3141 43.3755 69.0631Z" fill="#2642CF" style="fill:#2642CF;fill:color(display-p3 0.1490 0.2588 0.8118);fill-opacity:1;"/>
<mask id="mask0_1_14851" style="mask-type:alpha" maskUnits="userSpaceOnUse" x="13" y="76" width="26" height="26">
<path fill-rule="evenodd" clip-rule="evenodd" d="M38.1596 76.9858C38.901 77.7272 38.901 78.9291 38.1596 79.6704L16.6828 101.147C15.9414 101.889 14.7395 101.889 13.9982 101.147C13.2568 100.406 13.2568 99.204 13.9982 98.4627L35.475 76.9858C36.2164 76.2445 37.4183 76.2445 38.1596 76.9858Z" fill="url(#paint0_radial_1_14851)" style=""/>
</mask>
<g mask="url(#mask0_1_14851)">
<path fill-rule="evenodd" clip-rule="evenodd" d="M38.1667 76.9786C38.908 77.7199 38.908 78.9219 38.1667 79.6632L16.6519 101.178C15.9105 101.919 14.7086 101.919 13.9672 101.178C13.2259 100.437 13.2259 99.2348 13.9672 98.4934L35.482 76.9786C36.2234 76.2373 37.4253 76.2373 38.1667 76.9786Z" fill="#E47789" style="fill:#E47789;fill:color(display-p3 0.8945 0.4663 0.5370);fill-opacity:1;"/>
</g>
<mask id="mask1_1_14851" style="mask-type:alpha" maskUnits="userSpaceOnUse" x="15" y="67" width="21" height="21">
<path fill-rule="evenodd" clip-rule="evenodd" d="M35.1759 67.7032C35.9173 68.4446 35.9173 69.6465 35.1759 70.3878L18.3971 87.1666C17.6558 87.908 16.4539 87.908 15.7125 87.1666C14.9712 86.4253 14.9712 85.2234 15.7125 84.482L32.4913 67.7032C33.2327 66.9619 34.4346 66.9619 35.1759 67.7032Z" fill="url(#paint1_radial_1_14851)" style=""/>
</mask>
<g mask="url(#mask1_1_14851)">
<path fill-rule="evenodd" clip-rule="evenodd" d="M35.1759 67.7033C35.9173 68.4447 35.9173 69.6466 35.1759 70.388L18.3971 87.1668C17.6558 87.9081 16.4539 87.9081 15.7125 87.1668C14.9712 86.4254 14.9712 85.2235 15.7125 84.4822L32.4913 67.7033C33.2327 66.962 34.4346 66.962 35.1759 67.7033Z" fill="#E47789" style="fill:#E47789;fill:color(display-p3 0.8945 0.4663 0.5370);fill-opacity:1;"/>
</g>
<mask id="mask2_1_14851" style="mask-type:alpha" maskUnits="userSpaceOnUse" x="33" y="77" width="18" height="18">
<path fill-rule="evenodd" clip-rule="evenodd" d="M49.6794 77.7322C50.4208 78.4735 50.4208 79.6754 49.6794 80.4168L36.2564 93.8398C35.515 94.5811 34.3131 94.5811 33.5718 93.8398C32.8304 93.0985 32.8304 91.8965 33.5718 91.1552L46.9948 77.7322C47.7361 76.9908 48.9381 76.9908 49.6794 77.7322Z" fill="url(#paint2_radial_1_14851)" style=""/>
</mask>
<g mask="url(#mask2_1_14851)">
<path fill-rule="evenodd" clip-rule="evenodd" d="M49.6794 77.7322C50.4208 78.4735 50.4208 79.6754 49.6794 80.4168L36.2564 93.8398C35.515 94.5811 34.3131 94.5811 33.5718 93.8398C32.8304 93.0985 32.8304 91.8965 33.5718 91.1552L46.9948 77.7322C47.7361 76.9908 48.9381 76.9908 49.6794 77.7322Z" fill="#E47789" style="fill:#E47789;fill:color(display-p3 0.8945 0.4663 0.5370);fill-opacity:1;"/>
</g>
<defs>
<radialGradient id="paint0_radial_1_14851" cx="0" cy="0" r="1" gradientUnits="userSpaceOnUse" gradientTransform="translate(13.3615 101.672) rotate(-45) scale(14.9132 16.1816)">
<stop stop-opacity="0" style="stop-color:none;stop-opacity:0;"/>
<stop offset="1" style="stop-color:black;stop-opacity:1;"/>
</radialGradient>
<radialGradient id="paint1_radial_1_14851" cx="0" cy="0" r="1" gradientUnits="userSpaceOnUse" gradientTransform="translate(15.1888 87.5787) rotate(-45) scale(12.0134 16.1816)">
<stop stop-opacity="0" style="stop-color:none;stop-opacity:0;"/>
<stop offset="1" style="stop-color:black;stop-opacity:1;"/>
</radialGradient>
<radialGradient id="paint2_radial_1_14851" cx="0" cy="0" r="1" gradientUnits="userSpaceOnUse" gradientTransform="translate(33.1287 94.1712) rotate(-45) scale(9.94214 16.1816)">
<stop stop-opacity="0" style="stop-color:none;stop-opacity:0;"/>
<stop offset="1" style="stop-color:black;stop-opacity:1;"/>
</radialGradient>
</defs>
</svg>
