<svg width="112" height="112" viewBox="0 0 112 112" fill="none" xmlns="http://www.w3.org/2000/svg">
<path fill-rule="evenodd" clip-rule="evenodd" d="M37.3358 45.0129V53.9973C37.3358 54.3781 37.1814 54.7505 36.9124 55.0197C36.6431 55.289 36.2708 55.4431 35.89 55.4431H26.9056C26.5248 55.4431 26.1522 55.289 25.883 55.0197C25.6138 54.7505 25.4595 54.3781 25.4595 53.9973V45.0129C25.4595 44.6321 25.6138 44.2595 25.883 43.9905C26.1522 43.7212 26.5248 43.5669 26.9056 43.5669H35.89C36.2708 43.5669 36.6431 43.7212 36.9124 43.9905C37.1817 44.2595 37.3358 44.6321 37.3358 45.0129ZM34.4439 52.5513V46.4587H28.3514V52.5513H34.4439Z" fill="#2642CF" style="fill:#2642CF;fill:color(display-p3 0.1490 0.2588 0.8118);fill-opacity:1;"/>
<path fill-rule="evenodd" clip-rule="evenodd" d="M56.7289 45.0129V53.9973C56.7289 54.3781 56.5746 54.7505 56.3056 55.0197C56.0363 55.289 55.6637 55.4431 55.2831 55.4431H46.2985C45.918 55.4431 45.5454 55.289 45.2761 55.0197C45.007 54.7505 44.8527 54.3781 44.8527 53.9973V45.0129C44.8527 44.6321 45.007 44.2595 45.2761 43.9905C45.5454 43.7212 45.918 43.5669 46.2985 43.5669H55.2831C55.6637 43.5669 56.0363 43.7212 56.3056 43.9905C56.5746 44.2598 56.7289 44.6321 56.7289 45.0129ZM53.8371 52.5513V46.4587H47.7446V52.5513H53.8371Z" fill="#2642CF" style="fill:#2642CF;fill:color(display-p3 0.1490 0.2588 0.8118);fill-opacity:1;"/>
<path fill-rule="evenodd" clip-rule="evenodd" d="M37.3358 70.7612V61.7768C37.3358 61.396 37.1817 61.0234 36.9124 60.7544C36.6431 60.4851 36.2708 60.3308 35.89 60.3308H26.9056C26.5248 60.3308 26.1522 60.4851 25.883 60.7544C25.6138 61.0234 25.4595 61.396 25.4595 61.7768V70.7612C25.4595 71.142 25.6138 71.5144 25.883 71.7836C26.1522 72.0527 26.5248 72.207 26.9056 72.207H35.89C36.2708 72.207 36.6431 72.0527 36.9124 71.7836C37.1814 71.5144 37.3358 71.142 37.3358 70.7612ZM34.4439 63.2226V69.3152H28.3514V63.2226H34.4439Z" fill="#2642CF" style="fill:#2642CF;fill:color(display-p3 0.1490 0.2588 0.8118);fill-opacity:1;"/>
<path d="M47.7446 69.3152H48.829C49.6274 69.3152 50.2748 69.9625 50.2748 70.7612C50.2748 71.5596 49.6274 72.207 48.829 72.207H46.2985C45.918 72.207 45.5454 72.0527 45.2761 71.7836C45.007 71.5144 44.8527 71.142 44.8527 70.7612V61.7768C44.8527 61.396 45.007 61.0234 45.2761 60.7544C45.5454 60.4851 45.918 60.3308 46.2985 60.3308H50.0368C50.8355 60.3308 51.4829 60.9781 51.4829 61.7768C51.4829 62.5753 50.8355 63.2226 50.0368 63.2226H47.7446V69.3152Z" fill="#2642CF" style="fill:#2642CF;fill:color(display-p3 0.1490 0.2588 0.8118);fill-opacity:1;"/>
<path d="M67.1507 46.4587V47.79C67.1507 48.5885 66.5033 49.2358 65.7046 49.2358C64.9062 49.2358 64.2588 48.5885 64.2588 47.79V45.0129C64.2588 44.6321 64.4129 44.2596 64.6822 43.9905C64.9515 43.7212 65.3238 43.5669 65.7046 43.5669H74.689C75.4877 43.5669 76.1351 44.2143 76.1351 45.0129C76.1351 45.8114 75.4877 46.4587 74.689 46.4587H67.1507Z" fill="#2642CF" style="fill:#2642CF;fill:color(display-p3 0.1490 0.2588 0.8118);fill-opacity:1;"/>
<path fill-rule="evenodd" clip-rule="evenodd" d="M97.8768 63.7861C99.0588 66.5799 99.7123 69.6552 99.7121 72.8735C99.7128 77.7022 98.2409 82.2036 95.7241 85.9273C93.2071 89.6521 89.6463 92.6099 85.4545 94.3833C82.6607 95.5653 79.5854 96.2188 76.3671 96.2186C71.5384 96.2193 67.0372 94.7474 63.3133 92.2307C59.5885 89.7136 56.6307 86.1528 54.8573 81.961C53.6754 79.1672 53.0218 76.0919 53.022 72.8735C53.0213 68.0448 54.4932 63.5437 57.0102 59.8198C59.527 56.0949 63.0878 53.1371 67.2796 51.3638C70.0737 50.1818 73.1489 49.5283 76.3671 49.5285C81.1957 49.5278 85.6972 50.9997 89.4208 53.5167C93.1457 56.0335 96.1035 59.5943 97.8768 63.7861ZM94.5474 80.5528C95.5452 78.1933 96.097 75.6026 96.0972 72.8735C96.0965 68.7811 94.8563 64.9947 92.7288 61.8435C90.601 58.6936 87.5847 56.1893 84.0465 54.6932C81.6868 53.6954 79.0964 53.1436 76.3671 53.1434C72.2746 53.1441 68.4882 54.3843 65.337 56.5118C62.1871 58.6396 59.6828 61.6559 58.1867 65.1943C57.1889 67.5538 56.6371 70.1445 56.6369 72.8735C56.6376 76.966 57.8778 80.7524 60.0056 83.9036C60.4497 84.561 60.9324 85.1904 61.4506 85.7883C62.8273 83.5749 64.6808 81.6929 66.87 80.2821C69.6055 78.5182 72.8759 77.4928 76.3671 77.4935C79.8196 77.4928 83.0567 78.4958 85.7733 80.2238C88.0023 81.6409 89.888 83.5442 91.2836 85.7882C92.6293 84.2354 93.7365 82.4708 94.5474 80.5528ZM88.017 88.7989C86.9405 86.7968 85.359 85.1 83.4462 83.8847C81.3976 82.5835 78.9794 81.8321 76.3671 81.8314C73.7256 81.8321 71.2825 82.6005 69.2195 83.9285C67.3375 85.1406 65.7808 86.8207 64.7171 88.7988C65.9416 89.6962 67.2729 90.4557 68.6878 91.0539C71.0473 92.0517 73.638 92.6034 76.3671 92.6037C80.4595 92.6029 84.2459 91.3628 87.3971 89.2352C87.6066 89.0937 87.8133 88.9482 88.017 88.7989Z" fill="#2642CF" style="fill:#2642CF;fill:color(display-p3 0.1490 0.2588 0.8118);fill-opacity:1;"/>
<path fill-rule="evenodd" clip-rule="evenodd" d="M28.548 20.322V21.749H24.3742C23.0591 21.7505 21.7306 22.0108 20.5109 22.5178C19.2901 23.0233 18.1737 23.7709 17.2414 24.7025C16.3099 25.6349 15.5621 26.7511 15.0568 27.9719C14.5498 29.1917 14.2893 30.5201 14.288 31.8352V72.0161C14.2893 73.3309 14.5498 74.6595 15.0568 75.8793C15.5621 77.0999 16.3099 78.2164 17.2414 79.1487C18.1737 80.0801 19.2901 80.828 20.5109 81.3332C21.7306 81.8402 23.0535 82.1005 24.3686 82.102L24.3742 78.4874C22.6772 78.4874 20.9953 77.7958 19.7974 76.5926C18.5914 75.3917 17.8995 73.7175 17.9029 72.0161V38.8421H83.6789V44.8735C83.6789 45.8718 84.4881 46.6809 85.4864 46.6809C86.4846 46.6809 87.2938 45.8718 87.2938 44.8735L87.2938 31.8297C87.2923 30.5146 87.0319 29.1917 86.5249 27.9719C86.0197 26.7511 85.2718 25.6349 84.3404 24.7025C83.4081 23.7709 82.2916 23.0233 81.0708 22.5178C79.8512 22.0108 78.5227 21.7505 77.2075 21.749H73.0336V20.322C73.0336 18.8125 71.8101 17.589 70.3006 17.589C68.7913 17.589 67.5675 18.8125 67.5675 20.322V21.749H53.524V20.322C53.524 18.8125 52.3002 17.589 50.791 17.589C49.2815 17.589 48.0577 18.8125 48.0577 20.322V21.749H34.0141V20.322C34.0141 18.8125 32.7906 17.589 31.2811 17.589C29.7715 17.589 28.548 18.8125 28.548 20.322ZM31.2811 29.2574C29.7715 29.2574 28.548 28.0339 28.548 26.5243V25.3638L24.3697 25.3641C22.6727 25.3641 20.9953 26.0555 19.7974 27.2586C18.5914 28.4595 17.8995 30.1338 17.9029 31.8352V35.0645H83.6789V31.8352C83.6824 30.1338 82.9902 28.4595 81.7844 27.2586C80.5862 26.0555 78.9045 25.3638 77.2075 25.3638H73.0336V26.5243C73.0336 28.0339 71.8101 29.2574 70.3006 29.2574C68.7913 29.2574 67.5675 28.0339 67.5675 26.5243V25.3638H53.524V26.5243C53.524 28.0339 52.3002 29.2574 50.791 29.2574C49.2815 29.2574 48.0577 28.0339 48.0577 26.5243V25.3638H34.0141V26.5243C34.0141 28.0339 32.7906 29.2574 31.2811 29.2574Z" fill="#2642CF" style="fill:#2642CF;fill:color(display-p3 0.1490 0.2588 0.8118);fill-opacity:1;"/>
<path fill-rule="evenodd" clip-rule="evenodd" d="M85.1066 66.042C85.1069 64.8339 84.8607 63.6731 84.4152 62.6206C83.7467 61.0409 82.6349 59.7031 81.2332 58.7558C79.8329 57.8083 78.1315 57.2528 76.3184 57.2535C75.1102 57.2533 73.9492 57.4997 72.8969 57.9452C71.3172 58.6137 69.9791 59.7255 69.0319 61.127C68.0846 62.5272 67.5291 64.2286 67.5298 66.042C67.5296 67.2502 67.7757 68.411 68.2212 69.4635C68.8898 71.0432 70.0015 72.381 71.4033 73.3283C72.8035 74.2758 74.5049 74.8313 76.3184 74.8306C77.5262 74.8308 78.6873 74.5844 79.7396 74.1389C81.3193 73.4704 82.6573 72.3586 83.6046 70.9571C84.5518 69.5569 85.1074 67.8555 85.1066 66.042ZM81.1928 66.042C81.1926 66.7205 81.0564 67.3567 80.8105 67.9388C80.4422 68.8112 79.8215 69.5593 79.0422 70.0853C78.2619 70.6112 77.3346 70.9158 76.3184 70.9165C75.6399 70.9163 75.0035 70.7802 74.4213 70.5345C73.5492 70.1659 72.8008 69.5452 72.2749 68.7661C71.749 67.9859 71.4444 67.0583 71.4436 66.042C71.4439 65.3636 71.58 64.7274 71.8259 64.1453C72.1943 63.2729 72.815 62.5248 73.5943 61.9989C74.3745 61.473 75.3019 61.1683 76.3184 61.1673C76.9966 61.1678 77.633 61.3037 78.2151 61.5496C79.0872 61.9182 79.8356 62.5389 80.3615 63.318C80.8874 64.0982 81.1921 65.0256 81.1928 66.042Z" fill="#E47789" style="fill:#E47789;fill:color(display-p3 0.8945 0.4663 0.5370);fill-opacity:1;"/>
<path d="M66.8699 80.282C64.6808 81.6929 62.8272 83.5749 61.4506 85.7883C62.4077 86.9255 63.7582 88.0543 64.717 88.7988C65.7808 86.8207 67.3374 85.1406 69.2194 83.9285C71.2825 82.6004 73.7256 81.8321 76.367 81.8314C78.9793 81.8321 81.3976 82.5835 83.4462 83.8847C85.3589 85.1 86.9405 86.7968 88.0169 88.7989C89.3951 87.8328 90.1149 87.1837 91.2835 85.7882C89.888 83.5442 88.0023 81.6409 85.7733 80.2238C83.0566 78.4958 79.8196 77.4927 76.367 77.4935C72.8758 77.4927 69.6054 78.5182 66.8699 80.282Z" fill="#E47789" style="fill:#E47789;fill:color(display-p3 0.8945 0.4663 0.5370);fill-opacity:1;"/>
<mask id="mask0_1_1487" style="mask-type:alpha" maskUnits="userSpaceOnUse" x="22" y="74" width="27" height="12">
<path d="M22.813 74.1802H48.8796V85.3802L22.813 85.3802V74.1802Z" fill="url(#paint0_linear_1_1487)" style=""/>
</mask>
<g mask="url(#mask0_1_1487)">
<path d="M16.8812 71.7906C16.8812 68.3531 16.8812 60.0801 16.8812 60.0801L13.2874 58.8153L13.2998 72.4032C13.2998 73.9584 14.0848 77.1249 16.2922 79.2363C18.4599 81.3098 21.3875 82.0951 22.9839 82.0951L46.9284 82.0951C47.9267 82.0951 48.7359 81.2859 48.7359 80.2876C48.7359 79.2896 47.9267 78.4805 46.9284 78.4805C46.9284 78.4805 26.8022 78.5002 23.4787 78.5002C21.4771 78.5002 19.7656 77.7113 18.5542 76.3617C17.4155 75.0931 16.8812 73.4953 16.8812 71.7906Z" fill="#2642CF" style="fill:#2642CF;fill:color(display-p3 0.1490 0.2588 0.8118);fill-opacity:1;"/>
</g>
<defs>
<linearGradient id="paint0_linear_1_1487" x1="49.0663" y1="80.7508" x2="25.7878" y2="80.5749" gradientUnits="userSpaceOnUse">
<stop stop-opacity="0" style="stop-color:none;stop-opacity:0;"/>
<stop offset="1" style="stop-color:black;stop-opacity:1;"/>
</linearGradient>
</defs>
</svg>
