<svg width="112" height="112" viewBox="0 0 112 112" fill="none" xmlns="http://www.w3.org/2000/svg">
<path fill-rule="evenodd" clip-rule="evenodd" d="M65.4194 80.2579C64.1408 80.8141 62.6935 80.1176 62.2281 78.8032C61.7627 77.4888 62.4564 76.0554 63.7286 75.4847C69.2042 73.0285 73.8679 69.0274 77.1309 63.9478C80.8502 58.1578 82.5385 51.2954 81.93 44.4407C81.3215 37.586 78.4508 31.1283 73.7697 26.0841C69.0886 21.0398 62.8631 17.6954 56.0729 16.5773C49.2827 15.4592 42.3135 16.6309 36.2622 19.9079C30.2109 23.185 25.4212 28.3813 22.647 34.6789C19.8728 40.9766 19.2716 48.018 20.9381 54.6948C22.4001 60.5525 25.5346 65.8377 29.9336 69.9199C30.9557 70.8684 31.1531 72.4485 30.2909 73.5443C29.4286 74.6401 27.8344 74.8358 26.8016 73.899C21.5275 69.1154 17.7722 62.8625 16.0389 55.9176C14.1011 48.1539 14.8002 39.9662 18.026 32.6433C21.2518 25.3205 26.8213 19.2782 33.8576 15.4677C40.894 11.6572 48.9977 10.2948 56.8933 11.5949C64.7889 12.895 72.0279 16.7838 77.471 22.6493C82.9141 28.5147 86.2521 36.0237 86.9597 43.9942C87.6672 51.9648 85.7041 59.9443 81.3794 66.6768C80.1507 68.5896 78.7511 70.3709 77.204 72.0023L95.8884 90.6866C98.0943 92.8925 98.0943 96.469 95.8884 98.6749C93.6825 100.881 90.106 100.881 87.9001 98.6749L68.154 78.9288C67.2636 79.409 66.3514 79.8526 65.4194 80.2579ZM71.8812 76.6155L90.9203 95.6547C91.4582 96.1926 92.3303 96.1926 92.8682 95.6547C93.4062 95.1168 93.4062 94.2447 92.8682 93.7068L74.0848 74.9234C73.3724 75.5155 72.6373 76.0799 71.8812 76.6155Z" fill="#2642CF" style="fill:#2642CF;fill:color(display-p3 0.1490 0.2588 0.8118);fill-opacity:1;"/>
<path d="M41.3212 34.1158C40.3945 33.1892 38.8921 33.1892 37.9654 34.1158C37.0387 35.0425 37.0387 36.5449 37.9654 37.4716L47.6736 47.1798L37.9655 56.8878C37.0388 57.8145 37.0388 59.3169 37.9655 60.2436C38.8922 61.1703 40.3946 61.1703 41.3213 60.2436L51.0293 50.5355L60.7372 60.2434C61.6638 61.17 63.1663 61.17 64.0929 60.2434C65.0196 59.3167 65.0196 57.8143 64.0929 56.8876L54.3851 47.1798L64.093 37.4718C65.0197 36.5452 65.0197 35.0427 64.093 34.1161C63.1664 33.1894 61.6639 33.1894 60.7373 34.1161L51.0293 43.824L41.3212 34.1158Z" fill="#2642CF" style="fill:#2642CF;fill:color(display-p3 0.1490 0.2588 0.8118);fill-opacity:1;"/>
<path d="M41.3211 34.1152C40.3945 33.1885 38.8921 33.1885 37.9654 34.1152C37.0387 35.0418 37.0387 36.5443 37.9654 37.4709L47.6736 47.1791L37.9655 56.8872C37.0388 57.8139 37.0388 59.3163 37.9655 60.243C38.8921 61.1696 40.3946 61.1696 41.3212 60.243L51.0293 50.5349L60.7372 60.2427C61.6638 61.1694 63.1662 61.1694 64.0929 60.2427C65.0196 59.3161 65.0196 57.8136 64.0929 56.8869L54.3851 47.1791L64.093 37.4712C65.0197 36.5445 65.0197 35.0421 64.093 34.1154C63.1663 33.1887 61.6639 33.1887 60.7372 34.1154L51.0293 43.8233L41.3211 34.1152Z" fill="#E47789" style="fill:#E47789;fill:color(display-p3 0.8945 0.4663 0.5370);fill-opacity:1;"/>
<mask id="path-3-inside-1_1_14872" fill="white">
<path d="M54.8947 80.5035C55.0552 81.8887 54.0621 83.1509 52.6692 83.2142C46.4711 83.4957 40.2895 82.1736 34.7297 79.3562C29.1699 76.5388 24.4483 72.3357 21.0101 67.171C20.2374 66.0103 20.668 64.463 21.8799 63.7733C23.0918 63.0837 24.625 63.514 25.4109 64.6659C28.3499 68.9735 32.3364 72.4826 37.0122 74.852C41.688 77.2215 46.8752 78.3611 52.0869 78.1839C53.4805 78.1365 54.7342 79.1184 54.8947 80.5035Z"/>
</mask>
<path d="M54.8947 80.5035C55.0552 81.8887 54.0621 83.1509 52.6692 83.2142C46.4711 83.4957 40.2895 82.1736 34.7297 79.3562C29.1699 76.5388 24.4483 72.3357 21.0101 67.171C20.2374 66.0103 20.668 64.463 21.8799 63.7733C23.0918 63.0837 24.625 63.514 25.4109 64.6659C28.3499 68.9735 32.3364 72.4826 37.0122 74.852C41.688 77.2215 46.8752 78.3611 52.0869 78.1839C53.4805 78.1365 54.7342 79.1184 54.8947 80.5035Z" stroke="url(#paint0_linear_1_14872)" style="" stroke-width="8.54237" stroke-linecap="round" mask="url(#path-3-inside-1_1_14872)"/>
<defs>
<linearGradient id="paint0_linear_1_14872" x1="55" y1="77.5563" x2="34.423" y2="77.5563" gradientUnits="userSpaceOnUse">
<stop stop-color="white" stop-opacity="0" style="stop-color:none;stop-opacity:0;"/>
<stop offset="1" stop-color="#5068DD" style="stop-color:#5068DD;stop-color:color(display-p3 0.3141 0.4061 0.8659);stop-opacity:1;"/>
</linearGradient>
</defs>
</svg>
