<svg width="112" height="112" viewBox="0 0 112 112" fill="none" xmlns="http://www.w3.org/2000/svg">
<path d="M74.301 47.2334C80.4741 67.3342 71.0925 87.0543 54.2466 91.8102C37.4007 96.5661 18.3699 84.8674 12.1967 64.7666C6.02356 44.6658 15.4052 24.9457 32.2511 20.1898C46.8298 16.0739 63.0448 24.2816 71.1465 39.5937L64.4629 42.5897C58.4337 32.1364 46.979 26.0384 35.9829 29.1428C22.8322 32.8555 16.5697 47.9706 20.9675 62.2905C25.3653 76.6104 39.1718 86.0596 52.3225 82.3469C65.4731 78.6342 71.7356 63.5192 67.3378 49.1992C67.3007 49.0785 67.263 48.958 67.2245 48.8379L62.6269 50.894C66.2385 63.1945 60.5675 74.8251 50.8546 77.5672C41.0532 80.3344 29.595 73.3561 25.7794 60.932C21.9638 48.5078 27.6494 36.6896 37.4508 33.9225C45.5592 31.6333 54.8015 36.0137 59.9126 44.6294L48.0223 49.9593C46.3943 48.5486 44.3126 47.9285 42.3536 48.4815C39.0287 49.4202 37.3167 53.383 38.5297 57.3327C39.7427 61.2824 43.4214 63.7233 46.7462 62.7846C49.4538 62.0202 51.0917 59.2505 50.9517 56.1155L45.9438 58.355C44.9022 58.8209 43.7116 58.516 43.0114 57.6848L102.775 30.8956C104.035 30.3308 104.598 28.8516 104.033 27.5917C103.469 26.3317 101.989 25.7682 100.73 26.333L75.6888 37.5576C66.6811 20.41 48.2342 10.4833 30.7832 15.4101C10.6724 21.0878 0.599582 44.0313 7.38483 66.1251C14.1701 88.2189 35.6036 102.268 55.7145 96.5899C75.8253 90.9122 85.8981 67.9687 79.1129 45.8749C78.9006 45.1836 78.6739 44.5002 78.4335 43.8251L73.8586 45.871C74.0126 46.3207 74.1601 46.7748 74.301 47.2334Z" fill="#2642CF" style="fill:#2642CF;fill:color(display-p3 0.1490 0.2588 0.8118);fill-opacity:1;"/>
<path d="M64.463 42.5897C58.4338 32.1364 46.9791 26.0384 35.983 29.1428C22.8323 32.8555 16.5698 47.9706 20.9676 62.2905C25.3654 76.6104 39.1719 86.0596 52.3225 82.3469C65.4732 78.6343 71.7357 63.5192 67.3379 49.1993C67.3008 49.0785 67.2631 48.958 67.2246 48.838L62.627 50.8941C66.2386 63.1946 60.5676 74.8251 50.8547 77.5673C41.0533 80.3344 29.5951 73.3562 25.7795 60.932C21.9639 48.5078 27.6495 36.6896 37.4509 33.9225C45.5593 31.6333 54.8016 36.0137 59.9127 44.6294L64.463 42.5897Z" fill="#E47789" style="fill:#E47789;fill:color(display-p3 0.8945 0.4663 0.5370);fill-opacity:1;"/>
<path d="M48.0223 49.9593C46.3944 48.5486 44.3126 47.9285 42.3537 48.4816C39.0288 49.4202 37.3168 53.383 38.5298 57.3327C39.7428 61.2824 43.4214 63.7233 46.7463 62.7846C49.4538 62.0203 51.0918 59.2505 50.9517 56.1155L45.9439 58.3551C44.9023 58.8209 43.7116 58.516 43.0115 57.6848C43.0115 57.6848 40.9602 54.9643 42.1392 52.4378L48.0223 49.9593Z" fill="#E47789" style="fill:#E47789;fill:color(display-p3 0.8945 0.4663 0.5370);fill-opacity:1;"/>
<mask id="mask0_1_14827" style="mask-type:alpha" maskUnits="userSpaceOnUse" x="85" y="18" width="22" height="27">
<path d="M97.4486 30.9198C96.4081 30.2853 95.0502 30.6144 94.4157 31.655C93.7812 32.6955 94.1104 34.0534 95.1509 34.6879L103.367 39.6982C104.407 40.3327 105.765 40.0035 106.4 38.9629C107.034 37.9224 106.705 36.5645 105.665 35.93L97.4486 30.9198Z" fill="url(#paint0_linear_1_14827)" style=""/>
<path d="M90.0085 33.7456C88.9863 33.082 87.6197 33.3727 86.9561 34.3949C86.2924 35.4171 86.5831 36.7837 87.6053 37.4474L97.3584 43.6971C98.3806 44.3608 99.7472 44.0701 100.411 43.0479C101.074 42.0257 100.784 40.659 99.7616 39.9954L90.0085 33.7456Z" fill="url(#paint1_linear_1_14827)" style=""/>
<path d="M96.7668 30.0948C96.7691 31.3135 95.7829 32.3033 94.5642 32.3056C93.3455 32.3078 92.3557 31.3217 92.3534 30.1029L92.3354 20.4798C92.3331 19.2611 93.3193 18.2713 94.538 18.269C95.7568 18.2668 96.7465 19.253 96.7488 20.4717L96.7668 30.0948Z" fill="url(#paint2_linear_1_14827)" style=""/>
<path d="M90.3173 32.8832C90.3168 34.1019 89.3284 35.0894 88.1096 35.0889C86.8909 35.0883 85.9034 34.0999 85.9039 32.8812L85.978 21.2977C85.9785 20.079 86.967 19.0915 88.1857 19.092C89.4044 19.0926 90.392 20.081 90.3914 21.2997L90.3173 32.8832Z" fill="url(#paint3_linear_1_14827)" style=""/>
</mask>
<g mask="url(#mask0_1_14827)">
<path d="M97.4485 30.9196C96.408 30.2851 95.0501 30.6143 94.4156 31.6549C93.7811 32.6954 94.1103 34.0533 95.1509 34.6878L103.367 39.698C104.407 40.3325 105.765 40.0034 106.4 38.9628C107.034 37.9223 106.705 36.5644 105.665 35.9299L97.4485 30.9196Z" fill="#2642CF" style="fill:#2642CF;fill:color(display-p3 0.1490 0.2588 0.8118);fill-opacity:1;"/>
<path d="M90.0084 33.7454C88.9862 33.0818 87.6195 33.3724 86.9559 34.3946C86.2923 35.4169 86.583 36.7835 87.6052 37.4471L97.3582 43.6969C98.3804 44.3605 99.747 44.0698 100.411 43.0476C101.074 42.0254 100.784 40.6588 99.7614 39.9951L90.0084 33.7454Z" fill="#2642CF" style="fill:#2642CF;fill:color(display-p3 0.1490 0.2588 0.8118);fill-opacity:1;"/>
<path d="M96.7668 30.0948C96.7691 31.3135 95.7829 32.3033 94.5642 32.3056C93.3454 32.3078 92.3556 31.3217 92.3534 30.1029L92.3353 20.4798C92.3331 19.2611 93.3193 18.2713 94.538 18.269C95.7567 18.2668 96.7465 19.253 96.7488 20.4717L96.7668 30.0948Z" fill="#2642CF" style="fill:#2642CF;fill:color(display-p3 0.1490 0.2588 0.8118);fill-opacity:1;"/>
<path d="M90.3177 32.8834C90.3171 34.1021 89.3287 35.0896 88.1099 35.0891C86.8912 35.0885 85.9037 34.1001 85.9042 32.8813L85.9783 21.2979C85.9789 20.0792 86.9673 19.0917 88.186 19.0922C89.4047 19.0928 90.3923 20.0812 90.3917 21.2999L90.3177 32.8834Z" fill="#2642CF" style="fill:#2642CF;fill:color(display-p3 0.1490 0.2588 0.8118);fill-opacity:1;"/>
</g>
<defs>
<linearGradient id="paint0_linear_1_14827" x1="100.243" y1="34.5078" x2="105.487" y2="40.9208" gradientUnits="userSpaceOnUse">
<stop style="stop-color:black;stop-opacity:1;"/>
<stop offset="1" stop-opacity="0" style="stop-color:none;stop-opacity:0;"/>
</linearGradient>
<linearGradient id="paint1_linear_1_14827" x1="100.243" y1="34.5078" x2="105.487" y2="40.9208" gradientUnits="userSpaceOnUse">
<stop style="stop-color:black;stop-opacity:1;"/>
<stop offset="1" stop-opacity="0" style="stop-color:none;stop-opacity:0;"/>
</linearGradient>
<linearGradient id="paint2_linear_1_14827" x1="95.1506" y1="25.6639" x2="92.3833" y2="17.8556" gradientUnits="userSpaceOnUse">
<stop style="stop-color:black;stop-opacity:1;"/>
<stop offset="1" stop-opacity="0" style="stop-color:none;stop-opacity:0;"/>
</linearGradient>
<linearGradient id="paint3_linear_1_14827" x1="95.1506" y1="25.6639" x2="92.3833" y2="17.8556" gradientUnits="userSpaceOnUse">
<stop style="stop-color:black;stop-opacity:1;"/>
<stop offset="1" stop-opacity="0" style="stop-color:none;stop-opacity:0;"/>
</linearGradient>
</defs>
</svg>
