<svg width="112" height="112" viewBox="0 0 112 112" fill="none" xmlns="http://www.w3.org/2000/svg">
<path d="M14.6578 51.7966C16.7082 52.2011 18.941 52.3964 21.1756 52.3972C22.9163 52.3969 24.6565 52.2777 26.3096 52.0343C27.5495 51.8516 28.7402 51.5995 29.8503 51.268C30.683 51.0188 31.4705 50.7254 32.2018 50.375C32.7501 50.1119 33.2673 49.8165 33.7466 49.4772C34.4632 48.9683 35.1041 48.3567 35.5852 47.5914C35.8246 47.2096 36.0207 46.79 36.1544 46.342C36.2885 45.8945 36.3587 45.4201 36.3585 44.942C36.3587 42.8511 35.9336 40.849 35.1643 39.0314C34.0104 36.3043 32.088 33.9899 29.6658 32.3532C27.2449 30.7165 24.3132 29.7583 21.1756 29.759C19.0848 29.7588 17.0826 30.1839 15.2651 30.9529C12.5379 32.107 10.2237 34.0294 8.58699 36.4516C6.95015 38.8723 5.99193 41.8042 5.9928 44.942C5.9928 46.0416 6.88424 46.9331 7.98391 46.9331C9.0836 46.9331 9.97502 46.0416 9.97502 44.942C9.97532 43.3899 10.2884 41.9217 10.8544 40.5827C11.7031 38.5751 13.1259 36.861 14.9146 35.6529C16.7047 34.4451 18.849 33.7422 21.1756 33.7412C22.7276 33.7415 24.1957 34.0548 25.5348 34.6208C27.5421 35.4693 29.2564 36.8922 30.4645 38.6809C31.6724 40.4709 32.3752 42.6154 32.3762 44.942C32.3742 45.096 32.3486 45.206 32.2794 45.3536C32.2179 45.4806 32.1142 45.6346 31.9422 45.8103C31.6445 46.118 31.132 46.4781 30.4376 46.8044C29.3978 47.2989 27.9692 47.7176 26.3616 47.9936C24.7531 48.2719 22.9638 48.4152 21.1756 48.415C19.1769 48.4155 17.1766 48.2358 15.4297 47.8901C14.3508 47.6768 13.3035 48.3786 13.0903 49.4573C12.8772 50.5362 13.579 51.5836 14.6578 51.7966Z" fill="#2642CF" style="fill:#2642CF;fill:color(display-p3 0.1490 0.2588 0.8118);fill-opacity:1;"/>
<path fill-rule="evenodd" clip-rule="evenodd" d="M30.0183 19.1947C30.0185 18.0291 29.7808 16.9084 29.3507 15.8924C28.7054 14.3675 27.6324 13.0762 26.2795 12.1621C24.9282 11.2474 23.2853 10.7113 21.5354 10.712C20.3697 10.7118 19.2489 10.9495 18.2329 11.3793C16.7081 12.0249 15.4169 13.0979 14.5026 14.4506C13.5882 15.8021 13.0518 17.4447 13.0527 19.1947C13.0524 20.3605 13.29 21.4812 13.7201 22.4972C14.3655 24.0221 15.4384 25.3133 16.7913 26.2275C18.1427 27.1419 19.7854 27.6783 21.5354 27.6775C22.7011 27.6778 23.822 27.4401 24.8379 27.01C26.3628 26.3647 27.6541 25.2917 28.5682 23.939C29.4827 22.5875 30.019 20.9448 30.0183 19.1947ZM26.036 19.1947C26.0355 19.8216 25.9101 20.4085 25.6831 20.9461C25.3429 21.751 24.7696 22.4422 24.0503 22.9278C23.3296 23.4133 22.4744 23.6946 21.5354 23.6953C20.9085 23.6951 20.3216 23.5694 19.7843 23.3424C18.9792 23.0024 18.2879 22.429 17.8023 21.7097C17.3169 20.9889 17.0357 20.1337 17.0349 19.1947C17.0352 18.568 17.1608 17.9808 17.3877 17.4435C17.7278 16.6386 18.3012 15.9474 19.0205 15.4616C19.7412 14.9762 20.5965 14.695 21.5354 14.6943C22.1623 14.6945 22.7492 14.8202 23.2866 15.0472C24.0917 15.3872 24.7828 15.9606 25.2685 16.6799C25.7541 17.4007 26.035 18.2559 26.036 19.1947Z" fill="#2642CF" style="fill:#2642CF;fill:color(display-p3 0.1490 0.2588 0.8118);fill-opacity:1;"/>
<path d="M96.0951 100.92C94.4601 101.166 92.7368 101.288 91.009 101.288C88.7232 101.287 86.4237 101.106 84.3067 100.688C83.228 100.475 82.5261 99.4275 82.7394 98.3488C82.9525 97.2698 83.9998 96.5683 85.0785 96.7813C86.8692 97.1359 88.939 97.3065 91.009 97.3057C92.7766 97.3062 94.5403 97.1604 96.1229 96.8799C97.7049 96.6018 99.1071 96.1812 100.126 95.6876C100.806 95.3616 101.307 95.0038 101.599 94.6981C101.767 94.5234 101.869 94.3706 101.93 94.2439C101.998 94.0968 102.023 93.9858 102.025 93.8332C102.024 91.5066 101.321 89.3621 100.113 87.5722C98.9053 85.7836 97.1912 84.3608 95.1836 83.512C93.8446 82.9461 92.3764 82.633 90.8246 82.6327C88.498 82.6335 86.3535 83.3363 84.5635 84.5444C82.7748 85.7523 81.3519 87.4666 80.5034 89.4742C79.9374 90.8129 79.6243 92.2812 79.6238 93.8332C79.6238 94.9328 78.7326 95.8243 77.6327 95.8243C76.5331 95.8243 75.6416 94.9328 75.6416 93.8332C75.6409 90.6957 76.5991 87.7638 78.2358 85.3429C79.8727 82.9209 82.1869 80.9983 84.914 79.8444C86.7316 79.0753 88.7337 78.6502 90.8246 78.6505C93.9621 78.6495 96.894 79.6077 99.3147 81.2447C101.737 82.8814 103.659 85.1955 104.813 87.9229C105.582 89.7403 106.008 91.7422 106.007 93.8332C106.008 94.3071 105.939 94.777 105.807 95.2208C105.676 95.6648 105.484 96.0817 105.249 96.4615C104.776 97.2229 104.145 97.8343 103.439 98.3443C102.967 98.6843 102.456 98.9809 101.915 99.2456C101.194 99.5977 100.417 99.8934 99.5942 100.144C98.4981 100.479 97.3213 100.734 96.0951 100.92Z" fill="#2642CF" style="fill:#2642CF;fill:color(display-p3 0.1490 0.2588 0.8118);fill-opacity:1;"/>
<path fill-rule="evenodd" clip-rule="evenodd" d="M98.9996 64.7837C99.4297 65.7996 99.6674 66.9204 99.6671 68.0862C99.6679 69.8361 99.1315 71.4788 98.2171 72.8302C97.3029 74.1832 96.0117 75.2559 94.4867 75.9015C93.4708 76.3316 92.35 76.569 91.1845 76.5688C89.4343 76.5698 87.7916 76.0334 86.4402 75.119C85.0875 74.2046 84.0145 72.9134 83.3691 71.3887C82.939 70.3727 82.7014 69.252 82.7016 68.0862C82.7009 66.3362 83.2372 64.6933 84.1516 63.3418C85.0658 61.9891 86.357 60.9162 87.882 60.2708C88.8977 59.8407 90.0187 59.603 91.1845 59.6033C92.9344 59.6025 94.5771 60.1389 95.9286 61.0533C97.2813 61.9675 98.3542 63.2587 98.9996 64.7837ZM95.332 69.8373C95.559 69.3 95.6846 68.7131 95.6849 68.0862C95.6841 67.1471 95.4029 66.2919 94.9173 65.5711C94.4317 64.8518 93.7406 64.2787 92.9357 63.9384C92.3981 63.7114 91.8112 63.586 91.1845 63.5855C90.2454 63.5865 89.3902 63.8675 88.6695 64.3531C87.9502 64.8387 87.3767 65.5298 87.0368 66.335C86.8098 66.8723 86.6841 67.4592 86.6838 68.0862C86.6846 69.0252 86.9658 69.8804 87.4514 70.6009C87.937 71.3205 88.6281 71.8937 89.4331 72.2339C89.9704 72.4606 90.5575 72.5863 91.1845 72.5866C92.1233 72.5858 92.9785 72.3048 93.6993 71.8192C94.4185 71.3337 94.992 70.6425 95.332 69.8373Z" fill="#2642CF" style="fill:#2642CF;fill:color(display-p3 0.1490 0.2588 0.8118);fill-opacity:1;"/>
<path d="M96.095 100.92C94.4601 101.166 92.7368 101.288 91.009 101.288C88.7232 101.287 86.4237 101.106 84.3067 100.688C83.228 100.475 82.5261 99.4275 82.7394 98.3488C82.9525 97.2698 83.9998 96.5683 85.0785 96.7813C86.8692 97.1359 88.939 97.3065 91.009 97.3057C92.7766 97.3062 94.5402 97.1604 96.1229 96.8799C97.7049 96.6018 99.1071 96.1812 100.126 95.6876C100.806 95.3616 101.307 95.0038 101.599 94.6981C101.767 94.5234 101.869 94.3706 101.929 94.2439C101.998 94.0968 102.023 93.9858 102.025 93.8332C102.024 91.5066 101.321 89.3621 100.113 87.5722C98.9052 85.7836 97.1912 84.3607 95.1836 83.512C93.8446 82.9461 92.3764 82.633 90.8246 82.6327C88.498 82.6335 86.3535 83.3363 84.5635 84.5444C82.7748 85.7523 81.3519 87.4666 80.5034 89.4741C79.9374 90.8129 79.6243 92.2812 79.6238 93.8332C79.6238 94.9328 78.7326 95.8243 77.6327 95.8243C76.5331 95.8243 75.6416 94.9328 75.6416 93.8332C75.6409 90.6957 76.5991 87.7638 78.2358 85.3429C79.8727 82.9209 82.1869 80.9983 84.914 79.8444C86.7316 79.0753 88.7337 78.6502 90.8246 78.6505C93.9621 78.6495 96.894 79.6077 99.3147 81.2447C101.737 82.8814 103.659 85.1955 104.813 87.9228C105.582 89.7403 106.008 91.7422 106.007 93.8332C106.008 94.3071 105.939 94.777 105.807 95.2208C105.676 95.6648 105.484 96.0817 105.249 96.4615C104.776 97.2229 104.145 97.8343 103.439 98.3443C102.967 98.6843 102.456 98.9809 101.915 99.2456C101.194 99.5977 100.417 99.8934 99.5942 100.144C98.4981 100.479 97.3213 100.734 96.095 100.92Z" fill="#E47789" style="fill:#E47789;fill:color(display-p3 0.8945 0.4663 0.5370);fill-opacity:1;"/>
<path fill-rule="evenodd" clip-rule="evenodd" d="M98.9996 64.7837C99.4297 65.7996 99.6673 66.9204 99.6671 68.0862C99.6678 69.8361 99.1315 71.4788 98.2171 72.8302C97.3029 74.1832 96.0117 75.2559 94.4867 75.9015C93.4708 76.3316 92.35 76.569 91.1845 76.5688C89.4343 76.5698 87.7916 76.0334 86.4401 75.119C85.0874 74.2046 84.0145 72.9134 83.3691 71.3887C82.939 70.3727 82.7013 69.2519 82.7016 68.0862C82.7008 66.3362 83.2372 64.6933 84.1516 63.3418C85.0658 61.9891 86.357 60.9162 87.882 60.2708C88.8977 59.8407 90.0187 59.603 91.1845 59.6033C92.9344 59.6025 94.5771 60.1389 95.9285 61.0533C97.2812 61.9675 98.3542 63.2587 98.9996 64.7837ZM95.332 69.8373C95.5589 69.3 95.6846 68.7131 95.6849 68.0862C95.6841 67.1471 95.4029 66.2919 94.9173 65.5711C94.4317 64.8518 93.7406 64.2787 92.9356 63.9384C92.398 63.7114 91.8112 63.586 91.1845 63.5855C90.2454 63.5865 89.3902 63.8675 88.6694 64.3531C87.9502 64.8387 87.3767 65.5298 87.0367 66.335C86.8097 66.8723 86.6841 67.4592 86.6838 68.0862C86.6846 69.0252 86.9658 69.8804 87.4514 70.6009C87.937 71.3205 88.6281 71.8937 89.433 72.2339C89.9704 72.4606 90.5575 72.5863 91.1845 72.5866C92.1233 72.5858 92.9785 72.3048 93.6992 71.8192C94.4185 71.3337 94.992 70.6425 95.332 69.8373Z" fill="#E47789" style="fill:#E47789;fill:color(display-p3 0.8945 0.4663 0.5370);fill-opacity:1;"/>
<mask id="mask0_1_1507" style="mask-type:alpha" maskUnits="userSpaceOnUse" x="13" y="55" width="60" height="38">
<path d="M72.1473 55.3918H13.8628V92.6462L72.1473 92.6461V55.3918Z" fill="url(#paint0_radial_1_1507)" style=""/>
</mask>
<g mask="url(#mask0_1_1507)">
<path d="M18.9138 59.0708L18.9139 67.7272C18.9143 70.0005 19.363 72.2846 20.2388 74.3909C21.1115 76.4988 22.404 78.4272 24.0141 80.0375C25.6241 81.6478 27.5525 82.9405 29.6603 83.8136C31.7667 84.6894 34.0564 85.1389 36.3295 85.1392H62.4488L59.483 88.3404C58.6689 89.2189 58.7212 90.5913 59.6 91.4055C60.4786 92.2193 61.8509 92.1671 62.665 91.2885L69.0528 84.3938C69.8221 83.5632 69.8231 82.2795 69.0548 81.4479L62.5779 74.4365C61.7651 73.5567 60.3929 73.5024 59.5131 74.315C58.633 75.1279 58.5788 76.5 59.3917 77.3801L62.3509 80.5835L36.3253 80.5833C34.6361 80.582 32.9588 80.2508 31.4063 79.6056C29.8532 78.9625 28.4273 78.008 27.2356 76.8163C26.0442 75.6247 25.0897 74.1985 24.4469 72.6455C23.802 71.0926 23.471 69.4154 23.4697 67.7262L23.4696 59.0708C23.4696 57.8129 22.4497 56.7932 21.1918 56.7932C19.9337 56.7932 18.9138 57.8129 18.9138 59.0708Z" fill="#2642CF" style="fill:#2642CF;fill:color(display-p3 0.1490 0.2588 0.8118);fill-opacity:1;"/>
</g>
<mask id="mask1_1_1507" style="mask-type:alpha" maskUnits="userSpaceOnUse" x="40" y="19" width="59" height="38">
<path d="M40.1104 56.4639L98.395 56.4639L98.395 19.2096L40.1104 19.2096L40.1104 56.4639Z" fill="url(#paint1_radial_1_1507)" style=""/>
</mask>
<g mask="url(#mask1_1_1507)">
<path d="M93.344 52.7845L93.3439 44.1282C93.3435 41.8548 92.8948 39.5708 92.019 37.4644C91.1463 35.3566 89.8538 33.4282 88.2437 31.8179C86.6337 30.2076 84.7053 28.9148 82.5975 28.0417C80.4911 27.1659 78.2014 26.7164 75.9283 26.7162L49.809 26.7162L52.7748 23.5149C53.5889 22.6364 53.5367 21.264 52.6578 20.4499C51.7793 19.636 50.4069 19.6882 49.5928 20.5669L43.205 27.4616C42.4357 28.2921 42.4347 29.5759 43.203 30.4074L49.6799 37.4189C50.4927 38.2987 51.8649 38.3529 52.7447 37.5403C53.6248 36.7274 53.679 35.3553 52.8661 34.4752L49.9069 31.2718L75.9325 31.2721C77.6217 31.2733 79.299 31.6046 80.8515 32.2497C82.4046 32.8928 83.8305 33.8473 85.0222 35.039C86.2136 36.2307 87.1681 37.6568 87.8109 39.2099C88.4558 40.7627 88.7868 42.44 88.7882 44.1292L88.7882 52.7845C88.7882 54.0424 89.8081 55.0621 91.0661 55.0621C92.3241 55.0621 93.344 54.0424 93.344 52.7845Z" fill="#2642CF" style="fill:#2642CF;fill:color(display-p3 0.1490 0.2588 0.8118);fill-opacity:1;"/>
</g>
<defs>
<radialGradient id="paint0_radial_1_1507" cx="0" cy="0" r="1" gradientUnits="userSpaceOnUse" gradientTransform="translate(21.299 55.9077) rotate(37.1373) scale(41.301 34.0284)">
<stop offset="0.0547068" stop-opacity="0" style="stop-color:none;stop-opacity:0;"/>
<stop offset="0.662492" style="stop-color:black;stop-opacity:1;"/>
</radialGradient>
<radialGradient id="paint1_radial_1_1507" cx="0" cy="0" r="1" gradientUnits="userSpaceOnUse" gradientTransform="translate(90.9587 55.948) rotate(-142.863) scale(41.301 34.0284)">
<stop offset="0.0547068" stop-opacity="0" style="stop-color:none;stop-opacity:0;"/>
<stop offset="0.662492" style="stop-color:black;stop-opacity:1;"/>
</radialGradient>
</defs>
</svg>
