<svg width="112" height="112" viewBox="0 0 112 112" fill="none" xmlns="http://www.w3.org/2000/svg">
<path d="M39.8966 44.2181H53.8448C54.8339 44.2181 55.6356 43.4164 55.6356 42.4273C55.6356 41.4382 54.8339 40.6363 53.8448 40.6363H39.8966C38.9075 40.6363 38.1056 41.4382 38.1056 42.4273C38.1056 43.4164 38.9075 44.2181 39.8966 44.2181Z" fill="#2642CF" style="fill:#2642CF;fill:color(display-p3 0.1490 0.2588 0.8118);fill-opacity:1;"/>
<path d="M39.8966 54.2752H72.1461C73.1352 54.2752 73.9369 53.4733 73.9369 52.4842C73.9369 51.4951 73.1352 50.6935 72.1461 50.6935H39.8966C38.9075 50.6935 38.1056 51.4951 38.1056 52.4842C38.1056 53.4733 38.9075 54.2752 39.8966 54.2752Z" fill="#2642CF" style="fill:#2642CF;fill:color(display-p3 0.1490 0.2588 0.8118);fill-opacity:1;"/>
<path d="M39.8966 74.3892H73.1014C74.0904 74.3892 74.8924 73.5875 74.8924 72.5984C74.8924 71.6091 74.0904 70.8074 73.1014 70.8074H39.8966C38.9075 70.8074 38.1056 71.6091 38.1056 72.5984C38.1056 73.5875 38.9075 74.3892 39.8966 74.3892Z" fill="#2642CF" style="fill:#2642CF;fill:color(display-p3 0.1490 0.2588 0.8118);fill-opacity:1;"/>
<path d="M73.1014 64.3323H39.8966C38.9075 64.3323 38.1056 63.5304 38.1056 62.5413C38.1056 61.5522 38.9075 60.7503 39.8966 60.7503H73.1014C74.0904 60.7503 74.8924 61.5522 74.8924 62.5413C74.8924 63.5304 74.0904 64.3323 73.1014 64.3323Z" fill="#2642CF" style="fill:#2642CF;fill:color(display-p3 0.1490 0.2588 0.8118);fill-opacity:1;"/>
<path fill-rule="evenodd" clip-rule="evenodd" d="M31.8024 90.5714C33.1511 91.1319 34.6141 91.4196 36.0676 91.4211H53.8456V87.1231H36.0567C34.2587 87.1231 32.4968 86.3913 31.2272 85.1168C29.9497 83.8447 29.2177 82.0766 29.2209 80.2759C29.221 72.2637 29.2296 64.2514 29.2382 56.2391C29.2469 48.2084 29.2555 40.1777 29.2555 32.147C29.2523 30.343 29.9843 28.5772 31.2616 27.3044C32.5311 26.0298 34.2933 25.2983 36.0912 25.2983L66.476 25.2984V34.4536C66.4756 35.3131 66.6597 36.1429 66.99 36.8883C67.4858 38.008 68.3014 38.9396 69.3126 39.5935C70.3234 40.2473 71.5409 40.6246 72.8299 40.6241H82.7778L82.7781 81.0233C82.7781 82.3037 84.0879 83.1853 84.9272 83.1853C85.7664 83.1853 87.0762 82.3037 87.0762 81.0233L87.0771 40.1682C87.0778 39.0186 86.8227 37.8715 86.3516 36.8366C85.8817 35.8 85.195 34.8711 84.3779 34.116L72.8033 23.4237C71.2693 22.0064 69.2852 21.1926 67.2644 21.0305L66.362 21H36.1022C34.6487 21.0015 33.1857 21.2892 31.837 21.85C30.4873 22.4087 29.253 23.2353 28.2224 24.2652C27.1925 25.2958 26.3659 26.5301 25.8072 27.8798C25.2467 29.228 24.9587 30.6922 24.9575 32.144C24.9571 39.3477 24.9487 47.5409 24.9402 55.7522L24.9402 55.7537C24.9314 64.2694 24.9226 72.8046 24.9229 80.2754C24.9243 81.7306 25.2121 83.1926 25.7726 84.5413C26.3313 85.8911 27.1581 87.1253 28.1878 88.1562C29.2184 89.1859 30.4527 90.0127 31.8024 90.5714ZM70.7988 27.4234L70.7741 34.4536C70.7751 34.9442 70.9893 35.4067 71.3421 35.7441C71.7109 36.0956 72.2281 36.3255 72.8299 36.326H80.2624C77.1721 33.2906 73.9819 30.3637 70.7988 27.4234Z" fill="#2642CF" style="fill:#2642CF;fill:color(display-p3 0.1490 0.2588 0.8118);fill-opacity:1;"/>
<path d="M39.8966 44.2181H53.8448C54.8339 44.2181 55.6356 43.4164 55.6356 42.4274C55.6356 41.4383 54.8339 40.6364 53.8448 40.6364H39.8966C38.9075 40.6364 38.1056 41.4383 38.1056 42.4274C38.1056 43.4164 38.9075 44.2181 39.8966 44.2181Z" fill="#E47789" style="fill:#E47789;fill:color(display-p3 0.8945 0.4663 0.5370);fill-opacity:1;"/>
<path d="M74.8924 72.5985C74.8924 73.5876 74.0904 74.3892 73.1014 74.3892H39.8966C38.9075 74.3892 38.1056 73.5876 38.1056 72.5985C38.1056 71.6091 38.9075 70.8075 39.8966 70.8075H73.1014C74.0904 70.8075 74.8924 71.6091 74.8924 72.5985Z" fill="#E47789" style="fill:#E47789;fill:color(display-p3 0.8945 0.4663 0.5370);fill-opacity:1;"/>
<path d="M38.1056 62.5413C38.1056 63.5304 38.9075 64.3323 39.8966 64.3323H73.1014C74.0904 64.3323 74.8924 63.5304 74.8924 62.5413C74.8924 61.5522 74.0904 60.7503 73.1014 60.7503H39.8966C38.9075 60.7503 38.1056 61.5522 38.1056 62.5413Z" fill="#E47789" style="fill:#E47789;fill:color(display-p3 0.8945 0.4663 0.5370);fill-opacity:1;"/>
<path d="M73.9369 52.4842C73.9369 53.4733 73.1352 54.2752 72.1461 54.2752H39.8966C38.9075 54.2752 38.1056 53.4733 38.1056 52.4842C38.1056 51.4952 38.9075 50.6935 39.8966 50.6935H72.1461C73.1352 50.6935 73.9369 51.4952 73.9369 52.4842Z" fill="#E47789" style="fill:#E47789;fill:color(display-p3 0.8945 0.4663 0.5370);fill-opacity:1;"/>
<mask id="mask0_1_1415" style="mask-type:alpha" maskUnits="userSpaceOnUse" x="44" y="86" width="41" height="6">
<rect x="44.6206" y="86.9438" width="39.9467" height="4.54211" fill="url(#paint0_linear_1_1415)" style=""/>
</mask>
<g mask="url(#mask0_1_1415)">
<path d="M78.8669 87.1001H35.6913L35.7022 91.3982H78.8669C80.1473 91.3982 81.0289 90.0884 81.0289 89.2491C81.0289 88.4099 80.1473 87.1001 78.8669 87.1001Z" fill="#2642CF" style="fill:#2642CF;fill:color(display-p3 0.1490 0.2588 0.8118);fill-opacity:1;"/>
</g>
<defs>
<linearGradient id="paint0_linear_1_1415" x1="81.6443" y1="89.5531" x2="56.6371" y2="89.5531" gradientUnits="userSpaceOnUse">
<stop stop-opacity="0" style="stop-color:none;stop-opacity:0;"/>
<stop offset="1" style="stop-color:black;stop-opacity:1;"/>
</linearGradient>
</defs>
</svg>
