<svg width="112" height="112" viewBox="0 0 112 112" fill="none" xmlns="http://www.w3.org/2000/svg">
<path fill-rule="evenodd" clip-rule="evenodd" d="M39.0833 18.6002C39.1454 17.2981 40.2513 16.2929 41.5534 16.355C42.8554 16.4171 43.8606 17.523 43.7985 18.8251L43.4368 26.4097C43.3747 27.7117 42.2688 28.7169 40.9668 28.6548C39.6647 28.5927 38.6595 27.4869 38.7216 26.1848L39.0833 18.6002ZM25.2953 22.2041C26.2599 21.3273 27.7527 21.3985 28.6294 22.3631L33.7368 27.982C34.6136 28.9466 34.5424 30.4393 33.5778 31.3161C32.6132 32.1929 31.1204 32.1217 30.2436 31.1571L25.1363 25.5382C24.2595 24.5736 24.3307 23.0808 25.2953 22.2041ZM66.0468 23.8859C69.0581 21.081 73.773 21.2483 76.578 24.2596L79.1359 27.0058L80.2884 25.9323C82.2879 24.0698 85.4187 24.181 87.2811 26.1805L87.424 26.3339C89.2865 28.3334 89.1754 31.4641 87.1758 33.3266L86.0234 34.4001L89.317 37.9361C92.1219 40.9474 91.9546 45.6624 88.9432 48.4673L79.3951 57.3609C80.1833 58.2643 80.1174 59.6369 79.2336 60.4601C78.3317 61.3001 76.9196 61.25 76.0795 60.3481L71.5598 55.4958L64.0599 62.4816C63.2516 63.2345 61.9861 63.1896 61.2332 62.3813C60.4803 61.5731 60.5253 60.3075 61.3335 59.5547L68.8335 52.5688L59.7943 42.8645L52.2943 49.8504C51.486 50.6032 50.2205 50.5583 49.4676 49.7501C48.7148 48.9418 48.7597 47.6763 49.5679 46.9234L57.068 39.9375L53.2839 35.875C52.4438 34.9731 52.4939 33.5609 53.3958 32.7209C54.2796 31.8976 55.6534 31.9292 56.4987 32.7795L66.0468 23.8859ZM73.3119 27.3018C72.1871 26.0943 70.2965 26.0272 69.0889 27.152L59.5418 36.0447L76.3538 54.094L85.901 45.2012C87.1086 44.0765 87.1757 42.1858 86.0509 40.9782L73.3119 27.3018ZM84.6236 28.6558C84.1282 28.124 83.2956 28.0945 82.7638 28.5898L81.6475 29.6296L83.5842 31.7088L84.7005 30.669C85.2323 30.1737 85.2618 29.341 84.7665 28.8092L84.6236 28.6558ZM18.4271 37.5937C18.4892 36.2916 19.595 35.2864 20.8971 35.3485L28.4817 35.7103C29.7838 35.7724 30.789 36.8782 30.7269 38.1803C30.6648 39.4824 29.5589 40.4876 28.2568 40.4255L20.6722 40.0637C19.3702 40.0016 18.365 38.8958 18.4271 37.5937ZM81.9169 73.3116C81.979 72.0096 83.0849 71.0044 84.387 71.0665L91.9716 71.4282C93.2737 71.4903 94.2789 72.5962 94.2168 73.8982C94.1547 75.2003 93.0488 76.2055 91.7467 76.1434L84.1621 75.7817C82.86 75.7196 81.8548 74.6137 81.9169 73.3116ZM79.066 80.1758C80.0306 79.299 81.5234 79.3702 82.4001 80.3348L87.5076 85.9537C88.3844 86.9183 88.3132 88.4111 87.3486 89.2879C86.3839 90.1647 84.8911 90.0935 84.0143 89.1289L78.907 83.51C78.0302 82.5454 78.1014 81.0526 79.066 80.1758ZM69.207 85.0823C69.2691 83.7802 70.375 82.775 71.677 82.8371C72.9791 82.8992 73.9843 84.0051 73.9222 85.3072L73.5605 92.8918C73.4984 94.1938 72.3925 95.199 71.0904 95.1369C69.7884 95.0748 68.7832 93.9689 68.8453 92.6669L69.207 85.0823Z" fill="#2642CF" style="fill:#2642CF;fill:color(display-p3 0.1490 0.2588 0.8118);fill-opacity:1;"/>
<path fill-rule="evenodd" clip-rule="evenodd" d="M35.4254 87.4243C38.2303 90.4356 42.9453 90.603 45.9566 87.7981L55.5047 78.9044C56.35 79.7547 57.7238 79.7863 58.6076 78.9631C59.5095 78.123 59.5596 76.7109 58.7195 75.809L35.9239 51.3358C35.0838 50.4339 33.6716 50.3838 32.7697 51.2239C31.8859 52.0471 31.8201 53.4196 32.6083 54.3231L23.0602 63.2167C20.0488 66.0216 19.8815 70.7366 22.6864 73.7479L25.98 77.2839L24.8276 78.3574C22.828 80.2198 22.7169 83.3506 24.5794 85.3501L24.7223 85.5035C26.5847 87.503 29.7155 87.6141 31.715 85.7516L32.8675 84.6782L35.4254 87.4243ZM38.6915 84.3821C39.8162 85.5896 41.7069 85.6567 42.9144 84.532L52.4616 75.6392L35.6495 57.59L26.1024 66.4827C24.8948 67.6075 24.8277 69.4982 25.9525 70.7057L38.6915 84.3821ZM27.3798 83.0281C27.8752 83.5599 28.7078 83.5894 29.2396 83.0941L30.3559 82.0543L28.4192 79.9751L27.3029 81.0149C26.7711 81.5102 26.7416 82.3429 27.2369 82.8747L27.3798 83.0281Z" fill="#2642CF" style="fill:#2642CF;fill:color(display-p3 0.1490 0.2588 0.8118);fill-opacity:1;"/>
<path fill-rule="evenodd" clip-rule="evenodd" d="M39.0833 18.6002C39.1454 17.2981 40.2513 16.2929 41.5533 16.355C42.8554 16.4171 43.8606 17.523 43.7985 18.8251L43.4368 26.4097C43.3747 27.7117 42.2688 28.7169 40.9667 28.6548C39.6647 28.5927 38.6595 27.4869 38.7216 26.1848L39.0833 18.6002ZM25.2953 22.2041C26.2599 21.3273 27.7526 21.3985 28.6294 22.3631L33.7368 27.982C34.6135 28.9466 34.5424 30.4393 33.5778 31.3161C32.6131 32.1929 31.1204 32.1217 30.2436 31.1571L25.1362 25.5382C24.2595 24.5736 24.3307 23.0809 25.2953 22.2041ZM18.4271 37.5937C18.4892 36.2916 19.595 35.2864 20.8971 35.3485L28.4817 35.7103C29.7838 35.7724 30.789 36.8782 30.7269 38.1803C30.6648 39.4824 29.5589 40.4876 28.2568 40.4255L20.6722 40.0637C19.3701 40.0016 18.365 38.8958 18.4271 37.5937ZM81.9169 73.3116C81.979 72.0096 83.0849 71.0044 84.387 71.0665L91.9716 71.4282C93.2737 71.4903 94.2788 72.5962 94.2168 73.8982C94.1547 75.2003 93.0488 76.2055 91.7467 76.1434L84.1621 75.7817C82.86 75.7196 81.8548 74.6137 81.9169 73.3116ZM79.066 80.1758C80.0306 79.299 81.5233 79.3702 82.4001 80.3349L87.5075 85.9537C88.3843 86.9183 88.3132 88.4111 87.3485 89.2879C86.3839 90.1647 84.8911 90.0935 84.0143 89.1289L78.907 83.51C78.0302 82.5454 78.1014 81.0526 79.066 80.1758ZM69.207 85.0823C69.2691 83.7802 70.3749 82.775 71.677 82.8371C72.9791 82.8992 73.9843 84.0051 73.9222 85.3072L73.5604 92.8918C73.4983 94.1938 72.3925 95.199 71.0904 95.1369C69.7884 95.0748 68.7831 93.9689 68.8452 92.6669L69.207 85.0823Z" fill="#E47789" style="fill:#E47789;fill:color(display-p3 0.8945 0.4663 0.5370);fill-opacity:1;"/>
<mask id="mask0_1_14883" style="mask-type:alpha" maskUnits="userSpaceOnUse" x="83" y="9" width="23" height="21">
<path d="M86.8132 26.7599C91.5223 22.3736 94.7406 25.2734 97.2337 22.9513C99.7267 20.6292 96.5083 17.7294 102.602 12.053" stroke="url(#paint0_radial_1_14883)" style="" stroke-width="5.95" stroke-linecap="round"/>
</mask>
<g mask="url(#mask0_1_14883)">
<path d="M86.8133 26.7599C91.5223 22.3736 94.7407 25.2735 97.2337 22.9513C99.7267 20.6292 96.5084 17.7294 102.602 12.053" stroke="#2642CF" style="stroke:#2642CF;stroke:color(display-p3 0.1490 0.2588 0.8118);stroke-opacity:1;" stroke-width="3.6" stroke-linecap="round"/>
</g>
<mask id="mask1_1_14883" style="mask-type:alpha" maskUnits="userSpaceOnUse" x="6" y="82" width="23" height="21">
<path d="M25.1868 85.2401C20.4778 89.6264 17.2594 86.7266 14.7664 89.0487C12.2734 91.3708 15.4918 94.2706 9.39771 99.947" stroke="url(#paint1_radial_1_14883)" style="" stroke-width="5.95" stroke-linecap="round"/>
</mask>
<g mask="url(#mask1_1_14883)">
<path d="M24.8794 85.1564C20.1703 89.5426 16.9519 86.6428 14.4589 88.9649C11.9659 91.2871 15.1843 94.1869 9.09024 99.8632" stroke="#2642CF" style="stroke:#2642CF;stroke:color(display-p3 0.1490 0.2588 0.8118);stroke-opacity:1;" stroke-width="3.6" stroke-linecap="round"/>
</g>
<defs>
<radialGradient id="paint0_radial_1_14883" cx="0" cy="0" r="1" gradientUnits="userSpaceOnUse" gradientTransform="translate(103.604 10.1255) rotate(119.86) scale(16.8003 13.5346)">
<stop offset="0.0618282" stop-opacity="0" style="stop-color:none;stop-opacity:0;"/>
<stop offset="0.770941" style="stop-color:black;stop-opacity:1;"/>
</radialGradient>
<radialGradient id="paint1_radial_1_14883" cx="0" cy="0" r="1" gradientUnits="userSpaceOnUse" gradientTransform="translate(8.05028 101.339) rotate(-58.1758) scale(16.5175 13.3068)">
<stop offset="0.0618282" stop-opacity="0" style="stop-color:none;stop-opacity:0;"/>
<stop offset="0.770941" style="stop-color:black;stop-opacity:1;"/>
</radialGradient>
</defs>
</svg>
