<svg width="112" height="112" viewBox="0 0 112 112" fill="none" xmlns="http://www.w3.org/2000/svg">
<path d="M36.0678 42.522C36.0678 41.9978 36.4928 41.5728 37.017 41.5728H42.0501C42.5743 41.5728 42.9992 41.9978 42.9992 42.522C42.9992 43.0462 42.5743 43.4711 42.0501 43.4711H37.017C36.4928 43.4711 36.0678 43.0462 36.0678 42.522Z" fill="#2642CF" style="fill:#2642CF;fill:color(display-p3 0.1490 0.2588 0.8118);fill-opacity:1;"/>
<path d="M47.2646 41.5729C46.7404 41.5729 46.3155 41.9979 46.3155 42.5221C46.3155 43.0463 46.7404 43.4712 47.2646 43.4712H61.1259C61.6502 43.4712 62.0751 43.0463 62.0751 42.5221C62.0751 41.9979 61.6502 41.5729 61.1259 41.5729H47.2646Z" fill="#2642CF" style="fill:#2642CF;fill:color(display-p3 0.1490 0.2588 0.8118);fill-opacity:1;"/>
<path d="M65.3913 42.5221C65.3913 41.9979 65.8163 41.5729 66.3405 41.5729H74.9831C75.5073 41.5729 75.9322 41.9979 75.9322 42.5221C75.9322 43.0463 75.5073 43.4712 74.9831 43.4712H66.3405C65.8163 43.4712 65.3913 43.0463 65.3913 42.5221Z" fill="#2642CF" style="fill:#2642CF;fill:color(display-p3 0.1490 0.2588 0.8118);fill-opacity:1;"/>
<path d="M47.7809 58.0881C47.2567 58.0881 46.8317 58.513 46.8317 59.0372C46.8317 59.5614 47.2567 59.9864 47.7809 59.9864H64.3256C64.8498 59.9864 65.2747 59.5614 65.2747 59.0372C65.2747 58.513 64.8498 58.0881 64.3256 58.0881H47.7809Z" fill="#2642CF" style="fill:#2642CF;fill:color(display-p3 0.1490 0.2588 0.8118);fill-opacity:1;"/>
<path d="M52.0463 64.5424C52.0463 64.0182 52.4712 63.5932 52.9954 63.5932H59.111C59.6352 63.5932 60.0602 64.0182 60.0602 64.5424C60.0602 65.0666 59.6352 65.4915 59.111 65.4915H52.9954C52.4712 65.4915 52.0463 65.0666 52.0463 64.5424Z" fill="#2642CF" style="fill:#2642CF;fill:color(display-p3 0.1490 0.2588 0.8118);fill-opacity:1;"/>
<path d="M37.017 47.0781C36.4928 47.0781 36.0678 47.503 36.0678 48.0272C36.0678 48.5514 36.4928 48.9764 37.017 48.9764H55.9114C56.4356 48.9764 56.8605 48.5514 56.8605 48.0272C56.8605 47.503 56.4356 47.0781 55.9114 47.0781H37.017Z" fill="#2642CF" style="fill:#2642CF;fill:color(display-p3 0.1490 0.2588 0.8118);fill-opacity:1;"/>
<path d="M60.1768 48.0272C60.1768 47.503 60.6017 47.0781 61.1259 47.0781H74.9831C75.5073 47.0781 75.9322 47.503 75.9322 48.0272C75.9322 48.5514 75.5073 48.9764 74.9831 48.9764H61.1259C60.6017 48.9764 60.1768 48.5514 60.1768 48.0272Z" fill="#2642CF" style="fill:#2642CF;fill:color(display-p3 0.1490 0.2588 0.8118);fill-opacity:1;"/>
<path d="M42.5663 52.583C42.0421 52.583 41.6172 53.0079 41.6172 53.5321C41.6172 54.0563 42.0421 54.4813 42.5663 54.4813H47.2646C47.7888 54.4813 48.2138 54.0563 48.2138 53.5321C48.2138 53.0079 47.7888 52.583 47.2646 52.583H42.5663Z" fill="#2642CF" style="fill:#2642CF;fill:color(display-p3 0.1490 0.2588 0.8118);fill-opacity:1;"/>
<path d="M51.53 53.5321C51.53 53.0079 51.9549 52.583 52.4791 52.583H64.3256C64.8498 52.583 65.2747 53.0079 65.2747 53.5321C65.2747 54.0563 64.8498 54.4813 64.3256 54.4813H52.4791C51.9549 54.4813 51.53 54.0563 51.53 53.5321Z" fill="#2642CF" style="fill:#2642CF;fill:color(display-p3 0.1490 0.2588 0.8118);fill-opacity:1;"/>
<path d="M69.5401 52.583C69.0159 52.583 68.591 53.0079 68.591 53.5321C68.591 54.0563 69.0159 54.4813 69.5401 54.4813H71.555C72.0792 54.4813 72.5042 54.0563 72.5042 53.5321C72.5042 53.0079 72.0792 52.583 71.555 52.583H69.5401Z" fill="#2642CF" style="fill:#2642CF;fill:color(display-p3 0.1490 0.2588 0.8118);fill-opacity:1;"/>
<path fill-rule="evenodd" clip-rule="evenodd" d="M72.9548 31.0702H76.122C79.6105 31.0702 83.3025 33.4039 83.3025 37.2358V39.5538L90.6089 45.8159C91.0746 46.2103 91.3703 46.7994 91.3703 47.4575V62.9483C91.3703 64.1357 90.4077 65.0983 89.2203 65.0983C88.0329 65.0983 87.0703 64.1357 87.0703 62.9483V52.2338L62.4601 74.0315C58.7726 77.2976 53.2274 77.2976 49.5399 74.0315L24.9296 52.2338V82.5761C24.9296 86.1088 27.7869 88.9685 31.3149 88.9685H59.1804C60.3678 88.9685 61.3304 89.9311 61.3304 91.1185C61.3304 92.3059 60.3678 93.2685 59.1804 93.2685H31.3149C25.4074 93.2685 20.6296 88.479 20.6296 82.5761V47.4575C20.6296 46.7994 20.9253 46.2103 21.3911 45.816L28.6974 39.5538V37.9659C28.6974 34.1575 31.7848 31.0702 35.5932 31.0702H39.0514C42.5609 27.9735 46.0729 24.8802 49.5847 21.7879C53.2653 18.547 58.7825 18.5459 62.4634 21.7878C65.965 24.8718 69.4665 27.962 72.9548 31.0702ZM45.5525 31.0702H66.4802C64.1983 29.0485 61.9111 27.0314 59.6214 25.0147C57.5656 23.2041 54.4831 23.2041 52.4263 25.0151C50.1344 27.0332 47.843 29.0513 45.5525 31.0702ZM28.6974 45.2171L26.0524 47.4841L28.6974 49.8269V45.2171ZM32.9974 53.6355L52.3909 70.8125C54.451 72.6372 57.5489 72.6372 59.609 70.8125L79.0025 53.6354V37.2358C79.0025 36.6322 78.1901 35.3702 76.122 35.3702H35.5932C34.1596 35.3702 32.9974 36.5323 32.9974 37.9659V53.6355ZM83.3025 49.8269L85.9476 47.4841L83.3025 45.2171V49.8269Z" fill="#2642CF" style="fill:#2642CF;fill:color(display-p3 0.1490 0.2588 0.8118);fill-opacity:1;"/>
<path d="M36.0679 42.5224C36.0679 41.9982 36.4928 41.5732 37.017 41.5732H42.0501C42.5743 41.5732 42.9993 41.9982 42.9993 42.5224C42.9993 43.0466 42.5743 43.4715 42.0501 43.4715H37.017C36.4928 43.4715 36.0679 43.0466 36.0679 42.5224Z" fill="#E47789" style="fill:#E47789;fill:color(display-p3 0.8945 0.4663 0.5370);fill-opacity:1;"/>
<path d="M47.2647 41.5733C46.7405 41.5733 46.3155 41.9983 46.3155 42.5225C46.3155 43.0467 46.7405 43.4716 47.2647 43.4716H61.126C61.6502 43.4716 62.0752 43.0467 62.0752 42.5225C62.0752 41.9983 61.6502 41.5733 61.126 41.5733H47.2647Z" fill="#E47789" style="fill:#E47789;fill:color(display-p3 0.8945 0.4663 0.5370);fill-opacity:1;"/>
<path d="M65.3914 42.5225C65.3914 41.9983 65.8163 41.5733 66.3405 41.5733H74.9831C75.5073 41.5733 75.9323 41.9983 75.9323 42.5225C75.9323 43.0467 75.5073 43.4716 74.9831 43.4716H66.3405C65.8163 43.4716 65.3914 43.0467 65.3914 42.5225Z" fill="#E47789" style="fill:#E47789;fill:color(display-p3 0.8945 0.4663 0.5370);fill-opacity:1;"/>
<path d="M47.7809 58.0885C47.2567 58.0885 46.8318 58.5134 46.8318 59.0376C46.8318 59.5618 47.2567 59.9868 47.7809 59.9868H64.3256C64.8498 59.9868 65.2748 59.5618 65.2748 59.0376C65.2748 58.5134 64.8498 58.0885 64.3256 58.0885H47.7809Z" fill="#E47789" style="fill:#E47789;fill:color(display-p3 0.8945 0.4663 0.5370);fill-opacity:1;"/>
<path d="M52.0463 64.5428C52.0463 64.0186 52.4713 63.5936 52.9955 63.5936H59.1111C59.6353 63.5936 60.0602 64.0186 60.0602 64.5428C60.0602 65.067 59.6353 65.4919 59.1111 65.4919H52.9955C52.4713 65.4919 52.0463 65.067 52.0463 64.5428Z" fill="#E47789" style="fill:#E47789;fill:color(display-p3 0.8945 0.4663 0.5370);fill-opacity:1;"/>
<path d="M37.017 47.0785C36.4928 47.0785 36.0679 47.5034 36.0679 48.0276C36.0679 48.5518 36.4928 48.9768 37.017 48.9768H55.9114C56.4356 48.9768 56.8606 48.5518 56.8606 48.0276C56.8606 47.5034 56.4356 47.0785 55.9114 47.0785H37.017Z" fill="#E47789" style="fill:#E47789;fill:color(display-p3 0.8945 0.4663 0.5370);fill-opacity:1;"/>
<path d="M60.1768 48.0276C60.1768 47.5034 60.6018 47.0785 61.126 47.0785H74.9831C75.5073 47.0785 75.9323 47.5034 75.9323 48.0276C75.9323 48.5518 75.5073 48.9768 74.9831 48.9768H61.126C60.6018 48.9768 60.1768 48.5518 60.1768 48.0276Z" fill="#E47789" style="fill:#E47789;fill:color(display-p3 0.8945 0.4663 0.5370);fill-opacity:1;"/>
<path d="M42.5664 52.5834C42.0422 52.5834 41.6172 53.0083 41.6172 53.5325C41.6172 54.0567 42.0422 54.4817 42.5664 54.4817H47.2647C47.7889 54.4817 48.2138 54.0567 48.2138 53.5325C48.2138 53.0083 47.7889 52.5834 47.2647 52.5834H42.5664Z" fill="#E47789" style="fill:#E47789;fill:color(display-p3 0.8945 0.4663 0.5370);fill-opacity:1;"/>
<path d="M51.53 53.5325C51.53 53.0083 51.955 52.5834 52.4792 52.5834H64.3256C64.8498 52.5834 65.2748 53.0083 65.2748 53.5325C65.2748 54.0567 64.8498 54.4817 64.3256 54.4817H52.4792C51.955 54.4817 51.53 54.0567 51.53 53.5325Z" fill="#E47789" style="fill:#E47789;fill:color(display-p3 0.8945 0.4663 0.5370);fill-opacity:1;"/>
<path d="M69.5402 52.5834C69.016 52.5834 68.591 53.0083 68.591 53.5325C68.591 54.0567 69.016 54.4817 69.5402 54.4817H71.5551C72.0793 54.4817 72.5042 54.0567 72.5042 53.5325C72.5042 53.0083 72.0793 52.5834 71.5551 52.5834H69.5402Z" fill="#E47789" style="fill:#E47789;fill:color(display-p3 0.8945 0.4663 0.5370);fill-opacity:1;"/>
<mask id="mask0_1_14807" style="mask-type:alpha" maskUnits="userSpaceOnUse" x="27" y="44" width="66" height="51">
<rect x="27.4" y="44.1503" width="65" height="50" fill="url(#paint0_linear_1_14807)" style=""/>
</mask>
<g mask="url(#mask0_1_14807)">
<path d="M85.3327 91.1165C85.3327 92.3039 84.3701 93.2665 83.1827 93.2665H31.3173V88.9665H83.1827C84.3701 88.9665 85.3327 89.9291 85.3327 91.1165Z" fill="#2642CF" style="fill:#2642CF;fill:color(display-p3 0.1490 0.2588 0.8118);fill-opacity:1;"/>
<path d="M87.0726 84.9463V51.4884L91.3726 51.2521V84.9463C91.3726 86.1337 90.4101 87.0963 89.2226 87.0963C88.0352 87.0963 87.0726 86.1337 87.0726 84.9463Z" fill="#2642CF" style="fill:#2642CF;fill:color(display-p3 0.1490 0.2588 0.8118);fill-opacity:1;"/>
</g>
<defs>
<linearGradient id="paint0_linear_1_14807" x1="67.5474" y1="72.7484" x2="85.4535" y2="91.5592" gradientUnits="userSpaceOnUse">
<stop offset="0.403031" style="stop-color:black;stop-opacity:1;"/>
<stop offset="1" stop-opacity="0" style="stop-color:none;stop-opacity:0;"/>
</linearGradient>
</defs>
</svg>
