<svg width="112" height="112" viewBox="0 0 112 112" fill="none" xmlns="http://www.w3.org/2000/svg">
<path fill-rule="evenodd" clip-rule="evenodd" d="M56.0002 48.8083C53.2358 48.8083 50.6491 47.9628 48.5154 46.52C46.3794 45.0765 44.6842 43.0358 43.666 40.6298C42.9876 39.0265 42.6125 37.2596 42.6127 35.4166C42.6117 32.6504 43.4575 30.0622 44.901 27.9275C46.3446 25.7913 48.3852 24.0964 50.7912 23.0782C52.3938 22.3999 54.1619 22.0249 56.0045 22.0249C58.7689 22.0249 61.3598 22.8703 63.4935 24.3131C65.6295 25.7567 67.3247 27.7971 68.3429 30.2034C69.0213 31.8064 69.3964 33.5736 69.3962 35.4166C69.3972 38.1827 68.5514 40.7707 67.1079 42.9054C65.6643 45.0416 63.6237 46.7368 61.2177 47.755C59.6151 48.4332 57.8425 48.8083 56.0002 48.8083ZM50.9216 27.8748C52.3757 26.8941 54.1137 26.3239 56.0045 26.3229C57.2658 26.3234 58.4565 26.5775 59.5434 27.0367C61.1726 27.7254 62.5654 28.8813 63.5463 30.3338C64.5269 31.7878 65.0971 33.5258 65.0979 35.4166C65.0976 36.6779 64.8435 37.8686 64.3843 38.9555C63.6956 40.5848 62.5398 41.9776 61.0873 42.9584C59.6333 43.939 57.8953 44.5092 56.0045 44.51C54.7431 44.5097 53.5524 44.2556 52.4655 43.7964C50.8363 43.1078 49.4435 41.9519 48.4626 40.4994C47.482 39.0454 46.9118 37.3074 46.9111 35.4166C46.9113 34.155 47.1654 32.9643 47.6246 31.8776C48.3133 30.2484 49.4691 28.8556 50.9216 27.8748Z" fill="#2642CF" style="fill:#2642CF;fill:color(display-p3 0.1490 0.2588 0.8118);fill-opacity:1;"/>
<path d="M56.0045 88.9999C52.6109 88.9996 49.2185 88.732 46.0698 88.1885C42.9201 87.6422 40.0161 86.8278 37.57 85.6732C35.9408 84.8999 34.5052 83.9756 33.3578 82.8068C32.7042 82.139 32.1467 81.3864 31.7378 80.5434C31.2691 79.5824 31.0071 78.5012 31.0093 77.3877C31.0083 72.2183 32.5845 67.3976 35.2792 63.4111C37.974 59.4229 41.7862 56.2563 46.2744 54.3575C49.2655 53.0919 52.5576 52.3923 56.0022 52.3923C61.1696 52.3923 65.9956 53.9683 69.9811 56.6625C71.967 58.0043 73.7491 59.6231 75.2724 61.4646L71.7847 63.9945C69.7029 61.5444 67.0601 59.5846 64.06 58.3161C61.585 57.2695 58.8682 56.6909 56.0045 56.6906C51.7104 56.6914 47.7399 57.9921 44.4341 60.2241C41.1296 62.4559 38.5023 65.6205 36.9328 69.3319C35.8865 71.8071 35.3076 74.524 35.3074 77.3877C35.3083 77.9654 35.4864 78.5158 35.7917 79.0038C36.5866 80.2775 38.0071 81.1163 39.3292 81.7502C42.0144 83.0388 44.9985 83.7018 47.9288 84.1331C50.4891 84.5104 53.2493 84.7018 56.0045 84.7018V88.9999Z" fill="#2642CF" style="fill:#2642CF;fill:color(display-p3 0.1490 0.2588 0.8118);fill-opacity:1;"/>
<path fill-rule="evenodd" clip-rule="evenodd" d="M56.0002 48.8083C53.2358 48.8083 50.6491 47.9629 48.5154 46.5201C46.3794 45.0765 44.6842 43.0359 43.666 40.6299C42.9876 39.0265 42.6125 37.2596 42.6127 35.4166C42.6117 32.6505 43.4575 30.0623 44.901 27.9276C46.3446 25.7913 48.3852 24.0964 50.7912 23.0782C52.3938 22.4 54.1619 22.0249 56.0045 22.0249C58.7689 22.0249 61.3598 22.8704 63.4935 24.3132C65.6295 25.7567 67.3247 27.7971 68.3429 30.2034C69.0213 31.8065 69.3964 33.5736 69.3962 35.4166C69.3972 38.1828 68.5514 40.7707 67.1079 42.9055C65.6643 45.0417 63.6237 46.7368 61.2177 47.7551C59.6151 48.4333 57.8425 48.8083 56.0002 48.8083ZM50.9216 27.8748C52.3757 26.8942 54.1136 26.324 56.0045 26.323C57.2658 26.3235 58.4565 26.5776 59.5434 27.0368C61.1726 27.7255 62.5654 28.8813 63.5463 30.3338C64.5269 31.7878 65.0971 33.5258 65.0979 35.4166C65.0976 36.678 64.8435 37.8687 64.3843 38.9556C63.6956 40.5848 62.5398 41.9776 61.0873 42.9585C59.6333 43.9391 57.8953 44.5093 56.0045 44.51C54.7431 44.5098 53.5524 44.2557 52.4655 43.7965C50.8363 43.1078 49.4435 41.952 48.4626 40.4994C47.482 39.0454 46.9118 37.3074 46.911 35.4166C46.9113 34.155 47.1654 32.9643 47.6246 31.8777C48.3133 30.2485 49.4691 28.8557 50.9216 27.8748Z" fill="#E47789" style="fill:#E47789;fill:color(display-p3 0.8945 0.4663 0.5370);fill-opacity:1;"/>
<mask id="mask0_1_1482" style="mask-type:alpha" maskUnits="userSpaceOnUse" x="46" y="60" width="45" height="37">
<path d="M90.7884 78.5478C90.7884 88.4783 80.8389 96.5285 68.5655 96.5285C56.2922 96.5285 46.3427 88.4783 46.3427 78.5478C46.3427 68.6174 56.2922 60.5671 68.5655 60.5671C80.8389 60.5671 90.7884 68.6174 90.7884 78.5478Z" fill="url(#paint0_radial_1_1482)" style=""/>
</mask>
<g mask="url(#mask0_1_1482)">
<path fill-rule="evenodd" clip-rule="evenodd" d="M56.0005 48.8082C53.2361 48.8082 50.6494 47.9627 48.5157 46.5199C46.3797 45.0764 44.6846 43.0357 43.6663 40.6297C42.9879 39.0264 42.6128 37.2595 42.613 35.4165C42.6121 32.6503 43.4578 30.0621 44.9013 27.9274C46.3449 25.7912 48.3855 24.0963 50.7915 23.0781C52.3941 22.3999 54.1622 22.0248 56.0048 22.0248C58.7692 22.0248 61.3601 22.8703 63.4938 24.3131C65.6298 25.7566 67.325 27.797 68.3432 30.2033C69.0217 31.8064 69.3967 33.5735 69.3965 35.4165C69.3975 38.1826 68.5518 40.7706 67.1082 42.9053C65.6646 45.0415 63.624 46.7367 61.218 47.7549C59.6154 48.4331 57.8428 48.8082 56.0005 48.8082ZM50.922 27.8747C52.376 26.894 54.114 26.3238 56.0048 26.3228C57.2661 26.3233 58.4568 26.5775 59.5437 27.0367C61.1729 27.7253 62.5657 28.8812 63.5466 30.3337C64.5272 31.7877 65.0974 33.5257 65.0982 35.4165C65.0979 36.6779 64.8438 37.8686 64.3846 38.9555C63.6959 40.5847 62.5401 41.9775 61.0876 42.9583C59.6336 43.939 57.8956 44.5092 56.0048 44.5099C54.7434 44.5097 53.5527 44.2555 52.4658 43.7963C50.8366 43.1077 49.4438 41.9518 48.4629 40.4993C47.4823 39.0453 46.9121 37.3073 46.9114 35.4165C46.9116 34.1549 47.1657 32.9642 47.6249 31.8775C48.3136 30.2483 49.4694 28.8555 50.922 27.8747Z" fill="#2642CF" style="fill:#2642CF;fill:color(display-p3 0.1490 0.2588 0.8118);fill-opacity:1;"/>
<path d="M56.0048 88.9998C52.6112 88.9995 49.2188 88.732 46.0701 88.1884C42.9204 87.6421 40.0164 86.8278 37.5703 85.6731C35.9411 84.8998 34.5055 83.9755 33.3581 82.8067C32.7045 82.1389 32.147 81.3863 31.7381 80.5433C31.2694 79.5823 31.0074 78.5012 31.0096 77.3876C31.0086 72.2182 32.5848 67.3975 35.2795 63.411C37.9743 59.4228 41.7865 56.2562 46.2747 54.3574C49.2658 53.0918 52.5579 52.3922 56.0025 52.3922C61.17 52.3922 65.9959 53.9682 69.9814 56.6624C73.9696 59.3571 77.1359 63.1691 79.035 67.6576C80.3006 70.6492 81.0004 73.9423 80.9999 77.3876C80.9999 78.5743 80.038 79.5365 78.851 79.5365C77.6641 79.5365 76.7019 78.5743 76.7019 77.3876C76.7009 73.0935 75.4004 69.123 73.1684 65.817C70.9364 62.5125 67.7717 59.8853 64.0603 58.316C61.5854 57.2694 58.8685 56.6908 56.0048 56.6905C51.7107 56.6913 47.7402 57.992 44.4344 60.224C41.1299 62.4558 38.5026 65.6204 36.9332 69.3318C35.8868 71.807 35.3079 74.5239 35.3077 77.3876C35.3086 77.9653 35.4867 78.5158 35.792 79.0037C36.5869 80.2774 38.0074 81.1162 39.3295 81.7501C42.0147 83.0388 44.9988 83.7017 47.9291 84.133C50.4894 84.5103 53.254 84.7017 56.0092 84.7017C58.7582 84.7017 61.508 84.5113 64.0633 84.1358C66.6194 83.7609 68.9828 83.1977 70.9426 82.4779C72.0575 82.0692 73.2916 82.641 73.7003 83.7555C74.1092 84.8697 73.5372 86.1045 72.4227 86.5131C70.1023 87.3633 67.4758 87.9778 64.688 88.3883C61.9007 88.7975 58.9529 88.9995 56.0048 88.9998Z" fill="#2642CF" style="fill:#2642CF;fill:color(display-p3 0.1490 0.2588 0.8118);fill-opacity:1;"/>
</g>
<defs>
<radialGradient id="paint0_radial_1_1482" cx="0" cy="0" r="1" gradientTransform="matrix(-10.9575 -8.60541 16.7439 -13.9819 76.5281 81.9007)" gradientUnits="userSpaceOnUse">
<stop offset="0.131906" stop-opacity="0" style="stop-color:none;stop-opacity:0;"/>
<stop offset="1" style="stop-color:black;stop-opacity:1;"/>
</radialGradient>
</defs>
</svg>
