<svg width="112" height="112" viewBox="0 0 112 112" fill="none" xmlns="http://www.w3.org/2000/svg">
<path fill-rule="evenodd" clip-rule="evenodd" d="M51.8537 47.2636C52.2683 48.2432 52.4975 49.3239 52.4973 50.4486C52.4978 52.1368 51.9808 53.7205 51.099 55.0239C50.2172 56.3286 48.9715 57.3637 47.5011 57.986C46.5215 58.4006 45.4408 58.6298 44.3161 58.6296C42.6278 58.6303 41.0444 58.1131 39.7407 57.2313C38.4361 56.3495 37.4012 55.1041 36.7787 53.6336C36.3641 52.6538 36.1348 51.5731 36.1351 50.4486C36.1343 48.7604 36.6515 47.1767 37.5333 45.8733C38.4151 44.5684 39.6606 43.5335 41.131 42.9113C42.1109 42.4964 43.1916 42.2674 44.3161 42.2676C46.0043 42.2669 47.5879 42.7838 48.8914 43.6659C50.1963 44.5477 51.2312 45.7931 51.8537 47.2636ZM48.5546 52.2384C48.7866 51.6891 48.915 51.0885 48.9153 50.4486C48.9145 49.4899 48.6271 48.6145 48.131 47.8783C47.6347 47.1434 46.9289 46.5577 46.1058 46.21C45.5565 45.9781 44.9562 45.8496 44.3161 45.8494C43.3573 45.8501 42.4822 46.1376 41.746 46.6336C41.0108 47.1299 40.4254 47.8358 40.0775 48.6588C39.8455 49.2081 39.7171 49.8087 39.7168 50.4486C39.7176 51.4073 40.0053 52.2827 40.5013 53.0189C40.9976 53.7538 41.7035 54.3395 42.5265 54.6872C43.0758 54.9191 43.6762 55.0476 44.3161 55.0478C45.2748 55.0471 46.1501 54.7596 46.8863 54.2633C47.6213 53.767 48.2069 53.0612 48.5546 52.2384Z" fill="#2642CF" style="fill:#2642CF;fill:color(display-p3 0.1490 0.2588 0.8118);fill-opacity:1;"/>
<path fill-rule="evenodd" clip-rule="evenodd" d="M27.2873 79.6422C25.1643 79.5533 23.1807 78.8658 21.5265 77.7468C19.7484 76.5451 18.3377 74.8472 17.4899 72.8439C16.9249 71.5091 16.6126 70.0372 16.6129 68.504V34.7412C16.612 32.4398 17.3164 30.2834 18.5181 28.5066C19.7197 26.7285 21.4176 25.3178 23.421 24.4701C24.756 23.9049 26.2278 23.5928 27.761 23.593H73.7103C75.1355 23.5928 76.5081 23.8626 77.7665 24.3546C79.0251 24.8464 80.1707 25.5592 81.1566 26.4445C83.0052 28.1035 84.2997 30.3811 84.7152 32.9518C86.0115 33.0082 87.3046 33.2913 88.507 33.791C89.8567 34.3497 91.091 35.1766 92.1216 36.2062C93.1515 37.2369 93.9781 38.4711 94.5368 39.8208C95.0976 41.1696 95.3853 42.6325 95.3868 44.086V58.7893C95.3872 58.8147 95.3872 58.8402 95.3868 58.8657V73.665C95.3868 74.8519 94.4246 75.8141 93.2376 75.8141C92.0506 75.8141 91.0884 74.8519 91.0884 73.665L91.0887 59.9834L81.4906 53.6612L58.0114 75.5906C57.3093 76.2462 56.2585 76.3564 55.4357 75.8609L43.7964 68.8502L31.4398 77.278V77.8538C31.4365 79.656 32.1685 81.4231 33.446 82.6954C34.7154 83.9702 36.4775 84.7017 38.2755 84.7017H53.3546V89H38.2919L38.2864 88.9997C36.8329 88.9985 35.37 88.7106 34.0212 88.15C32.6715 87.5913 31.4373 86.7645 30.4066 85.7348C29.3767 84.7042 28.5502 83.47 27.9914 82.1202C27.6611 81.3255 27.4255 80.491 27.2873 79.6422ZM25.0953 74.8163C25.7337 75.086 26.4192 75.2618 27.1414 75.3262V44.086C27.1429 42.6325 27.4309 41.1696 27.9914 39.8208C28.5502 38.4711 29.3767 37.2369 30.4066 36.2062C31.4373 35.1766 32.6715 34.3497 34.0212 33.791C35.37 33.2305 36.8329 32.9425 38.2864 32.9413L80.3217 32.941C80.0817 32.0564 79.6688 31.2439 79.1189 30.5373C78.3658 29.5698 77.3575 28.8092 76.2019 28.358C75.4311 28.0571 74.5951 27.8916 73.7103 27.8913H27.761C26.3351 27.8921 25.0286 28.3209 23.9327 29.0599C22.8383 29.7988 21.9669 30.8491 21.4486 32.0754C21.1028 32.8938 20.9115 33.7895 20.9111 34.7412V68.504C20.912 69.9299 21.3408 71.2363 22.0797 72.3322C22.8187 73.4265 23.8689 74.2982 25.0953 74.8163ZM42.5134 64.5225L31.4398 72.0752V44.0873C31.4365 42.2851 32.1685 40.518 33.446 39.2456C34.7154 37.9708 36.4775 37.2393 38.2755 37.2393H84.2527C86.0507 37.2393 87.8128 37.9708 89.0824 39.2456C90.3597 40.518 91.0919 42.2851 91.0885 44.0873L91.0887 54.8365L82.4421 49.1412C81.613 48.5949 80.5187 48.6874 79.7929 49.3652L56.2635 71.3418L44.8332 64.457C44.1115 64.0225 43.2095 64.0479 42.5134 64.5225Z" fill="#2642CF" style="fill:#2642CF;fill:color(display-p3 0.1490 0.2588 0.8118);fill-opacity:1;"/>
<path fill-rule="evenodd" clip-rule="evenodd" d="M52.4973 50.4486C52.4975 49.3239 52.2683 48.2432 51.8537 47.2636C51.2312 45.7931 50.1963 44.5477 48.8914 43.6659C47.5879 42.7838 46.0043 42.2669 44.3161 42.2676C43.1916 42.2674 42.1109 42.4964 41.131 42.9113C39.6606 43.5335 38.4151 44.5684 37.5333 45.8733C36.6515 47.1767 36.1343 48.7604 36.1351 50.4486C36.1348 51.5731 36.3641 52.6538 36.7787 53.6336C37.4012 55.1041 38.4361 56.3495 39.7407 57.2313C41.0444 58.1131 42.6278 58.6303 44.3161 58.6296C45.4408 58.6298 46.5215 58.4006 47.5011 57.986C48.9715 57.3637 50.2172 56.3286 51.099 55.0239C51.9808 53.7205 52.4978 52.1368 52.4973 50.4486ZM48.9153 50.4486C48.915 51.0885 48.7866 51.6891 48.5546 52.2384C48.2069 53.0612 47.6213 53.767 46.8863 54.2633C46.1501 54.7596 45.2748 55.0471 44.3161 55.0478C43.6762 55.0476 43.0758 54.9191 42.5265 54.6872C41.7035 54.3395 40.9976 53.7538 40.5013 53.0189C40.0053 52.2827 39.7176 51.4073 39.7168 50.4486C39.7171 49.8087 39.8455 49.2081 40.0775 48.6588C40.4254 47.8358 41.0108 47.1299 41.746 46.6336C42.4822 46.1376 43.3573 45.8501 44.3161 45.8494C44.9562 45.8496 45.5565 45.9781 46.1058 46.21C46.9289 46.5577 47.6347 47.1434 48.131 47.8783C48.6271 48.6145 48.9145 49.4899 48.9153 50.4486Z" fill="#2642CF" style="fill:#2642CF;fill:color(display-p3 0.1490 0.2588 0.8118);fill-opacity:1;"/>
<path fill-rule="evenodd" clip-rule="evenodd" d="M51.8537 47.2635C52.2684 48.2432 52.4976 49.3238 52.4973 50.4486C52.4978 52.1368 51.9809 53.7205 51.0991 55.0239C50.2173 56.3286 48.9716 57.3637 47.5011 57.9859C46.5215 58.4005 45.4408 58.6298 44.3161 58.6295C42.6279 58.6303 41.0445 58.1131 39.7408 57.2313C38.4361 56.3495 37.4012 55.104 36.7788 53.6336C36.3641 52.6537 36.1349 51.573 36.1351 50.4486C36.1344 48.7603 36.6516 47.1767 37.5334 45.8732C38.4152 44.5683 39.6606 43.5334 41.1311 42.9112C42.111 42.4963 43.1916 42.2673 44.3161 42.2676C46.0043 42.2668 47.588 42.7838 48.8914 43.6658C50.1964 44.5477 51.2312 45.7931 51.8537 47.2635ZM48.5547 52.2383C48.7867 51.689 48.9151 51.0884 48.9153 50.4486C48.9146 49.4898 48.6271 48.6145 48.1311 47.8783C47.6348 47.1433 46.9289 46.5577 46.1059 46.21C45.5566 45.978 44.9563 45.8496 44.3161 45.8493C43.3574 45.8501 42.4823 46.1376 41.7461 46.6336C41.0109 47.1299 40.4255 47.8357 40.0775 48.6588C39.8456 49.2081 39.7171 49.8087 39.7169 50.4486C39.7176 51.4073 40.0054 52.2826 40.5014 53.0188C40.9977 53.7538 41.7035 54.3394 42.5266 54.6871C43.0759 54.9191 43.6762 55.0475 44.3161 55.0478C45.2748 55.047 46.1502 54.7596 46.8864 54.2633C47.6214 53.767 48.207 53.0611 48.5547 52.2383Z" fill="#E47789" style="fill:#E47789;fill:color(display-p3 0.8945 0.4663 0.5370);fill-opacity:1;"/>
<path fill-rule="evenodd" clip-rule="evenodd" d="M52.4973 50.4486C52.4976 49.3238 52.2684 48.2432 51.8537 47.2635C51.2312 45.7931 50.1964 44.5477 48.8914 43.6658C47.588 42.7838 46.0043 42.2668 44.3161 42.2676C43.1916 42.2673 42.111 42.4963 41.1311 42.9112C39.6606 43.5334 38.4152 44.5683 37.5334 45.8732C36.6516 47.1767 36.1344 48.7603 36.1351 50.4486C36.1349 51.573 36.3641 52.6537 36.7788 53.6336C37.4012 55.104 38.4361 56.3495 39.7408 57.2313C41.0445 58.1131 42.6279 58.6303 44.3161 58.6295C45.4408 58.6298 46.5215 58.4005 47.5011 57.9859C48.9716 57.3637 50.2173 56.3286 51.0991 55.0239C51.9809 53.7205 52.4978 52.1368 52.4973 50.4486ZM48.9153 50.4486C48.9151 51.0884 48.7867 51.689 48.5547 52.2383C48.207 53.0611 47.6214 53.767 46.8864 54.2633C46.1502 54.7596 45.2748 55.047 44.3161 55.0478C43.6762 55.0475 43.0759 54.9191 42.5266 54.6871C41.7035 54.3394 40.9977 53.7538 40.5014 53.0188C40.0054 52.2826 39.7176 51.4073 39.7169 50.4486C39.7171 49.8087 39.8456 49.2081 40.0775 48.6588C40.4255 47.8357 41.0109 47.1299 41.7461 46.6336C42.4823 46.1376 43.3574 45.8501 44.3161 45.8493C44.9563 45.8496 45.5566 45.978 46.1059 46.21C46.9289 46.5577 47.6348 47.1433 48.1311 47.8783C48.6271 48.6145 48.9146 49.4898 48.9153 50.4486Z" fill="#E47789" style="fill:#E47789;fill:color(display-p3 0.8945 0.4663 0.5370);fill-opacity:1;"/>
<mask id="mask0_1_1497" style="mask-type:alpha" maskUnits="userSpaceOnUse" x="51" y="81" width="41" height="12">
<rect x="51.52" y="81.4965" width="39.9467" height="10.64" fill="url(#paint0_linear_1_1497)" style=""/>
</mask>
<g mask="url(#mask0_1_1497)">
<path d="M89.1054 86.8497C89.1054 88.029 88.0857 88.9849 86.8275 88.9849L42.6373 88.9849L42.6386 84.7144L86.8275 84.7144C88.0857 84.7144 89.1054 85.6703 89.1054 86.8497Z" fill="#2642CF" style="fill:#2642CF;fill:color(display-p3 0.1490 0.2588 0.8118);fill-opacity:1;"/>
</g>
<defs>
<linearGradient id="paint0_linear_1_1497" x1="88.5438" y1="87.6088" x2="63.5365" y2="87.6088" gradientUnits="userSpaceOnUse">
<stop stop-opacity="0" style="stop-color:none;stop-opacity:0;"/>
<stop offset="1" style="stop-color:black;stop-opacity:1;"/>
</linearGradient>
</defs>
</svg>
