<svg width="112" height="112" viewBox="0 0 112 112" fill="none" xmlns="http://www.w3.org/2000/svg">
<path d="M27.8168 52.4506C28.1802 49.3405 29.0449 46.2876 30.3938 43.4635C31.7361 40.6361 33.5445 38.0357 35.7148 35.7721C38.4337 32.9576 41.718 30.7035 45.317 29.1867C48.8855 27.6805 52.7647 26.9288 56.6389 26.9288C59.6219 26.9589 62.6964 27.4415 65.5327 28.3582C67.3736 28.9693 69.1562 29.7571 70.8418 30.7161L65.9692 31.2009C64.7773 31.3194 63.9072 32.3819 64.0257 33.5739C64.1444 34.7658 65.2069 35.6359 66.3988 35.5174L76.9079 34.4716C77.509 34.4119 78.0503 34.11 78.4169 33.6301C78.7833 33.1502 78.9324 32.5487 78.8321 31.9531L77.0841 21.5789C76.885 20.3977 75.7663 19.6015 74.585 19.8003C73.4038 19.9995 72.6076 21.1182 72.8065 22.2997L73.6552 27.3365C71.5216 26.0553 69.2417 25.0169 66.8797 24.2348C63.6163 23.1786 60.0639 22.6243 56.6364 22.5909C52.191 22.5909 47.7396 23.4568 43.6372 25.1873C39.4945 26.9311 35.7128 29.5285 32.5962 32.757C30.1059 35.3515 28.0184 38.3503 26.4738 41.6055C24.9219 44.858 23.9263 48.3701 23.5086 51.9446C23.3776 52.8523 23.3406 53.7665 23.3036 54.681C23.3006 54.7567 23.2975 54.8396 23.2944 54.9235C23.2896 55.0522 23.2847 55.1843 23.2795 55.3004H27.6167C27.627 55.0917 27.6355 54.9153 27.6441 54.7066C27.675 53.9526 27.7059 53.199 27.8168 52.4506Z" fill="#2642CF" style="fill:#2642CF;fill:color(display-p3 0.1490 0.2588 0.8118);fill-opacity:1;"/>
<path d="M47.8215 76.5768L37.3124 77.6224C36.7114 77.6821 36.1703 77.9843 35.8037 78.4641C35.437 78.944 35.288 79.5456 35.3883 80.1411L37.1365 90.5153C37.3353 91.6965 38.4543 92.4928 39.6356 92.2937C40.8168 92.0947 41.613 90.9757 41.4139 89.7946L40.6154 85.0561C45.5531 87.7383 51.0712 89.1025 56.5266 89.1019C60.881 89.1019 65.233 88.2517 69.3148 86.5548C73.3963 84.8583 77.2073 82.3122 80.466 78.9333C83.5744 75.7112 85.9077 72.0137 87.4598 68.0867C89.0126 64.1595 89.7859 60.0025 89.7859 55.8496C89.7862 49.5089 87.9825 43.1697 84.387 37.6695C83.7317 36.667 82.3874 36.3855 81.3849 37.0408C80.3824 37.6964 79.9424 38.8011 80.5977 39.8039L80.7562 40.0429C83.8785 44.8191 85.4478 50.3292 85.448 55.8496C85.448 59.4642 84.7748 63.0803 83.4258 66.4918C82.0766 69.9038 80.0541 73.1115 77.3437 75.922C74.5019 78.8678 71.1959 81.0745 67.6495 82.5494C64.1036 84.0238 60.3167 84.764 56.5266 84.764C51.884 84.7635 47.2225 83.6406 43.0098 81.4148L48.2511 80.8933C49.443 80.7748 50.3131 79.7123 50.1947 78.5204C50.0759 77.3284 49.0137 76.4581 47.8215 76.5768Z" fill="#2642CF" style="fill:#2642CF;fill:color(display-p3 0.1490 0.2588 0.8118);fill-opacity:1;"/>
<path d="M52.1438 50.1056H61.4516C62.4242 50.1056 63.2122 49.3175 63.2122 48.3452C63.2122 47.3728 62.4242 46.5845 61.4516 46.5845H52.1438C51.1715 46.5845 50.3834 47.3728 50.3834 48.3452C50.3834 49.3175 51.1715 50.1056 52.1438 50.1056Z" fill="#2642CF" style="fill:#2642CF;fill:color(display-p3 0.1490 0.2588 0.8118);fill-opacity:1;"/>
<path d="M52.1438 57.3595H61.4516C62.4242 57.3595 63.2122 56.5714 63.2122 55.5991C63.2122 54.6268 62.4242 53.8385 61.4516 53.8385H52.1438C51.1715 53.8385 50.3834 54.6268 50.3834 55.5991C50.3834 56.5714 51.1715 57.3595 52.1438 57.3595Z" fill="#2642CF" style="fill:#2642CF;fill:color(display-p3 0.1490 0.2588 0.8118);fill-opacity:1;"/>
<path d="M52.1438 64.6996H61.4516C62.4242 64.6996 63.2122 63.9116 63.2122 62.9392C63.2122 61.9669 62.4242 61.1786 61.4516 61.1786H52.1438C51.1715 61.1786 50.3834 61.9669 50.3834 62.9392C50.3834 63.9116 51.1715 64.6996 52.1438 64.6996Z" fill="#2642CF" style="fill:#2642CF;fill:color(display-p3 0.1490 0.2588 0.8118);fill-opacity:1;"/>
<path fill-rule="evenodd" clip-rule="evenodd" d="M67.5689 72.0798C67.1026 72.2772 66.5866 72.3864 66.0549 72.3861H47.3882C46.5894 72.3869 45.8312 72.14 45.2129 71.7209C44.5934 71.302 44.1028 70.7121 43.8063 70.0118C43.6088 69.5457 43.4997 69.0295 43.4999 68.4978V42.3881C43.4992 41.5892 43.7461 40.8312 44.1652 40.2129C44.5841 39.5934 45.174 39.1029 45.8742 38.8063C46.3403 38.6086 46.8566 38.4998 47.3882 38.5H66.0549C66.8537 38.4993 67.6117 38.7461 68.23 39.165C68.8495 39.5839 69.3401 40.1738 69.6366 40.874C69.8341 41.3401 69.9432 41.8564 69.9429 42.3881V68.4978C69.9437 69.2967 69.6968 70.0549 69.2779 70.6732C68.8591 71.2927 68.2689 71.7833 67.5689 72.0798ZM47.3882 68.6539H66.0549C66.0935 68.6532 66.1136 68.6454 66.1408 68.6285C66.1667 68.6114 66.189 68.5837 66.1995 68.558C66.2066 68.5404 66.2107 68.5245 66.211 68.4978V42.3881C66.2103 42.3494 66.2024 42.3293 66.1853 42.3022C66.1682 42.2762 66.1405 42.254 66.1151 42.2435C66.0975 42.2364 66.0816 42.2322 66.0549 42.232H47.3882C47.3493 42.2327 47.3293 42.2405 47.3021 42.2577C47.2764 42.2748 47.2539 42.3022 47.2436 42.3279C47.2365 42.3455 47.2324 42.3614 47.2321 42.3881V68.4978C47.2329 68.5367 47.2405 68.5568 47.2576 68.5839C47.2747 68.6096 47.3024 68.6321 47.3281 68.6424C47.3457 68.6495 47.3616 68.6537 47.3882 68.6539Z" fill="#2642CF" style="fill:#2642CF;fill:color(display-p3 0.1490 0.2588 0.8118);fill-opacity:1;"/>
<path d="M37.3124 77.6224L47.8215 76.5768C49.0137 76.4581 50.0759 77.3284 50.1946 78.5204C50.3131 79.7123 49.443 80.7748 48.2511 80.8933L43.0098 81.4148L39.9784 81.8375L40.6154 85.0561L41.4138 89.7946C41.613 90.9757 40.8168 92.0947 39.6355 92.2937C38.4543 92.4928 37.3353 91.6965 37.1364 90.5153L35.3882 80.1411C35.2879 79.5456 35.437 78.944 35.8036 78.4641C36.1703 77.9843 36.7113 77.6821 37.3124 77.6224Z" fill="#E47789" style="fill:#E47789;fill:color(display-p3 0.8945 0.4663 0.5370);fill-opacity:1;"/>
<path d="M70.8417 30.7161L74.0209 30.5624L73.6552 27.3365L72.8064 22.2997C72.6076 21.1182 73.4038 19.9995 74.585 19.8003C75.7662 19.6015 76.885 20.3977 77.0841 21.5789L78.8321 31.9531C78.9324 32.5487 78.7833 33.1502 78.4169 33.6301C78.0503 34.11 77.509 34.4119 76.9079 34.4716L66.3988 35.5174C65.2069 35.6359 64.1444 34.7658 64.0256 33.5739C63.9072 32.3819 64.7773 31.3194 65.9692 31.2009L70.8417 30.7161Z" fill="#E47789" style="fill:#E47789;fill:color(display-p3 0.8945 0.4663 0.5370);fill-opacity:1;"/>
<mask id="mask0_1_14937" style="mask-type:alpha" maskUnits="userSpaceOnUse" x="13" y="49" width="28" height="31">
<path d="M26.2703 49.1758L13.1241 57.7207L27.5885 79.7858L40.6488 71.2967L26.2703 49.1758Z" fill="url(#paint0_linear_1_14937)" style=""/>
</mask>
<g mask="url(#mask0_1_14937)">
<path d="M32.2831 74.868C31.3473 75.62 29.9725 75.4747 29.2833 74.4917C25.2213 68.6982 23.1219 62.359 23.2812 55.2852C23.3083 54.0849 24.3643 52.5971 25.5602 52.7025C26.7561 52.808 27.6314 53.8636 27.6162 55.064C27.5408 61.0185 29.3105 66.853 32.6809 71.7623C33.3603 72.752 33.2189 74.116 32.2831 74.868Z" fill="#2642CF" style="fill:#2642CF;fill:color(display-p3 0.1490 0.2588 0.8118);fill-opacity:1;"/>
</g>
<defs>
<linearGradient id="paint0_linear_1_14937" x1="32.0446" y1="74.5869" x2="23.0435" y2="60.7388" gradientUnits="userSpaceOnUse">
<stop stop-opacity="0" style="stop-color:none;stop-opacity:0;"/>
<stop offset="1" style="stop-color:black;stop-opacity:1;"/>
</linearGradient>
</defs>
</svg>
