<svg width="112" height="112" viewBox="0 0 112 112" fill="none" xmlns="http://www.w3.org/2000/svg">
<path fill-rule="evenodd" clip-rule="evenodd" d="M65.4194 80.2582C64.1408 80.8144 62.6935 80.1179 62.2281 78.8035C61.7627 77.489 62.4564 76.0557 63.7286 75.485C69.2042 73.0288 73.8679 69.0276 77.1309 63.948C80.8502 58.158 82.5385 51.2956 81.93 44.441C81.3215 37.5863 78.4508 31.1286 73.7697 26.0843C69.0886 21.04 62.8631 17.6956 56.0729 16.5775C49.2827 15.4594 42.3135 16.6311 36.2622 19.9082C30.2109 23.1852 25.4212 28.3815 22.647 34.6792C19.8728 40.9769 19.2716 48.0183 20.9381 54.6951C22.4001 60.5528 25.5346 65.838 29.9336 69.9202C30.9557 70.8686 31.1531 72.4487 30.2909 73.5446C29.4286 74.6404 27.8344 74.836 26.8016 73.8992C21.5275 69.1156 17.7722 62.8628 16.0389 55.9179C14.1011 48.1541 14.8002 39.9664 18.026 32.6436C21.2518 25.3207 26.8213 19.2785 33.8576 15.468C40.894 11.6575 48.9977 10.295 56.8933 11.5951C64.7889 12.8953 72.0279 16.7841 77.471 22.6495C82.9141 28.5149 86.2521 36.0239 86.9597 43.9945C87.6672 51.965 85.7041 59.9446 81.3794 66.6771C80.1507 68.5899 78.7511 70.3712 77.204 72.0025L95.8884 90.6869C98.0943 92.8928 98.0943 96.4693 95.8884 98.6752C93.6825 100.881 90.106 100.881 87.9001 98.6752L68.154 78.929C67.2636 79.4092 66.3514 79.8529 65.4194 80.2582ZM71.8812 76.6158L90.9203 95.655C91.4582 96.1929 92.3303 96.1929 92.8682 95.655C93.4062 95.1171 93.4062 94.245 92.8682 93.707L74.0848 74.9237C73.3724 75.5157 72.6373 76.0802 71.8812 76.6158Z" fill="#2642CF" style="fill:#2642CF;fill:color(display-p3 0.1490 0.2588 0.8118);fill-opacity:1;"/>
<path d="M46.8129 63.948C47.8752 63.948 49.4521 62.5978 49.4521 61.5319C49.4521 60.466 48.1065 58.8837 47.0442 58.8837C45.982 58.8837 44.405 60.2339 44.405 61.2998C44.4052 62.3655 45.7509 63.948 46.8129 63.948Z" fill="#2642CF" style="fill:#2642CF;fill:color(display-p3 0.1490 0.2588 0.8118);fill-opacity:1;"/>
<path d="M46.0715 28.948C44.6513 28.948 43.5 30.1032 43.5 31.5282C43.5 32.9532 44.6512 34.1084 46.0714 34.1085H51.2143C52.6292 34.1084 53.887 34.6011 54.7796 35.4774C55.6488 36.3309 56.3571 37.7307 56.3571 39.9138C56.3571 43.1445 53.5609 45.5042 51.2143 45.5042H47.7857C45.8922 45.5042 44.3571 47.0445 44.3571 48.9446V54.9653C44.3571 56.3903 45.5084 57.5455 46.9286 57.5455C48.3487 57.5455 49.5 56.3903 49.5 54.9653V50.6647H51.2143C56.3898 50.6647 61.5 46.006 61.5 39.9138C61.5 36.5294 60.3599 33.7365 58.3764 31.789C56.4162 29.8644 53.8169 28.948 51.2142 28.948H46.0715Z" fill="#2642CF" style="fill:#2642CF;fill:color(display-p3 0.1490 0.2588 0.8118);fill-opacity:1;"/>
<path d="M46.8129 63.948C47.8752 63.948 49.4521 62.5978 49.4521 61.5319C49.4521 60.466 48.1065 58.8837 47.0442 58.8837C45.982 58.8837 44.405 60.2339 44.405 61.2998C44.4052 62.3655 45.7509 63.948 46.8129 63.948Z" fill="#E47789" style="fill:#E47789;fill:color(display-p3 0.8945 0.4663 0.5370);fill-opacity:1;"/>
<path d="M46.0715 28.948C44.6513 28.948 43.5 30.1032 43.5 31.5282C43.5 32.9532 44.6512 34.1084 46.0714 34.1084H51.2143C52.6292 34.1084 53.887 34.6011 54.7796 35.4774C55.6488 36.3308 56.3571 37.7307 56.3571 39.9138C56.3571 43.1445 53.5609 45.5042 51.2143 45.5042H47.7857C45.8922 45.5042 44.3571 47.0445 44.3571 48.9445V54.9653C44.3571 56.3903 45.5084 57.5455 46.9286 57.5455C48.3487 57.5455 49.5 56.3903 49.5 54.9653V50.6647H51.2143C56.3897 50.6647 61.5 46.006 61.5 39.9138C61.5 36.5294 60.3599 33.7365 58.3764 31.789C56.4162 29.8644 53.8169 28.948 51.2142 28.948H46.0715Z" fill="#E47789" style="fill:#E47789;fill:color(display-p3 0.8945 0.4663 0.5370);fill-opacity:1;"/>
<mask id="mask0_24_37" style="mask-type:alpha" maskUnits="userSpaceOnUse" x="20" y="63" width="35" height="21">
<mask id="path-3-inside-1_24_37" fill="white">
<path d="M54.8947 80.5035C55.0552 81.8887 54.0621 83.1509 52.6692 83.2142C46.4711 83.4957 40.2895 82.1736 34.7297 79.3562C29.1699 76.5388 24.4483 72.3357 21.0101 67.171C20.2374 66.0103 20.668 64.463 21.8799 63.7733C23.0918 63.0837 24.625 63.514 25.4109 64.6659C28.3499 68.9735 32.3364 72.4826 37.0122 74.852C41.688 77.2215 46.8752 78.3611 52.0869 78.1839C53.4805 78.1365 54.7342 79.1184 54.8947 80.5035Z"/>
</mask>
<path d="M54.8947 80.5035C55.0552 81.8887 54.0621 83.1509 52.6692 83.2142C46.4711 83.4957 40.2895 82.1736 34.7297 79.3562C29.1699 76.5388 24.4483 72.3357 21.0101 67.171C20.2374 66.0103 20.668 64.463 21.8799 63.7733C23.0918 63.0837 24.625 63.514 25.4109 64.6659C28.3499 68.9735 32.3364 72.4826 37.0122 74.852C41.688 77.2215 46.8752 78.3611 52.0869 78.1839C53.4805 78.1365 54.7342 79.1184 54.8947 80.5035Z" stroke="url(#paint0_linear_24_37)" style="" stroke-width="8.54237" stroke-linecap="round" mask="url(#path-3-inside-1_24_37)"/>
</mask>
<g mask="url(#mask0_24_37)">
<mask id="path-4-inside-2_24_37" fill="white">
<path d="M55.2823 80.4563C55.4589 81.8395 54.4806 83.1132 53.0885 83.1927C47.6273 83.5044 42.1549 82.5703 37.0898 80.4471C32.0247 78.3239 27.5219 75.0767 23.9154 70.964C22.996 69.9156 23.2184 68.325 24.3285 67.4812C25.4386 66.6374 27.0152 66.8613 27.9464 67.8991C31.0078 71.311 34.795 74.01 39.0419 75.7902C43.2887 77.5704 47.8686 78.3786 52.4478 78.1696C53.8407 78.106 55.1057 79.0732 55.2823 80.4563Z"/>
</mask>
<path d="M55.2823 80.4563C55.4589 81.8395 54.4806 83.1132 53.0885 83.1927C47.6273 83.5044 42.1549 82.5703 37.0898 80.4471C32.0247 78.3239 27.5219 75.0767 23.9154 70.964C22.996 69.9156 23.2184 68.325 24.3285 67.4812C25.4386 66.6374 27.0152 66.8613 27.9464 67.8991C31.0078 71.311 34.795 74.01 39.0419 75.7902C43.2887 77.5704 47.8686 78.3786 52.4478 78.1696C53.8407 78.106 55.1057 79.0732 55.2823 80.4563Z" stroke="#2642CF" style="stroke:#2642CF;stroke:color(display-p3 0.1490 0.2588 0.8118);stroke-opacity:1;" stroke-width="8.54237" stroke-linecap="round" mask="url(#path-4-inside-2_24_37)"/>
</g>
<defs>
<linearGradient id="paint0_linear_24_37" x1="58.1518" y1="76.1326" x2="34.423" y2="77.5563" gradientUnits="userSpaceOnUse">
<stop offset="0.143728" stop-color="white" stop-opacity="0" style="stop-color:none;stop-opacity:0;"/>
<stop offset="1" style="stop-color:black;stop-opacity:1;"/>
</linearGradient>
</defs>
</svg>
