<svg width="112" height="112" viewBox="0 0 112 112" fill="none" xmlns="http://www.w3.org/2000/svg">
<path d="M31.7381 91.2923C32.1455 92.0676 32.9372 92.5109 33.7561 92.5109C34.1135 92.5109 34.4759 92.4265 34.8141 92.2488C36.0936 91.5761 37.3736 90.9031 38.6536 90.2301C44.4357 87.1905 50.2177 84.1505 55.9998 81.1108L57.7422 82.0195L59.8243 77.9568L57.0598 76.521C56.7248 76.3451 56.3629 76.2622 56.006 76.2622C55.6334 76.2622 55.2638 76.3538 54.9375 76.5223C48.8848 79.7044 42.8323 82.887 36.7793 86.0686C37.9354 79.329 39.0913 72.5875 40.2476 65.8467C40.3785 65.0843 40.104 64.3359 39.5925 63.8304C34.6953 59.0564 29.7972 54.2825 24.9006 49.5094L45.202 46.5593C45.9673 46.448 46.5977 45.9532 46.9206 45.3106C49.947 39.1787 52.9733 33.0465 55.9998 26.9145C59.0264 33.0473 62.0533 39.18 65.08 45.3129C65.4222 46.0065 66.0842 46.4505 66.7951 46.559L87.0989 49.5094C82.2169 54.2682 77.3344 59.1185 72.4067 63.8306C71.506 64.7087 71.4876 66.1508 72.3656 67.0518C73.2319 67.9403 74.6469 67.9702 75.5499 67.1279C75.5499 67.1279 87.5726 55.4094 93.5837 49.5499C93.9302 49.2127 94.1731 48.762 94.248 48.2465C94.429 47.0016 93.5638 45.8452 92.3189 45.6643C84.4244 44.5171 76.5299 43.37 68.6351 42.2229C65.1046 35.0691 61.5729 27.9133 58.0424 20.7595C57.8284 20.3259 57.4749 19.9555 57.0078 19.7251C56.6837 19.565 56.34 19.4891 56.0015 19.4891C55.1618 19.4891 54.3539 19.9556 53.9571 20.7595C50.4264 27.9133 46.8949 35.0691 43.3642 42.2229L19.6806 45.6643C19.2019 45.7335 18.7382 45.956 18.3745 46.3291C17.4964 47.2298 17.5148 48.6719 18.4157 49.5499C24.1289 55.1189 29.842 60.6879 35.5553 66.2568C34.2066 74.1195 32.8581 81.9823 31.5096 89.845C31.4277 90.3214 31.4957 90.8314 31.7381 91.2923Z" fill="#2642CF" style="fill:#2642CF;fill:color(display-p3 0.1490 0.2588 0.8118);fill-opacity:1;"/>
<mask id="mask0_1_1515" style="mask-type:alpha" maskUnits="userSpaceOnUse" x="52" y="57" width="34" height="39">
<path d="M52.5499 95.1641L85.955 95.1641L85.955 57.9098L52.5499 57.9098L52.5499 95.1641Z" fill="url(#paint0_linear_1_1515)" style=""/>
</mask>
<g mask="url(#mask0_1_1515)">
<path d="M76.2419 65.0764L80.4899 89.8448C80.7024 91.0848 79.8702 92.2648 78.6304 92.4773C78.1164 92.5661 77.6133 92.4735 77.1854 92.2485C73.9148 90.5291 70.6437 88.8094 67.3727 87.0897C64.3072 85.478 61.2416 83.8663 58.1764 82.2549L57.3031 81.7817C54.6307 80.2775 56.6715 76.3122 59.1539 77.5979C65.0853 80.7163 68.9814 82.7886 75.2199 86.0684L71.7517 65.8467C71.5391 64.6068 72.3719 63.429 73.6119 63.2165C74.8516 63.0039 76.0291 63.8367 76.2419 65.0764Z" fill="#E47789" style="fill:#E47789;fill:color(display-p3 0.8945 0.4663 0.5370);fill-opacity:1;"/>
</g>
<defs>
<linearGradient id="paint0_linear_1_1515" x1="72.4242" y1="65.0487" x2="61.0045" y2="78.4944" gradientUnits="userSpaceOnUse">
<stop offset="0.0547068" stop-opacity="0" style="stop-color:none;stop-opacity:0;"/>
<stop offset="1" style="stop-color:black;stop-opacity:1;"/>
</linearGradient>
</defs>
</svg>
