<svg width="112" height="112" viewBox="0 0 112 112" fill="none" xmlns="http://www.w3.org/2000/svg">
<path d="M30.0744 43.4164C28.7255 46.2406 27.8608 49.2935 27.4974 52.4036C27.3865 53.152 27.3556 53.9055 27.3247 54.6596C27.3161 54.8682 27.3076 55.0446 27.2973 55.2533H22.9601C22.9653 55.1372 22.9702 55.0052 22.975 54.8765C22.9781 54.7925 22.9812 54.7096 22.9842 54.6339C23.0212 53.7194 23.0582 52.8053 23.1892 51.8976C23.6069 48.323 24.6025 44.811 26.1544 41.5585C27.699 38.3033 29.7865 35.3044 32.2769 32.71C35.3934 29.4814 39.1751 26.884 43.3178 25.1403C47.4202 23.4098 51.8716 22.5439 56.317 22.5439C59.7445 22.5772 63.2969 23.1315 66.5603 24.1878C68.9223 24.9699 71.2022 26.0082 73.3358 27.2894L72.4871 22.2526C72.2882 21.0712 73.0844 19.9524 74.2656 19.7533C75.4469 19.5544 76.5656 20.3506 76.7647 21.5318L78.5127 31.906C78.613 32.5016 78.4639 33.1032 78.0975 33.583C77.7309 34.0629 77.1896 34.3648 76.5885 34.4245L66.0794 35.4704C64.8875 35.5888 63.825 34.7187 63.7063 33.5268C63.5878 32.3349 64.4579 31.2724 65.6499 31.1539L70.5224 30.6691C68.8368 29.71 67.0542 28.9223 65.2133 28.3111C62.377 27.3945 59.3025 26.9119 56.3195 26.8818C52.4453 26.8818 48.5661 27.6334 44.9976 29.1397C41.3986 30.6564 38.1143 32.9106 35.3954 35.725C33.2251 37.9887 31.4167 40.5891 30.0744 43.4164Z" fill="#2642CF" style="fill:#2642CF;fill:color(display-p3 0.1490 0.2588 0.8118);fill-opacity:1;"/>
<path d="M36.993 77.5753L47.5021 76.5297C48.6943 76.411 49.7565 77.2814 49.8753 78.4733C49.9937 79.6653 49.1236 80.7278 47.9317 80.8462L42.6904 81.3677C46.9031 83.5935 51.5646 84.7164 56.2073 84.7169C59.9973 84.7169 63.7842 83.9768 67.3301 82.5023C70.8765 81.0274 74.1825 78.8208 77.0243 75.8749C79.7347 73.0645 81.7572 69.8568 83.1064 66.4448C84.4554 63.0332 85.1286 59.4171 85.1286 55.8025C85.1284 50.2822 83.5591 44.772 80.4368 39.9958L80.2783 39.7568C79.623 38.7541 80.063 37.6493 81.0655 36.9937C82.068 36.3384 83.4123 36.6199 84.0676 37.6224C87.6631 43.1226 89.4668 49.4618 89.4665 55.8025C89.4665 59.9555 88.6932 64.1124 87.1404 68.0396C85.5883 71.9666 83.255 75.6641 80.1466 78.8862C76.8879 82.2651 73.0769 84.8113 68.9954 86.5077C64.9136 88.2046 60.5616 89.0548 56.2073 89.0548C50.7518 89.0554 45.2337 87.6912 40.296 85.009L41.0945 89.7475C41.2936 90.9287 40.4974 92.0477 39.3162 92.2466C38.1349 92.4457 37.0159 91.6495 36.8171 90.4682L35.0689 80.0941C34.9686 79.4985 35.1177 78.8969 35.4843 78.4171C35.8509 77.9372 36.392 77.6351 36.993 77.5753Z" fill="#2642CF" style="fill:#2642CF;fill:color(display-p3 0.1490 0.2588 0.8118);fill-opacity:1;"/>
<path fill-rule="evenodd" clip-rule="evenodd" d="M57.8605 37.1577V41.9269H61.722C62.6498 41.9269 63.402 42.679 63.402 43.6069C63.402 44.5347 62.6498 45.2869 61.722 45.2869H57.8605V53.2129H59.5579C61.5001 53.2129 63.3627 53.9845 64.7361 55.3578C66.1094 56.7312 66.8809 58.5938 66.8809 60.536C66.8809 62.4782 66.1094 64.3408 64.7361 65.7142C63.3627 67.0875 61.5001 67.859 59.5579 67.859H57.8605V72.6282C57.8605 73.556 57.1083 74.3082 56.1805 74.3082C55.2526 74.3082 54.5005 73.556 54.5005 72.6282V67.859L47.9007 67.859C46.9729 67.859 46.2207 67.1069 46.2207 66.179C46.2207 65.2512 46.9729 64.499 47.9007 64.499L54.5005 64.499V56.573H52.8031C50.8609 56.573 48.9982 55.8014 47.6249 54.4281C46.2516 53.0547 45.48 51.1921 45.48 49.2499C45.48 47.3077 46.2516 45.4451 47.6249 44.0717C48.9982 42.6984 50.8609 41.9269 52.8031 41.9269H54.5005V37.1577C54.5005 37.1577 54.5906 35.789 56.2799 35.789C57.9362 35.789 57.8605 37.1577 57.8605 37.1577ZM57.8605 56.573H59.5578C60.6089 56.573 61.617 56.9905 62.3602 57.7337C63.1034 58.4769 63.5209 59.4849 63.5209 60.536C63.5209 61.587 63.1034 62.5951 62.3602 63.3383C61.617 64.0815 60.609 64.499 59.5579 64.499H57.8605V56.573ZM54.5005 45.2869H52.8031C51.752 45.2869 50.744 45.7044 50.0008 46.4476C49.2576 47.1908 48.84 48.1989 48.84 49.2499C48.84 50.301 49.2576 51.309 50.0008 52.0522C50.744 52.7954 51.752 53.2129 52.8031 53.2129H54.5005V45.2869Z" fill="#E47789" style="fill:#E47789;fill:color(display-p3 0.8945 0.4663 0.5370);fill-opacity:1;"/>
<mask id="mask0_1_1441" style="mask-type:alpha" maskUnits="userSpaceOnUse" x="22" y="49" width="19" height="29">
<path d="M25.9508 49.1285C25.9508 49.1285 22.7666 48.7595 22.5512 54.8788C22.0973 67.7743 30.5425 77.4909 30.5425 77.4909L40.3292 71.2495L25.9508 49.1285Z" fill="url(#paint0_linear_1_1441)" style=""/>
</mask>
<g mask="url(#mask0_1_1441)">
<path d="M31.9637 74.8211C31.0278 75.5731 29.6531 75.4277 28.9639 74.4448C24.9018 68.6513 22.7961 61.7087 22.9554 54.6349C22.9825 53.4347 24.0449 52.5501 25.2408 52.6556C26.4366 52.761 27.312 53.8166 27.2968 55.0171C27.2214 60.9715 28.991 66.806 32.3614 71.7153C33.0409 72.705 32.8995 74.0691 31.9637 74.8211Z" fill="#2642CF" style="fill:#2642CF;fill:color(display-p3 0.1490 0.2588 0.8118);fill-opacity:1;"/>
</g>
<defs>
<linearGradient id="paint0_linear_1_1441" x1="31.7246" y1="74.5401" x2="22.7234" y2="60.692" gradientUnits="userSpaceOnUse">
<stop stop-opacity="0" style="stop-color:none;stop-opacity:0;"/>
<stop offset="1" style="stop-color:black;stop-opacity:1;"/>
</linearGradient>
</defs>
</svg>
