<svg width="112" height="112" viewBox="0 0 112 112" fill="none" xmlns="http://www.w3.org/2000/svg">
<path d="M78.9083 8.44377C79.6023 8.44377 80.1683 7.87778 80.1683 7.18377C80.1683 6.48976 79.6023 5.92377 78.9083 5.92377C78.2143 5.92377 77.6483 6.48976 77.6483 7.18377C77.6484 7.87765 78.2144 8.44377 78.9083 8.44377Z" fill="#2642CF" style="fill:#2642CF;fill:color(display-p3 0.1490 0.2588 0.8118);fill-opacity:1;"/>
<path d="M23.9319 20.292C23.9319 21.993 22.5529 23.372 20.8519 23.372C19.1508 23.372 17.7719 21.993 17.7719 20.292C17.7719 18.5909 19.1508 17.212 20.8519 17.212C22.5529 17.212 23.9319 18.5909 23.9319 20.292Z" fill="#2642CF" style="fill:#2642CF;fill:color(display-p3 0.1490 0.2588 0.8118);fill-opacity:1;"/>
<path d="M96.3543 39.358C96.3543 41.0591 94.9754 42.438 93.2743 42.438C91.5733 42.438 90.1943 41.0591 90.1943 39.358C90.1943 37.657 91.5733 36.278 93.2743 36.278C94.9754 36.278 96.3543 37.657 96.3543 39.358Z" fill="#2642CF" style="fill:#2642CF;fill:color(display-p3 0.1490 0.2588 0.8118);fill-opacity:1;"/>
<path d="M31.0933 7.89519C31.0933 8.5892 30.5273 9.15519 29.8333 9.15519C29.1394 9.15519 28.5734 8.58907 28.5733 7.89519C28.5733 7.20118 29.1393 6.63519 29.8333 6.63519C30.5273 6.63519 31.0933 7.20118 31.0933 7.89519Z" fill="#2642CF" style="fill:#2642CF;fill:color(display-p3 0.1490 0.2588 0.8118);fill-opacity:1;"/>
<path d="M91.7105 20.1792C92.4045 20.1792 92.9705 19.6132 92.9705 18.9192C92.9705 18.2252 92.4045 17.6592 91.7105 17.6592C91.0165 17.6592 90.4505 18.2252 90.4505 18.9192C90.4506 19.6131 91.0166 20.1792 91.7105 20.1792Z" fill="#2642CF" style="fill:#2642CF;fill:color(display-p3 0.1490 0.2588 0.8118);fill-opacity:1;"/>
<path d="M13.6626 9.05791C13.6626 9.75192 13.0966 10.3179 12.4026 10.3179C11.7086 10.3179 11.1426 9.75192 11.1426 9.05791C11.1426 8.3639 11.7086 7.79791 12.4026 7.79791C13.0966 7.79791 13.6626 8.3639 13.6626 9.05791Z" fill="#2642CF" style="fill:#2642CF;fill:color(display-p3 0.1490 0.2588 0.8118);fill-opacity:1;"/>
<path d="M17.3812 44.4572C18.0752 44.4572 18.6412 43.8912 18.6412 43.1972C18.6412 42.5032 18.0752 41.9372 17.3812 41.9372C16.6872 41.9372 16.1212 42.5032 16.1212 43.1972C16.1212 43.8912 16.6872 44.4572 17.3812 44.4572Z" fill="#2642CF" style="fill:#2642CF;fill:color(display-p3 0.1490 0.2588 0.8118);fill-opacity:1;"/>
<path fill-rule="evenodd" clip-rule="evenodd" d="M46.5147 48.8748C46.5147 47.4057 47.7056 46.2148 49.1747 46.2148H62.8947C64.3638 46.2148 65.5547 47.4057 65.5547 48.8748V58.6748C65.5547 60.1439 64.3638 61.3348 62.8947 61.3348H49.1747C47.7056 61.3348 46.5147 60.1439 46.5147 58.6748V48.8748ZM50.7147 50.4148V57.1348H61.3547V50.4148H50.7147Z" fill="#2642CF" style="fill:#2642CF;fill:color(display-p3 0.1490 0.2588 0.8118);fill-opacity:1;"/>
<path fill-rule="evenodd" clip-rule="evenodd" d="M34.1166 18.8409C31.7287 20.5218 28.369 23.8249 28.3688 28.3106L28.3688 64.6967C28.3688 66.6925 29.3835 68.2771 30.5474 69.4295C31.7071 70.5778 33.1754 71.4652 34.5188 72.1285C35.9317 72.8261 37.3232 73.3324 38.3276 73.6579C38.3272 75.3406 38.3266 77.0233 38.326 78.706L38.3254 80.4594C38.3234 85.8356 38.3221 89.3519 38.328 95.1629C38.3315 98.5892 39.4809 101.349 41.381 103.257C43.2623 105.147 45.7582 106.078 48.2292 106.076C50.7001 106.074 53.194 105.14 55.0716 103.249C55.4087 102.909 55.722 102.543 56.0093 102.151C56.2966 102.543 56.6099 102.909 56.9469 103.249C58.8245 105.14 61.3185 106.074 63.7893 106.076C66.2603 106.078 68.7563 105.147 70.6376 103.257C72.5377 101.349 73.6871 98.5892 73.6906 95.1629C73.6964 89.3527 73.6951 85.8387 73.6932 80.4622L73.6926 78.7148C73.692 77.0291 73.6914 75.3435 73.691 73.6579C74.6953 73.3324 76.0868 72.8261 77.4998 72.1285C78.8432 71.4652 80.3114 70.5778 81.4712 69.4295C82.635 68.2771 83.6497 66.6925 83.6497 64.6967C83.6497 62.3433 83.6624 59.9893 83.6751 57.635V57.6284C83.7007 52.8686 83.7264 48.108 83.6474 43.3507L83.6497 28.3106C83.6495 23.8249 80.2898 20.5218 77.902 18.8409C76.1701 17.6219 74.3716 16.7296 73.0252 16.1455C72.187 15.7818 71.3346 15.4586 70.465 15.1791C67.6166 9.70872 62.0556 5.95331 55.5788 5.95331C48.9627 5.95331 43.3023 9.8719 40.5126 15.5342C40.1162 15.6808 39.5954 15.8843 38.9934 16.1455C37.647 16.7296 35.8484 17.6219 34.1166 18.8409ZM36.5341 22.2754C34.4489 23.7432 32.5689 25.9514 32.5688 28.3108L32.5688 34.0594C34.6723 32.262 37.1927 31.18 39.7068 30.1007L39.8527 30.0381C39.0812 28.023 38.6582 25.8293 38.6582 23.5418C38.6582 22.6334 38.7249 21.7398 38.8537 20.8663C38.0969 21.2656 37.3009 21.7357 36.5341 22.2754ZM75.4844 22.2754C77.5697 23.7432 79.4496 25.9514 79.4497 28.3108L79.4498 34.0594C77.1233 32.0714 74.2453 30.8366 71.4135 29.7467C72.1159 27.8121 72.4993 25.7195 72.4993 23.5418C72.4993 22.4699 72.4064 21.4185 72.2283 20.3965C73.2411 20.8794 74.3925 21.5068 75.4844 22.2754ZM55.5788 36.9304C59.4457 36.9304 62.9532 35.0962 65.3009 32.1772C61.8281 32.8537 58.7136 33.1939 55.5743 33.1875C52.4312 33.1811 49.3135 32.8273 45.8384 32.1546C48.1862 35.0867 51.7018 36.9304 55.5788 36.9304ZM42.8582 23.5418C42.8582 24.8617 43.0381 26.1324 43.3725 27.3304C48.1162 28.4361 51.8716 28.98 55.5829 28.9875C59.2929 28.9951 63.0462 28.4668 67.7825 27.3395C68.1185 26.1389 68.2993 24.865 68.2993 23.5418C68.2993 21.8288 67.9962 20.1983 67.4457 18.7025C62.8777 17.7742 59.2094 17.3208 55.577 17.3178C51.9454 17.3148 48.2782 17.762 43.7135 18.698C43.1619 20.1951 42.8582 21.827 42.8582 23.5418ZM55.5788 10.1533C52.1959 10.1533 49.0881 11.557 46.7913 13.8627C49.8985 13.3666 52.7305 13.1154 55.5805 13.1178C58.4328 13.1202 61.2667 13.3764 64.3759 13.8724C62.0781 11.5609 58.9664 10.1533 55.5788 10.1533ZM42.538 45.8773C42.538 44.7175 41.5978 43.7773 40.438 43.7773C39.2782 43.7773 38.338 44.7175 38.338 45.8773V69.2292C37.682 68.9837 37.0934 68.7156 36.3781 68.3624C35.2317 67.7965 34.2101 67.1457 33.5025 66.445C32.799 65.7484 32.5688 65.1732 32.5688 64.6967L32.5688 58.7311C32.5688 53.6975 32.5687 48.6638 32.5688 43.6302C32.5689 39.8318 34.2548 37.9321 36.0717 36.6532C37.8224 35.4208 39.8346 34.5588 41.8209 33.7801C44.8766 38.2151 49.8722 41.1304 55.5788 41.1304C61.3971 41.1304 66.4763 38.0998 69.514 33.5178C69.925 33.6721 70.3959 33.855 70.9008 34.062C72.6091 34.7623 74.5688 35.6831 75.9469 36.6532C77.7637 37.9321 79.4496 39.8318 79.4497 43.6302V64.6967C79.4497 65.1732 79.2195 65.7484 78.516 66.445C77.8084 67.1457 76.7869 67.7965 75.6405 68.3624C74.9735 68.6917 74.3003 68.9749 73.6805 69.2106V45.8773C73.6805 44.7175 72.7403 43.7773 71.5805 43.7773C70.4207 43.7773 69.4805 44.7175 69.4805 45.8773C69.4823 50.6638 69.4852 55.4504 69.4881 60.2369L69.4897 62.9283C69.4966 74.242 69.5023 83.4959 69.4906 95.1586C69.4881 97.6153 68.6854 99.2651 67.661 100.294C66.6178 101.342 65.2169 101.877 63.7926 101.876C62.3681 101.875 60.9682 101.338 59.9273 100.289C58.5893 98.9418 58.1109 97.0137 58.1093 95.1632C58.1153 89.3302 58.1118 79.9508 58.1098 74.218L58.1093 73.0506C58.1093 69.5712 53.9092 69.6088 53.9092 73.0506L53.909 73.4263C53.9042 81.5222 53.9009 86.9847 53.9093 95.1629C53.9114 97.6115 53.1132 99.2601 52.0913 100.289C51.0504 101.338 49.6504 101.875 48.226 101.876C46.8017 101.877 45.4007 101.342 44.3576 100.294C43.3332 99.2651 42.5305 97.6153 42.528 95.1586C42.5163 83.4966 42.5219 74.2434 42.5289 62.9305L42.5305 60.2254C42.5334 55.4427 42.5363 50.66 42.538 45.8773Z" fill="#2642CF" style="fill:#2642CF;fill:color(display-p3 0.1490 0.2588 0.8118);fill-opacity:1;"/>
<path fill-rule="evenodd" clip-rule="evenodd" d="M46.5147 48.8748C46.5147 47.4057 47.7056 46.2148 49.1747 46.2148H62.8947C64.3638 46.2148 65.5547 47.4057 65.5547 48.8748V58.6748C65.5547 60.1439 64.3638 61.3348 62.8947 61.3348H49.1747C47.7056 61.3348 46.5147 60.1439 46.5147 58.6748V48.8748ZM50.7147 50.4148V57.1348H61.3547V50.4148H50.7147Z" fill="#E47789" style="fill:#E47789;fill:color(display-p3 0.8945 0.4663 0.5370);fill-opacity:1;"/>
<mask id="mask0_1_1546" style="mask-type:alpha" maskUnits="userSpaceOnUse" x="41" y="16" width="30" height="14">
<path d="M42.268 27.582C41.8918 26.2343 41.6895 24.8047 41.6895 23.3199C41.6895 21.3907 42.0311 19.5547 42.6516 17.8705C47.7869 16.8176 51.9125 16.3145 55.9981 16.3178C60.0844 16.3212 64.2113 16.8313 69.3502 17.8756C69.9696 19.5584 70.3106 21.3927 70.3106 23.3199C70.3106 24.8084 70.1072 26.2415 69.7292 27.5922C64.4008 28.8604 60.1784 29.4548 56.0046 29.4463C51.8294 29.4378 47.6047 28.8259 42.268 27.582Z" fill="url(#paint0_linear_1_1546)" style=""/>
</mask>
<g mask="url(#mask0_1_1546)">
<path d="M42.268 27.582C41.8918 26.2343 41.6895 24.8047 41.6895 23.3199C41.6895 21.3907 42.0311 19.5547 42.6516 17.8705C47.7869 16.8176 51.9125 16.3145 55.9981 16.3178C60.0844 16.3212 64.2113 16.8313 69.3502 17.8756C69.9696 19.5584 70.3106 21.3927 70.3106 23.3199C70.3106 24.8084 70.1072 26.2415 69.7292 27.5922C64.4008 28.8604 60.1784 29.4548 56.0046 29.4463C51.8294 29.4378 47.6047 28.8259 42.268 27.582Z" fill="#2642CF" style="fill:#2642CF;fill:color(display-p3 0.1490 0.2588 0.8118);fill-opacity:1;"/>
</g>
<defs>
<linearGradient id="paint0_linear_1_1546" x1="56" y1="11.7793" x2="56" y2="36.3443" gradientUnits="userSpaceOnUse">
<stop stop-opacity="0" style="stop-color:none;stop-opacity:0;"/>
<stop offset="1" style="stop-color:black;stop-opacity:1;"/>
</linearGradient>
</defs>
</svg>
