<svg width="112" height="112" viewBox="0 0 112 112" fill="none" xmlns="http://www.w3.org/2000/svg">
<path d="M31.8032 90.3608C33.1519 90.9213 34.6149 91.209 36.0684 91.2106H52.7267V86.9125H36.0574C34.2595 86.9125 32.4976 86.1808 31.228 84.9062C29.9505 83.6341 29.2185 81.866 29.2217 80.0653C29.2217 72.0531 29.2304 64.0408 29.239 56.0286C29.2477 47.9979 29.2563 39.9671 29.2563 31.9364C29.2531 30.1325 29.9851 28.3666 31.2624 27.0938C32.5319 25.8192 34.2941 25.0877 36.092 25.0877H75.9429C77.7411 25.0877 79.5027 25.8192 80.7726 27.0938C82.0499 28.3664 82.7819 30.1332 82.7786 31.9357L82.7786 60.4018H82.78L82.7806 78.7257C82.7806 79.9131 83.7411 80.8868 84.9284 80.8868C86.1157 80.8868 87.0781 79.9244 87.0781 78.737L87.0781 54.8528L87.0769 54.8529L87.0769 31.9344C87.0754 30.4809 86.7875 29.0177 86.227 27.6692C85.6682 26.3195 84.8417 25.0852 83.8118 24.0546C82.7811 23.0247 81.5469 22.1981 80.1971 21.6394C78.8484 21.0786 77.3854 20.7909 75.9319 20.7894H36.103C34.6495 20.7909 33.1865 21.0786 31.8378 21.6394C30.4881 22.1981 29.2538 23.0247 28.2232 24.0546C27.1933 25.0852 26.3667 26.3195 25.808 27.6692C25.2475 29.0174 24.9595 30.4817 24.9582 31.9334C24.9579 39.1375 24.9495 47.3313 24.941 55.543C24.9322 64.0588 24.9234 72.594 24.9236 80.0648C24.9251 81.5201 25.2129 82.982 25.7734 84.3308C26.3321 85.6805 27.1589 86.9147 28.1886 87.9456C29.2192 88.9753 30.4535 89.8021 31.8032 90.3608Z" fill="#2642CF" style="fill:#2642CF;fill:color(display-p3 0.1490 0.2588 0.8118);fill-opacity:1;"/>
<path fill-rule="evenodd" clip-rule="evenodd" d="M44.1987 56.9506C43.7552 57.3016 43.1882 57.5134 42.581 57.513H36.6741C35.9583 57.5135 35.2983 57.219 34.8306 56.7491C34.3607 56.2815 34.0663 55.6214 34.0668 54.9056V52.634C34.0663 51.918 34.3607 51.2579 34.8306 50.7902C34.9143 50.7061 35.0042 50.6277 35.0994 50.5555C35.5429 50.2044 36.11 49.9927 36.7171 49.9933H42.624C43.3398 49.9926 43.9999 50.287 44.4675 50.7569C44.9374 51.2246 45.2319 51.8846 45.2314 52.6007V54.8723C45.2319 55.5881 44.9374 56.2482 44.4675 56.7158C44.3838 56.7999 44.294 56.8784 44.1987 56.9506ZM36.7156 52.6293H42.5827L42.5854 54.874L36.7127 54.8738L36.7156 52.6293Z" fill="#2642CF" style="fill:#2642CF;fill:color(display-p3 0.1490 0.2588 0.8118);fill-opacity:1;"/>
<path fill-rule="evenodd" clip-rule="evenodd" d="M60.7728 56.7491C60.3051 57.219 59.6451 57.5135 58.9293 57.513H53.0224C52.3066 57.5135 51.6465 57.219 51.1789 56.7491C50.709 56.2815 50.4145 55.6214 50.415 54.9056V52.634C50.4145 51.918 50.709 51.2579 51.1789 50.7902C51.6465 50.3203 52.3066 50.0259 53.0224 50.0266H58.9293C59.6451 50.0259 60.3051 50.3203 60.7728 50.7902C61.2427 51.2579 61.5371 51.918 61.5366 52.634V54.9056C61.5371 55.6214 61.2427 56.2815 60.7728 56.7491ZM53.0209 52.6293L53.0179 54.9071L58.9338 54.9073L58.931 52.6293H53.0209Z" fill="#2642CF" style="fill:#2642CF;fill:color(display-p3 0.1490 0.2588 0.8118);fill-opacity:1;"/>
<path fill-rule="evenodd" clip-rule="evenodd" d="M77.1211 56.7491C76.6534 57.219 75.9934 57.5135 75.2776 57.513H69.3707C68.6549 57.5135 67.9948 57.219 67.5272 56.7491C67.0573 56.2815 66.7628 55.6214 66.7633 54.9056V52.634C66.7628 51.918 67.0573 51.2579 67.5272 50.7902C67.9948 50.3203 68.6549 50.0259 69.3707 50.0266H75.2776C75.9934 50.0259 76.6534 50.3203 77.1211 50.7902C77.591 51.2579 77.8854 51.918 77.8849 52.634V54.9056C77.8854 55.6214 77.591 56.2815 77.1211 56.7491ZM69.3692 52.6293L69.3662 54.9071L75.282 54.9073L75.2793 52.6293H69.3692Z" fill="#2642CF" style="fill:#2642CF;fill:color(display-p3 0.1490 0.2588 0.8118);fill-opacity:1;"/>
<path fill-rule="evenodd" clip-rule="evenodd" d="M44.4245 67.2222C43.9569 67.6921 43.2968 67.9865 42.581 67.986H36.6741C35.9583 67.9865 35.2983 67.6921 34.8306 67.2222C34.3607 66.7545 34.0663 66.0944 34.0668 65.3786V63.107C34.0663 62.391 34.3607 61.7309 34.8306 61.2633C35.2983 60.7934 35.9583 60.4989 36.6741 60.4997H42.581C43.2968 60.4989 43.9569 60.7934 44.4245 61.2633C44.8944 61.7309 45.1889 62.391 45.1884 63.107V65.3786C45.1889 66.0944 44.8944 66.7545 44.4245 67.2222ZM36.6726 63.1023L36.6696 65.3801L42.5855 65.3804L42.5827 63.1023H36.6726Z" fill="#2642CF" style="fill:#2642CF;fill:color(display-p3 0.1490 0.2588 0.8118);fill-opacity:1;"/>
<path fill-rule="evenodd" clip-rule="evenodd" d="M60.7728 67.2222C60.3051 67.6921 59.6451 67.9865 58.9293 67.986H53.0224C52.3066 67.9865 51.6465 67.6921 51.1789 67.2222C50.709 66.7545 50.4145 66.0944 50.415 65.3786V63.107C50.4145 62.391 50.709 61.7309 51.1789 61.2633C51.6465 60.7934 52.3066 60.4989 53.0224 60.4997H58.9293C59.6451 60.4989 60.3051 60.7934 60.7728 61.2633C61.2427 61.7309 61.5371 62.391 61.5366 63.107V65.3786C61.5371 66.0944 61.2427 66.7545 60.7728 67.2222ZM53.0209 63.1023L53.0179 65.3801L58.9338 65.3804L58.931 63.1023H53.0209Z" fill="#2642CF" style="fill:#2642CF;fill:color(display-p3 0.1490 0.2588 0.8118);fill-opacity:1;"/>
<path fill-rule="evenodd" clip-rule="evenodd" d="M77.1211 67.2222C76.6534 67.6921 75.9934 67.9865 75.2776 67.986H69.3707C68.6549 67.9865 67.9948 67.6921 67.5272 67.2222C67.0573 66.7545 66.7628 66.0944 66.7633 65.3786V63.107C66.7628 62.391 67.0573 61.7309 67.5272 61.2633C67.9948 60.7934 68.6549 60.4989 69.3707 60.4997H75.2776C75.9934 60.4989 76.6534 60.7934 77.1211 61.2633C77.591 61.7309 77.8854 62.391 77.8849 63.107V65.3786C77.8854 66.0944 77.591 66.7545 77.1211 67.2222ZM69.3692 63.1023L69.3662 65.3801L75.282 65.3804L75.2793 63.1023H69.3692Z" fill="#2642CF" style="fill:#2642CF;fill:color(display-p3 0.1490 0.2588 0.8118);fill-opacity:1;"/>
<path fill-rule="evenodd" clip-rule="evenodd" d="M44.4245 77.6952C43.9569 78.1651 43.2968 78.4595 42.581 78.459H36.6741C35.9583 78.4595 35.2983 78.1651 34.8306 77.6952C34.3607 77.2275 34.0663 76.5675 34.0668 75.8517V73.58C34.0663 72.864 34.3607 72.2039 34.8306 71.7363C35.2983 71.2664 35.9583 70.9719 36.6741 70.9727H42.581C43.2968 70.9719 43.9569 71.2664 44.4245 71.7363C44.8944 72.2039 45.1889 72.864 45.1884 73.58V75.8517C45.1889 76.5675 44.8944 77.2275 44.4245 77.6952ZM36.6726 73.5753L36.6696 75.8531L42.5855 75.8534L42.5827 73.5753H36.6726Z" fill="#2642CF" style="fill:#2642CF;fill:color(display-p3 0.1490 0.2588 0.8118);fill-opacity:1;"/>
<path fill-rule="evenodd" clip-rule="evenodd" d="M60.7728 77.6951C60.3051 78.165 59.6451 78.4595 58.9293 78.459H53.0224C52.3066 78.4595 51.6465 78.165 51.1789 77.6951C50.709 77.2275 50.4145 76.5674 50.415 75.8516V73.58C50.4145 72.8639 50.709 72.2039 51.1789 71.7362C51.6465 71.2663 52.3066 70.9719 53.0224 70.9726H58.9293C59.6451 70.9719 60.3051 71.2663 60.7728 71.7362C61.2427 72.2039 61.5371 72.8639 61.5366 73.58V75.8516C61.5371 76.5674 61.2427 77.2275 60.7728 77.6951ZM53.0209 73.5753L53.0179 75.8531L58.9338 75.8533L58.931 73.5753H53.0209Z" fill="#2642CF" style="fill:#2642CF;fill:color(display-p3 0.1490 0.2588 0.8118);fill-opacity:1;"/>
<path fill-rule="evenodd" clip-rule="evenodd" d="M77.1211 77.6951C76.6534 78.165 75.9934 78.4595 75.2776 78.459H69.3707C68.6549 78.4595 67.9948 78.165 67.5272 77.6951C67.0573 77.2275 66.7628 76.5674 66.7633 75.8516V73.58C66.7628 72.8639 67.0573 72.2039 67.5272 71.7362C67.9948 71.2663 68.6549 70.9719 69.3707 70.9726H75.2776C75.9934 70.9719 76.6534 71.2663 77.1211 71.7362C77.591 72.2039 77.8854 72.8639 77.8849 73.58V75.8516C77.8854 76.5674 77.591 77.2275 77.1211 77.6951ZM69.3692 73.5753L69.3662 75.8531L75.282 75.8533L75.2793 73.5753H69.3692Z" fill="#2642CF" style="fill:#2642CF;fill:color(display-p3 0.1490 0.2588 0.8118);fill-opacity:1;"/>
<path fill-rule="evenodd" clip-rule="evenodd" d="M74.3768 44.6594C74.9176 44.6596 75.4425 44.5486 75.9169 44.3477C76.629 44.0461 77.2293 43.5471 77.6554 42.9169C78.0815 42.2879 78.3326 41.5166 78.3319 40.704V35.0507C78.3321 34.5099 78.2211 33.9848 78.0203 33.5106C77.7186 32.7983 77.2196 32.1982 76.5894 31.7721C75.9605 31.346 75.1894 31.0949 74.3768 31.0957H37.4683C36.9275 31.0954 36.4023 31.2062 35.9282 31.4073C35.2159 31.7089 34.6158 32.2079 34.1897 32.8381C33.7633 33.4671 33.5122 34.2381 33.513 35.0507V40.704C33.5127 41.2448 33.6237 41.77 33.8246 42.2441C34.1262 42.9565 34.6252 43.5565 35.2554 43.9826C35.8844 44.409 36.6557 44.6601 37.4683 44.6594H74.3768ZM74.3768 40.8628H37.4683C37.4412 40.8626 37.425 40.8583 37.4071 40.8511C37.3809 40.8407 37.3528 40.8178 37.3354 40.7916C37.318 40.764 37.3103 40.7436 37.3095 40.704V35.0507C37.3098 35.0236 37.314 35.0074 37.3212 34.9895C37.3317 34.9634 37.3546 34.9355 37.3807 34.9181C37.4083 34.9007 37.4287 34.8927 37.4683 34.892H74.3768C74.4039 34.8922 74.4201 34.8964 74.438 34.9037C74.4639 34.9144 74.492 34.937 74.5094 34.9634C74.5269 34.991 74.5348 35.0114 74.5356 35.0507V40.704C74.5353 40.7311 74.5311 40.7473 74.5239 40.7652C74.5132 40.7914 74.4905 40.8195 74.4641 40.8369C74.4365 40.8541 74.4161 40.8621 74.3768 40.8628Z" fill="#2642CF" style="fill:#2642CF;fill:color(display-p3 0.1490 0.2588 0.8118);fill-opacity:1;"/>
<path fill-rule="evenodd" clip-rule="evenodd" d="M74.3768 44.6594C74.9176 44.6597 75.4425 44.5486 75.9169 44.3478C76.629 44.0461 77.2293 43.5471 77.6554 42.9169C78.0815 42.288 78.3326 41.5167 78.3319 40.7041V35.0508C78.3321 34.51 78.2211 33.9848 78.0202 33.5107C77.7186 32.7984 77.2196 32.1983 76.5894 31.7722C75.9604 31.3461 75.1894 31.095 74.3768 31.0957H37.4683C36.9274 31.0955 36.4023 31.2062 35.9282 31.4073C35.2158 31.709 34.6158 32.208 34.1897 32.8382C33.7633 33.4671 33.5122 34.2382 33.5129 35.0508V40.7041C33.5127 41.2449 33.6237 41.7701 33.8246 42.2442C34.1262 42.9565 34.6252 43.5566 35.2554 43.9827C35.8844 44.409 36.6557 44.6602 37.4683 44.6594H74.3768ZM74.3768 40.8629H37.4683C37.4412 40.8626 37.425 40.8584 37.4071 40.8512C37.3809 40.8407 37.3528 40.8178 37.3354 40.7917C37.318 40.764 37.3102 40.7436 37.3095 40.7041V35.0508C37.3097 35.0237 37.314 35.0075 37.3212 34.9896C37.3316 34.9634 37.3545 34.9356 37.3807 34.9181C37.4083 34.9007 37.4287 34.8928 37.4683 34.892H74.3768C74.4039 34.8923 74.4201 34.8965 74.438 34.9037C74.4639 34.9144 74.492 34.9371 74.5094 34.9634C74.5268 34.9911 74.5348 35.0115 74.5356 35.0508V40.7041C74.5353 40.7312 74.5311 40.7474 74.5239 40.7653C74.5132 40.7914 74.4905 40.8195 74.4641 40.837C74.4365 40.8541 74.4161 40.8621 74.3768 40.8629Z" fill="#E47789" style="fill:#E47789;fill:color(display-p3 0.8945 0.4663 0.5370);fill-opacity:1;"/>
<mask id="mask0_1_1431" style="mask-type:alpha" maskUnits="userSpaceOnUse" x="45" y="83" width="41" height="12">
<rect x="45.3599" y="83.7441" width="39.9467" height="10.5225" fill="url(#paint0_linear_1_1431)" style=""/>
</mask>
<g mask="url(#mask0_1_1431)">
<path d="M79.6061 86.9125H36.4305L36.4414 91.2106H79.6061C80.8865 91.2106 81.7681 89.9008 81.7681 89.0615C81.7681 88.2223 80.8865 86.9125 79.6061 86.9125Z" fill="#2642CF" style="fill:#2642CF;fill:color(display-p3 0.1490 0.2588 0.8118);fill-opacity:1;"/>
</g>
<defs>
<linearGradient id="paint0_linear_1_1431" x1="82.3836" y1="89.789" x2="57.3763" y2="89.789" gradientUnits="userSpaceOnUse">
<stop stop-opacity="0" style="stop-color:none;stop-opacity:0;"/>
<stop offset="1" style="stop-color:black;stop-opacity:1;"/>
</linearGradient>
</defs>
</svg>
