<svg width="112" height="112" viewBox="0 0 112 112" fill="none" xmlns="http://www.w3.org/2000/svg">
<path fill-rule="evenodd" clip-rule="evenodd" d="M47.2452 60.0477H65.3461C65.8982 60.0477 66.438 60.2714 66.8285 60.662C67.2188 61.0522 67.4425 61.5923 67.4425 62.1443V80.2453C67.4425 80.7973 67.2188 81.3374 66.8285 81.7277C66.438 82.1182 65.8982 82.3417 65.3461 82.3417H47.2452C46.6929 82.3417 46.1531 82.1182 45.7626 81.7277C45.3723 81.3374 45.1486 80.7973 45.1486 80.2453V62.1443C45.1486 61.5923 45.3723 61.0522 45.7626 60.662C46.1531 60.2714 46.6929 60.0477 47.2452 60.0477ZM63.2495 64.2407H49.3416V78.1489H63.2495V64.2407Z" fill="#2642CF" style="fill:#2642CF;fill:color(display-p3 0.1490 0.2588 0.8118);fill-opacity:1;"/>
<path fill-rule="evenodd" clip-rule="evenodd" d="M81.4854 45.2468C81.4856 43.5285 81.1359 41.8808 80.5032 40.3857C79.5537 38.1423 77.9733 36.24 75.9817 34.894C73.9913 33.548 71.5776 32.7595 68.9988 32.7603C67.2805 32.76 65.6329 33.1097 64.1378 33.7424C61.8943 34.6919 59.9921 36.2723 58.6461 38.264C57.3001 40.2543 56.5116 42.668 56.5123 45.2468C56.5121 46.9651 56.8618 48.6128 57.4945 50.1078C58.4437 52.3513 60.0244 54.2536 62.016 55.5996C64.0064 56.9456 66.4201 57.734 68.9988 57.7333C70.7169 57.7335 72.3648 57.3839 73.8596 56.7512C76.1031 55.8017 78.0056 54.2212 79.3516 52.2296C80.6976 50.2392 81.4861 47.8255 81.4854 45.2468ZM77.2923 45.2468C77.2918 46.3976 77.0601 47.4833 76.6412 48.4744C76.0135 49.96 74.959 51.2306 73.6342 52.1251C72.3081 53.0196 70.7236 53.5393 68.9988 53.5403C67.848 53.54 66.7623 53.308 65.7713 52.8894C64.2856 52.2615 63.0151 51.2069 62.1206 49.8823C61.226 48.556 60.7061 46.9716 60.7054 45.2468C60.7056 44.0959 60.9373 43.0103 61.3562 42.0192C61.9842 40.5336 63.0385 39.263 64.3633 38.3685C65.6896 37.474 67.2738 36.9543 68.9988 36.9533C70.1497 36.9536 71.2354 37.1855 72.2264 37.6042C73.7121 38.2321 74.9824 39.2866 75.8771 40.6112C76.7717 41.9376 77.2913 43.522 77.2923 45.2468Z" fill="#2642CF" style="fill:#2642CF;fill:color(display-p3 0.1490 0.2588 0.8118);fill-opacity:1;"/>
<path fill-rule="evenodd" clip-rule="evenodd" d="M27.1475 53.6966L38.115 34.7007C38.4893 34.0518 39.1815 33.6524 39.9304 33.6524C40.6795 33.6524 41.3717 34.0518 41.746 34.7007L52.7136 53.6966C53.0879 54.3452 53.0879 55.1444 52.7136 55.793C52.339 56.4419 51.6468 56.8413 50.8979 56.8413H28.9631C28.2142 56.8413 27.522 56.4419 27.1475 55.793C26.7729 55.1444 26.7729 54.3452 27.1475 53.6966ZM39.9305 39.9417L47.2666 52.6483H32.5944L39.9305 39.9417Z" fill="#2642CF" style="fill:#2642CF;fill:color(display-p3 0.1490 0.2588 0.8118);fill-opacity:1;"/>
<path fill-rule="evenodd" clip-rule="evenodd" d="M47.2452 60.0477H65.3461C65.8982 60.0477 66.438 60.2714 66.8285 60.662C67.2188 61.0522 67.4425 61.5923 67.4425 62.1443V80.2453C67.4425 80.7973 67.2188 81.3374 66.8285 81.7277C66.438 82.1182 65.8982 82.3417 65.3461 82.3417H47.2452C46.6929 82.3417 46.1531 82.1182 45.7626 81.7277C45.3723 81.3374 45.1486 80.7973 45.1486 80.2453V62.1443C45.1486 61.5923 45.3723 61.0522 45.7626 60.662C46.1531 60.2714 46.6929 60.0477 47.2452 60.0477ZM63.2495 64.2407H49.3416V78.1489H63.2495V64.2407Z" fill="#2642CF" style="fill:#2642CF;fill:color(display-p3 0.1490 0.2588 0.8118);fill-opacity:1;"/>
<path fill-rule="evenodd" clip-rule="evenodd" d="M81.4854 45.2468C81.4856 43.5285 81.1359 41.8808 80.5032 40.3857C79.5537 38.1423 77.9733 36.24 75.9817 34.894C73.9913 33.548 71.5776 32.7595 68.9988 32.7603C67.2805 32.76 65.6329 33.1097 64.1378 33.7424C61.8943 34.6919 59.9921 36.2723 58.6461 38.264C57.3001 40.2543 56.5116 42.668 56.5123 45.2468C56.5121 46.9651 56.8618 48.6128 57.4945 50.1078C58.4437 52.3513 60.0244 54.2536 62.016 55.5996C64.0064 56.9456 66.4201 57.734 68.9988 57.7333C70.7169 57.7335 72.3648 57.3839 73.8596 56.7512C76.1031 55.8017 78.0056 54.2212 79.3516 52.2296C80.6976 50.2392 81.4861 47.8255 81.4854 45.2468ZM77.2923 45.2468C77.2918 46.3976 77.0601 47.4833 76.6412 48.4744C76.0135 49.96 74.959 51.2306 73.6342 52.1251C72.3081 53.0196 70.7236 53.5393 68.9988 53.5403C67.848 53.54 66.7623 53.308 65.7713 52.8894C64.2856 52.2615 63.0151 51.2069 62.1206 49.8823C61.226 48.556 60.7061 46.9716 60.7054 45.2468C60.7056 44.0959 60.9373 43.0103 61.3562 42.0192C61.9842 40.5336 63.0385 39.263 64.3633 38.3685C65.6896 37.474 67.2738 36.9543 68.9988 36.9533C70.1497 36.9536 71.2354 37.1855 72.2264 37.6042C73.7121 38.2321 74.9824 39.2866 75.8771 40.6112C76.7717 41.9376 77.2913 43.522 77.2923 45.2468Z" fill="#2642CF" style="fill:#2642CF;fill:color(display-p3 0.1490 0.2588 0.8118);fill-opacity:1;"/>
<path fill-rule="evenodd" clip-rule="evenodd" d="M27.1475 53.6966L38.115 34.7007C38.4893 34.0518 39.1815 33.6524 39.9304 33.6524C40.6795 33.6524 41.3717 34.0518 41.746 34.7007L52.7136 53.6966C53.0879 54.3452 53.0879 55.1444 52.7136 55.793C52.339 56.4419 51.6468 56.8413 50.8979 56.8413H28.9631C28.2142 56.8413 27.522 56.4419 27.1475 55.793C26.7729 55.1444 26.7729 54.3452 27.1475 53.6966ZM39.9305 39.9417L47.2666 52.6483H32.5944L39.9305 39.9417Z" fill="#2642CF" style="fill:#2642CF;fill:color(display-p3 0.1490 0.2588 0.8118);fill-opacity:1;"/>
<path d="M33.1459 78.4073C36.277 81.5266 40.0357 84.0073 44.1428 85.6243L42.6084 89.5266C37.9644 87.6998 33.7084 84.8891 30.1807 81.3718C26.809 77.9983 24.0937 73.9554 22.271 69.5394C20.442 65.1263 19.4989 60.3539 19.4987 55.5807C19.4989 50.8072 20.442 46.0348 22.271 41.6217C24.0937 37.2059 26.8127 33.159 30.1844 29.7856C33.5578 26.4139 37.601 23.6985 42.0168 21.8759C46.4299 20.0466 51.2026 19.1038 55.9758 19.1035C60.749 19.1038 65.5216 20.0466 69.9347 21.8759C74.3505 23.6985 78.3974 26.4176 81.7708 29.7893C85.0905 33.1122 87.7691 37.0852 89.5969 41.4194C91.4287 45.7535 92.3797 50.4453 92.4504 55.1431C92.483 58.7134 92.0032 62.287 91.0208 65.7219C90.0178 69.1493 88.3931 72.6592 86.4418 75.6533C85.824 76.6322 84.5298 76.9254 83.5507 76.3076C82.5716 75.6901 82.3251 74.322 82.9426 73.3429C84.6687 70.6952 86.1028 67.5918 86.992 64.5598C87.8604 61.5204 88.2853 58.3555 88.2577 55.1931C88.1932 51.032 87.3527 46.878 85.7322 43.0456C84.1144 39.2132 81.7467 35.6994 78.8024 32.7506C75.8085 29.7599 72.2369 27.3629 68.3318 25.7501C64.4295 24.1328 60.2039 23.297 55.9758 23.2966C51.7476 23.297 47.522 24.1328 43.6197 25.7501C39.7146 27.3629 36.1398 29.7634 33.1459 32.7541C30.1553 35.7477 27.7582 39.3195 26.1454 43.2246C24.5281 47.1267 23.6921 51.3525 23.6918 55.5807C23.6921 59.8088 24.5281 64.0344 26.1454 67.9365C27.7582 71.8416 30.1553 75.4134 33.1459 78.4073Z" fill="#2642CF" style="fill:#2642CF;fill:color(display-p3 0.1490 0.2588 0.8118);fill-opacity:1;"/>
<path fill-rule="evenodd" clip-rule="evenodd" d="M47.2451 60.0477H65.346C65.898 60.0477 66.4379 60.2714 66.8284 60.6619C67.2186 61.0522 67.4424 61.5923 67.4424 62.1443V80.2453C67.4424 80.7973 67.2186 81.3374 66.8284 81.7276C66.4379 82.1181 65.898 82.3416 65.346 82.3416H47.2451C46.6928 82.3416 46.1529 82.1181 45.7624 81.7276C45.3722 81.3374 45.1484 80.7973 45.1484 80.2453V62.1443C45.1484 61.5923 45.3722 61.0522 45.7624 60.6619C46.1529 60.2714 46.6928 60.0477 47.2451 60.0477ZM63.2494 64.2407H49.3415V78.1489H63.2494V64.2407Z" fill="#E47789" style="fill:#E47789;fill:color(display-p3 0.8945 0.4663 0.5370);fill-opacity:1;"/>
<path fill-rule="evenodd" clip-rule="evenodd" d="M81.4852 45.2468C81.4855 43.5284 81.1358 41.8808 80.5031 40.3857C79.5536 38.1422 77.9732 36.24 75.9815 34.894C73.9912 33.548 71.5775 32.7595 68.9987 32.7603C67.2804 32.76 65.6327 33.1097 64.1377 33.7424C61.8942 34.6919 59.9919 36.2723 58.6459 38.2639C57.2999 40.2543 56.5115 42.668 56.5122 45.2468C56.512 46.9651 56.8617 48.6127 57.4943 50.1078C58.4436 52.3513 60.0243 54.2536 62.0159 55.5996C64.0063 56.9455 66.42 57.734 68.9987 57.7333C70.7168 57.7335 72.3647 57.3838 73.8595 56.7512C76.103 55.8016 78.0055 54.2212 79.3515 52.2296C80.6975 50.2392 81.486 47.8255 81.4852 45.2468ZM77.2922 45.2468C77.2917 46.3976 77.06 47.4833 76.6411 48.4743C76.0134 49.96 74.9589 51.2306 73.634 52.1251C72.3079 53.0196 70.7235 53.5392 68.9987 53.5402C67.8479 53.54 66.7622 53.308 65.7711 52.8894C64.2855 52.2615 63.0149 51.2069 62.1204 49.8823C61.2259 48.556 60.706 46.9716 60.7052 45.2468C60.7055 44.0959 60.9372 43.0102 61.3561 42.0192C61.984 40.5336 63.0383 39.263 64.3632 38.3685C65.6895 37.474 67.2737 36.9543 68.9987 36.9533C70.1496 36.9535 71.2352 37.1855 72.2263 37.6041C73.7119 38.2321 74.9823 39.2866 75.877 40.6112C76.7715 41.9375 77.2912 43.522 77.2922 45.2468Z" fill="#E47789" style="fill:#E47789;fill:color(display-p3 0.8945 0.4663 0.5370);fill-opacity:1;"/>
<path fill-rule="evenodd" clip-rule="evenodd" d="M27.1473 53.6966L38.1149 34.7007C38.4892 34.0518 39.1814 33.6523 39.9303 33.6523C40.6794 33.6523 41.3716 34.0518 41.7459 34.7007L52.7135 53.6966C53.0878 54.3452 53.0878 55.1444 52.7135 55.793C52.3389 56.4419 51.6467 56.8413 50.8978 56.8413H28.963C28.2141 56.8413 27.5219 56.4419 27.1473 55.793C26.7727 55.1444 26.7727 54.3452 27.1473 53.6966ZM39.9304 39.9416L47.2665 52.6483H32.5943L39.9304 39.9416Z" fill="#E47789" style="fill:#E47789;fill:color(display-p3 0.8945 0.4663 0.5370);fill-opacity:1;"/>
<path fill-rule="evenodd" clip-rule="evenodd" d="M47.2451 60.0477H65.346C65.898 60.0477 66.4379 60.2714 66.8284 60.6619C67.2186 61.0522 67.4424 61.5923 67.4424 62.1443V80.2453C67.4424 80.7973 67.2186 81.3374 66.8284 81.7276C66.4379 82.1181 65.898 82.3416 65.346 82.3416H47.2451C46.6928 82.3416 46.1529 82.1181 45.7624 81.7276C45.3722 81.3374 45.1484 80.7973 45.1484 80.2453V62.1443C45.1484 61.5923 45.3722 61.0522 45.7624 60.6619C46.1529 60.2714 46.6928 60.0477 47.2451 60.0477ZM63.2494 64.2407H49.3415V78.1489H63.2494V64.2407Z" fill="#E47789" style="fill:#E47789;fill:color(display-p3 0.8945 0.4663 0.5370);fill-opacity:1;"/>
<path fill-rule="evenodd" clip-rule="evenodd" d="M81.4852 45.2468C81.4855 43.5284 81.1358 41.8808 80.5031 40.3857C79.5536 38.1422 77.9732 36.24 75.9815 34.894C73.9912 33.548 71.5775 32.7595 68.9987 32.7603C67.2804 32.76 65.6327 33.1097 64.1377 33.7424C61.8942 34.6919 59.9919 36.2723 58.6459 38.2639C57.2999 40.2543 56.5115 42.668 56.5122 45.2468C56.512 46.9651 56.8617 48.6127 57.4943 50.1078C58.4436 52.3513 60.0243 54.2536 62.0159 55.5996C64.0063 56.9455 66.42 57.734 68.9987 57.7333C70.7168 57.7335 72.3647 57.3838 73.8595 56.7512C76.103 55.8016 78.0055 54.2212 79.3515 52.2296C80.6975 50.2392 81.486 47.8255 81.4852 45.2468ZM77.2922 45.2468C77.2917 46.3976 77.06 47.4833 76.6411 48.4743C76.0134 49.96 74.9589 51.2306 73.634 52.1251C72.3079 53.0196 70.7235 53.5392 68.9987 53.5402C67.8479 53.54 66.7622 53.308 65.7711 52.8894C64.2855 52.2615 63.0149 51.2069 62.1204 49.8823C61.2259 48.556 60.706 46.9716 60.7052 45.2468C60.7055 44.0959 60.9372 43.0102 61.3561 42.0192C61.984 40.5336 63.0383 39.263 64.3632 38.3685C65.6895 37.474 67.2737 36.9543 68.9987 36.9533C70.1496 36.9535 71.2352 37.1855 72.2263 37.6041C73.7119 38.2321 74.9823 39.2866 75.877 40.6112C76.7715 41.9375 77.2912 43.522 77.2922 45.2468Z" fill="#E47789" style="fill:#E47789;fill:color(display-p3 0.8945 0.4663 0.5370);fill-opacity:1;"/>
<path fill-rule="evenodd" clip-rule="evenodd" d="M27.1473 53.6966L38.1149 34.7007C38.4892 34.0518 39.1814 33.6523 39.9303 33.6523C40.6794 33.6523 41.3716 34.0518 41.7459 34.7007L52.7135 53.6966C53.0878 54.3452 53.0878 55.1444 52.7135 55.793C52.3389 56.4419 51.6467 56.8413 50.8978 56.8413H28.963C28.2141 56.8413 27.5219 56.4419 27.1473 55.793C26.7727 55.1444 26.7727 54.3452 27.1473 53.6966ZM39.9304 39.9416L47.2665 52.6483H32.5943L39.9304 39.9416Z" fill="#E47789" style="fill:#E47789;fill:color(display-p3 0.8945 0.4663 0.5370);fill-opacity:1;"/>
<mask id="mask0_1_1477" style="mask-type:alpha" maskUnits="userSpaceOnUse" x="37" y="67" width="47" height="39">
<path d="M37.1657 85.9722L46.9956 105.672L83.4022 87.3448L73.6365 67.7738L37.1657 85.9722Z" fill="url(#paint0_linear_1_1477)" style=""/>
</mask>
<g mask="url(#mask0_1_1477)">
<path d="M42.6084 89.5266C46.8778 91.1997 50.7026 92.0654 56.0404 92.0568C60.514 92.0496 63.8306 91.3878 67.3516 90.2462C70.8637 89.0811 74.3507 87.3011 77.3557 85.1392C78.3072 84.4802 78.6111 83.1279 77.9521 82.1764C77.293 81.2249 75.9087 81.042 74.9572 81.7011C72.2986 83.6138 69.1536 85.2286 66.0472 86.2612C62.9319 87.2702 59.9989 87.8568 56.0416 87.8641C51.3132 87.8729 47.9216 87.1044 44.1428 85.6243C40.0356 84.0073 36.2769 81.5266 33.1459 78.4073C30.1552 75.4134 27.7582 71.8416 26.1454 67.9365L22.2709 69.5394C24.0936 73.9554 26.8089 77.9984 30.1806 81.3718C33.7083 84.8891 37.9643 87.6998 42.6084 89.5266Z" fill="#2642CF" style="fill:#2642CF;fill:color(display-p3 0.1490 0.2588 0.8118);fill-opacity:1;"/>
</g>
<defs>
<linearGradient id="paint0_linear_1_1477" x1="76.6149" y1="80.4223" x2="53.7835" y2="91.8148" gradientUnits="userSpaceOnUse">
<stop stop-opacity="0" style="stop-color:none;stop-opacity:0;"/>
<stop offset="1" style="stop-color:black;stop-opacity:1;"/>
</linearGradient>
</defs>
</svg>
