<svg width="112" height="112" viewBox="0 0 112 112" fill="none" xmlns="http://www.w3.org/2000/svg">
<path fill-rule="evenodd" clip-rule="evenodd" d="M56.3534 29.9612C50.9199 29.9612 46.5152 34.3659 46.5152 39.7994C46.5152 45.2329 50.9199 49.6376 56.3534 49.6376C61.7869 49.6376 66.1916 45.2329 66.1916 39.7994C66.1916 34.3659 61.7869 29.9612 56.3534 29.9612ZM50.9952 39.7994C50.9952 36.8401 53.3941 34.4412 56.3534 34.4412C59.3126 34.4412 61.7116 36.8401 61.7116 39.7994C61.7116 42.7586 59.3126 45.1576 56.3534 45.1576C53.3941 45.1576 50.9952 42.7586 50.9952 39.7994Z" fill="#2642CF" style="fill:#2642CF;fill:color(display-p3 0.1490 0.2588 0.8118);fill-opacity:1;"/>
<path fill-rule="evenodd" clip-rule="evenodd" d="M41.3601 71.688L52.8235 74.3116C52.3911 73.9789 51.9079 73.5992 51.3836 73.1755C49.189 71.4016 46.2574 68.8399 43.3185 65.6909C42.6356 64.9593 41.947 64.1902 41.2633 63.3864H30.379C29.2205 63.3864 28.1817 64.0998 27.7657 65.181L20.5162 84.0238C19.8106 85.8578 21.1644 87.8292 23.1295 87.8292H65.3134V92.3092H23.1295C18.0202 92.3092 14.5004 87.1836 16.335 82.4151L23.5845 63.5723C24.666 60.7612 27.367 58.9064 30.379 58.9064H37.8088C34.1694 53.6459 31.3188 47.4013 31.3188 40.7029C31.3188 33.9829 33.9483 27.5315 38.6394 22.7697C43.3317 18.0067 49.7029 15.3247 56.3534 15.3247C63.0039 15.3247 69.3751 18.0067 74.0673 22.7697C78.7584 27.5315 81.388 33.9829 81.388 40.7029C81.388 47.4013 78.5374 53.6459 74.898 58.9064H82.3279C85.3399 58.9064 88.0409 60.7612 89.1224 63.5723C89.1224 63.5723 95.7871 80.8868 96.3719 82.4151C97.5254 85.4297 93.3183 86.9743 92.1907 84.0238C91.4766 82.1552 84.9412 65.181 84.9412 65.181C84.5252 64.0998 83.4864 63.3864 82.3279 63.3864H71.4434C70.7598 64.1902 70.0711 64.9593 69.3883 65.6909C66.4493 68.8399 63.5177 71.4016 61.3231 73.1755C59.9503 74.2852 58.8594 75.0917 58.2241 75.5477L70.1087 78.2677L77.4487 67.5609C78.1482 66.5406 79.5424 66.2805 80.5628 66.98C81.5831 67.6795 81.8432 69.0737 81.1437 70.0941L73.3955 81.3963C72.6018 82.554 71.1811 83.109 69.8128 82.7959L40.8232 76.1609L29.4065 84.2435C28.3968 84.9583 26.9988 84.7193 26.284 83.7096C25.5691 82.6999 25.8082 81.3019 26.8179 80.5871L38.6218 72.2303C39.4159 71.6682 40.4118 71.4709 41.3601 71.688ZM41.8309 25.9138C45.6883 21.9982 50.9129 19.8047 56.3534 19.8047C61.7939 19.8047 67.0185 21.9982 70.8759 25.9138C74.7344 29.8305 76.908 35.1497 76.908 40.7029C76.908 48.8133 71.7201 56.6265 66.1131 62.6342C63.3534 65.5911 60.5863 68.0106 58.5069 69.6913C57.6541 70.3806 56.92 70.9433 56.3534 71.3654C55.7867 70.9433 55.0526 70.3806 54.1998 69.6913C52.1204 68.0106 49.3534 65.5911 46.5937 62.6342C40.9867 56.6265 35.7988 48.8133 35.7988 40.7029C35.7988 35.1497 37.9724 29.8305 41.8309 25.9138Z" fill="#2642CF" style="fill:#2642CF;fill:color(display-p3 0.1490 0.2588 0.8118);fill-opacity:1;"/>
<path fill-rule="evenodd" clip-rule="evenodd" d="M56.3533 29.9609C50.9198 29.9609 46.5151 34.3657 46.5151 39.7991C46.5151 45.2326 50.9198 49.6373 56.3533 49.6373C61.7868 49.6373 66.1915 45.2326 66.1915 39.7991C66.1915 34.3657 61.7868 29.9609 56.3533 29.9609ZM50.9951 39.7991C50.9951 36.8399 53.3941 34.4409 56.3533 34.4409C59.3126 34.4409 61.7115 36.8399 61.7115 39.7991C61.7115 42.7584 59.3126 45.1573 56.3533 45.1573C53.3941 45.1573 50.9951 42.7584 50.9951 39.7991Z" fill="#E47789" style="fill:#E47789;fill:color(display-p3 0.8945 0.4663 0.5370);fill-opacity:1;"/>
<mask id="mask0_1_1576" style="mask-type:alpha" maskUnits="userSpaceOnUse" x="53" y="87" width="41" height="6">
<rect x="53.613" y="87.6614" width="39.9467" height="4.755" fill="url(#paint0_linear_1_1576)" style=""/>
</mask>
<g mask="url(#mask0_1_1576)">
<path d="M91.0642 90.0606C91.0642 91.2977 90.0445 92.3006 88.7864 92.3006L44.5962 92.3005L44.5974 87.8206L88.7864 87.8206C90.0445 87.8206 91.0642 88.8234 91.0642 90.0606Z" fill="#2642CF" style="fill:#2642CF;fill:color(display-p3 0.1490 0.2588 0.8118);fill-opacity:1;"/>
</g>
<defs>
<linearGradient id="paint0_linear_1_1576" x1="90.6368" y1="90.393" x2="65.6295" y2="90.393" gradientUnits="userSpaceOnUse">
<stop stop-opacity="0" style="stop-color:none;stop-opacity:0;"/>
<stop offset="1" style="stop-color:black;stop-opacity:1;"/>
</linearGradient>
</defs>
</svg>
