<svg width="112" height="112" viewBox="0 0 112 112" fill="none" xmlns="http://www.w3.org/2000/svg">
<path d="M44.1677 85.8092C40.0606 84.1922 36.3019 81.7115 33.1708 78.5922C30.1802 75.5983 27.7831 72.0265 26.1703 68.1214C24.553 64.2194 23.717 59.9937 23.7167 55.7656C23.717 51.5375 24.553 47.3116 26.1703 43.4095C27.7831 39.5045 30.1802 35.9327 33.1708 32.939C36.1647 29.9484 39.7395 27.5478 43.6446 25.935C47.5469 24.3178 51.7725 23.482 56.0007 23.4815C60.2288 23.482 64.4544 24.3178 68.3568 25.935C72.2618 27.5478 75.8334 29.9449 78.8273 32.9355C81.7716 35.8844 84.1393 39.3982 85.7571 43.2306C87.3776 47.063 88.2181 51.2169 88.2826 55.3781C88.3102 58.5405 87.8853 61.7053 87.0169 64.7448C86.1277 67.7767 84.6936 70.8801 82.9675 73.5278C82.35 74.5069 82.5965 75.8751 83.5756 76.4926C84.5547 77.1103 85.8489 76.8171 86.4667 75.8382C88.418 72.8441 90.0427 69.3343 91.0457 65.9068C92.0281 62.4719 92.5079 58.8984 92.4753 55.3281C92.4046 50.6303 91.4536 45.9385 89.6218 41.6043C87.794 37.2702 85.1154 33.2972 81.7957 29.9743C78.4223 26.6026 74.3754 23.8834 69.9596 22.0608C65.5466 20.2315 60.7739 19.2887 56.0007 19.2885C51.2275 19.2887 46.4548 20.2315 42.0417 22.0608C37.6259 23.8834 33.5827 26.5988 30.2093 29.9705C26.8376 33.344 24.1186 37.3909 22.2959 41.8067C20.4669 46.2197 19.5238 50.9922 19.5236 55.7656C19.5238 60.5388 20.4669 65.3112 22.2959 69.7243C24.1186 74.1403 26.8339 78.1833 30.2056 81.5567C33.7333 85.074 37.9893 87.8847 42.6333 89.7115L44.1677 85.8092Z" fill="#2642CF" style="fill:#2642CF;fill:color(display-p3 0.1490 0.2588 0.8118);fill-opacity:1;"/>
<path fill-rule="evenodd" clip-rule="evenodd" d="M70.844 52.2605C69.7561 52.721 68.5565 52.9756 67.3068 52.9753C65.4314 52.9761 63.6735 52.4019 62.2255 51.4225C60.7764 50.4432 59.6268 49.0596 58.9357 47.4266C58.4752 46.3387 58.2206 45.1388 58.2208 43.8894C58.2201 42.0138 58.7943 40.2561 59.7737 38.8081C60.753 37.3591 62.1369 36.2095 63.7696 35.5183C64.8577 35.0578 66.0574 34.8032 67.3068 34.8035C69.1824 34.8027 70.9403 35.3769 72.3881 36.3563C73.8371 37.3357 74.9867 38.7192 75.6779 40.3522C76.1384 41.4403 76.393 42.64 76.3927 43.8894C76.3935 45.765 75.8193 47.5227 74.8399 48.9707C73.8605 50.4198 72.477 51.5696 70.844 52.2605ZM65.177 48.9329C65.8309 49.2092 66.5462 49.362 67.3068 49.3622C68.4467 49.3615 69.4898 49.019 70.3654 48.4286C71.2397 47.8383 71.9364 46.999 72.3503 46.0192C72.6265 45.3653 72.7794 44.65 72.7796 43.8894C72.7789 42.7497 72.4364 41.7064 71.846 40.8308C71.2556 39.9565 70.4164 39.2601 69.4365 38.8459C68.7827 38.5699 68.0674 38.4168 67.3068 38.4166C66.1671 38.4173 65.1238 38.7598 64.2482 39.3502C63.3738 39.9408 62.6774 40.78 62.2633 41.7597C61.987 42.4135 61.8342 43.1288 61.834 43.8894C61.8347 45.0291 62.1774 46.0724 62.7675 46.948C63.3579 47.8224 64.1974 48.5187 65.177 48.9329Z" fill="#2642CF" style="fill:#2642CF;fill:color(display-p3 0.1490 0.2588 0.8118);fill-opacity:1;"/>
<path fill-rule="evenodd" clip-rule="evenodd" d="M54.1846 50.6945V37.0842C54.1846 36.6084 53.9917 36.1432 53.6555 35.8067C53.319 35.4705 52.8538 35.2776 52.3782 35.2776H38.7677C38.2918 35.2776 37.8266 35.4705 37.4901 35.8067C37.1539 36.1432 36.961 36.6084 36.961 37.0842V50.6945C36.961 51.1704 37.1539 51.6355 37.4901 51.972C37.8266 52.3085 38.2918 52.5012 38.7677 52.5012H52.3782C52.8538 52.5012 53.319 52.3083 53.6555 51.972C53.9917 51.6355 54.1846 51.1704 54.1846 50.6945ZM50.5712 38.8907L50.5714 48.8881H40.5741V38.8907H50.5712Z" fill="#2642CF" style="fill:#2642CF;fill:color(display-p3 0.1490 0.2588 0.8118);fill-opacity:1;"/>
<path fill-rule="evenodd" clip-rule="evenodd" d="M66.245 55.9961L58.1984 61.8425C57.5672 62.301 57.3009 63.1203 57.5421 63.8622L60.6156 73.3215C60.8566 74.0637 61.5534 74.5699 62.334 74.5699H72.2798C73.0601 74.5699 73.757 74.0634 73.9979 73.3215L77.0714 63.8622C77.3126 63.1203 77.0463 62.301 76.4153 61.8425L68.3688 55.9961C67.7373 55.5377 66.8762 55.5377 66.245 55.9961ZM61.3839 63.9941L67.3069 59.6908L73.2296 63.9941L70.9674 70.9568H63.6461L61.3839 63.9941Z" fill="#2642CF" style="fill:#2642CF;fill:color(display-p3 0.1490 0.2588 0.8118);fill-opacity:1;"/>
<path fill-rule="evenodd" clip-rule="evenodd" d="M35.8298 71.86L44.0083 57.6945C44.3311 57.1355 44.9274 56.7911 45.5728 56.7911C46.2182 56.7911 46.8145 57.1355 47.1373 57.6945L55.3158 71.86C55.6386 72.4188 55.6386 73.1075 55.3161 73.6665C54.9932 74.2255 54.3967 74.5699 53.7515 74.5699H37.3943C36.7489 74.5699 36.1526 74.2255 35.8298 73.6665C35.507 73.1077 35.507 72.419 35.8298 71.86ZM45.5728 62.2108L40.5233 70.9568H50.6223L45.5728 62.2108Z" fill="#2642CF" style="fill:#2642CF;fill:color(display-p3 0.1490 0.2588 0.8118);fill-opacity:1;"/>
<path fill-rule="evenodd" clip-rule="evenodd" d="M54.1846 50.6945V37.0843C54.1846 36.6084 53.9917 36.1432 53.6555 35.8067C53.319 35.4705 52.8538 35.2776 52.3782 35.2776H38.7677C38.2918 35.2776 37.8266 35.4705 37.4901 35.8067C37.1539 36.1432 36.961 36.6084 36.961 37.0843V50.6945C36.961 51.1704 37.1539 51.6356 37.4901 51.9721C37.8266 52.3086 38.2918 52.5012 38.7677 52.5012H52.3782C52.8538 52.5012 53.319 52.3083 53.6555 51.9721C53.9917 51.6356 54.1846 51.1704 54.1846 50.6945ZM50.5712 38.8907L50.5714 48.8881H40.5741V38.8907H50.5712Z" fill="#E47789" style="fill:#E47789;fill:color(display-p3 0.8945 0.4663 0.5370);fill-opacity:1;"/>
<path fill-rule="evenodd" clip-rule="evenodd" d="M66.245 55.9961L58.1984 61.8425C57.5672 62.301 57.3009 63.1203 57.5421 63.8623L60.6156 73.3215C60.8566 74.0637 61.5534 74.57 62.334 74.57H72.2798C73.0601 74.57 73.757 74.0635 73.9979 73.3215L77.0714 63.8623C77.3126 63.1203 77.0463 62.301 76.4153 61.8425L68.3688 55.9961C67.7373 55.5377 66.8762 55.5377 66.245 55.9961ZM61.3839 63.9942L67.3069 59.6909L73.2296 63.9942L70.9674 70.9568H63.6461L61.3839 63.9942Z" fill="#E47789" style="fill:#E47789;fill:color(display-p3 0.8945 0.4663 0.5370);fill-opacity:1;"/>
<mask id="mask0_1_1462" style="mask-type:alpha" maskUnits="userSpaceOnUse" x="38" y="66" width="46" height="39">
<path d="M38.4773 84.5519L48.3071 104.252L83.6013 86.4796L73.8357 66.9086L38.4773 84.5519Z" fill="url(#paint0_linear_1_1462)" style=""/>
</mask>
<g mask="url(#mask0_1_1462)">
<path d="M43.7307 85.644C39.8983 84.0262 36.348 81.7322 33.3992 78.7878L30.5266 81.8327C33.8495 85.1524 37.7703 87.6809 42.1045 89.5088C46.4386 91.3406 51.1304 92.2916 55.8282 92.3623C59.3985 92.3949 62.972 91.915 66.407 90.9327C69.8344 89.9296 73.3442 88.3049 76.3384 86.3536C77.3172 85.7359 77.6104 84.4417 76.9927 83.4625C76.3752 82.4834 75.0071 82.237 74.0279 82.8545C71.3803 84.5805 68.2769 86.0146 65.2449 86.9039C62.2055 87.7723 59.0406 88.1971 55.8782 88.1695C51.7171 88.105 47.5631 87.2645 43.7307 85.644Z" fill="#2642CF" style="fill:#2642CF;fill:color(display-p3 0.1490 0.2588 0.8118);fill-opacity:1;"/>
</g>
<defs>
<linearGradient id="paint0_linear_1_1462" x1="76.8954" y1="79.5165" x2="54.7605" y2="90.5615" gradientUnits="userSpaceOnUse">
<stop stop-opacity="0" style="stop-color:none;stop-opacity:0;"/>
<stop offset="1" style="stop-color:black;stop-opacity:1;"/>
</linearGradient>
</defs>
</svg>
