<svg width="112" height="112" viewBox="0 0 112 112" fill="none" xmlns="http://www.w3.org/2000/svg">
<path d="M33.5677 35.4916C33.5677 22.8406 43.8235 12.5848 56.4745 12.5848C66.9106 12.5848 75.7106 19.5616 78.4771 29.1003C78.8617 30.4264 78.0985 31.8132 76.7725 32.1978C75.4464 32.5824 74.0596 31.8191 73.675 30.4931C71.5116 23.0337 64.6261 17.5848 56.4745 17.5848C46.5849 17.5848 38.5677 25.602 38.5677 35.4916V43.9069H83.5254C89.6239 43.9069 94.5678 48.8507 94.5678 54.9492V66.2998C94.5678 67.6805 93.4485 68.7998 92.0678 68.7998C90.6871 68.7998 89.5678 67.6805 89.5678 66.2998V54.9492C89.5678 51.6121 86.8625 48.9069 83.5254 48.9069H29.4237C26.0866 48.9069 23.3813 51.6121 23.3813 54.9492V88.1696C23.3813 91.5076 26.0852 94.2119 29.4214 94.2119H53.5964C54.9772 94.2119 56.0964 95.3312 56.0964 96.7119C56.0964 98.0927 54.9772 99.2119 53.5964 99.2119H29.4214C23.322 99.2119 18.3813 94.2672 18.3813 88.1696V54.9492C18.3813 48.8507 23.3252 43.9069 29.4237 43.9069H33.5677V35.4916Z" fill="#2642CF" style="fill:#2642CF;fill:color(display-p3 0.1490 0.2588 0.8118);fill-opacity:1;"/>
<path d="M62.644 64.9153C62.644 67.4818 61.077 69.6822 58.8474 70.612V77.2543C58.8474 78.5648 57.7851 79.6271 56.4746 79.6271C55.1641 79.6271 54.1017 78.5648 54.1017 77.2543V70.612C51.8722 69.6823 50.3051 67.4818 50.3051 64.9153C50.3051 61.508 53.0672 58.7458 56.4745 58.7458C59.8819 58.7458 62.644 61.508 62.644 64.9153Z" fill="#2642CF" style="fill:#2642CF;fill:color(display-p3 0.1490 0.2588 0.8118);fill-opacity:1;"/>
<path d="M62.644 64.9153C62.644 67.4818 61.077 69.6822 58.8474 70.612V77.2543C58.8474 78.5648 57.7851 79.6271 56.4746 79.6271C55.1641 79.6271 54.1017 78.5648 54.1017 77.2543V70.612C51.8722 69.6823 50.3051 67.4818 50.3051 64.9153C50.3051 61.508 53.0672 58.7458 56.4745 58.7458C59.8819 58.7458 62.644 61.508 62.644 64.9153Z" fill="#E47789" style="fill:#E47789;fill:color(display-p3 0.8945 0.4663 0.5370);fill-opacity:1;"/>
<mask id="mask0_1_14772" style="mask-type:alpha" maskUnits="userSpaceOnUse" x="29" y="49" width="66" height="51">
<rect x="29.899" y="49.7646" width="65" height="50" fill="url(#paint0_linear_1_14772)" style=""/>
</mask>
<g mask="url(#mask0_1_14772)">
<path d="M89.5678 54.9509V90.3015C89.5678 91.6822 90.6871 92.8015 92.0678 92.8015C93.4485 92.8015 94.5678 91.6822 94.5678 90.3015V54.9509H89.5678Z" fill="#2642CF" style="fill:#2642CF;fill:color(display-p3 0.1490 0.2588 0.8118);fill-opacity:1;"/>
<path d="M88.0964 96.7136C88.0964 98.0943 86.9772 99.2136 85.5964 99.2136H41.5089V94.2136H85.5964C86.9772 94.2136 88.0964 95.3329 88.0964 96.7136Z" fill="#2642CF" style="fill:#2642CF;fill:color(display-p3 0.1490 0.2588 0.8118);fill-opacity:1;"/>
</g>
<defs>
<linearGradient id="paint0_linear_1_14772" x1="70.0465" y1="78.3628" x2="87.9525" y2="97.1736" gradientUnits="userSpaceOnUse">
<stop offset="0.403031" style="stop-color:black;stop-opacity:1;"/>
<stop offset="1" stop-opacity="0" style="stop-color:none;stop-opacity:0;"/>
</linearGradient>
</defs>
</svg>
