<svg width="80" height="80" viewBox="0 0 80 80" fill="currentColor" xmlns="http://www.w3.org/2000/svg">
<path fill-rule="evenodd" clip-rule="evenodd" d="M58.8443 53.9041C57.4181 52.8422 56.4142 51.8865 55.8859 50.9838C55.3575 50.0812 55.0936 48.9132 55.0936 47.4796V34.5775C55.0936 25.2859 49.3875 20.6667 37.9757 20.6667C33.9074 20.6667 30.7378 21.2507 28.4129 22.3126C26.0884 23.4276 24.1862 24.9674 22.654 26.985L29.6811 31.9228C31.0018 30.4892 32.2696 29.4804 33.5379 28.8433C34.8057 28.2062 36.2851 27.8876 37.9757 27.8876C40.5646 27.8876 42.3607 28.4185 43.259 29.5335C44.1569 30.6485 44.6853 31.9759 44.7912 33.5687C44.7385 34.4183 44.3685 35.0023 43.7874 35.374C43.153 35.7456 42.0968 36.0111 40.5646 36.1704L36.7602 36.5421C34.119 36.8075 31.7413 37.2323 29.5751 37.8694C27.409 38.5066 25.4545 39.7277 23.8167 41.4268C22.1789 43.1789 21.3334 45.6213 21.3334 48.807C21.3334 52.3643 22.4428 55.1253 24.6618 57.0367C26.8807 59.0012 29.8395 59.9569 33.5906 59.9569C36.5491 59.9569 39.0324 59.4259 41.0401 58.3109C43.0475 57.1959 44.6325 55.8155 45.7947 54.1695C46.9042 56.5057 48.9647 58.4171 51.9763 59.9569L58.8443 53.9041ZM44.7912 45.5151C44.7912 47.4796 44.0513 49.1786 42.5719 50.506C41.0929 51.8865 38.9796 52.5767 36.2851 52.4705C34.7529 52.4705 33.5379 52.0988 32.6396 51.3555C31.7413 50.6122 31.3189 49.5503 31.3189 48.1698C31.3189 46.3646 31.9001 45.0903 33.1151 44.4532C34.3301 43.816 35.8096 43.3913 37.6057 43.232L39.9834 43.0196C42.3607 42.7541 43.9457 42.4887 44.7912 42.1701V45.5151Z" fill="currentColor"/>
</svg>
