<svg width="80" height="80" viewBox="0 0 80 80" fill="currentColor" xmlns="http://www.w3.org/2000/svg">
<path fill-rule="evenodd" clip-rule="evenodd" d="M73.3244 60.7519C73.1564 60.4999 46.8597 18.9405 45.6975 17.0782C45.2494 16.3501 44.6333 16 43.7652 16C41.4128 16.014 39.0603 16.014 36.7079 16C35.8958 16 35.2937 16.3221 34.8736 17.0082C34.4255 17.7363 7.97484 58.7496 6.57459 60.934C6.01449 61.8021 6.36455 62.6843 7.37273 62.8943C7.55476 62.9363 15.0741 62.9643 18.6727 62.9643C18.9668 62.9643 19.1068 62.8803 19.2048 62.6002C19.7369 61.102 20.465 59.7017 21.5012 58.4695C22.9995 56.6912 24.8898 55.795 27.2002 55.795C35.7418 55.781 53.0348 55.753 53.4549 55.795C56.0033 56.0331 57.5996 57.2513 58.8178 58.8196C59.686 59.9678 60.3581 61.242 60.8342 62.6002C60.9322 62.8803 61.0863 62.9643 61.3803 62.9643C63.1726 62.9503 70.3419 62.9783 72.1482 62.9503C72.6943 62.9363 73.2684 62.8943 73.5765 62.3202C73.8425 61.7461 73.6605 61.256 73.3244 60.7519ZM53.4269 52.4064C48.9461 52.4064 30.9949 52.4064 26.5001 52.4204C26.1361 52.4204 26.066 52.3364 26.1361 52.0004C26.6681 49.5079 27.6483 47.2535 29.3146 45.3072C31.0369 43.2768 33.5854 41.4285 37.5761 41.0224V38.9221H38.8783V37.4658H37.5901V35.4914H42.4489V37.4658H41.1467V38.9221H42.4489V41.0224C48.7361 41.7786 51.2985 45.9093 52.1247 47.2955C52.9648 48.7238 53.4969 50.2641 53.861 51.8744C53.959 52.4064 53.973 52.4064 53.4269 52.4064Z" fill="currentColor"/>
</svg>
