<svg width="80" height="80" viewBox="0 0 80 80" fill="none" xmlns="http://www.w3.org/2000/svg">
<path d="M68.6666 21.0836V23.5022L43.169 19.1401L34.1187 23.5022V20.9973L43.2705 16.1745L68.6666 21.0836Z" fill="currentColor"/>
<path d="M68.6666 28.7569V31.8089L43.169 28.0514L34.1187 31.6505V28.7569L43.2705 25.0858L68.6666 28.7569Z" fill="currentColor"/>
<path d="M43.2271 34.0548L68.6667 37.0348V39.6549L43.2561 36.8477L37.1935 38.748L37.1935 38.9927L18.2515 36.1278L11.3333 39.151V37.0348L18.2515 33.81L35.366 36.6173L43.2271 34.0548Z" fill="currentColor"/>
<path d="M68.6666 44.7944L43.227 43.0092L37.3095 43.9018V47.0402L43.1255 46.0469L68.6666 47.5729V44.7944Z" fill="currentColor"/>
<path d="M68.6666 55.3181V52.5972L43.227 51.8054L37.1064 52.2805V54.675L18.2225 53.7777L11.3333 54.6415V57.0313L18.2225 56.1531L37.3095 56.7865V55.3094L43.169 55.059L68.6666 55.3181Z" fill="currentColor"/>
<path d="M68.6666 60.5296V63.1497L43.14 63.8551L37.1064 63.3945V62.8186H18.2225L11.3333 62.6602V60.5296H18.3096L37.1064 60.7023L43.256 60.7743L68.6666 60.5296Z" fill="currentColor"/>
<path d="M37.3095 43.1964V45.4567L18.2225 43.0093L11.3333 45.4567V43.1676L18.3096 40.5187L37.3095 43.1964Z" fill="currentColor"/>
<path d="M37.3095 51.0424V48.7678L18.2661 47.1266L11.3333 48.7678V51.0424L18.1935 49.502L37.3095 51.0424Z" fill="currentColor"/>
</svg>
