<svg width="80" height="80" viewBox="0 0 80 80" fill="none" xmlns="http://www.w3.org/2000/svg">
<path fill-rule="evenodd" clip-rule="evenodd" d="M44.438 36.8125L47.6286 38.4635C51.046 40.1896 51.424 42.8612 51.424 43.9419C51.424 47.7092 48.4602 50.5759 44.5136 50.5759C42.7445 50.5759 40.9148 49.9905 39.191 48.8649C38.7374 49.3902 38.4803 49.9155 38.3896 50.4558C38.3896 50.5309 38.314 50.5909 38.2535 50.5909H37.3916C37.316 50.5909 37.2555 50.5159 37.2555 50.4408V43.3115H29.1506C29.075 43.3115 29.0145 43.2514 29.0145 43.1764V42.2308C29.0145 42.1558 29.075 42.0957 29.1506 42.0957C32.2655 42.0957 32.7797 41.3303 32.7797 36.6925V29.1129C32.7797 24.5051 32.2655 23.7546 29.1506 23.7546C29.075 23.7546 29.0145 23.6796 29.0145 23.6045V22.659C29.0145 22.5839 29.075 22.5089 29.1506 22.5089H39.0247C43.7425 22.5089 46.7969 24.8803 46.7969 28.5275C46.7969 28.6776 46.7969 28.8277 46.7818 28.9628C47.2203 29.1579 47.5983 29.383 47.9159 29.5932C48.1427 29.323 48.4451 28.9328 48.5207 28.3024C48.5207 28.2273 48.5812 28.1823 48.6568 28.1823H49.6095C49.6851 28.1823 49.7455 28.2423 49.7455 28.3174V36.3172C49.7455 36.4073 49.6851 36.4673 49.6095 36.4673H48.6568C48.5812 36.4673 48.5207 36.4073 48.5207 36.3473C48.3846 35.0265 47.9008 32.4149 46.177 31.0941C45.2697 32.8051 43.3947 33.9758 40.8997 34.3661H40.8543C41.4592 35.1615 42.6084 35.867 44.438 36.8125ZM40.4309 32.2498C40.6729 31.2892 41.4894 30.6888 42.4269 30.4187C42.064 31.2292 41.4289 31.9196 40.4309 32.2498ZM39.0398 24.5051H36.4692V32.4599H37.4823C38.072 30.1635 40.1588 28.4675 42.805 28.2423C42.7142 26.3812 41.686 24.5051 39.0398 24.5051ZM38.6466 43.2965C39.312 46.5234 41.5953 48.4296 44.8917 48.4296C46.9935 48.4296 48.4149 47.2139 48.43 45.3978C48.43 43.8968 47.2506 42.6211 44.6044 41.3153L41.3533 39.6643C39.0096 38.4485 37.6184 36.6324 37.3614 34.4861H36.4541V36.6625C36.4541 41.3003 36.9682 42.0657 40.0832 42.0657C40.1588 42.0657 40.2192 42.1258 40.2192 42.2008V43.1614C40.2192 43.2364 40.1588 43.2965 40.0832 43.2965H38.6466Z" fill="currentColor"/>
<path fill-rule="evenodd" clip-rule="evenodd" d="M17.205 45.1276V10.6667H62.7951L62.78 45.2927C62.16 50.771 59.6953 54.2381 55.3404 58.7258C51.1367 63.0635 46.056 66.3054 40.6578 68.0915L39.9925 68.3166L39.3271 68.0915C33.9591 66.3204 28.8785 63.0785 24.6597 58.7258C20.3048 54.2381 17.8249 50.6059 17.205 45.1276ZM54.4331 57.8703C58.5914 53.5777 60.9503 50.2907 61.5249 45.1126H61.5401V11.9275H18.4751V45.1876C19.0497 50.3057 21.4086 53.5927 25.5669 57.8703C28.4097 60.7971 33.1728 64.7445 39.7354 66.9208L39.9925 67.0108L40.2495 66.9208C45.3756 65.2248 50.4109 62.0128 54.4331 57.8703Z" fill="currentColor"/>
</svg>
