<svg width="120" height="120" viewBox="0 0 120 120" fill="none" xmlns="http://www.w3.org/2000/svg">
<path d="M27.6133 1.72559H92.3867C106.684 1.72559 118.274 13.3162 118.274 27.6133V92.3867C118.274 106.684 106.684 118.274 92.3867 118.274H27.6133C13.3162 118.274 1.72559 106.684 1.72559 92.3867V27.6133C1.72559 13.3162 13.3162 1.72559 27.6133 1.72559Z" stroke="url(#paint0_linear_5822_1766)" stroke-width="3.45161"/>
<path d="M59.9999 51.1975C64.8607 51.1975 68.8004 55.1378 68.8009 59.9984C68.8005 64.859 64.8607 68.7993 59.9999 68.7993C55.1392 68.7993 51.1994 64.859 51.199 59.9984C51.1994 55.1378 55.1392 51.1975 59.9999 51.1975Z" fill="url(#paint1_linear_5822_1766)"/>
<path fill-rule="evenodd" clip-rule="evenodd" d="M72.0738 25.2396C74.81 24.3544 77.543 24.2938 79.8467 25.6238C82.1501 26.9539 83.4654 29.3511 84.0669 32.163C84.6681 34.9751 84.6073 38.395 84.0062 42.1471C83.7734 43.5997 83.4522 45.1161 83.0556 46.6841C84.6133 47.1249 86.0856 47.6117 87.4612 48.1369C91.0116 49.4925 94.006 51.1479 96.1408 53.0749C98.275 55.0017 99.6932 57.3389 99.6935 59.9984C99.6932 62.6578 98.2747 64.9952 96.1408 66.9218C94.006 68.8488 91.0116 70.5077 87.4612 71.8633C86.0862 72.3882 84.6126 72.8687 83.0556 73.3094C83.4526 74.8786 83.7732 76.3961 84.0062 77.8497C84.6073 81.6022 84.6684 85.025 84.0669 87.8371C83.4652 90.6485 82.1499 93.0466 79.8467 94.3763C77.5434 95.7057 74.8094 95.6455 72.0738 94.7606C69.3378 93.8755 66.4073 92.1113 63.4583 89.7146C62.3161 88.7863 61.1602 87.7518 59.9999 86.6237C58.8397 87.7518 57.6838 88.7863 56.5416 89.7146C53.5925 92.1113 50.6621 93.8755 47.926 94.7606C45.1904 95.6455 42.4565 95.7057 40.1532 94.3763C37.85 93.0466 36.5347 90.6485 35.933 87.8371C35.3315 85.025 35.3926 81.6022 35.9937 77.8497C36.2266 76.3963 36.544 74.8783 36.9409 73.3094C35.3851 72.8689 33.9128 72.3879 32.5387 71.8633C28.9883 70.5077 25.9939 68.8488 23.8591 66.9218C21.7252 64.9952 20.3067 62.6578 20.3064 59.9984C20.3067 57.3389 21.7249 55.0017 23.8591 53.0749C25.9939 51.1479 28.9882 49.4925 32.5387 48.1369C33.9134 47.612 35.3843 47.1247 36.9409 46.6841C36.5444 45.1164 36.2264 43.5994 35.9937 42.1471C35.3926 38.395 35.3318 34.9751 35.933 32.163C36.5345 29.3511 37.8498 26.9539 40.1532 25.6238C42.4568 24.2938 45.1899 24.3544 47.926 25.2396C50.6622 26.1249 53.5924 27.8886 56.5416 30.2855C57.6835 31.2136 58.84 32.2454 59.9999 33.3731C61.1599 32.2454 62.3164 31.2136 63.4583 30.2855C66.4075 27.8886 69.3377 26.1249 72.0738 25.2396ZM40.288 74.1588C39.9157 75.6306 39.6176 77.0471 39.4015 78.3958C38.8395 81.9038 38.8263 84.8631 39.3071 87.1124C39.7884 89.362 40.7159 90.715 41.879 91.3865C43.0421 92.0577 44.6757 92.1821 46.8643 91.4741C49.0528 90.7659 51.6069 89.2757 54.3641 87.0349C55.4239 86.1736 56.5015 85.2077 57.5899 84.1496C55.3168 81.6906 53.0547 78.8854 50.872 75.8003C47.1107 75.4525 43.5526 74.8976 40.288 74.1588ZM79.7085 74.1588C76.4438 74.8975 72.8858 75.4526 69.1245 75.8003C66.9417 78.8855 64.6798 81.6906 62.4066 84.1496C63.4956 85.2083 64.5754 86.1731 65.6358 87.0349C68.393 89.2757 70.9471 90.7659 73.1356 91.4741C75.3242 92.1821 76.9578 92.0577 78.1209 91.3865C79.284 90.715 80.2115 89.362 80.6928 87.1124C81.1736 84.8631 81.1604 81.9038 80.5984 78.3958C80.3822 77.0468 80.0809 75.6309 79.7085 74.1588ZM64.6178 76.1138C63.102 76.1828 61.5611 76.2217 59.9999 76.2217C58.4377 76.2217 56.8956 76.1829 55.3787 76.1138C56.9046 78.1278 58.4551 79.9846 59.9999 81.6654C61.5444 79.9851 63.0923 78.1271 64.6178 76.1138ZM59.9999 47.2268C57.5254 47.2268 55.1114 47.3185 52.7799 47.493C51.4629 49.4249 50.1779 51.4713 48.9406 53.6143C47.7039 55.7564 46.5774 57.8928 45.5632 59.9984C46.5776 62.1044 47.7036 64.2433 48.9406 66.3859C50.1769 68.5272 51.464 70.5699 52.7799 72.5004C55.1115 72.675 57.5253 72.77 59.9999 72.77C62.4734 72.77 64.8861 72.6748 67.2166 72.5004C68.5329 70.5695 69.8226 68.5277 71.0593 66.3859C72.296 64.2438 73.4191 62.104 74.4334 59.9984C73.4193 57.8932 72.2957 55.7559 71.0593 53.6143C69.8217 51.4707 68.534 49.4253 67.2166 47.493C64.8862 47.3186 62.4733 47.2268 59.9999 47.2268ZM43.7329 64.05C42.7511 66.3797 41.9186 68.6526 41.2352 70.8319C43.4633 71.3295 45.8468 71.7409 48.3541 72.0554C47.5367 70.7776 46.7311 69.4632 45.9508 68.1117C45.1691 66.7577 44.432 65.3993 43.7329 64.05ZM76.2636 64.05C75.5647 65.3988 74.8306 66.7581 74.0491 68.1117C73.2684 69.4638 72.4601 70.7771 71.6424 72.0554C74.1498 71.741 76.5331 71.3294 78.7613 70.8319C78.0778 68.6525 77.2455 66.3797 76.2636 64.05ZM37.8813 50.0042C36.42 50.4178 35.0455 50.8719 33.769 51.3593C30.449 52.6269 27.8791 54.0951 26.1714 55.6367C24.4642 57.178 23.7583 58.6556 23.758 59.9984C23.7583 61.3411 24.4645 62.8189 26.1714 64.3601C27.8792 65.9016 30.4491 67.3699 33.769 68.6375C35.0453 69.1248 36.4203 69.5756 37.8813 69.9892C38.874 66.7918 40.1709 63.4305 41.7509 59.9984C40.1705 56.5652 38.8741 53.2026 37.8813 50.0042ZM82.1152 50.0042C81.1223 53.2027 79.8262 56.565 78.2456 59.9984C79.8257 63.4306 81.1224 66.7917 82.1152 69.9892C83.5774 69.5754 84.9537 69.1251 86.2309 68.6375C89.5508 67.3699 92.1207 65.9016 93.8284 64.3601C95.5354 62.8189 96.2416 61.3411 96.2419 59.9984C96.2416 58.6556 95.5357 57.178 93.8284 55.6367C92.1208 54.0951 89.5509 52.6269 86.2309 51.3593C84.9535 50.8716 83.5777 50.4181 82.1152 50.0042ZM48.3541 47.938C45.8469 48.2525 43.4632 48.664 41.2352 49.1615C41.9185 51.3409 42.7512 53.6137 43.7329 55.9434C44.4313 54.5956 45.1699 53.241 45.9508 51.8885C46.732 50.5354 47.5358 49.2172 48.3541 47.938ZM71.6424 47.938C72.4611 49.2177 73.2676 50.5348 74.0491 51.8885C74.8297 53.2406 75.5654 54.596 76.2636 55.9434C77.2454 53.6136 78.078 51.341 78.7613 49.1615C76.5332 48.6641 74.1496 48.2524 71.6424 47.938ZM46.8643 28.5227C44.6751 27.8144 43.0422 27.9421 41.879 28.6137C40.7161 29.2854 39.7883 30.6348 39.3071 32.8844C38.8261 35.1339 38.8394 38.0925 39.4015 41.601C39.6176 42.9496 39.9158 44.3663 40.288 45.838C43.5536 45.099 47.1128 44.5409 50.8754 44.1931C53.0578 41.1089 55.3206 38.3055 57.5933 35.8472C56.5046 34.7888 55.4242 33.8235 54.3641 32.9619C51.6069 30.7212 49.0527 29.2308 46.8643 28.5227ZM78.1209 28.6137C76.9577 27.9421 75.3248 27.8144 73.1356 28.5227C70.9472 29.2308 68.393 30.7212 65.6358 32.9619C64.5751 33.8239 63.4925 34.7881 62.4033 35.8472C64.676 38.3055 66.9386 41.1088 69.1211 44.1931C72.8837 44.5408 76.4428 45.0991 79.7085 45.838C80.0808 44.3661 80.3823 42.9499 80.5984 41.601C81.1605 38.0925 81.1737 35.1339 80.6928 32.8844C80.2116 30.6348 79.2838 29.2854 78.1209 28.6137ZM59.9999 38.3314C58.4551 40.0121 56.9046 41.8691 55.3787 43.883C56.8956 43.8139 58.4377 43.7751 59.9999 43.7751C61.561 43.7751 63.102 43.814 64.6178 43.883C63.0923 41.8697 61.5444 40.0117 59.9999 38.3314Z" fill="url(#paint2_linear_5822_1766)"/>
<defs>
<linearGradient id="paint0_linear_5822_1766" x1="102.581" y1="9.67742" x2="-50.3226" y2="162.581" gradientUnits="userSpaceOnUse">
<stop stop-color="#61DAFB"/>
<stop offset="1" stop-color="#61DAFB" stop-opacity="0"/>
</linearGradient>
<linearGradient id="paint1_linear_5822_1766" x1="78.9838" y1="34.1129" x2="-41.8224" y2="146.29" gradientUnits="userSpaceOnUse">
<stop stop-color="#61DAFB"/>
<stop offset="0.714674" stop-color="#61DAFB" stop-opacity="0"/>
</linearGradient>
<linearGradient id="paint2_linear_5822_1766" x1="78.9838" y1="34.1129" x2="-41.8224" y2="146.29" gradientUnits="userSpaceOnUse">
<stop stop-color="#61DAFB"/>
<stop offset="0.714674" stop-color="#61DAFB" stop-opacity="0"/>
</linearGradient>
</defs>
</svg>
