<svg width="40" height="40" viewBox="0 0 40 40" fill="none" xmlns="http://www.w3.org/2000/svg">
<path d="M32.3433 23.9038C31.3336 23.3768 30.0946 23.5346 29.2414 24.2712C29.3341 23.7281 29.4087 23.0901 29.0703 22.6097C28.8229 22.5541 28.9776 23.1976 28.9685 23.3732C28.9248 24.1798 28.4736 25.0527 28.0606 25.7338C28.017 25.8055 27.9933 25.9166 27.8914 25.9309C28.1425 23.8859 27.7877 21.8641 26.9363 19.9947C26.5506 19.1451 25.9248 18.3636 25.5646 17.5589C25.2917 16.9495 25.0479 16.039 24.875 15.3812C24.442 13.7322 24.0545 11.8467 24.855 10.2515C23.5961 10.549 22.9338 11.6334 22.9666 12.8737L23.3377 14.9671L20.2158 11.4667L20.1339 5.53401C19.9174 5.50713 19.8847 5.56807 19.861 5.76343C19.7228 6.94459 19.861 8.48422 19.8665 9.69047C19.8683 10.1135 19.6828 10.6028 19.8629 11.0491C19.4062 10.6064 18.9623 10.135 18.5475 9.65462C17.2285 8.13112 16.1588 6.71696 16.499 4.57869C17.0757 0.947399 21.9387 0.692886 23.154 4.05533C23.738 5.67203 23.2631 8.60968 21.3492 9.1904C21.4347 9.31049 21.6858 9.43954 21.8222 9.48793C23.2577 9.98262 25.0733 8.39819 25.2753 7.0127C26.7253 6.73489 27.8223 5.63797 28.0916 4.20768C25.8065 6.32265 25.2516 3.83308 24.08 2.47986C20.9708 -1.11559 14.5742 0.671378 13.7482 5.3261C12.9332 9.92347 17.063 13.1945 19.761 16.3024C19.7919 17.4334 19.9484 19.0214 18.986 19.8208C19.5008 19.9929 19.8701 20.6471 19.9302 21.1507C20.1067 21.1812 20.0339 21.1256 20.0703 21.0557C20.3231 20.5718 20.4942 20.0897 21.0072 19.7886C20.8489 19.6559 20.6561 19.5645 20.5469 19.3799C20.2649 18.9085 20.1703 17.4926 20.1994 16.9298C20.2031 16.8545 20.1558 16.7469 20.2667 16.7649C20.627 17.3169 21.1473 17.7865 21.5839 18.2919C24.0818 21.1776 26.4433 24.2515 25.4827 28.313C23.8872 35.054 14.0975 33.785 14.4686 27.1623C14.6051 24.7211 16.5008 22.1885 19.2407 23.0578C21.5021 23.7747 21.1437 27.0888 19.2225 26.9311C18.4948 26.8719 18.0236 26.0331 18.9223 25.8987C19.0515 25.1996 17.7707 25.1584 17.6451 26.1066C17.485 27.3039 18.522 27.8236 19.5954 27.6623C18.8441 28.4277 18.442 30.1071 19.2916 30.9172C19.9593 31.5517 21.2983 31.0767 20.5724 30.1877C20.5415 30.4656 20.2158 30.5749 19.9757 30.444C19.761 30.3258 19.69 30.1161 19.6627 29.8884C19.4462 28.0495 21.4748 27.3845 21.9078 25.7875C22.8665 22.2423 18.2783 20.3782 15.5511 22.0146C15.9987 21.0683 16.6591 20.2008 17.0921 19.2473C17.6251 18.0751 17.9235 16.5713 17.0011 15.503C16.2788 14.6678 14.7652 14.4491 14.032 15.3686C13.5299 16.0013 13.6318 17.0212 14.5396 17.0964C13.6518 15.5299 15.8768 14.9725 16.4408 16.453C17.0193 17.9729 15.7494 19.88 15.1145 21.2171L14.2703 22.6778V21.3819C14.2703 21.3246 14.0593 20.7331 14.012 20.6399C13.619 19.8477 12.7822 19.7688 11.9762 19.8226C12.2418 20.0682 12.4711 20.3478 12.6311 20.6722C13.448 22.3301 12.5293 23.6654 12.3219 25.3126C12.2837 25.6155 12.2455 25.9811 12.3128 26.2679C12.2291 26.2625 12.2036 26.1729 12.1654 26.1155C11.9507 25.7822 11.0993 24.2103 11.0993 23.9109V22.6151L10.8919 22.6545C10.6954 23.1886 10.6063 23.7335 10.83 24.2748L9.87309 23.7245C7.62444 23.0381 5.71599 25.1638 6.52922 27.2841C7.14778 28.8973 9.81851 28.9815 9.81851 27.3648C9.81851 26.3969 8.51771 26.1908 8.8179 27.1891C9.65477 27.2053 9.28364 28.0692 8.62141 28.1803C6.3764 28.5585 6.22721 24.8824 8.38854 24.2963C11.2121 23.531 12.0381 27.8702 12.9768 29.5694C13.3898 30.3168 13.9538 30.9674 14.5396 31.584C13.1406 30.9423 11.5596 29.7522 9.93495 30.3365C8.18842 30.9656 8.57593 33.4444 10.2533 33.3799C10.8118 33.3584 11.4777 32.7472 10.9228 32.3887C10.397 32.0482 10.4134 32.8637 10.3479 32.9049C8.73603 32.9838 8.98345 30.9907 10.397 30.729C11.9689 30.4369 14.9198 32.4748 16.4753 33.0985C17.5524 33.5305 18.6348 33.7115 19.7937 33.7814C19.7992 34.4732 19.5481 35.1418 19.1552 35.7046C18.3492 34.5897 16.1897 32.706 14.7725 33.7778C14.1412 34.2546 14.052 35.2691 14.7816 35.6938C15.24 35.9609 15.975 35.6956 15.7149 35.1723C15.4856 34.7116 15.2437 35.4411 15.12 35.4304C14.5451 35.1902 14.5614 34.6256 14.9417 34.208C15.6858 33.3925 17.1012 34.3711 17.7379 34.907C17.9308 35.0683 18.8695 35.986 18.9096 36.1491C18.9459 36.2961 18.5985 36.9718 18.5875 37.2747C18.5621 37.9719 19.6173 38.8394 19.9666 39.4237C20.0666 39.4506 20.0775 39.3574 20.123 39.3126C20.3759 39.0652 21.291 37.9146 21.3692 37.6188C21.5494 36.9377 21.2237 36.8141 21.1054 36.3014C21.0691 36.1473 21.4548 35.7153 21.5821 35.5702C22.2061 34.8604 23.3996 33.7868 24.4166 33.9087C25.2935 34.0144 25.6719 35.2906 24.9496 35.4375C24.6622 35.4967 24.7513 34.916 24.3802 35.0683C24.0236 35.3999 24.3638 35.787 24.7586 35.8336C25.8811 35.9663 26.1795 34.07 24.8223 33.5735C23.536 33.1021 22.2134 34.1739 21.3783 35.0378C21.2128 35.2081 21.04 35.4931 20.8799 35.6598C20.8271 35.7153 20.8344 35.7207 20.7398 35.7028C20.4905 35.0862 20.1103 34.4786 20.2067 33.7832C20.6725 33.6792 21.16 33.7007 21.6312 33.6255C22.7192 33.4516 23.8235 32.9713 24.8095 32.5052C26.1558 31.869 28.017 30.5229 29.5343 30.7272C30.8405 30.9029 31.3627 33.0806 29.6507 32.9049C29.567 31.7543 28.4682 32.559 29.0667 33.1147C29.6143 33.6219 30.5876 33.3548 30.9497 32.7759C31.5792 31.7722 30.9751 30.557 29.8563 30.2774C28.2098 29.8651 26.8708 30.9907 25.459 31.5858C25.9612 31.0481 26.4778 30.5122 26.8617 29.8795C27.9023 28.166 28.6683 23.816 31.3972 24.2425C33.8606 24.6261 33.7514 28.4904 31.5009 28.1929C31.0788 28.1373 30.6477 27.8416 30.7314 27.3827C30.8005 27.1515 31.0552 27.2465 31.1916 27.1694C31.5118 26.9884 31.1771 26.4202 30.7168 26.5672C29.8399 26.8468 30.1674 28.4295 31.359 28.5334C34.0752 28.7736 34.4627 25.0204 32.3414 23.9127L32.3433 23.9038ZM20.8635 37.4414C20.7962 37.6242 20.0921 38.5849 19.9684 38.5544C19.539 37.9414 18.824 37.5274 19.2607 36.694L20.0684 37.6905L20.7434 36.694C20.8307 37.0094 20.9908 37.1026 20.8653 37.4414H20.8635ZM20.4632 36.1831L20.0357 36.8266L19.5408 36.0756C19.7191 35.8802 19.7846 35.5899 19.9193 35.3856C19.9611 35.321 19.912 35.2673 20.0703 35.2995L20.4651 36.1849L20.4632 36.1831Z" fill="black" style="fill:black;fill-opacity:1;"/>
<path d="M13.799 12.5418C13.8809 12.6278 13.9701 12.764 14.0992 12.7766C14.4103 12.712 13.87 12.1152 13.7936 12.0148C12.4018 10.1741 10.4552 7.67376 8.87239 6.03376C8.79779 5.95669 8.44849 5.54983 8.33569 5.66633L8.39937 5.96745C10.3406 7.95516 11.9052 10.5559 13.799 12.54V12.5418Z" fill="black" style="fill:black;fill-opacity:1;"/>
<path d="M26.0721 12.6779C27.0054 11.4967 27.9496 10.3209 28.9048 9.15769C29.7198 8.16473 30.9442 6.94235 31.6301 5.92968C31.6665 5.87591 31.7738 5.7146 31.7356 5.668C31.7283 5.65903 31.5355 5.59809 31.4991 5.66083L25.781 12.5291C25.7155 12.7782 25.8793 12.8804 26.0703 12.6761L26.0721 12.6779Z" fill="black" style="fill:black;fill-opacity:1;"/>
<path d="M5.64311 9.21858L5.46655 9.46875L12.6843 14.4127L12.8608 14.1626L5.64311 9.21858Z" fill="black" style="fill:black;fill-opacity:1;"/>
<path d="M27.4546 14.3113L34.5663 9.45223C34.5644 9.18875 34.3279 9.22639 34.166 9.35903C32.0847 10.9363 29.6469 12.2537 27.5983 13.8506C27.4018 14.0048 26.8852 14.3328 27.4528 14.3113H27.4546Z" fill="black" style="fill:black;fill-opacity:1;"/>
<path d="M3.76065 13.2443L3.6582 13.5356L11.6191 16.253L11.7215 15.9617L3.76065 13.2443Z" fill="black" style="fill:black;fill-opacity:1;"/>
<path d="M36.2832 13.1982L28.2778 15.9478L28.3832 16.2456L36.3886 13.4961L36.2832 13.1982Z" fill="black" style="fill:black;fill-opacity:1;"/>
<path d="M2.87329 17.6776L2.86426 18.0342L11.1631 18.2383L11.1722 17.8817L2.87329 17.6776Z" fill="black" style="fill:black;fill-opacity:1;"/>
<path d="M11.3196 20.0212L3.44189 22.2495L3.53026 22.5527L11.4079 20.3244L11.3196 20.0212Z" fill="black" style="fill:black;fill-opacity:1;"/>
<path d="M28.7256 20.0593L28.6394 20.3594L36.499 22.5519L36.5853 22.2519L28.7256 20.0593Z" fill="black" style="fill:black;fill-opacity:1;"/>
<path d="M37.1283 17.6998L28.8286 17.8696L28.836 18.2209L37.1357 18.051L37.1283 17.6998Z" fill="black" style="fill:black;fill-opacity:1;"/>
<path d="M23.0702 28.6552C24.5093 27.4651 24.8404 24.6099 23.6761 23.1401C23.7452 23.7442 23.9381 24.3589 23.9799 24.9683C24.0727 26.3449 23.5869 27.6569 22.8337 28.7878C22.9611 28.8165 22.9938 28.7179 23.0702 28.6552Z" fill="black" style="fill:black;fill-opacity:1;"/>
<path d="M17.0665 30.3834C17.1429 30.4444 17.1757 30.5447 17.303 30.5161L16.3606 28.79C16.3206 29.3833 16.6081 30.0106 17.0683 30.3834H17.0665Z" fill="black" style="fill:black;fill-opacity:1;"/>
</svg>
